<svg xmlns="http://www.w3.org/2000/svg" xmlns:xlink="http://www.w3.org/1999/xlink" width="67" height="13.662" viewBox="0 0 67 13.662">
  <defs>
    <clipPath id="clip-path">
      <rect id="Rectangle_380" data-name="Rectangle 380" width="67" height="13.662" fill="none"/>
    </clipPath>
  </defs>
  <g id="Group_271" data-name="Group 271" clip-path="url(#clip-path)">
    <path id="Path_2102" data-name="Path 2102" d="M62.385.25H40.826a6.621,6.621,0,0,1-6.606,6.2H32.95a6.614,6.614,0,0,1-6.6-6.2H4.786A4.534,4.534,0,0,0,.25,4.786V9.04a4.534,4.534,0,0,0,4.536,4.536H62.378A4.534,4.534,0,0,0,66.914,9.04V4.786A4.524,4.524,0,0,0,62.385.25Z" transform="translate(-0.082 -0.082)" fill="none" stroke="#000" stroke-miterlimit="10" stroke-width="0.5"/>
    <path id="Path_2103" data-name="Path 2103" d="M7.811,13.414a2.856,2.856,0,1,0-.833,2.023,2.861,2.861,0,0,0,.833-2.023M3.027,15.443c.773-.04.961-.054,1.075-.06l-.249.6a2.848,2.848,0,0,1-.827-.544m-.1-.1a2.718,2.718,0,0,1-.544-.827c.336-.141.175-.074.6-.249-.027.511-.034.564-.06,1.075m4.8-1.929c-.309.282-.524.47-.84.753-.087-.155-.282-.517-.41-.753.2-.376.188-.343.41-.753.5.45.517.47.84.753M5.963,12.3c-.329-.134-.612-.255-.934-.39l.706-.383Zm.027.074c.363.88.269.652.43,1.035-.161.383-.067.155-.43,1.035-.88.363-.652.269-1.035.43-.383-.161-.155-.067-1.035-.43-.363-.88-.269-.652-.43-1.035.161-.383.067-.155.43-1.035.6-.249.477-.195,1.035-.43.551.235.423.181,1.035.43m-.027,2.15-.228.773-.706-.383c.349-.148.6-.249.934-.39M3.45,13.347l-.383-.706.773-.228c-.141.323-.242.578-.39.934m.39,1.082L3.067,14.2l.383-.706c.148.349.249.6.39.934m.329-2.9.706.383c-.551.228-.363.148-.934.39.282-.954.188-.645.228-.773m0,3.77c-.034-.121,0-.007-.228-.773.578.235.363.148.934.39-.423.235-.269.148-.706.383m2.668-1.1-.773.228c.134-.329.255-.612.39-.934.134.242.235.423.383.706m-.383-.853c-.054-.134-.309-.746-.39-.941.195.06.578.168.773.228-.228.423-.242.444-.383.712m.4-.773-.82-.242-.242-.82,1.122-.06c-.034.551-.027.511-.06,1.122m-3.441.84-.41.753-.84-.753.84-.753Zm.45,1.089c.188.632.054.188.242.82l-1.122.06.06-1.122Zm1.082.45.753.41-.753.84L4.2,15.356Zm1.089-.45.82-.242c.034.6.034.585.06,1.122L5.8,15.322Zm.88-1.935.06-1.075a2.848,2.848,0,0,1,.544.827ZM5.7,11.478c-.4.215-.363.195-.753.41-1.216-.659-.531-.3-.753-.41.255-.282.45-.5.753-.84.37.4.155.168.753.84m-1.593.034-.242.82-.82.242-.06-1.122c.4.02.7.04,1.122.06M2.986,12.567c-.43-.175-.269-.114-.6-.249a2.848,2.848,0,0,1,.544-.827c.027.511.034.558.06,1.075M4.162,15.41c.316.349.591.659.719.8a2.652,2.652,0,0,1-.968-.2Zm2.755-1.142.6.249a2.848,2.848,0,0,1-.544.827Zm.632.188c-.222-.094-.376-.155-.6-.249.276-.249.309-.276.806-.719a2.962,2.962,0,0,1-.2.968m-.6-1.828c.228-.094.383-.155.6-.249a2.962,2.962,0,0,1,.2.968c-.249-.222-.571-.5-.806-.719M5.8,11.451c.04-.1.155-.37.249-.6a2.848,2.848,0,0,1,.827.544Zm.188-.632c-.094.222-.155.376-.249.6-.249-.276-.276-.309-.719-.806a2.962,2.962,0,0,1,.968.2m-1.828.6-.249-.6a2.962,2.962,0,0,1,.968-.2Zm-.309-.578.249.6c-.269-.013-.8-.047-1.075-.06a2.718,2.718,0,0,1,.827-.544m-1.5,1.532.6.249c-.37.336-.417.376-.8.719a2.76,2.76,0,0,1,.195-.968m.6,1.828-.6.249a2.962,2.962,0,0,1-.2-.968c.343.3.417.37.806.719m2.782,1.2.249.6a2.962,2.962,0,0,1-.968.2c.645-.726.511-.578.719-.806m.309.578-.249-.6c.228.013.739.04,1.075.06a2.848,2.848,0,0,1-.827.544" transform="translate(-0.688 -3.461)" fill="#09090a"/>
    <path id="Path_2104" data-name="Path 2104" d="M18.621,13.414a2.856,2.856,0,1,0-.833,2.023,2.861,2.861,0,0,0,.833-2.023m-4.785,2.029c.773-.04.961-.054,1.075-.06l-.249.6a2.94,2.94,0,0,1-.827-.544m-.1-.1a2.718,2.718,0,0,1-.544-.827c.336-.141.175-.074.6-.249-.027.511-.027.564-.06,1.075m4.8-1.929c-.309.282-.524.47-.84.753-.087-.155-.282-.517-.41-.753.2-.376.188-.343.41-.753.5.45.524.47.84.753M16.773,12.3c-.329-.134-.612-.255-.934-.39l.706-.383Zm.027.074c.363.88.269.652.43,1.035-.161.383-.067.155-.43,1.035-.88.363-.652.269-1.035.43-.383-.161-.155-.067-1.035-.43-.363-.88-.269-.652-.43-1.035.161-.383.067-.155.43-1.035.6-.249.477-.195,1.035-.43.558.235.43.181,1.035.43m-.027,2.15-.228.773-.706-.383c.356-.148.6-.249.934-.39M14.26,13.347l-.383-.706.773-.228c-.134.323-.242.578-.39.934m.39,1.082-.773-.228.383-.706c.148.349.255.6.39.934m.336-2.9.706.383c-.551.228-.363.148-.934.39.276-.954.188-.645.228-.773m0,3.77c-.034-.121,0-.007-.228-.773.578.235.363.148.934.39-.43.235-.276.148-.706.383m2.668-1.1-.773.228c.134-.329.255-.612.39-.934.128.242.228.423.383.706m-.39-.853c-.054-.134-.309-.739-.39-.934.195.06.578.168.773.228-.228.417-.235.437-.383.706m.4-.773-.82-.242-.242-.82,1.122-.06c-.027.551-.027.511-.06,1.122m-3.434.84-.41.753-.84-.753.84-.753Zm.45,1.089c.188.632.054.188.242.82l-1.122.06.06-1.122Zm1.082.45.753.41-.753.84-.753-.84Zm1.082-.45.82-.242c.034.6.034.585.06,1.122l-1.122-.06Zm.88-1.935.06-1.075a2.848,2.848,0,0,1,.544.827Zm-1.21-1.089c-.4.215-.363.195-.753.41-1.216-.659-.531-.3-.753-.41.255-.282.45-.5.753-.84.363.4.155.168.753.84m-1.593.034-.242.82-.82.242-.06-1.122c.39.02.692.04,1.122.06M13.8,12.567c-.43-.175-.269-.114-.6-.249a2.848,2.848,0,0,1,.544-.827c.034.511.034.558.06,1.075m1.176,2.843c.316.349.591.659.719.8a2.652,2.652,0,0,1-.968-.2Zm2.755-1.142.6.249a2.848,2.848,0,0,1-.544.827Zm.632.188c-.222-.094-.376-.155-.6-.249.276-.249.309-.276.806-.719a2.962,2.962,0,0,1-.2.968m-.6-1.828c.228-.094.383-.155.6-.249a2.962,2.962,0,0,1,.2.968l-.806-.719m-1.142-1.176c.04-.1.155-.37.249-.6a2.848,2.848,0,0,1,.827.544Zm.195-.632c-.094.222-.155.376-.249.6-.249-.276-.276-.309-.719-.806a3,3,0,0,1,.968.2m-1.835.6-.249-.6a2.962,2.962,0,0,1,.968-.2Zm-.309-.578.249.6c-.269-.013-.8-.047-1.075-.06a2.8,2.8,0,0,1,.827-.544m-1.492,1.532.6.249c-.37.336-.417.376-.8.719a2.489,2.489,0,0,1,.195-.968m.6,1.828-.6.249a2.962,2.962,0,0,1-.2-.968c.336.3.417.37.806.719m2.782,1.2.249.6a2.962,2.962,0,0,1-.968.2c.645-.726.511-.578.719-.806m.3.578-.249-.6c.228.013.739.04,1.075.06a2.848,2.848,0,0,1-.827.544" transform="translate(-4.233 -3.461)" fill="#09090a"/>
    <path id="Path_2105" data-name="Path 2105" d="M29.431,13.414a2.856,2.856,0,1,0-.833,2.023,2.861,2.861,0,0,0,.833-2.023m-4.778,2.029c.773-.04.961-.054,1.075-.06l-.249.6a2.848,2.848,0,0,1-.827-.544m-.1-.1a2.718,2.718,0,0,1-.544-.827c.336-.141.175-.074.6-.249-.034.511-.034.564-.06,1.075m4.8-1.929c-.309.282-.524.47-.84.753-.087-.155-.282-.517-.41-.753.2-.376.188-.343.41-.753.5.45.517.47.84.753M27.59,12.3c-.329-.134-.612-.255-.934-.39l.706-.383Zm.02.074c.363.88.269.652.43,1.035-.161.383-.067.155-.43,1.035-.88.363-.652.269-1.035.43-.383-.161-.155-.067-1.035-.43-.363-.88-.269-.652-.43-1.035.161-.383.067-.155.43-1.035.6-.249.477-.195,1.035-.43.558.235.43.181,1.035.43m-.02,2.15-.228.773-.706-.383c.349-.148.6-.249.934-.39m-2.513-1.183-.383-.706.773-.228c-.141.323-.242.578-.39.934m.39,1.082-.773-.228.383-.706c.148.349.249.6.39.934m.329-2.9.706.383c-.551.228-.363.148-.934.39.282-.954.188-.645.228-.773m0,3.77c-.034-.121,0-.007-.228-.773.578.235.363.148.941.39L25.8,15.3m2.668-1.1-.773.228c.134-.329.255-.612.39-.934.134.242.228.423.383.706m-.383-.853c-.054-.134-.309-.739-.39-.934.195.06.578.168.773.228-.228.417-.242.437-.383.706m.4-.773-.82-.242-.242-.82,1.122-.06c-.027.551-.027.511-.06,1.122m-3.434.84-.41.753-.84-.753.84-.753Zm.45,1.089c.188.632.054.188.242.82l-1.122.06.06-1.122Zm1.082.45.753.41-.753.84-.753-.84Zm1.089-.45.82-.242c.034.6.034.585.06,1.122l-1.122-.06Zm.88-1.935.06-1.075a2.848,2.848,0,0,1,.544.827Zm-1.216-1.089c-.4.215-.363.195-.753.41-1.216-.659-.531-.3-.753-.41.255-.282.45-.5.753-.84.363.4.155.168.753.84m-1.593.034-.242.82-.82.242-.06-1.122c.4.02.7.04,1.122.06m-1.122,1.055c-.43-.175-.269-.114-.6-.249a2.848,2.848,0,0,1,.544-.827c.027.511.027.558.06,1.075m1.176,2.843c.316.349.591.659.719.8a2.652,2.652,0,0,1-.968-.2Zm2.755-1.142.6.249a2.848,2.848,0,0,1-.544.827Zm.625.188c-.222-.094-.376-.155-.6-.249.276-.249.309-.276.806-.719a2.652,2.652,0,0,1-.2.968m-.6-1.828c.228-.094.383-.155.6-.249a2.962,2.962,0,0,1,.2.968c-.242-.222-.564-.5-.806-.719m-1.136-1.176c.04-.1.155-.37.249-.6a2.848,2.848,0,0,1,.827.544Zm.188-.632c-.094.222-.155.376-.249.6-.249-.276-.276-.309-.719-.806a2.962,2.962,0,0,1,.968.2m-1.828.6-.249-.6a2.962,2.962,0,0,1,.968-.2Zm-.309-.578.249.6c-.269-.013-.8-.047-1.075-.06a2.718,2.718,0,0,1,.827-.544m-1.5,1.532.6.249c-.37.336-.417.376-.8.719a2.76,2.76,0,0,1,.195-.968m.6,1.828-.6.249a2.962,2.962,0,0,1-.2-.968c.336.3.417.37.806.719m2.782,1.2.249.6a2.962,2.962,0,0,1-.968.2c.645-.726.511-.578.719-.806m.309.578-.249-.6c.228.013.739.04,1.075.06a2.94,2.94,0,0,1-.827.544" transform="translate(-7.779 -3.461)" fill="#09090a"/>
    <path id="Path_2106" data-name="Path 2106" d="M40.251,13.414a2.856,2.856,0,1,0-.833,2.023,2.861,2.861,0,0,0,.833-2.023m-4.785,2.029c.773-.04.961-.054,1.075-.06l-.249.6a2.94,2.94,0,0,1-.827-.544m-.1-.1a2.718,2.718,0,0,1-.544-.827c.336-.141.175-.074.6-.249-.027.511-.034.564-.06,1.075m4.8-1.929c-.309.282-.524.47-.84.753-.087-.155-.282-.517-.41-.753.2-.376.188-.343.41-.753.5.45.524.47.84.753M38.4,12.3c-.329-.134-.612-.255-.934-.39l.706-.383Zm.027.074c.363.88.269.652.43,1.035-.161.383-.067.155-.43,1.035-.88.363-.652.269-1.035.43-.383-.161-.155-.067-1.035-.43-.363-.88-.269-.652-.43-1.035.161-.383.067-.155.43-1.035.6-.249.477-.195,1.035-.43.551.235.43.181,1.035.43m-.027,2.15-.228.773-.706-.383c.349-.148.6-.249.934-.39M35.89,13.347l-.383-.706.773-.228c-.134.323-.242.578-.39.934m.39,1.082-.773-.228.383-.706c.148.349.249.6.39.934m.329-2.9.706.383c-.551.228-.363.148-.934.39.282-.954.195-.645.228-.773m0,3.77c-.034-.121,0-.007-.228-.773.578.235.363.148.934.39-.423.235-.269.148-.706.383m2.668-1.1-.773.228c.134-.329.255-.612.39-.934.134.242.235.423.383.706m-.383-.853c-.054-.134-.309-.739-.39-.934.195.06.578.168.773.228-.228.417-.235.437-.383.706m.4-.773-.82-.242-.242-.82,1.122-.06c-.027.551-.027.511-.06,1.122m-3.441.84-.41.753-.84-.753.84-.753Zm.45,1.089c.188.632.054.188.242.82l-1.122.06.06-1.122Zm1.089.45.753.41-.753.84-.753-.84Zm1.082-.45.82-.242c.034.6.034.585.06,1.122l-1.122-.06Zm.88-1.935.06-1.075a2.848,2.848,0,0,1,.544.827Zm-1.216-1.089c-.4.215-.363.195-.753.41-1.216-.659-.531-.3-.753-.41.255-.282.45-.5.753-.84.37.4.161.168.753.84m-1.593.034-.242.82-.82.242-.06-1.122c.4.02.7.04,1.122.06m-1.122,1.055c-.43-.175-.269-.114-.6-.249a2.848,2.848,0,0,1,.544-.827c.027.511.034.558.06,1.075M36.6,15.41c.316.349.591.659.719.8a2.652,2.652,0,0,1-.968-.2Zm2.755-1.142.6.249a2.848,2.848,0,0,1-.544.827Zm.632.188c-.222-.094-.376-.155-.6-.249.276-.249.309-.276.806-.719a2.962,2.962,0,0,1-.2.968m-.6-1.828c.228-.094.383-.155.6-.249a2.962,2.962,0,0,1,.2.968l-.806-.719m-1.142-1.176c.04-.1.155-.37.249-.6a2.848,2.848,0,0,1,.827.544Zm.195-.632c-.094.222-.155.376-.249.6-.249-.276-.276-.309-.719-.806a3,3,0,0,1,.968.2m-1.835.6-.249-.6a2.962,2.962,0,0,1,.968-.2Zm-.309-.578.249.6c-.269-.013-.8-.047-1.075-.06a2.8,2.8,0,0,1,.827-.544M34.8,12.379l.6.249c-.37.336-.417.376-.8.719a2.489,2.489,0,0,1,.195-.968m.6,1.828-.6.249a2.962,2.962,0,0,1-.2-.968c.343.3.423.37.806.719m2.782,1.2.249.6a2.962,2.962,0,0,1-.968.2c.645-.726.517-.578.719-.806m.309.578-.249-.6c.228.013.739.04,1.075.06a2.848,2.848,0,0,1-.827.544" transform="translate(-11.328 -3.461)" fill="#09090a"/>
    <path id="Path_2107" data-name="Path 2107" d="M51.061,13.414a2.856,2.856,0,1,0-.833,2.023,2.861,2.861,0,0,0,.833-2.023m-4.778,2.029c.773-.04.961-.054,1.075-.06l-.249.6a2.848,2.848,0,0,1-.827-.544m-.1-.1a2.718,2.718,0,0,1-.544-.827c.336-.141.175-.074.6-.249-.034.511-.034.564-.06,1.075m4.8-1.929c-.309.282-.524.47-.84.753-.087-.155-.282-.517-.41-.753.2-.376.188-.343.41-.753.5.45.517.47.84.753M49.213,12.3c-.329-.134-.612-.255-.934-.39l.706-.383Zm.027.074c.363.88.269.652.43,1.035-.161.383-.067.155-.43,1.035-.88.363-.652.269-1.035.43-.383-.161-.155-.067-1.035-.43-.363-.88-.269-.652-.43-1.035.161-.383.067-.155.43-1.035.6-.249.477-.195,1.035-.43.558.235.43.181,1.035.43m-.027,2.15-.228.773-.706-.383c.356-.148.6-.249.934-.39m-2.507-1.183-.383-.706.773-.228c-.141.323-.242.578-.39.934m.383,1.082-.773-.228.383-.706c.148.349.255.6.39.934m.336-2.9.706.383c-.551.228-.363.148-.934.39.282-.954.188-.645.228-.773m0,3.77c-.034-.121,0-.007-.228-.773.578.235.363.148.941.39-.437.235-.282.148-.712.383m2.668-1.1-.773.228c.134-.329.255-.612.39-.934.134.242.228.423.383.706m-.383-.853c-.054-.134-.309-.739-.39-.934.195.06.578.168.773.228-.235.417-.242.437-.383.706m.4-.773-.82-.242-.242-.82,1.122-.06c-.027.551-.027.511-.06,1.122m-3.434.84-.41.753-.84-.753.84-.753Zm.45,1.089c.188.632.054.188.242.82l-1.122.06.06-1.122Zm1.082.45.753.41-.753.84-.753-.84Zm1.082-.45.82-.242c.034.6.034.585.06,1.122l-1.122-.06Zm.887-1.935.06-1.075a2.848,2.848,0,0,1,.544.827Zm-1.216-1.089c-.4.215-.363.195-.753.41-1.216-.659-.531-.3-.753-.41.255-.282.45-.5.753-.84.363.4.155.168.753.84m-1.593.034-.242.82-.82.242-.06-1.122c.4.02.692.04,1.122.06m-1.129,1.055c-.43-.175-.269-.114-.6-.249a2.848,2.848,0,0,1,.544-.827c.034.511.034.558.06,1.075m1.176,2.843c.316.349.591.659.719.8a2.652,2.652,0,0,1-.968-.2Zm2.762-1.142.6.249a2.848,2.848,0,0,1-.544.827Zm.625.188c-.222-.094-.376-.155-.6-.249.276-.249.309-.276.806-.719a2.652,2.652,0,0,1-.2.968m-.6-1.828c.228-.094.383-.155.6-.249a2.962,2.962,0,0,1,.2.968c-.242-.222-.564-.5-.806-.719m-1.142-1.176c.04-.1.155-.37.249-.6a2.848,2.848,0,0,1,.827.544Zm.195-.632c-.094.222-.155.376-.249.6-.249-.276-.276-.309-.719-.806a3,3,0,0,1,.968.2m-1.835.6-.249-.6a2.962,2.962,0,0,1,.968-.2Zm-.3-.578.249.6c-.269-.013-.8-.047-1.075-.06a2.718,2.718,0,0,1,.827-.544m-1.5,1.532.6.249c-.37.336-.417.376-.8.719a2.76,2.76,0,0,1,.195-.968m.6,1.828-.6.249a2.962,2.962,0,0,1-.2-.968c.336.3.417.37.806.719M49,15.41l.249.6a2.962,2.962,0,0,1-.968.2c.645-.726.511-.578.719-.806m.309.578-.249-.6c.228.013.739.04,1.075.06a3.039,3.039,0,0,1-.827.544" transform="translate(-14.873 -3.461)" fill="#09090a"/>
    <path id="Path_2108" data-name="Path 2108" d="M61.881,13.414a2.856,2.856,0,1,0-.833,2.023,2.861,2.861,0,0,0,.833-2.023M57.1,15.443c.773-.04.961-.054,1.075-.06l-.249.6a2.848,2.848,0,0,1-.827-.544m-.1-.1a2.718,2.718,0,0,1-.544-.827c.336-.141.175-.074.6-.249-.027.511-.034.564-.06,1.075m4.8-1.929c-.309.282-.524.47-.84.753-.087-.155-.282-.517-.41-.753.2-.376.188-.343.41-.753.5.45.517.47.84.753M60.033,12.3c-.329-.134-.612-.255-.934-.39l.706-.383Zm.02.074c.363.88.269.652.43,1.035-.161.383-.067.155-.43,1.035-.88.363-.652.269-1.035.43-.383-.161-.155-.067-1.035-.43-.363-.88-.269-.652-.43-1.035.161-.383.067-.155.43-1.035.6-.249.477-.195,1.035-.43.558.235.43.181,1.035.43m-.02,2.15L59.8,15.3l-.706-.383c.349-.148.6-.249.934-.39M57.52,13.347l-.383-.706.773-.228c-.141.323-.242.578-.39.934m.39,1.082-.773-.228.383-.706c.148.349.249.6.39.934m.329-2.9.706.383c-.551.228-.363.148-.934.39.282-.954.188-.645.228-.773m0,3.77c-.034-.121,0-.007-.228-.773.578.235.363.148.941.39-.43.235-.276.148-.712.383m2.668-1.1-.773.228c.134-.329.255-.612.39-.934.134.242.235.423.383.706m-.383-.853c-.054-.134-.309-.739-.39-.934.195.06.578.168.773.228-.228.417-.242.437-.383.706m.4-.773-.82-.242-.242-.82,1.122-.06c-.034.551-.027.511-.06,1.122m-3.441.84-.41.753-.84-.753.84-.753Zm.45,1.089c.188.632.054.188.242.82l-1.122.06.06-1.122Zm1.082.45.753.41-.753.84-.746-.847Zm1.089-.45.82-.242c.034.6.034.585.06,1.122l-1.122-.06Zm.88-1.935.06-1.075a2.848,2.848,0,0,1,.544.827Zm-1.216-1.089c-.4.215-.363.195-.753.41-1.216-.659-.531-.3-.753-.41.255-.282.45-.5.753-.84.363.4.155.168.753.84m-1.593.034-.242.82-.82.242-.06-1.122c.4.02.7.04,1.122.06m-1.122,1.055c-.43-.175-.269-.114-.6-.249A2.848,2.848,0,0,1,57,11.492c.027.511.034.558.06,1.075m1.176,2.843c.316.349.591.659.719.8a2.652,2.652,0,0,1-.968-.2Zm2.755-1.142.6.249a2.848,2.848,0,0,1-.544.827Zm.632.188c-.222-.094-.376-.155-.6-.249.276-.249.309-.276.806-.719a2.962,2.962,0,0,1-.2.968m-.6-1.828c.228-.094.383-.155.6-.249a2.962,2.962,0,0,1,.2.968c-.249-.222-.571-.5-.806-.719m-1.142-1.176c.04-.1.155-.37.249-.6a2.848,2.848,0,0,1,.827.544Zm.188-.632c-.094.222-.155.376-.249.6-.249-.276-.276-.309-.719-.806a2.962,2.962,0,0,1,.968.2m-1.828.6-.249-.6a2.962,2.962,0,0,1,.968-.2Zm-.309-.578.249.6c-.269-.013-.8-.047-1.075-.06a2.718,2.718,0,0,1,.827-.544m-1.5,1.532.6.249c-.37.336-.417.376-.8.719a2.76,2.76,0,0,1,.195-.968m.6,1.828-.6.249a2.962,2.962,0,0,1-.2-.968c.343.3.417.37.806.719m2.782,1.2.249.6a2.962,2.962,0,0,1-.968.2c.645-.726.511-.578.719-.806m.309.578-.249-.6c.228.013.739.04,1.075.06a2.848,2.848,0,0,1-.827.544" transform="translate(-18.422 -3.461)" fill="#09090a"/>
    <path id="Path_2109" data-name="Path 2109" d="M72.691,13.414a2.856,2.856,0,1,0-.833,2.023,2.861,2.861,0,0,0,.833-2.023m-4.785,2.029c.773-.04.961-.054,1.075-.06l-.249.6a2.941,2.941,0,0,1-.827-.544m-.1-.1a2.718,2.718,0,0,1-.544-.827c.336-.141.175-.074.6-.249-.027.511-.027.564-.06,1.075m4.8-1.929c-.309.282-.524.47-.84.753-.087-.155-.282-.517-.41-.753.2-.376.188-.343.41-.753.5.45.524.47.84.753M70.843,12.3c-.329-.134-.612-.255-.934-.39l.706-.383Zm.027.074c.363.88.269.652.43,1.035-.161.383-.067.155-.43,1.035-.88.363-.652.269-1.035.43-.383-.161-.155-.067-1.035-.43-.363-.88-.269-.652-.43-1.035.161-.383.067-.155.43-1.035.6-.249.477-.195,1.035-.43.558.235.43.181,1.035.43m-.027,2.15-.228.773-.706-.383c.356-.148.6-.249.934-.39M68.33,13.347l-.383-.706.773-.228c-.134.323-.242.578-.39.934m.39,1.082-.773-.228.383-.706c.148.349.255.6.39.934m.336-2.9.706.383c-.551.228-.363.148-.934.39.276-.954.188-.645.228-.773m0,3.77c-.034-.121,0-.007-.228-.773.578.235.363.148.934.39-.43.235-.276.148-.706.383m2.668-1.1-.773.228c.134-.329.255-.612.39-.934.128.242.228.423.383.706m-.39-.853c-.054-.134-.309-.739-.39-.934.195.06.578.168.773.228-.228.417-.235.437-.383.706m.4-.773-.82-.242-.242-.82,1.122-.06c-.027.551-.027.511-.06,1.122m-3.434.84-.41.753-.84-.753.84-.753Zm.45,1.089c.188.632.054.188.242.82l-1.122.06.06-1.122Zm1.082.45.753.41-.753.84-.753-.84Zm1.082-.45.82-.242c.034.6.034.585.06,1.122l-1.122-.06Zm.88-1.935.06-1.075a2.848,2.848,0,0,1,.544.827Zm-1.21-1.089c-.4.215-.363.195-.753.41-1.216-.659-.531-.3-.753-.41.255-.282.45-.5.753-.84.363.4.155.168.753.84M69,11.512l-.242.82-.82.242-.06-1.122c.39.02.692.04,1.122.06m-1.129,1.055c-.43-.175-.269-.114-.6-.249a2.848,2.848,0,0,1,.544-.827c.034.511.034.558.06,1.075m1.176,2.843c.316.349.591.659.719.8a2.652,2.652,0,0,1-.968-.2ZM71.8,14.267l.6.249a2.848,2.848,0,0,1-.544.827Zm.632.188c-.222-.094-.376-.155-.6-.249.276-.249.309-.276.806-.719a2.962,2.962,0,0,1-.2.968m-.6-1.828c.228-.094.383-.155.6-.249a2.962,2.962,0,0,1,.2.968l-.806-.719m-1.142-1.176c.04-.1.155-.37.249-.6a2.848,2.848,0,0,1,.827.544Zm.195-.632c-.094.222-.155.376-.249.6-.249-.276-.276-.309-.719-.806a3,3,0,0,1,.968.2m-1.835.6-.249-.6a2.962,2.962,0,0,1,.968-.2Zm-.309-.578.249.6c-.269-.013-.8-.047-1.075-.06a2.8,2.8,0,0,1,.827-.544m-1.492,1.532.6.249c-.37.336-.417.376-.8.719a2.489,2.489,0,0,1,.195-.968m.6,1.828-.6.249a2.962,2.962,0,0,1-.2-.968c.336.3.417.37.806.719m2.775,1.2.249.6a2.962,2.962,0,0,1-.968.2c.652-.726.517-.578.719-.806m.309.578-.249-.6c.228.013.739.04,1.075.06a2.848,2.848,0,0,1-.827.544" transform="translate(-21.968 -3.461)" fill="#09090a"/>
    <path id="Path_2110" data-name="Path 2110" d="M83.5,13.414a2.856,2.856,0,1,0-.833,2.023,2.861,2.861,0,0,0,.833-2.023m-4.778,2.029c.773-.04.961-.054,1.075-.06l-.249.6a2.848,2.848,0,0,1-.827-.544m-.1-.1a2.718,2.718,0,0,1-.544-.827c.336-.141.175-.074.6-.249-.034.511-.034.564-.06,1.075m4.8-1.929c-.309.282-.524.47-.84.753-.087-.155-.282-.517-.41-.753.2-.376.188-.343.41-.753.5.45.517.47.84.753M81.66,12.3c-.329-.134-.612-.255-.934-.39l.706-.383Zm.02.074c.363.88.269.652.43,1.035-.161.383-.067.155-.43,1.035-.88.363-.652.269-1.035.43-.383-.161-.155-.067-1.035-.43-.363-.88-.269-.652-.43-1.035.161-.383.067-.155.43-1.035.6-.249.477-.195,1.035-.43.558.235.43.181,1.035.43m-.02,2.15-.228.773-.706-.383c.349-.148.6-.249.934-.39m-2.513-1.183-.383-.706.773-.228c-.141.323-.242.578-.39.934m.39,1.082-.773-.228.383-.706c.148.349.249.6.39.934m.329-2.9.706.383c-.551.228-.363.148-.934.39.282-.954.188-.645.228-.773m0,3.77c-.034-.121,0-.007-.228-.773.578.235.363.148.934.39-.43.235-.269.148-.706.383m2.668-1.1-.773.228c.134-.329.255-.612.39-.934.134.242.228.423.383.706m-.383-.853c-.054-.134-.309-.739-.39-.934.195.06.578.168.773.228-.228.417-.242.437-.383.706m.4-.773-.82-.242-.242-.82,1.122-.06c-.027.551-.027.511-.06,1.122m-3.434.84-.41.753-.84-.753.84-.753Zm.45,1.089c.188.632.054.188.242.82l-1.122.06.06-1.122Zm1.082.45.753.41-.753.84-.753-.84Zm1.089-.45.82-.242c.034.6.034.585.06,1.122l-1.122-.06Zm.88-1.935.06-1.075a2.848,2.848,0,0,1,.544.827ZM81.4,11.478c-.4.215-.363.195-.753.41-1.216-.659-.531-.3-.753-.41.255-.282.45-.5.753-.84.363.4.155.168.753.84m-1.593.034-.242.82-.82.242-.06-1.122c.4.02.7.04,1.122.06m-1.122,1.055c-.43-.175-.269-.114-.6-.249a2.848,2.848,0,0,1,.544-.827c.027.511.027.558.06,1.075m1.176,2.843c.316.349.591.659.719.8a2.652,2.652,0,0,1-.968-.2Zm2.755-1.142.6.249a2.848,2.848,0,0,1-.544.827Zm.625.188c-.222-.094-.376-.155-.6-.249.276-.249.309-.276.806-.719a2.652,2.652,0,0,1-.2.968m-.6-1.828c.228-.094.383-.155.6-.249a2.961,2.961,0,0,1,.2.968c-.242-.222-.564-.5-.806-.719M81.5,11.451c.04-.1.155-.37.249-.6a2.848,2.848,0,0,1,.827.544Zm.188-.632c-.094.222-.155.376-.249.6-.249-.276-.276-.309-.719-.806a2.962,2.962,0,0,1,.968.2m-1.828.6-.249-.6a2.962,2.962,0,0,1,.968-.2Zm-.309-.578.249.6c-.269-.013-.8-.047-1.075-.06a2.718,2.718,0,0,1,.827-.544m-1.5,1.532.6.249c-.37.336-.417.376-.8.719a2.76,2.76,0,0,1,.195-.968m.6,1.828-.6.249a2.962,2.962,0,0,1-.2-.968c.336.3.417.37.806.719m2.782,1.2.249.6a2.962,2.962,0,0,1-.968.2c.645-.726.511-.578.719-.806m.309.578-.249-.6c.228.013.739.04,1.075.06a2.94,2.94,0,0,1-.827.544" transform="translate(-25.513 -3.461)" fill="#09090a"/>
    <path id="Path_2111" data-name="Path 2111" d="M94.321,13.414a2.856,2.856,0,1,0-.833,2.023,2.861,2.861,0,0,0,.833-2.023m-4.785,2.029c.773-.04.961-.054,1.075-.06l-.249.6a2.94,2.94,0,0,1-.827-.544m-.1-.1a2.718,2.718,0,0,1-.544-.827c.336-.141.175-.074.6-.249-.027.511-.034.564-.06,1.075m4.8-1.929c-.309.282-.524.47-.84.753-.087-.155-.282-.517-.41-.753.2-.376.188-.343.41-.753.5.45.524.47.84.753M92.473,12.3c-.329-.134-.612-.255-.934-.39l.706-.383Zm.027.074c.363.88.269.652.43,1.035-.161.383-.067.155-.43,1.035-.88.363-.652.269-1.035.43-.383-.161-.155-.067-1.035-.43-.363-.88-.269-.652-.43-1.035.161-.383.067-.155.43-1.035.6-.249.477-.195,1.035-.43.551.235.43.181,1.035.43m-.027,2.15-.228.773-.706-.383c.349-.148.6-.249.934-.39M89.96,13.347l-.383-.706.773-.228c-.134.323-.242.578-.39.934m.39,1.082-.773-.228.383-.706c.148.349.249.6.39.934m.329-2.9.706.383c-.551.228-.363.148-.934.39.282-.954.195-.645.228-.773m0,3.77c-.034-.121,0-.007-.228-.773.578.235.363.148.934.39-.423.235-.269.148-.706.383m2.668-1.1-.773.228c.134-.329.255-.612.39-.934.134.242.235.423.383.706m-.383-.853c-.054-.134-.309-.739-.39-.934.195.06.578.168.773.228-.228.417-.235.437-.383.706m.4-.773-.82-.242-.242-.82,1.122-.06c-.027.551-.027.511-.06,1.122m-3.441.84-.41.753-.84-.753.84-.753Zm.45,1.089c.188.632.054.188.242.82l-1.122.06.06-1.122Zm1.089.45.753.41-.753.84-.753-.84Zm1.082-.45.82-.242c.034.6.034.585.06,1.122l-1.122-.06Zm.88-1.935.06-1.075a2.848,2.848,0,0,1,.544.827Zm-1.216-1.089c-.4.215-.363.195-.753.41-1.216-.659-.531-.3-.753-.41.255-.282.45-.5.753-.84.37.4.161.168.753.84m-1.593.034-.242.82-.82.242-.06-1.122c.4.02.7.04,1.122.06M89.5,12.567c-.43-.175-.269-.114-.6-.249a2.848,2.848,0,0,1,.544-.827c.027.511.034.558.06,1.075m1.176,2.843c.316.349.591.659.719.8a2.652,2.652,0,0,1-.968-.2Zm2.755-1.142.6.249a2.848,2.848,0,0,1-.544.827Zm.632.188c-.222-.094-.376-.155-.6-.249.276-.249.309-.276.806-.719a2.962,2.962,0,0,1-.2.968m-.6-1.828c.228-.094.383-.155.6-.249a2.962,2.962,0,0,1,.2.968l-.806-.719m-1.142-1.176c.04-.1.155-.37.249-.6a2.848,2.848,0,0,1,.827.544Zm.188-.632c-.094.222-.155.376-.249.6-.249-.276-.276-.309-.719-.806a2.926,2.926,0,0,1,.968.2m-1.828.6-.249-.6a2.962,2.962,0,0,1,.968-.2Zm-.309-.578.249.6c-.269-.013-.8-.047-1.075-.06a2.8,2.8,0,0,1,.827-.544m-1.492,1.532.6.249c-.37.336-.417.376-.8.719a2.489,2.489,0,0,1,.195-.968m.6,1.828-.6.249a2.962,2.962,0,0,1-.2-.968c.336.3.417.37.8.719m2.782,1.2.249.6a2.962,2.962,0,0,1-.968.2c.645-.726.511-.578.719-.806m.309.578-.249-.6c.228.013.739.04,1.075.06a2.848,2.848,0,0,1-.827.544" transform="translate(-29.062 -3.461)" fill="#09090a"/>
  </g>
</svg>