<svg xmlns="http://www.w3.org/2000/svg" xmlns:xlink="http://www.w3.org/1999/xlink" width="67" height="14.486" viewBox="0 0 67 14.486">
  <defs>
    <clipPath id="clip-path">
      <rect id="Rectangle_352" data-name="Rectangle 352" width="67" height="14.486" fill="none"/>
    </clipPath>
  </defs>
  <g id="claw" clip-path="url(#clip-path)">
    <path id="Path_1876" data-name="Path 1876" d="M6.781,1.19A6.673,6.673,0,1,1,.108,7.863,6.673,6.673,0,0,1,6.781,1.19" transform="translate(-0.025 -0.279)" fill="#fff"/>
    <path id="Path_1877" data-name="Path 1877" d="M13.511,7.845A6.759,6.759,0,1,0,11.53,12.62a6.763,6.763,0,0,0,1.982-4.775M2.2,12.635c1.829-.1,2.281-.122,2.541-.138L4.153,13.92A6.76,6.76,0,0,1,2.2,12.635M1.965,12.4A6.615,6.615,0,0,1,.679,10.446c.8-.329.413-.168,1.431-.589L1.965,12.4M13.328,7.845,11.346,9.62c-.2-.375-.658-1.217-.964-1.775.482-.888.444-.819.964-1.775,1.178,1.064,1.224,1.094,1.982,1.775M9.142,5.212c-.772-.321-1.439-.6-2.219-.918L8.6,3.383ZM9.2,5.4c.857,2.074.635,1.538,1.01,2.449-.375.911-.153.375-1.01,2.449-2.074.857-1.538.635-2.449,1.01-.911-.375-.375-.153-2.448-1.01C3.45,8.22,3.672,8.755,3.3,7.845c.376-.911.154-.375,1.011-2.449,1.423-.589,1.124-.467,2.448-1.01,1.316.543,1.018.421,2.449,1.01m-.061,5.081L8.6,12.306,6.923,11.4c.843-.352,1.431-.589,2.219-.918M3.2,7.669,2.294,5.993l1.828-.543C3.8,6.238,3.557,6.827,3.2,7.669m.917,2.563L2.294,9.689,3.2,8.013c.352.842.588,1.423.917,2.219m.789-6.849,1.676.911c-1.309.543-.857.352-2.22.918.666-2.25.452-1.515.544-1.829m0,8.922c-.085-.291-.008-.015-.544-1.829,1.363.566.857.352,2.22.918-1.018.551-.65.352-1.676.911m6.3-2.617-1.829.543c.321-.773.6-1.439.918-2.219.321.589.552,1.018.911,1.676m-.911-2.02c-.13-.314-.727-1.752-.918-2.219l1.829.543c-.55,1.01-.574,1.048-.911,1.676m.949-1.814L9.318,5.281,8.744,3.345,11.4,3.2c-.07,1.309-.07,1.2-.146,2.655M3.127,7.845,2.164,9.62.182,7.845,2.164,6.069Zm1.064,2.563c.444,1.5.131.451.574,1.936l-2.655.145.146-2.655Zm2.563,1.064,1.775.964L6.755,14.41,4.98,12.428Zm2.563-1.064,1.936-.574c.077,1.431.077,1.377.146,2.655l-2.656-.145ZM11.407,5.84l.138-2.548A6.6,6.6,0,0,1,12.83,5.243ZM8.53,3.253c-.941.513-.849.459-1.775.964C3.878,2.656,5.5,3.529,4.98,3.253c.6-.673,1.064-1.186,1.775-1.982.857.964.367.413,1.775,1.982m-3.765.092L4.191,5.281l-1.935.574L2.11,3.2c.942.054,1.645.092,2.655.145M2.11,5.84c-1.018-.421-.635-.26-1.431-.589A6.553,6.553,0,0,1,1.965,3.3c.069,1.2.076,1.324.145,2.541m2.778,6.711c.743.834,1.393,1.553,1.7,1.9a6.576,6.576,0,0,1-2.3-.474Zm6.52-2.7,1.432.589a6.666,6.666,0,0,1-1.286,1.951Zm1.485.451c-.528-.222-.9-.367-1.431-.589l1.9-1.7a6.478,6.478,0,0,1-.467,2.288M11.461,5.977c.536-.222.9-.375,1.431-.589a6.665,6.665,0,0,1,.474,2.3c-.582-.52-1.339-1.2-1.905-1.706m-2.7-2.785c.1-.237.36-.865.589-1.431A6.649,6.649,0,0,1,11.3,3.047Zm.459-1.485c-.222.528-.367.9-.589,1.431l-1.7-1.9a6.53,6.53,0,0,1,2.288.467M4.887,3.139,4.3,1.715a6.72,6.72,0,0,1,2.3-.474Zm-.726-1.37L4.75,3.192C4.115,3.154,2.86,3.085,2.2,3.054a6.539,6.539,0,0,1,1.96-1.286M.626,5.381l1.431.589c-.88.788-.987.88-1.9,1.7A6.347,6.347,0,0,1,.626,5.381M2.049,9.712.618,10.3a6.484,6.484,0,0,1-.466-2.3c.8.719.979.88,1.9,1.706m6.573,2.839.589,1.423a6.683,6.683,0,0,1-2.3.474c1.538-1.706,1.217-1.354,1.706-1.9m.735,1.37L8.767,12.5c.536.031,1.745.092,2.548.138A6.891,6.891,0,0,1,9.356,13.92" transform="translate(0 -0.254)" fill="#09090a"/>
    <path id="Path_1878" data-name="Path 1878" d="M16.924.81a1.607,1.607,0,1,1-1.607,1.607A1.607,1.607,0,0,1,16.924.81" transform="translate(-3.596 -0.19)" fill="#fff"/>
    <circle id="Ellipse_114" data-name="Ellipse 114" cx="1.607" cy="1.607" r="1.607" transform="translate(11.721 0.62)" fill="none" stroke="#000" stroke-miterlimit="10" stroke-width="0.5"/>
    <path id="Path_1879" data-name="Path 1879" d="M17.164,14.48a1.607,1.607,0,1,1-1.607,1.607,1.607,1.607,0,0,1,1.607-1.607" transform="translate(-3.653 -3.4)" fill="#fff"/>
    <circle id="Ellipse_115" data-name="Ellipse 115" cx="1.607" cy="1.607" r="1.607" transform="translate(11.905 11.08)" fill="none" stroke="#000" stroke-miterlimit="10" stroke-width="0.5"/>
    <path id="Path_1880" data-name="Path 1880" d="M24.15.77a6.673,6.673,0,1,1-6.673,6.673A6.672,6.672,0,0,1,24.15.77" transform="translate(-4.103 -0.181)" fill="#fff"/>
    <path id="Path_1881" data-name="Path 1881" d="M30.881,7.425A6.759,6.759,0,1,0,28.9,12.2a6.763,6.763,0,0,0,1.982-4.775m-11.3,4.79c1.829-.1,2.28-.122,2.541-.138L21.53,13.5a6.56,6.56,0,0,1-1.951-1.286m-.244-.237a6.585,6.585,0,0,1-1.286-1.951c.8-.329.413-.168,1.431-.589l-.145,2.541M30.7,7.425,28.716,9.2c-.2-.375-.658-1.217-.964-1.775.482-.888.444-.819.964-1.775C29.9,6.713,29.94,6.744,30.7,7.425M26.512,4.792c-.773-.321-1.439-.6-2.219-.918l1.676-.911Zm.061.184c.857,2.074.635,1.538,1.01,2.449-.375.911-.153.375-1.01,2.449-2.074.857-1.538.635-2.449,1.01-.911-.375-.375-.153-2.449-1.01-.857-2.074-.635-1.538-1.01-2.449.375-.911.153-.375,1.01-2.449,1.424-.589,1.125-.467,2.449-1.01,1.316.543,1.018.421,2.449,1.01m-.061,5.081-.543,1.829L24.3,10.975c.834-.352,1.423-.6,2.211-.918M20.574,7.249l-.91-1.676,1.828-.543c-.321.788-.566,1.377-.918,2.219m.918,2.563-1.828-.543.91-1.676c.352.842.589,1.423.918,2.219m.788-6.849,1.676.911c-1.309.543-.856.352-2.219.918.666-2.25.451-1.515.543-1.829m0,8.922c-.084-.291-.008-.015-.543-1.829,1.363.566.857.352,2.219.918-1.018.551-.65.352-1.676.911m6.305-2.617-1.829.543c.321-.773.6-1.439.918-2.219.321.589.551,1.018.911,1.676m-.911-2.02c-.13-.314-.727-1.752-.918-2.219l1.829.543c-.543,1.01-.566,1.048-.911,1.676m.949-1.814-1.936-.574-.574-1.936,2.655-.145c-.069,1.309-.061,1.2-.145,2.655M20.5,7.425,19.541,9.2,17.56,7.425l1.981-1.775Zm1.056,2.563c.444,1.5.13.451.574,1.936l-2.655.145.145-2.655Zm2.563,1.064,1.775.964L24.124,14l-1.775-1.982Zm2.563-1.064,1.936-.574c.077,1.431.077,1.377.145,2.655l-2.655-.145ZM28.777,5.42l.138-2.548A6.6,6.6,0,0,1,30.2,4.823ZM25.9,2.833c-.941.513-.849.459-1.775.964-2.876-1.561-1.255-.689-1.775-.964.6-.673,1.064-1.186,1.775-1.982.857.964.367.406,1.775,1.982m-3.765.092-.574,1.936-1.936.574L19.48,2.78c.942.046,1.653.092,2.655.145M19.48,5.42c-1.018-.421-.635-.26-1.431-.589a6.538,6.538,0,0,1,1.286-1.951c.069,1.2.076,1.316.145,2.541m2.778,6.711c.742.834,1.393,1.553,1.7,1.9a6.584,6.584,0,0,1-2.3-.474Zm6.52-2.7,1.431.589a6.649,6.649,0,0,1-1.286,1.951Zm1.485.451c-.528-.222-.9-.367-1.431-.589l1.9-1.7a6.5,6.5,0,0,1-.467,2.288M28.831,5.557c.536-.222.9-.375,1.431-.589a6.683,6.683,0,0,1,.474,2.3c-.582-.528-1.339-1.2-1.905-1.706m-2.7-2.785c.1-.237.36-.865.589-1.431A6.649,6.649,0,0,1,28.67,2.627Zm.459-1.485c-.222.528-.367.9-.589,1.431L24.3.821a6.53,6.53,0,0,1,2.288.467M22.257,2.719,21.668,1.3a6.72,6.72,0,0,1,2.3-.474Zm-.727-1.37.589,1.423c-.635-.038-1.889-.107-2.548-.138A6.545,6.545,0,0,1,21.53,1.349M18,4.961l1.43.589c-.88.788-.987.88-1.9,1.7A6.347,6.347,0,0,1,18,4.961m1.423,4.331-1.431.589a6.5,6.5,0,0,1-.467-2.3c.8.712.979.88,1.9,1.706m6.573,2.839.589,1.423a6.683,6.683,0,0,1-2.3.474c1.538-1.706,1.224-1.354,1.706-1.9m.735,1.37-.589-1.423c.536.031,1.745.092,2.548.138A6.891,6.891,0,0,1,26.726,13.5" transform="translate(-4.078 -0.155)" fill="#09090a"/>
    <path id="Path_1882" data-name="Path 1882" d="M34.575.67a1.607,1.607,0,1,1-1.608,1.607A1.606,1.606,0,0,1,34.575.67" transform="translate(-7.74 -0.157)" fill="#fff"/>
    <circle id="Ellipse_116" data-name="Ellipse 116" cx="1.607" cy="1.607" r="1.607" transform="translate(25.227 0.513)" fill="none" stroke="#000" stroke-miterlimit="10" stroke-width="0.5"/>
    <path id="Path_1883" data-name="Path 1883" d="M34.535,14.06a1.607,1.607,0,1,1-1.608,1.607,1.606,1.606,0,0,1,1.608-1.607" transform="translate(-7.731 -3.301)" fill="#fff"/>
    <circle id="Ellipse_117" data-name="Ellipse 117" cx="1.607" cy="1.607" r="1.607" transform="translate(25.197 10.759)" fill="none" stroke="#000" stroke-miterlimit="10" stroke-width="0.5"/>
    <path id="Path_1884" data-name="Path 1884" d="M41.66.77a6.673,6.673,0,1,1-6.673,6.673A6.672,6.672,0,0,1,41.66.77" transform="translate(-8.214 -0.181)" fill="#fff"/>
    <path id="Path_1885" data-name="Path 1885" d="M48.391,7.425A6.759,6.759,0,1,0,46.409,12.2a6.763,6.763,0,0,0,1.982-4.775m-11.31,4.79c1.829-.1,2.28-.122,2.541-.138L39.033,13.5a6.75,6.75,0,0,1-1.951-1.286m-.237-.237a6.6,6.6,0,0,1-1.286-1.951c.8-.329.413-.168,1.431-.589-.069,1.209-.077,1.331-.145,2.541M48.208,7.425,46.226,9.2c-.2-.375-.658-1.217-.964-1.775.482-.888.444-.819.964-1.775C47.4,6.713,47.45,6.744,48.208,7.425M44.022,4.792c-.773-.321-1.439-.6-2.219-.918l1.676-.911Zm.061.184c.857,2.074.635,1.538,1.01,2.449-.375.911-.153.375-1.01,2.449-2.074.857-1.538.635-2.449,1.01-.911-.375-.375-.153-2.449-1.01-.857-2.074-.635-1.538-1.01-2.449.375-.911.153-.375,1.01-2.449,1.423-.589,1.125-.467,2.449-1.01,1.316.543,1.018.421,2.449,1.01m-.061,5.081-.543,1.829-1.668-.911c.834-.352,1.423-.6,2.211-.918M38.084,7.249l-.911-1.676L39,5.029c-.321.788-.566,1.377-.918,2.219M39,9.812l-1.829-.543.911-1.676c.352.842.589,1.423.918,2.219m.788-6.849,1.676.911c-1.309.543-.857.352-2.219.918.666-2.25.451-1.515.543-1.829m0,8.922c-.084-.291-.008-.015-.543-1.829,1.362.566.857.352,2.219.918-1.018.551-.65.352-1.676.911M46.1,9.269l-1.829.543c.321-.773.6-1.439.918-2.219.321.589.551,1.018.911,1.676m-.911-2.02c-.13-.314-.727-1.752-.918-2.219l1.829.543c-.551,1.01-.566,1.048-.911,1.676m.949-1.814L44.2,4.861l-.574-1.936,2.655-.145c-.069,1.309-.061,1.2-.145,2.655m-8.127,1.99L37.043,9.2,35.061,7.425l1.982-1.775Zm1.064,2.563c.444,1.5.13.451.574,1.936l-2.655.145.145-2.655Zm2.563,1.064,1.775.964L41.634,14l-1.775-1.982ZM44.2,9.988l1.936-.574c.077,1.431.077,1.377.145,2.655l-2.655-.145ZM46.287,5.42l.138-2.548A6.6,6.6,0,0,1,47.71,4.823ZM43.41,2.833c-.941.513-.849.459-1.775.964-2.877-1.561-1.255-.689-1.775-.964.6-.673,1.064-1.186,1.775-1.982.857.964.367.406,1.775,1.982m-3.765.092-.574,1.936-1.936.574L36.99,2.78c.941.046,1.645.092,2.655.145M36.99,5.42c-1.018-.421-.635-.26-1.431-.589a6.55,6.55,0,0,1,1.286-1.951c.069,1.2.077,1.316.145,2.541m2.778,6.711c.742.834,1.393,1.553,1.7,1.9a6.58,6.58,0,0,1-2.3-.474Zm6.52-2.7,1.431.589a6.649,6.649,0,0,1-1.286,1.951Zm1.485.451c-.528-.222-.9-.367-1.431-.589l1.9-1.7a6.5,6.5,0,0,1-.467,2.288M46.341,5.557c.536-.222.9-.375,1.431-.589a6.683,6.683,0,0,1,.474,2.3c-.582-.528-1.339-1.2-1.905-1.706m-2.7-2.785c.1-.237.36-.865.589-1.431A6.649,6.649,0,0,1,46.18,2.627ZM44.1,1.288c-.222.528-.367.9-.589,1.431l-1.7-1.9a6.53,6.53,0,0,1,2.288.467M39.767,2.719,39.178,1.3a6.72,6.72,0,0,1,2.3-.474Zm-.727-1.37.589,1.423c-.635-.038-1.89-.107-2.548-.138A6.536,6.536,0,0,1,39.04,1.349M35.505,4.961l1.431.589c-.88.788-.987.88-1.9,1.7a6.362,6.362,0,0,1,.467-2.288m1.423,4.331L35.5,9.881a6.5,6.5,0,0,1-.467-2.3c.8.712.979.88,1.9,1.706M43.5,12.131l.589,1.423a6.683,6.683,0,0,1-2.3.474c1.538-1.706,1.217-1.354,1.706-1.9m.735,1.37-.589-1.423c.536.031,1.745.092,2.548.138A6.891,6.891,0,0,1,44.236,13.5" transform="translate(-8.189 -0.155)" fill="#09090a"/>
    <path id="Path_1886" data-name="Path 1886" d="M51.8.39A1.607,1.607,0,1,1,50.2,2,1.606,1.606,0,0,1,51.8.39" transform="translate(-11.785 -0.092)" fill="#fff"/>
    <circle id="Ellipse_118" data-name="Ellipse 118" cx="1.607" cy="1.607" r="1.607" transform="translate(38.412 0.298)" fill="none" stroke="#000" stroke-miterlimit="10" stroke-width="0.5"/>
    <path id="Path_1887" data-name="Path 1887" d="M52.044,14.06a1.607,1.607,0,1,1-1.607,1.607,1.607,1.607,0,0,1,1.607-1.607" transform="translate(-11.842 -3.301)" fill="#fff"/>
    <circle id="Ellipse_119" data-name="Ellipse 119" cx="1.607" cy="1.607" r="1.607" transform="translate(38.596 10.759)" fill="none" stroke="#000" stroke-miterlimit="10" stroke-width="0.5"/>
    <path id="Path_1888" data-name="Path 1888" d="M59.03.35a6.673,6.673,0,1,1-6.673,6.673A6.673,6.673,0,0,1,59.03.35" transform="translate(-12.293 -0.082)" fill="#fff"/>
    <path id="Path_1889" data-name="Path 1889" d="M65.761,7A6.759,6.759,0,1,0,63.78,11.78,6.763,6.763,0,0,0,65.761,7m-11.3,4.79c1.829-.1,2.28-.122,2.541-.138l-.589,1.423a6.531,6.531,0,0,1-1.951-1.286m-.245-.245A6.568,6.568,0,0,1,52.93,9.6c.8-.329.412-.168,1.43-.589-.069,1.217-.076,1.339-.145,2.541M65.578,7,63.6,8.78C63.4,8.4,62.938,7.563,62.632,7c.482-.888.444-.819.964-1.775C64.782,6.285,64.82,6.324,65.578,7M61.392,4.372c-.772-.321-1.439-.6-2.218-.918l1.675-.911Zm.061.184c.857,2.074.635,1.538,1.01,2.449-.375.911-.153.375-1.01,2.449-2.074.857-1.538.635-2.449,1.01-.91-.375-.375-.153-2.449-1.01C55.7,7.38,55.922,7.915,55.546,7c.376-.911.153-.375,1.01-2.449,1.423-.589,1.125-.467,2.449-1.01,1.317.543,1.018.421,2.449,1.01m-.061,5.081-.543,1.829-1.675-.911c.841-.352,1.43-.6,2.218-.918M55.455,6.829l-.911-1.676,1.829-.543c-.322.788-.567,1.377-.918,2.219m.918,2.563-1.829-.543.911-1.676c.351.842.589,1.423.918,2.219m.787-6.849,1.676.911c-1.309.543-.857.352-2.218.918.665-2.25.451-1.515.543-1.829m0,8.915c-.084-.291-.008-.015-.543-1.829,1.361.566.856.352,2.218.918-1.017.559-.65.36-1.676.911m6.305-2.609-1.829.543c.322-.773.6-1.439.918-2.219.321.589.552,1.018.911,1.676m-.911-2.02c-.129-.314-.727-1.752-.918-2.219l1.829.543c-.543,1.01-.566,1.048-.911,1.676M63.5,5.015l-1.936-.574-.574-1.936,2.655-.145c-.069,1.309-.061,1.2-.145,2.655M55.385,7,54.421,8.78,52.44,7l1.981-1.775Zm1.057,2.563c.443,1.5.129.451.574,1.936l-2.656.145.145-2.655ZM59,10.624l1.775.964L59,13.57l-1.775-1.982Zm2.563-1.056L63.5,8.994c.077,1.431.077,1.377.145,2.655L60.994,11.5ZM63.657,5l.138-2.548A6.568,6.568,0,0,1,65.08,4.4ZM60.78,2.413c-.941.513-.849.459-1.775.964-2.876-1.561-1.254-.689-1.775-.964.6-.673,1.064-1.186,1.775-1.982.857.957.367.406,1.775,1.982m-3.764.092-.574,1.936-1.937.574L54.36,2.36c.941.046,1.653.084,2.656.145M54.36,5c-1.018-.421-.635-.26-1.43-.589a6.536,6.536,0,0,1,1.286-1.951c.069,1.2.076,1.316.145,2.541m2.778,6.711c.741.834,1.393,1.553,1.7,1.9a6.584,6.584,0,0,1-2.3-.474Zm6.519-2.7,1.431.589A6.634,6.634,0,0,1,63.8,11.55Zm1.485.451c-.528-.222-.9-.367-1.43-.589l1.9-1.7a6.461,6.461,0,0,1-.467,2.288m-1.43-4.323c.535-.222.895-.375,1.43-.589a6.648,6.648,0,0,1,.474,2.3c-.582-.528-1.339-1.2-1.9-1.706m-2.7-2.785c.1-.237.36-.865.589-1.431A6.649,6.649,0,0,1,63.55,2.207Zm.46-1.485c-.223.528-.368.9-.589,1.431L59.181.4a6.537,6.537,0,0,1,2.289.467M57.138,2.3,56.549.875A6.713,6.713,0,0,1,58.845.4ZM56.411.929,57,2.352c-.636-.038-1.891-.107-2.549-.138A6.53,6.53,0,0,1,56.411.929M52.876,4.541l1.431.589c-.881.788-.988.88-1.9,1.7a6.346,6.346,0,0,1,.467-2.288M54.3,8.872l-1.431.589a6.5,6.5,0,0,1-.467-2.3c.8.712.98.88,1.9,1.706m6.573,2.839.589,1.423a6.683,6.683,0,0,1-2.3.474c1.539-1.706,1.225-1.354,1.706-1.9m.735,1.37-.589-1.423c.535.031,1.744.092,2.547.138a6.9,6.9,0,0,1-1.958,1.286" transform="translate(-12.268 -0.056)" fill="#09090a"/>
    <path id="Path_1890" data-name="Path 1890" d="M69.455.25a1.607,1.607,0,1,1-1.608,1.607A1.607,1.607,0,0,1,69.455.25" transform="translate(-15.929 -0.059)" fill="#fff"/>
    <circle id="Ellipse_120" data-name="Ellipse 120" cx="1.607" cy="1.607" r="1.607" transform="translate(51.918 0.191)" fill="none" stroke="#000" stroke-miterlimit="10" stroke-width="0.5"/>
    <path id="Path_1891" data-name="Path 1891" d="M69.415,13.64a1.607,1.607,0,1,1-1.608,1.607,1.607,1.607,0,0,1,1.608-1.607" transform="translate(-15.92 -3.202)" fill="#fff"/>
    <circle id="Ellipse_121" data-name="Ellipse 121" cx="1.607" cy="1.607" r="1.607" transform="translate(51.887 10.438)" fill="none" stroke="#000" stroke-miterlimit="10" stroke-width="0.5"/>
    <path id="Path_1892" data-name="Path 1892" d="M76.691.49a6.673,6.673,0,1,1-6.673,6.673A6.672,6.672,0,0,1,76.691.49" transform="translate(-16.439 -0.115)" fill="#fff"/>
    <path id="Path_1893" data-name="Path 1893" d="M83.411,7.135a6.759,6.759,0,1,0-1.982,4.775,6.684,6.684,0,0,0,1.982-4.775m-11.3,4.79c1.829-.1,2.281-.122,2.541-.138l-.588,1.423a6.591,6.591,0,0,1-1.952-1.286m-.236-.237a6.6,6.6,0,0,1-1.286-1.951c.8-.329.413-.168,1.43-.589-.077,1.217-.077,1.339-.145,2.541M83.228,7.135,81.247,8.91c-.2-.375-.658-1.217-.965-1.775l.965-1.775c1.185,1.064,1.224,1.1,1.981,1.775M79.05,4.51c-.773-.321-1.438-.6-2.219-.918l1.676-.911Zm.062.184c.856,2.074.635,1.538,1.009,2.449-.374.911-.153.375-1.009,2.449-2.074.857-1.539.635-2.449,1.01-.91-.375-.375-.153-2.449-1.01-.857-2.074-.635-1.538-1.01-2.449.375-.911.153-.375,1.01-2.449,1.423-.589,1.125-.467,2.449-1.01,1.316.536,1.018.413,2.449,1.01M79.05,9.767,78.506,11.6l-1.676-.911c.842-.344,1.431-.589,2.219-.918m-5.938-2.8L72.2,5.29l1.829-.543c-.329.788-.574,1.377-.919,2.219m.919,2.563L72.2,8.986l.91-1.676c.345.834.59,1.423.919,2.219m.78-6.849,1.676.911c-1.308.543-.857.352-2.219.918.673-2.25.452-1.523.543-1.829m0,8.915c-.084-.291-.008-.015-.543-1.829,1.362.566.858.352,2.219.918-1.018.559-.643.352-1.676.911m6.305-2.609-1.829.543c.322-.773.6-1.439.919-2.219.321.589.558,1.018.91,1.676m-.9-2.02c-.131-.314-.728-1.752-.919-2.219l1.829.543c-.551,1.01-.574,1.048-.91,1.676m.949-1.821-1.936-.574-.574-1.936,2.655-.145C81.23,3.8,81.238,3.7,81.162,5.145m-8.127,1.99L72.071,8.91,70.089,7.135l1.982-1.775ZM74.1,9.7c.444,1.5.13.451.574,1.936l-2.655.145.145-2.655Zm2.563,1.064,1.775.964-1.775,1.982-1.775-1.982ZM79.226,9.7l1.936-.574c.076,1.431.076,1.377.145,2.655l-2.655-.145ZM81.307,5.13l.138-2.548A6.568,6.568,0,0,1,82.73,4.533Zm-2.87-2.579c-.941.513-.849.459-1.775.964-2.876-1.561-1.255-.689-1.775-.964.6-.673,1.064-1.186,1.775-1.982.857.957.36.406,1.775,1.982m-3.765.084L74.1,4.571l-1.936.574L72.017,2.49c.934.054,1.645.092,2.655.145M72.01,5.13c-1.018-.421-.636-.26-1.432-.589a6.565,6.565,0,0,1,1.286-1.951c.077,1.2.077,1.324.146,2.541m2.777,6.711c.742.834,1.393,1.553,1.7,1.9a6.583,6.583,0,0,1-2.3-.474Zm6.52-2.694,1.431.589a6.634,6.634,0,0,1-1.286,1.951Zm1.485.451c-.528-.222-.9-.367-1.43-.589l1.9-1.7A6.313,6.313,0,0,1,82.791,9.6M81.368,5.267c.536-.222.9-.375,1.431-.589a6.7,6.7,0,0,1,.475,2.3c-.582-.52-1.339-1.194-1.906-1.706m-2.7-2.778c.1-.237.36-.865.59-1.431a6.655,6.655,0,0,1,1.951,1.286Zm.452-1.485c-.222.528-.368.9-.59,1.431l-1.7-1.9a6.5,6.5,0,0,1,2.289.467M74.787,2.436,74.2,1.013a6.72,6.72,0,0,1,2.3-.474Zm-.726-1.377.6,1.431c-.636-.038-1.891-.107-2.549-.138a6.768,6.768,0,0,1,1.952-1.293M70.525,4.678l1.432.589c-.88.788-.987.88-1.9,1.7a6.529,6.529,0,0,1,.467-2.288m1.432,4.331L70.525,9.6a6.535,6.535,0,0,1-.467-2.3c.788.712.979.88,1.9,1.706m6.572,2.831.59,1.423a6.69,6.69,0,0,1-2.3.474c1.53-1.7,1.216-1.347,1.706-1.9m.728,1.377-.59-1.423c.536.031,1.745.092,2.549.138a6.7,6.7,0,0,1-1.959,1.286" transform="translate(-16.411 -0.087)" fill="#09090a"/>
  </g>
</svg>