<svg xmlns="http://www.w3.org/2000/svg" width="13.5" height="15" viewBox="0 0 13.5 15">
  <g id="orders-2" transform="translate(-3.5 -2.5)">
    <path id="Path_1671" data-name="Path 1671" d="M15.125,2.5H5.375A1.877,1.877,0,0,0,3.5,4.375v11.25A1.877,1.877,0,0,0,5.375,17.5h9.75A1.877,1.877,0,0,0,17,15.625V4.375A1.877,1.877,0,0,0,15.125,2.5ZM16.25,15.625a1.126,1.126,0,0,1-1.125,1.125H5.375A1.126,1.126,0,0,1,4.25,15.625V4.375A1.126,1.126,0,0,1,5.375,3.25h9.75A1.126,1.126,0,0,1,16.25,4.375Z"/>
    <path id="Path_1672" data-name="Path 1672" d="M8.625,7.5h-.75a.375.375,0,0,0,0,.75h.75a.375.375,0,0,0,0-.75Z" transform="translate(-1 -1.25)"/>
    <path id="Path_1673" data-name="Path 1673" d="M15.375,7.5h-4.5a.375.375,0,0,0,0,.75h4.5a.375.375,0,0,0,0-.75Z" transform="translate(-1.75 -1.25)"/>
    <path id="Path_1674" data-name="Path 1674" d="M8.625,11.5h-.75a.375.375,0,0,0,0,.75h.75a.375.375,0,0,0,0-.75Z" transform="translate(-1 -2.25)"/>
    <path id="Path_1675" data-name="Path 1675" d="M15.375,11.5h-4.5a.375.375,0,0,0,0,.75h4.5a.375.375,0,0,0,0-.75Z" transform="translate(-1.75 -2.25)"/>
    <path id="Path_1676" data-name="Path 1676" d="M8.625,15.5h-.75a.375.375,0,0,0,0,.75h.75a.375.375,0,0,0,0-.75Z" transform="translate(-1 -3.25)"/>
    <path id="Path_1677" data-name="Path 1677" d="M15.375,15.5h-4.5a.375.375,0,0,0,0,.75h4.5a.375.375,0,0,0,0-.75Z" transform="translate(-1.75 -3.25)"/>
  </g>
</svg>