<?xml version="1.0" encoding="utf-8"?>
<!-- Generator: Adobe Illustrator 24.2.3, SVG Export Plug-In . SVG Version: 6.00 Build 0)  -->
<svg version="1.1" id="Layer_1" xmlns="http://www.w3.org/2000/svg" xmlns:xlink="http://www.w3.org/1999/xlink" x="0px" y="0px"
	 viewBox="0 0 99.7 23.17" style="enable-background:new 0 0 99.7 23.17;" xml:space="preserve">
<style type="text/css">
	.st0{fill:#FFFFFF;stroke:#000000;stroke-width:0.5;stroke-miterlimit:10;}
	.st1{fill:#FFFFFF;}
	.st2{fill:#09090A;}
</style>
<g>
	<path class="st0" d="M95.8,22.92H3.9c-2.02,0-3.65-1.64-3.65-3.65V3.9c0-2.02,1.64-3.65,3.65-3.65h91.9c2.02,0,3.65,1.64,3.65,3.65
		v15.37C99.46,21.28,97.82,22.92,95.8,22.92z"/>
	<g>
		<circle class="st1" cx="15.5" cy="11.58" r="8.72"/>
		<path class="st2" d="M24.33,11.59c0-6.27-6.39-10.57-12.21-8.16C9.97,4.32,8.24,6.05,7.34,8.21l0,0c-0.89,2.15-0.89,4.6,0,6.76
			c2.4,5.8,9.95,7.31,14.4,2.86C23.38,16.19,24.33,13.96,24.33,11.59z M9.55,17.84c2.39-0.13,2.98-0.16,3.32-0.18l-0.77,1.86
			C11.16,19.12,10.3,18.56,9.55,17.84z M9.24,17.53c-0.71-0.75-1.28-1.61-1.68-2.55c1.04-0.43,0.54-0.22,1.87-0.77
			C9.34,15.8,9.33,15.96,9.24,17.53z M24.08,11.59c-0.96,0.86-1.62,1.45-2.59,2.32c-0.26-0.49-0.86-1.59-1.26-2.32
			c0.63-1.16,0.58-1.07,1.26-2.32C23.04,10.65,23.1,10.7,24.08,11.59z M18.62,8.15c-1.01-0.42-1.88-0.78-2.9-1.2l2.19-1.19
			L18.62,8.15z M18.7,8.39c1.12,2.71,0.83,2.01,1.32,3.2c-0.49,1.19-0.2,0.49-1.32,3.2c-2.71,1.12-2.01,0.83-3.2,1.32
			c-1.19-0.49-0.49-0.2-3.2-1.32c-1.12-2.71-0.83-2.01-1.32-3.2c0.49-1.19,0.2-0.49,1.32-3.2c1.86-0.77,1.47-0.61,3.2-1.32
			C17.22,7.78,16.83,7.61,18.7,8.39z M18.62,15.03l-0.71,2.39l-2.19-1.19C16.82,15.77,17.59,15.45,18.62,15.03z M10.86,11.36
			L9.67,9.17l2.39-0.71C11.63,9.49,11.32,10.26,10.86,11.36z M12.06,14.71L9.67,14l1.19-2.19C11.31,12.9,11.63,13.67,12.06,14.71z
			 M13.09,5.76l2.19,1.19c-1.71,0.71-1.12,0.46-2.9,1.2C13.25,5.21,12.97,6.17,13.09,5.76z M13.09,17.41
			c-0.11-0.38-0.01-0.02-0.71-2.39c1.78,0.74,1.12,0.46,2.9,1.2C13.94,16.95,14.43,16.68,13.09,17.41z M21.33,14l-2.39,0.71
			c0.42-1.01,0.78-1.88,1.2-2.9C20.55,12.58,20.86,13.14,21.33,14z M20.14,11.36c-0.17-0.41-0.95-2.29-1.2-2.9
			c0.61,0.18,1.78,0.53,2.39,0.71C20.61,10.49,20.58,10.54,20.14,11.36z M21.38,8.99l-2.53-0.75L18.1,5.71l3.47-0.19
			C21.48,7.23,21.48,7.09,21.38,8.99z M10.76,11.59L9.5,13.91l-2.59-2.32L9.5,9.27L10.76,11.59z M12.15,14.94
			c0.58,1.96,0.17,0.59,0.75,2.53l-3.47,0.19l0.19-3.47L12.15,14.94z M15.5,16.32l2.32,1.26l-2.32,2.59l-2.32-2.59L15.5,16.32z
			 M18.85,14.94c0.64-0.19,1.89-0.56,2.53-0.75c0.1,1.87,0.1,1.8,0.19,3.47l-3.47-0.19L18.85,14.94z M21.57,8.96l0.18-3.33
			c0.71,0.75,1.28,1.61,1.68,2.55L21.57,8.96z M17.82,5.59c-1.23,0.67-1.11,0.6-2.32,1.26c-3.76-2.04-1.64-0.9-2.32-1.26
			C13.96,4.71,14.57,4.04,15.5,3C16.62,4.25,15.97,3.53,17.82,5.59z M12.9,5.71l-0.75,2.53L9.62,8.99L9.43,5.52
			C10.65,5.58,11.58,5.63,12.9,5.71z M9.42,8.96C8.09,8.41,8.59,8.62,7.55,8.19c0.41-0.95,0.97-1.81,1.68-2.55
			C9.33,7.22,9.34,7.37,9.42,8.96z M13.06,17.74c0.97,1.09,1.82,2.03,2.22,2.48c-1.03-0.03-2.04-0.23-3-0.62L13.06,17.74z
			 M21.57,14.21l1.87,0.77c-0.41,0.95-0.97,1.8-1.68,2.55L21.57,14.21z M23.51,14.8c-0.69-0.29-1.17-0.48-1.87-0.77
			c0.85-0.76,0.95-0.85,2.48-2.22C24.1,12.84,23.9,13.85,23.51,14.8z M21.65,9.14c0.7-0.29,1.17-0.49,1.87-0.77
			c0.38,0.95,0.59,1.96,0.62,3C23.38,10.69,22.39,9.81,21.65,9.14z M18.12,5.51c0.13-0.31,0.47-1.13,0.77-1.87
			c0.95,0.41,1.8,0.97,2.55,1.68L18.12,5.51z M18.71,3.57c-0.29,0.69-0.48,1.17-0.77,1.87c-0.76-0.85-0.85-0.95-2.22-2.48
			C16.75,2.98,17.76,3.19,18.71,3.57z M13.06,5.44l-0.77-1.86c0.96-0.38,1.96-0.59,3-0.62L13.06,5.44z M12.1,3.65l0.77,1.86
			c-0.83-0.05-2.47-0.14-3.33-0.18C10.3,4.62,11.16,4.05,12.1,3.65z M7.48,8.37l1.87,0.77c-1.15,1.03-1.29,1.15-2.48,2.22
			C6.89,10.33,7.1,9.32,7.48,8.37z M9.35,14.03L7.48,14.8c-0.38-0.95-0.59-1.96-0.61-3C7.9,12.73,8.15,12.95,9.35,14.03z
			 M17.94,17.74l0.77,1.86c-0.95,0.38-1.96,0.59-3,0.62C17.71,17.99,17.3,18.45,17.94,17.74z M18.89,19.53l-0.77-1.86
			c0.7,0.04,2.28,0.12,3.33,0.18C20.7,18.56,19.84,19.12,18.89,19.53z"/>
	</g>
	<g>
		<circle class="st1" cx="38.2" cy="11.58" r="8.72"/>
		<path class="st2" d="M47.02,11.59c0-6.27-6.39-10.57-12.21-8.16c-2.15,0.89-3.88,2.62-4.78,4.78l0,0c-0.89,2.15-0.89,4.6,0,6.76
			c2.4,5.8,9.95,7.31,14.4,2.86C46.08,16.19,47.02,13.96,47.02,11.59z M32.25,17.84c2.39-0.13,2.98-0.16,3.32-0.18l-0.77,1.86
			C33.86,19.12,33,18.56,32.25,17.84z M31.94,17.53c-0.71-0.75-1.28-1.61-1.68-2.55c1.04-0.43,0.54-0.22,1.87-0.77
			C32.03,15.8,32.03,15.96,31.94,17.53z M46.78,11.59c-0.96,0.86-1.62,1.45-2.59,2.32c-0.26-0.49-0.86-1.59-1.26-2.32
			c0.63-1.16,0.58-1.07,1.26-2.32C45.74,10.65,45.79,10.7,46.78,11.59z M41.32,8.15c-1.01-0.42-1.88-0.78-2.9-1.2l2.19-1.19
			L41.32,8.15z M41.4,8.39c1.12,2.71,0.83,2.01,1.32,3.2c-0.49,1.19-0.2,0.49-1.32,3.2c-2.71,1.12-2.01,0.83-3.2,1.32
			c-1.19-0.49-0.49-0.2-3.2-1.32c-1.12-2.71-0.83-2.01-1.32-3.2c0.49-1.19,0.2-0.49,1.32-3.2c1.86-0.77,1.47-0.61,3.2-1.32
			C39.92,7.78,39.53,7.61,41.4,8.39z M41.32,15.03l-0.71,2.39l-2.19-1.19C39.52,15.77,40.29,15.45,41.32,15.03z M33.56,11.36
			l-1.19-2.19l2.39-0.71C34.33,9.49,34.01,10.26,33.56,11.36z M34.76,14.71L32.37,14l1.19-2.19C34.01,12.9,34.33,13.67,34.76,14.71z
			 M35.78,5.76l2.19,1.19c-1.71,0.71-1.12,0.46-2.9,1.2C35.95,5.21,35.66,6.17,35.78,5.76z M35.78,17.41
			c-0.11-0.38-0.01-0.02-0.71-2.39c1.78,0.74,1.12,0.46,2.9,1.2C36.64,16.95,37.13,16.68,35.78,17.41z M44.02,14l-2.39,0.71
			c0.42-1.01,0.78-1.88,1.2-2.9C43.25,12.58,43.56,13.14,44.02,14z M42.84,11.36c-0.17-0.41-0.95-2.29-1.2-2.9
			c0.61,0.18,1.78,0.53,2.39,0.71C43.31,10.49,43.28,10.54,42.84,11.36z M44.08,8.99l-2.53-0.75L40.8,5.71l3.47-0.19
			C44.17,7.23,44.18,7.09,44.08,8.99z M33.46,11.59l-1.26,2.32l-2.59-2.32l2.59-2.32L33.46,11.59z M34.85,14.94
			c0.58,1.96,0.17,0.59,0.75,2.53l-3.47,0.19l0.19-3.47L34.85,14.94z M38.2,16.32l2.32,1.26l-2.32,2.59l-2.32-2.59L38.2,16.32z
			 M41.55,14.94c0.64-0.19,1.89-0.56,2.53-0.75c0.1,1.87,0.1,1.8,0.19,3.47l-3.47-0.19L41.55,14.94z M44.27,8.96l0.18-3.33
			c0.71,0.75,1.28,1.61,1.68,2.55L44.27,8.96z M40.52,5.59c-1.23,0.67-1.11,0.6-2.32,1.26c-3.76-2.04-1.64-0.9-2.32-1.26
			C36.66,4.71,37.27,4.04,38.2,3C39.32,4.25,38.67,3.53,40.52,5.59z M35.6,5.71l-0.75,2.53l-2.53,0.75l-0.19-3.47
			C33.35,5.58,34.28,5.63,35.6,5.71z M32.12,8.96c-1.33-0.55-0.83-0.34-1.87-0.77c0.41-0.95,0.97-1.81,1.68-2.55
			C32.03,7.22,32.03,7.37,32.12,8.96z M35.75,17.74c0.97,1.09,1.82,2.03,2.22,2.48c-1.03-0.03-2.04-0.23-3-0.62L35.75,17.74z
			 M44.27,14.21l1.87,0.77c-0.41,0.95-0.97,1.8-1.68,2.55L44.27,14.21z M46.21,14.8c-0.69-0.29-1.17-0.48-1.87-0.77
			c0.85-0.76,0.95-0.85,2.48-2.22C46.8,12.84,46.6,13.85,46.21,14.8z M44.35,9.14c0.7-0.29,1.17-0.49,1.87-0.77
			c0.38,0.95,0.59,1.96,0.62,3C46.08,10.69,45.09,9.81,44.35,9.14z M40.82,5.51c0.13-0.31,0.47-1.13,0.77-1.87
			c0.95,0.41,1.8,0.97,2.55,1.68L40.82,5.51z M41.41,3.57c-0.29,0.69-0.48,1.17-0.77,1.87c-0.76-0.85-0.85-0.95-2.22-2.48
			C39.45,2.98,40.46,3.19,41.41,3.57z M35.75,5.44l-0.77-1.86c0.96-0.38,1.96-0.59,3-0.62L35.75,5.44z M34.8,3.65l0.77,1.86
			c-0.83-0.05-2.47-0.14-3.33-0.18C33,4.62,33.86,4.05,34.8,3.65z M30.18,8.37l1.87,0.77c-1.15,1.03-1.29,1.15-2.48,2.22
			C29.59,10.33,29.8,9.32,30.18,8.37z M32.05,14.03l-1.87,0.77c-0.38-0.95-0.59-1.96-0.61-3C30.6,12.73,30.85,12.95,32.05,14.03z
			 M40.64,17.74l0.77,1.86c-0.95,0.38-1.96,0.59-3,0.62C40.41,17.99,40,18.45,40.64,17.74z M41.59,19.53l-0.77-1.86
			c0.7,0.04,2.28,0.12,3.33,0.18C43.4,18.56,42.54,19.12,41.59,19.53z"/>
	</g>
	<g>
		<circle class="st1" cx="60.9" cy="11.58" r="8.72"/>
		<path class="st2" d="M69.72,11.59c0-6.27-6.39-10.57-12.21-8.16c-2.15,0.89-3.88,2.62-4.78,4.78l0,0c-0.89,2.15-0.89,4.6,0,6.76
			c2.4,5.8,9.95,7.31,14.4,2.86C68.78,16.19,69.72,13.96,69.72,11.59z M54.95,17.84c2.39-0.13,2.98-0.16,3.32-0.18l-0.77,1.86
			C56.55,19.12,55.7,18.56,54.95,17.84z M54.64,17.53c-0.71-0.75-1.28-1.61-1.68-2.55c1.04-0.43,0.54-0.22,1.87-0.77
			C54.73,15.8,54.73,15.96,54.64,17.53z M69.48,11.59c-0.96,0.86-1.62,1.45-2.59,2.32c-0.26-0.49-0.86-1.59-1.26-2.32
			c0.63-1.16,0.58-1.07,1.26-2.32C68.44,10.65,68.49,10.7,69.48,11.59z M64.02,8.15c-1.01-0.42-1.88-0.78-2.9-1.2l2.19-1.19
			L64.02,8.15z M64.09,8.39c1.12,2.71,0.83,2.01,1.32,3.2c-0.49,1.19-0.2,0.49-1.32,3.2c-2.71,1.12-2.01,0.83-3.2,1.32
			c-1.19-0.49-0.49-0.2-3.2-1.32c-1.12-2.71-0.83-2.01-1.32-3.2c0.49-1.19,0.2-0.49,1.32-3.2c1.86-0.77,1.47-0.61,3.2-1.32
			C62.61,7.78,62.22,7.61,64.09,8.39z M64.02,15.03l-0.71,2.39l-2.19-1.19C62.22,15.77,62.99,15.45,64.02,15.03z M56.26,11.36
			l-1.19-2.19l2.39-0.71C57.03,9.49,56.71,10.26,56.26,11.36z M57.46,14.71L55.07,14l1.19-2.19C56.71,12.9,57.03,13.67,57.46,14.71z
			 M58.48,5.76l2.19,1.19c-1.71,0.71-1.12,0.46-2.9,1.2C58.65,5.21,58.36,6.17,58.48,5.76z M58.48,17.41
			c-0.11-0.38-0.01-0.02-0.71-2.39c1.78,0.74,1.12,0.46,2.9,1.2C59.34,16.95,59.82,16.68,58.48,17.41z M66.72,14l-2.39,0.71
			c0.42-1.01,0.78-1.88,1.2-2.9C65.95,12.58,66.26,13.14,66.72,14z M65.54,11.36c-0.17-0.41-0.95-2.29-1.2-2.9
			c0.61,0.18,1.78,0.53,2.39,0.71C66.01,10.49,65.98,10.54,65.54,11.36z M66.78,8.99l-2.53-0.75L63.5,5.71l3.47-0.19
			C66.87,7.23,66.88,7.09,66.78,8.99z M56.16,11.59l-1.26,2.32l-2.59-2.32l2.59-2.32L56.16,11.59z M57.55,14.94
			c0.58,1.96,0.17,0.59,0.75,2.53l-3.47,0.19l0.19-3.47L57.55,14.94z M60.9,16.32l2.32,1.26l-2.32,2.59l-2.32-2.59L60.9,16.32z
			 M64.25,14.94c0.64-0.19,1.89-0.56,2.53-0.75c0.1,1.87,0.1,1.8,0.19,3.47l-3.47-0.19L64.25,14.94z M66.97,8.96l0.18-3.33
			c0.71,0.75,1.28,1.61,1.68,2.55L66.97,8.96z M63.22,5.59c-1.23,0.67-1.11,0.6-2.32,1.26c-3.76-2.04-1.64-0.9-2.32-1.26
			C59.36,4.71,59.97,4.04,60.9,3C62.02,4.25,61.37,3.53,63.22,5.59z M58.3,5.71l-0.75,2.53l-2.53,0.75l-0.19-3.47
			C56.05,5.58,56.98,5.63,58.3,5.71z M54.82,8.96c-1.33-0.55-0.83-0.34-1.87-0.77c0.41-0.95,0.97-1.81,1.68-2.55
			C54.73,7.22,54.73,7.37,54.82,8.96z M58.45,17.74c0.97,1.09,1.82,2.03,2.22,2.48c-1.03-0.03-2.04-0.23-3-0.62L58.45,17.74z
			 M66.97,14.21l1.87,0.77c-0.41,0.95-0.97,1.8-1.68,2.55L66.97,14.21z M68.91,14.8c-0.69-0.29-1.17-0.48-1.87-0.77
			c0.85-0.76,0.95-0.85,2.48-2.22C69.5,12.84,69.29,13.85,68.91,14.8z M67.05,9.14c0.7-0.29,1.17-0.49,1.87-0.77
			c0.38,0.95,0.59,1.96,0.62,3C68.77,10.69,67.79,9.81,67.05,9.14z M63.52,5.51c0.13-0.31,0.47-1.13,0.77-1.87
			c0.95,0.41,1.8,0.97,2.55,1.68L63.52,5.51z M64.11,3.57c-0.29,0.69-0.48,1.17-0.77,1.87c-0.76-0.85-0.85-0.95-2.22-2.48
			C62.15,2.98,63.16,3.19,64.11,3.57z M58.45,5.44l-0.77-1.86c0.96-0.38,1.96-0.59,3-0.62L58.45,5.44z M57.5,3.65l0.77,1.86
			c-0.83-0.05-2.47-0.14-3.33-0.18C55.7,4.62,56.55,4.05,57.5,3.65z M52.88,8.37l1.87,0.77c-1.15,1.03-1.29,1.15-2.48,2.22
			C52.29,10.33,52.5,9.32,52.88,8.37z M54.75,14.03l-1.87,0.77c-0.38-0.95-0.59-1.96-0.61-3C53.3,12.73,53.55,12.95,54.75,14.03z
			 M63.34,17.74l0.77,1.86c-0.95,0.38-1.96,0.59-3,0.62C63.11,17.99,62.7,18.45,63.34,17.74z M64.29,19.53l-0.77-1.86
			c0.7,0.04,2.28,0.12,3.33,0.18C66.1,18.56,65.24,19.12,64.29,19.53z"/>
	</g>
	<g>
		<circle class="st1" cx="83.6" cy="11.58" r="8.72"/>
		<path class="st2" d="M92.42,11.59c0-6.27-6.39-10.57-12.21-8.16c-2.15,0.89-3.88,2.62-4.78,4.78l0,0c-0.89,2.15-0.89,4.6,0,6.76
			c2.4,5.8,9.95,7.31,14.4,2.86C91.48,16.19,92.42,13.96,92.42,11.59z M77.65,17.84c2.39-0.13,2.98-0.16,3.32-0.18l-0.77,1.86
			C79.25,19.12,78.4,18.56,77.65,17.84z M77.34,17.53c-0.71-0.75-1.28-1.61-1.68-2.55c1.04-0.43,0.54-0.22,1.87-0.77
			C77.43,15.8,77.42,15.96,77.34,17.53z M92.18,11.59c-0.96,0.86-1.62,1.45-2.59,2.32c-0.26-0.49-0.86-1.59-1.26-2.32
			c0.63-1.16,0.58-1.07,1.26-2.32C91.14,10.65,91.19,10.7,92.18,11.59z M86.72,8.15c-1.01-0.42-1.88-0.78-2.9-1.2l2.19-1.19
			L86.72,8.15z M86.79,8.39c1.12,2.71,0.83,2.01,1.32,3.2c-0.49,1.19-0.2,0.49-1.32,3.2c-2.71,1.12-2.01,0.83-3.2,1.32
			c-1.19-0.49-0.49-0.2-3.2-1.32c-1.12-2.71-0.83-2.01-1.32-3.2c0.49-1.19,0.2-0.49,1.32-3.2c1.86-0.77,1.47-0.61,3.2-1.32
			C85.31,7.78,84.92,7.61,86.79,8.39z M86.72,15.03l-0.71,2.38l-2.19-1.19C84.92,15.77,85.69,15.45,86.72,15.03z M78.96,11.36
			l-1.19-2.19l2.39-0.71C79.73,9.49,79.41,10.26,78.96,11.36z M80.16,14.71L77.77,14l1.19-2.19C79.41,12.9,79.73,13.67,80.16,14.71z
			 M81.18,5.76l2.19,1.19c-1.71,0.71-1.12,0.46-2.9,1.2C81.34,5.21,81.06,6.17,81.18,5.76z M81.18,17.41
			c-0.11-0.38-0.01-0.02-0.71-2.39c1.78,0.74,1.12,0.46,2.9,1.2C82.04,16.95,82.52,16.68,81.18,17.41z M89.42,14l-2.39,0.71
			c0.42-1.01,0.78-1.88,1.2-2.9C88.65,12.58,88.96,13.14,89.42,14z M88.23,11.36c-0.17-0.41-0.95-2.29-1.2-2.9
			c0.61,0.18,1.78,0.53,2.39,0.71C88.71,10.49,88.68,10.54,88.23,11.36z M89.47,8.99l-2.53-0.75l-0.75-2.53l3.47-0.19
			C89.57,7.23,89.58,7.09,89.47,8.99z M78.86,11.59l-1.26,2.32l-2.59-2.32l2.59-2.32L78.86,11.59z M80.25,14.94
			c0.58,1.96,0.17,0.59,0.75,2.53l-3.47,0.19l0.19-3.47L80.25,14.94z M83.6,16.32l2.32,1.26l-2.32,2.59l-2.32-2.59L83.6,16.32z
			 M86.95,14.94c0.64-0.19,1.89-0.56,2.53-0.75c0.1,1.87,0.1,1.8,0.19,3.47l-3.47-0.19L86.95,14.94z M89.67,8.96l0.18-3.33
			c0.71,0.75,1.28,1.61,1.68,2.55L89.67,8.96z M85.91,5.59c-1.23,0.67-1.11,0.6-2.32,1.26c-3.76-2.04-1.64-0.9-2.32-1.26
			c0.78-0.88,1.39-1.55,2.32-2.59C84.72,4.25,84.07,3.53,85.91,5.59z M80.99,5.71l-0.75,2.53l-2.53,0.75l-0.19-3.47
			C78.75,5.58,79.68,5.63,80.99,5.71z M77.52,8.96c-1.33-0.55-0.83-0.34-1.87-0.77c0.41-0.95,0.97-1.81,1.68-2.55
			C77.42,7.22,77.43,7.37,77.52,8.96z M81.15,17.74c0.97,1.09,1.82,2.03,2.22,2.48c-1.03-0.03-2.04-0.23-3-0.62L81.15,17.74z
			 M89.67,14.21l1.87,0.77c-0.41,0.95-0.97,1.8-1.68,2.55L89.67,14.21z M91.61,14.8c-0.69-0.29-1.17-0.48-1.87-0.77
			c0.85-0.76,0.95-0.85,2.48-2.22C92.2,12.84,91.99,13.85,91.61,14.8z M89.74,9.14c0.7-0.29,1.17-0.49,1.87-0.77
			c0.38,0.95,0.59,1.96,0.62,3C91.47,10.69,90.49,9.81,89.74,9.14z M86.22,5.51c0.13-0.31,0.47-1.13,0.77-1.87
			c0.95,0.41,1.8,0.97,2.55,1.68L86.22,5.51z M86.81,3.57c-0.29,0.69-0.48,1.17-0.77,1.87c-0.76-0.85-0.85-0.95-2.22-2.48
			C84.85,2.98,85.86,3.19,86.81,3.57z M81.15,5.44l-0.77-1.86c0.96-0.38,1.96-0.59,3-0.62L81.15,5.44z M80.2,3.65l0.77,1.86
			c-0.83-0.05-2.47-0.14-3.33-0.18C78.4,4.62,79.25,4.05,80.2,3.65z M75.58,8.37l1.87,0.77c-1.15,1.03-1.29,1.15-2.48,2.22
			C74.99,10.33,75.2,9.32,75.58,8.37z M77.45,14.03l-1.87,0.77c-0.38-0.95-0.59-1.96-0.61-3C76,12.73,76.24,12.95,77.45,14.03z
			 M86.04,17.74l0.77,1.86c-0.95,0.38-1.96,0.59-3,0.62C85.81,17.99,85.4,18.45,86.04,17.74z M86.99,19.53l-0.77-1.86
			c0.7,0.04,2.28,0.12,3.33,0.18C88.79,18.56,87.94,19.12,86.99,19.53z"/>
	</g>
</g>
</svg>
