<svg xmlns="http://www.w3.org/2000/svg" xmlns:xlink="http://www.w3.org/1999/xlink" width="31.893" height="104" viewBox="0 0 31.893 104">
  <defs>
    <clipPath id="clip-path">
      <rect id="Rectangle_334" data-name="Rectangle 334" width="31.893" height="104" fill="none"/>
    </clipPath>
  </defs>
  <g id="_6mm" data-name="6mm" clip-path="url(#clip-path)">
    <path id="Path_1744" data-name="Path 1744" d="M27.237,104H4.662A4.668,4.668,0,0,1,0,99.338V4.657A4.671,4.671,0,0,1,4.662,0h22.57a4.667,4.667,0,0,1,4.661,4.662V99.338A4.659,4.659,0,0,1,27.237,104M4.662.991A3.679,3.679,0,0,0,.991,4.658v94.68a3.675,3.675,0,0,0,3.671,3.671H27.237a3.665,3.665,0,0,0,3.666-3.67V4.663A3.675,3.675,0,0,0,27.232.991Z"/>
  </g>
</svg>