<svg id="celtic" xmlns="http://www.w3.org/2000/svg" xmlns:xlink="http://www.w3.org/1999/xlink" width="67" height="15.253" viewBox="0 0 67 15.253">
  <defs>
    <clipPath id="clip-path">
      <rect id="Rectangle_350" data-name="Rectangle 350" width="67" height="15.253" fill="none"/>
    </clipPath>
  </defs>
  <g id="Group_240" data-name="Group 240" transform="translate(0 0)" clip-path="url(#clip-path)">
    <path id="Path_1855" data-name="Path 1855" d="M62.731,14.113H4.444A4.2,4.2,0,0,1,.25,9.919V7.984A4.2,4.2,0,0,1,4.444,3.79h58.28a4.2,4.2,0,0,1,4.194,4.194V9.919a4.189,4.189,0,0,1-4.188,4.194" transform="translate(-0.084 -1.279)" fill="#fff"/>
    <path id="Path_1856" data-name="Path 1856" d="M62.731,14.113H4.444A4.2,4.2,0,0,1,.25,9.919V7.984A4.2,4.2,0,0,1,4.444,3.79h58.28a4.2,4.2,0,0,1,4.194,4.194V9.919A4.189,4.189,0,0,1,62.731,14.113Z" transform="translate(-0.084 -1.279)" fill="none" stroke="#000" stroke-miterlimit="10" stroke-width="0.5"/>
    <path id="Path_1857" data-name="Path 1857" d="M65.589,2.5H4.36L6.858.25H63.144Z" transform="translate(-1.471 -0.084)" fill="#fff"/>
    <path id="Path_1858" data-name="Path 1858" d="M65.589,2.5H4.36L6.858.25H63.144Z" transform="translate(-1.471 -0.084)" fill="none" stroke="#000" stroke-miterlimit="10" stroke-width="0.5"/>
    <path id="Path_1859" data-name="Path 1859" d="M65.589,19.37H4.36l2.5,2.253H63.144Z" transform="translate(-1.471 -6.536)" fill="#fff"/>
    <path id="Path_1860" data-name="Path 1860" d="M65.589,19.37H4.36l2.5,2.253H63.144Z" transform="translate(-1.471 -6.536)" fill="none" stroke="#000" stroke-miterlimit="10" stroke-width="0.5"/>
    <path id="Path_1861" data-name="Path 1861" d="M6.579,9.178a4.568,4.568,0,0,1,.729.06,3.137,3.137,0,0,1-.152.557,4.214,4.214,0,0,0-.576-.04,3.951,3.951,0,0,0-2.425.822c-.033.027-.066.053-.106.08a4.006,4.006,0,0,1-.027-.4,2.181,2.181,0,0,1,.02-.3,4.5,4.5,0,0,1,2.538-.775m.205-3.889a4.5,4.5,0,0,1,.994,1.478l.1.258a3.627,3.627,0,0,0-.7-.2,4.024,4.024,0,0,0-.6-.914,3.7,3.7,0,0,0-.669,1.073,3.953,3.953,0,0,0-.258,2.107,4.889,4.889,0,0,0-.557.146A4.517,4.517,0,0,1,6.38,5.289l.2-.2c.066.066.133.133.205.2M8.11,8.2a4.642,4.642,0,0,1-.331,2.054A4.543,4.543,0,0,1,7.1,11.391,4.353,4.353,0,0,1,6.712,11L6.7,10.994,6.7,10.987l-.007-.007a3.969,3.969,0,0,0,.8-3.121A2.542,2.542,0,0,1,8.11,8.2M5.89,9.986a4.033,4.033,0,0,0,1.279,1.69,3.846,3.846,0,0,0,1.02.57,2.522,2.522,0,0,1-.6.364,4.376,4.376,0,0,1-.769-.477,4.541,4.541,0,0,1-1.484-1.994l.02-.007a2.915,2.915,0,0,1,.537-.146m3.359,2.491c.113.007.225.013.345.013a3.542,3.542,0,0,0,.749-.073A4.014,4.014,0,0,0,9,10.563a3.912,3.912,0,0,0-.961-.543c.06-.186.113-.371.152-.557a4.53,4.53,0,0,1,1.16.649,4.6,4.6,0,0,1,1.63,2.445l.073.278-.278.08a4.488,4.488,0,0,1-1.186.159,4.577,4.577,0,0,1-.861-.08c.106-.086.212-.179.311-.272.066-.086.139-.159.205-.245M6.579,6.945a3.3,3.3,0,0,1,3.306,3.306v.1c-.133-.133-.278-.252-.424-.371-.06-.046-.119-.086-.179-.133a2.734,2.734,0,0,0-2.7-2.332A2.929,2.929,0,0,0,5.89,7.6,4.234,4.234,0,0,1,6.1,6.985a2.9,2.9,0,0,1,.477-.04m3.074,4.532a3.314,3.314,0,0,1-4.81,1.59c.08-.02.166-.046.245-.073.166-.06.331-.126.49-.2a2.768,2.768,0,0,0,1,.186,2.725,2.725,0,0,0,2.63-2.008,3.96,3.96,0,0,1,.444.5M3.982,12.3A3.307,3.307,0,0,1,5.009,7.343a5.024,5.024,0,0,0-.126.769,2.731,2.731,0,0,0-1.034,2.14,2.693,2.693,0,0,0,.788,1.915,3.113,3.113,0,0,1-.656.133m-.669-.848a3.972,3.972,0,0,0-.5.974,4.039,4.039,0,0,0,.749.073,3.967,3.967,0,0,0,2.478-.861c.126.146.265.278.4.411l-.106.086a4.541,4.541,0,0,1-2.776.941,4.488,4.488,0,0,1-1.186-.159L2.1,12.842l.073-.278a4.487,4.487,0,0,1,.961-1.815,4.039,4.039,0,0,0,.179.7" transform="translate(-0.709 -1.717)"/>
    <path id="Path_1862" data-name="Path 1862" d="M17.029,9.47a4.541,4.541,0,0,1-2.544-.775,2.253,2.253,0,0,1-.02-.3,2.7,2.7,0,0,1,.033-.4c.033.027.066.053.106.08a3.951,3.951,0,0,0,2.425.822,4.214,4.214,0,0,0,.576-.04,3.825,3.825,0,0,1,.152.557,4.568,4.568,0,0,1-.729.06m.2,3.889-.2.2-.2-.2a4.5,4.5,0,0,1-.994-1.478,4.576,4.576,0,0,1-.285-2.471,3.811,3.811,0,0,0,.557.146,3.87,3.87,0,0,0,.252,2.1,3.935,3.935,0,0,0,.669,1.08,4.024,4.024,0,0,0,.6-.914,3.007,3.007,0,0,0,.7-.2,2.068,2.068,0,0,1-.1.258,4.645,4.645,0,0,1-.994,1.478m1.325-2.915a2.522,2.522,0,0,1-.616.338,3.994,3.994,0,0,0-.8-3.121l.007-.007.007-.007.007-.007a3.629,3.629,0,0,1,.391-.391,4.352,4.352,0,0,1,.676,1.133,4.489,4.489,0,0,1,.331,2.061M16.34,8.661a3.541,3.541,0,0,1-.537-.139l-.02-.007a4.592,4.592,0,0,1,1.484-1.994,4.376,4.376,0,0,1,.769-.477,2.659,2.659,0,0,1,.6.364,4.022,4.022,0,0,0-2.3,2.253m3.359-2.5c-.066-.08-.139-.159-.212-.232a2.407,2.407,0,0,0-.311-.272,4.629,4.629,0,0,1,.861-.08,4.488,4.488,0,0,1,1.186.159l.278.073-.073.278a4.579,4.579,0,0,1-2.789,3.094,4.347,4.347,0,0,0-.152-.557,3.975,3.975,0,0,0,2.3-2.4,4.039,4.039,0,0,0-.749-.073,2.876,2.876,0,0,0-.338.007M17.029,11.7a3.848,3.848,0,0,1-.477-.033,4.134,4.134,0,0,1-.212-.629,2.619,2.619,0,0,0,.689.086,2.734,2.734,0,0,0,2.7-2.332c.06-.04.119-.086.179-.133a4.472,4.472,0,0,0,.424-.371v.1A3.313,3.313,0,0,1,17.029,11.7M20.1,7.17a3.912,3.912,0,0,1-.437.5,2.739,2.739,0,0,0-2.63-2.008,2.672,2.672,0,0,0-1.007.192c-.159-.073-.325-.139-.49-.2-.08-.027-.159-.053-.245-.073A3.314,3.314,0,0,1,20.1,7.17m-5.665-.828a4.022,4.022,0,0,1,.649.126,2.726,2.726,0,0,0,.245,4.055,5.024,5.024,0,0,0,.126.769,3.3,3.3,0,0,1-1.736-2.909,3.347,3.347,0,0,1,.716-2.041m-.669.848a3.521,3.521,0,0,0-.179.7,4.569,4.569,0,0,1-.961-1.815L12.55,5.8l.278-.073a4.488,4.488,0,0,1,1.186-.159,4.556,4.556,0,0,1,2.776.941,1.21,1.21,0,0,1,.106.086,3.944,3.944,0,0,0-.4.411,3.953,3.953,0,0,0-2.478-.861,3.542,3.542,0,0,0-.749.073,3.754,3.754,0,0,0,.5.974" transform="translate(-4.235 -1.717)"/>
    <path id="Path_1863" data-name="Path 1863" d="M27.469,9.181a4.568,4.568,0,0,1,.729.06,3.138,3.138,0,0,1-.152.557,4.214,4.214,0,0,0-.576-.04,3.951,3.951,0,0,0-2.425.822c-.033.027-.066.053-.106.08a2.7,2.7,0,0,1-.033-.4,2.181,2.181,0,0,1,.02-.3,4.541,4.541,0,0,1,2.544-.775m.2-3.889a4.5,4.5,0,0,1,.994,1.478l.1.258a3.627,3.627,0,0,0-.7-.2,4.024,4.024,0,0,0-.6-.914A3.958,3.958,0,0,0,26.541,9.1a4.889,4.889,0,0,0-.557.146,4.569,4.569,0,0,1,.285-2.471A4.5,4.5,0,0,1,27.264,5.3l.2-.2c.073.06.139.126.205.192M29,8.207a4.642,4.642,0,0,1-.331,2.054,4.543,4.543,0,0,1-.676,1.133A4.353,4.353,0,0,1,27.6,11L27.595,11l-.007-.007-.007-.007a3.969,3.969,0,0,0,.8-3.121A2.673,2.673,0,0,1,29,8.207M26.78,9.99a4.033,4.033,0,0,0,1.279,1.69,3.846,3.846,0,0,0,1.02.57,2.522,2.522,0,0,1-.6.364,4.376,4.376,0,0,1-.769-.477,4.541,4.541,0,0,1-1.484-1.994l.02-.007a2.915,2.915,0,0,1,.537-.146m3.359,2.491c.113.007.225.013.345.013a3.542,3.542,0,0,0,.749-.073,4.014,4.014,0,0,0-1.338-1.855,3.911,3.911,0,0,0-.961-.543c.06-.186.113-.371.152-.557a4.53,4.53,0,0,1,1.16.649,4.6,4.6,0,0,1,1.63,2.445l.073.278-.278.073a4.488,4.488,0,0,1-1.186.159,4.577,4.577,0,0,1-.861-.08c.106-.086.212-.179.311-.272.066-.08.139-.152.205-.239m-2.67-5.533a3.3,3.3,0,0,1,3.306,3.306v.1c-.133-.133-.278-.252-.424-.371-.06-.046-.119-.086-.179-.133a2.734,2.734,0,0,0-2.7-2.332,2.929,2.929,0,0,0-.689.086,3.7,3.7,0,0,1,.212-.629c.159-.013.318-.027.477-.027m3.074,4.532a3.314,3.314,0,0,1-4.81,1.59c.08-.02.166-.046.245-.073.166-.06.331-.126.49-.2A2.739,2.739,0,0,0,30.1,10.977a3.96,3.96,0,0,1,.444.5m-5.672.822A3.307,3.307,0,0,1,25.9,7.346a4.325,4.325,0,0,0-.126.769,2.731,2.731,0,0,0-1.034,2.14,2.693,2.693,0,0,0,.788,1.915,3.113,3.113,0,0,1-.656.133m-.669-.848a3.972,3.972,0,0,0-.5.974,4.039,4.039,0,0,0,.749.073,3.967,3.967,0,0,0,2.478-.861c.126.146.265.278.4.411l-.106.086a4.541,4.541,0,0,1-2.776.941,4.488,4.488,0,0,1-1.186-.159l-.278-.073.073-.278a4.487,4.487,0,0,1,.961-1.815,4.039,4.039,0,0,0,.179.7" transform="translate(-7.757 -1.721)"/>
    <path id="Path_1864" data-name="Path 1864" d="M37.912,9.47a4.541,4.541,0,0,1-2.544-.775,2.254,2.254,0,0,1-.02-.3,2.7,2.7,0,0,1,.033-.4c.033.027.066.053.106.08a3.951,3.951,0,0,0,2.425.822,4.214,4.214,0,0,0,.576-.04,3.825,3.825,0,0,1,.152.557,4.446,4.446,0,0,1-.729.06m.205,3.889-.2.2-.2-.2a4.5,4.5,0,0,1-.994-1.478,4.576,4.576,0,0,1-.285-2.471A3.811,3.811,0,0,0,37,9.556a3.87,3.87,0,0,0,.252,2.1,3.935,3.935,0,0,0,.669,1.08,4.024,4.024,0,0,0,.6-.914,3.007,3.007,0,0,0,.7-.2,2.068,2.068,0,0,1-.1.258,4.645,4.645,0,0,1-.994,1.478m1.325-2.915a2.522,2.522,0,0,1-.616.338,3.994,3.994,0,0,0-.8-3.121l.007-.007.007-.007.007-.007a3.629,3.629,0,0,1,.391-.391,4.352,4.352,0,0,1,.676,1.133,4.578,4.578,0,0,1,.331,2.061M37.23,8.661a3.541,3.541,0,0,1-.537-.139l-.02-.007a4.592,4.592,0,0,1,1.484-1.994,4.375,4.375,0,0,1,.769-.477,2.659,2.659,0,0,1,.6.364,4.022,4.022,0,0,0-2.3,2.253m3.359-2.5c-.066-.08-.139-.159-.212-.232a2.408,2.408,0,0,0-.311-.272,4.629,4.629,0,0,1,.861-.08,4.488,4.488,0,0,1,1.186.159l.278.073-.073.278a4.579,4.579,0,0,1-2.789,3.094,4.346,4.346,0,0,0-.152-.557,3.975,3.975,0,0,0,2.3-2.4,4.039,4.039,0,0,0-.749-.073,2.877,2.877,0,0,0-.338.007M37.912,11.7a3.848,3.848,0,0,1-.477-.033,4.134,4.134,0,0,1-.212-.629,2.619,2.619,0,0,0,.689.086,2.734,2.734,0,0,0,2.7-2.332c.06-.04.119-.086.179-.133a4.473,4.473,0,0,0,.424-.371v.1A3.3,3.3,0,0,1,37.912,11.7M40.987,7.17a3.912,3.912,0,0,1-.437.5,2.739,2.739,0,0,0-2.63-2.008,2.672,2.672,0,0,0-1.007.192c-.159-.073-.325-.139-.49-.2-.08-.027-.159-.053-.245-.073a3.314,3.314,0,0,1,4.81,1.59m-5.665-.828a4.022,4.022,0,0,1,.649.126,2.726,2.726,0,0,0,.245,4.055,5.024,5.024,0,0,0,.126.769,3.3,3.3,0,0,1-1.736-2.909,3.347,3.347,0,0,1,.716-2.041m-.669.848a3.215,3.215,0,0,0-.179.7,4.569,4.569,0,0,1-.961-1.815L33.44,5.8l.278-.073A4.488,4.488,0,0,1,34.9,5.567a4.556,4.556,0,0,1,2.776.941,1.21,1.21,0,0,1,.106.086,3.943,3.943,0,0,0-.4.411A3.953,3.953,0,0,0,34.9,6.143a3.542,3.542,0,0,0-.749.073,3.754,3.754,0,0,0,.5.974" transform="translate(-11.283 -1.717)"/>
    <path id="Path_1865" data-name="Path 1865" d="M48.359,9.181a4.568,4.568,0,0,1,.729.06,3.137,3.137,0,0,1-.152.557,4.214,4.214,0,0,0-.576-.04,3.951,3.951,0,0,0-2.425.822c-.033.027-.066.053-.106.08a2.7,2.7,0,0,1-.033-.4,2.181,2.181,0,0,1,.02-.3,4.541,4.541,0,0,1,2.544-.775m.2-3.889a4.5,4.5,0,0,1,.994,1.478l.1.258a3.627,3.627,0,0,0-.7-.2,4.024,4.024,0,0,0-.6-.914A3.958,3.958,0,0,0,47.431,9.1a4.889,4.889,0,0,0-.557.146,4.569,4.569,0,0,1,.285-2.471A4.5,4.5,0,0,1,48.154,5.3l.2-.2c.073.06.139.126.205.192M49.89,8.207a4.642,4.642,0,0,1-.331,2.054,4.543,4.543,0,0,1-.676,1.133A4.353,4.353,0,0,1,48.492,11L48.478,11l-.007-.007-.007-.007a3.969,3.969,0,0,0,.8-3.121,2.585,2.585,0,0,1,.623.345M47.67,9.99a4.033,4.033,0,0,0,1.279,1.69,3.846,3.846,0,0,0,1.02.57,2.522,2.522,0,0,1-.6.364,4.376,4.376,0,0,1-.769-.477,4.541,4.541,0,0,1-1.484-1.994l.02-.007a2.915,2.915,0,0,1,.537-.146m3.359,2.491c.113.007.225.013.345.013a3.542,3.542,0,0,0,.749-.073,4.014,4.014,0,0,0-1.338-1.855,3.912,3.912,0,0,0-.961-.543c.06-.186.113-.371.152-.557a4.53,4.53,0,0,1,1.16.649,4.6,4.6,0,0,1,1.63,2.445l.073.278-.278.073a4.488,4.488,0,0,1-1.186.159,4.577,4.577,0,0,1-.861-.08c.106-.086.212-.179.311-.272.066-.08.139-.152.205-.239m-2.67-5.533a3.3,3.3,0,0,1,3.306,3.306v.1c-.133-.133-.278-.252-.424-.371-.06-.046-.119-.086-.179-.133a2.734,2.734,0,0,0-2.7-2.332,2.929,2.929,0,0,0-.689.086,3.7,3.7,0,0,1,.212-.629c.152-.013.311-.027.477-.027m3.068,4.532a3.314,3.314,0,0,1-4.81,1.59c.08-.02.166-.046.245-.073.166-.06.331-.126.49-.2a2.8,2.8,0,0,0,1.007.186,2.725,2.725,0,0,0,2.63-2.008,3.9,3.9,0,0,1,.437.5m-5.665.822a3.307,3.307,0,0,1,1.027-4.956,4.325,4.325,0,0,0-.126.769,2.731,2.731,0,0,0-1.034,2.14,2.693,2.693,0,0,0,.788,1.915,3.113,3.113,0,0,1-.656.133m-.669-.848a3.972,3.972,0,0,0-.5.974,4.039,4.039,0,0,0,.749.073,3.967,3.967,0,0,0,2.478-.861c.126.146.265.278.4.411l-.106.086a4.541,4.541,0,0,1-2.776.941,4.488,4.488,0,0,1-1.186-.159l-.278-.073.073-.278a4.487,4.487,0,0,1,.961-1.815,4.039,4.039,0,0,0,.179.7" transform="translate(-14.806 -1.721)"/>
    <path id="Path_1866" data-name="Path 1866" d="M58.8,9.47a4.541,4.541,0,0,1-2.544-.775,2.253,2.253,0,0,1-.02-.3,2.7,2.7,0,0,1,.033-.4c.033.027.066.053.106.08a3.951,3.951,0,0,0,2.425.822,4.214,4.214,0,0,0,.576-.04,3.824,3.824,0,0,1,.152.557,4.446,4.446,0,0,1-.729.06m.205,3.889-.2.2-.2-.2a4.5,4.5,0,0,1-.994-1.478,4.576,4.576,0,0,1-.285-2.471,3.811,3.811,0,0,0,.557.146,3.87,3.87,0,0,0,.252,2.1,3.936,3.936,0,0,0,.669,1.08,4.024,4.024,0,0,0,.6-.914,3.007,3.007,0,0,0,.7-.2,2.068,2.068,0,0,1-.1.258,4.645,4.645,0,0,1-.994,1.478m1.325-2.915a2.522,2.522,0,0,1-.616.338,3.994,3.994,0,0,0-.8-3.121l.007-.007.007-.007.007-.007a3.629,3.629,0,0,1,.391-.391A4.352,4.352,0,0,1,60,8.383a4.578,4.578,0,0,1,.331,2.061M58.12,8.661a3.541,3.541,0,0,1-.537-.139l-.02-.007a4.592,4.592,0,0,1,1.484-1.994,4.376,4.376,0,0,1,.769-.477,2.659,2.659,0,0,1,.6.364,4.022,4.022,0,0,0-2.3,2.253m3.353-2.5c-.066-.08-.139-.159-.212-.232a2.407,2.407,0,0,0-.311-.272,4.629,4.629,0,0,1,.861-.08A4.488,4.488,0,0,1,63,5.739l.278.073L63.2,6.09a4.579,4.579,0,0,1-2.789,3.094,4.345,4.345,0,0,0-.152-.557,3.975,3.975,0,0,0,2.3-2.4,4.039,4.039,0,0,0-.749-.073,2.9,2.9,0,0,0-.338.007M58.8,11.7a3.848,3.848,0,0,1-.477-.033,4.135,4.135,0,0,1-.212-.629,2.619,2.619,0,0,0,.689.086,2.734,2.734,0,0,0,2.7-2.332c.06-.04.119-.086.179-.133a4.472,4.472,0,0,0,.424-.371v.1A3.3,3.3,0,0,1,58.8,11.7M61.877,7.17a3.912,3.912,0,0,1-.437.5,2.739,2.739,0,0,0-2.63-2.008,2.672,2.672,0,0,0-1.007.192c-.159-.073-.325-.139-.49-.2-.08-.027-.159-.053-.245-.073a3.314,3.314,0,0,1,4.81,1.59m-5.665-.828a4.022,4.022,0,0,1,.649.126,2.726,2.726,0,0,0,.245,4.055,5.023,5.023,0,0,0,.126.769,3.291,3.291,0,0,1-1.02-4.949m-.669.848a3.521,3.521,0,0,0-.179.7A4.569,4.569,0,0,1,54.4,6.077L54.33,5.8l.278-.073a4.488,4.488,0,0,1,1.186-.159,4.556,4.556,0,0,1,2.776.941,1.21,1.21,0,0,1,.106.086,3.944,3.944,0,0,0-.4.411,3.953,3.953,0,0,0-2.478-.861,3.542,3.542,0,0,0-.749.073,3.755,3.755,0,0,0,.5.974" transform="translate(-18.332 -1.717)"/>
    <path id="Path_1867" data-name="Path 1867" d="M69.249,9.181a4.568,4.568,0,0,1,.729.06,3.138,3.138,0,0,1-.152.557,4.214,4.214,0,0,0-.576-.04,3.951,3.951,0,0,0-2.425.822c-.033.027-.066.053-.106.08a2.7,2.7,0,0,1-.033-.4,2.181,2.181,0,0,1,.02-.3,4.541,4.541,0,0,1,2.544-.775m.2-3.889a4.5,4.5,0,0,1,.994,1.478l.1.258a3.627,3.627,0,0,0-.7-.2,4.024,4.024,0,0,0-.6-.914A3.958,3.958,0,0,0,68.321,9.1a4.888,4.888,0,0,0-.557.146,4.569,4.569,0,0,1,.285-2.471A4.5,4.5,0,0,1,69.044,5.3l.2-.2c.073.06.139.126.205.192M70.78,8.207a4.642,4.642,0,0,1-.331,2.054,4.543,4.543,0,0,1-.676,1.133A4.353,4.353,0,0,1,69.382,11L69.368,11l-.007-.007-.007-.007a3.969,3.969,0,0,0,.8-3.121,2.717,2.717,0,0,1,.623.345M68.56,9.99a4.033,4.033,0,0,0,1.279,1.69,3.846,3.846,0,0,0,1.02.57,2.522,2.522,0,0,1-.6.364,4.375,4.375,0,0,1-.769-.477A4.541,4.541,0,0,1,68,10.142l.02-.007a2.915,2.915,0,0,1,.537-.146m3.359,2.491c.113.007.225.013.345.013a3.542,3.542,0,0,0,.749-.073,4.014,4.014,0,0,0-1.338-1.855,3.912,3.912,0,0,0-.961-.543c.06-.186.113-.371.152-.557a4.53,4.53,0,0,1,1.16.649,4.6,4.6,0,0,1,1.63,2.445l.073.278-.278.073a4.488,4.488,0,0,1-1.186.159,4.577,4.577,0,0,1-.861-.08c.106-.086.212-.179.311-.272.066-.08.139-.152.205-.239m-2.67-5.533a3.3,3.3,0,0,1,3.306,3.306v.1c-.133-.133-.278-.252-.424-.371-.06-.046-.119-.086-.179-.133a2.734,2.734,0,0,0-2.7-2.332,2.929,2.929,0,0,0-.689.086,3.7,3.7,0,0,1,.212-.629c.152-.013.311-.027.477-.027m3.068,4.532a3.314,3.314,0,0,1-4.81,1.59c.08-.02.166-.046.245-.073.166-.06.331-.126.49-.2a2.8,2.8,0,0,0,1.007.186,2.725,2.725,0,0,0,2.63-2.008,3.9,3.9,0,0,1,.437.5m-5.665.822a3.307,3.307,0,0,1,1.027-4.956,4.325,4.325,0,0,0-.126.769,2.731,2.731,0,0,0-1.034,2.14,2.693,2.693,0,0,0,.788,1.915,3.113,3.113,0,0,1-.656.133m-.669-.848a3.972,3.972,0,0,0-.5.974,4.039,4.039,0,0,0,.749.073,3.967,3.967,0,0,0,2.478-.861c.126.146.265.278.4.411l-.106.086a4.541,4.541,0,0,1-2.776.941,4.488,4.488,0,0,1-1.186-.159l-.278-.073.073-.278a4.488,4.488,0,0,1,.961-1.815,3.521,3.521,0,0,0,.179.7" transform="translate(-21.855 -1.721)"/>
    <path id="Path_1868" data-name="Path 1868" d="M79.689,9.47a4.541,4.541,0,0,1-2.544-.775,2.255,2.255,0,0,1-.02-.3,2.7,2.7,0,0,1,.033-.4c.033.027.066.053.106.08a3.951,3.951,0,0,0,2.425.822,4.214,4.214,0,0,0,.576-.04,3.823,3.823,0,0,1,.152.557,4.446,4.446,0,0,1-.729.06m.205,3.889-.2.2-.2-.2a4.5,4.5,0,0,1-.994-1.478,4.576,4.576,0,0,1-.285-2.471,3.811,3.811,0,0,0,.557.146,3.87,3.87,0,0,0,.252,2.1,3.935,3.935,0,0,0,.669,1.08,4.024,4.024,0,0,0,.6-.914,3.006,3.006,0,0,0,.7-.2,2.068,2.068,0,0,1-.1.258,4.757,4.757,0,0,1-.994,1.478m1.325-2.915a2.522,2.522,0,0,1-.616.338,3.994,3.994,0,0,0-.8-3.121l.007-.007.007-.007.007-.007a3.629,3.629,0,0,1,.391-.391,4.353,4.353,0,0,1,.676,1.133,4.671,4.671,0,0,1,.331,2.061M79,8.661a3.541,3.541,0,0,1-.537-.139l-.02-.007a4.592,4.592,0,0,1,1.484-1.994,4.376,4.376,0,0,1,.769-.477,2.659,2.659,0,0,1,.6.364,3.846,3.846,0,0,0-1.02.57A3.945,3.945,0,0,0,79,8.661m3.359-2.5c-.066-.08-.139-.159-.212-.232a2.407,2.407,0,0,0-.311-.272,4.629,4.629,0,0,1,.861-.08,4.488,4.488,0,0,1,1.186.159l.278.073-.073.278A4.579,4.579,0,0,1,81.3,9.185a4.348,4.348,0,0,0-.152-.557,3.975,3.975,0,0,0,2.3-2.4,4.039,4.039,0,0,0-.749-.073,2.9,2.9,0,0,0-.338.007M79.689,11.7a3.848,3.848,0,0,1-.477-.033A4.135,4.135,0,0,1,79,11.033a2.619,2.619,0,0,0,.689.086,2.734,2.734,0,0,0,2.7-2.332c.06-.04.119-.086.179-.133A4.471,4.471,0,0,0,83,8.284v.1A3.3,3.3,0,0,1,79.689,11.7M82.763,7.17a3.911,3.911,0,0,1-.437.5A2.739,2.739,0,0,0,79.7,5.66a2.672,2.672,0,0,0-1.007.192c-.159-.073-.325-.139-.49-.2-.08-.027-.159-.053-.245-.073a3.314,3.314,0,0,1,4.81,1.59M77.1,6.342a4.022,4.022,0,0,1,.649.126,2.726,2.726,0,0,0,.245,4.055,5.024,5.024,0,0,0,.126.769A3.291,3.291,0,0,1,77.1,6.342m-.676.848a3.521,3.521,0,0,0-.179.7,4.569,4.569,0,0,1-.961-1.815L75.21,5.8l.278-.073a4.488,4.488,0,0,1,1.186-.159,4.556,4.556,0,0,1,2.776.941,1.209,1.209,0,0,1,.106.086,3.943,3.943,0,0,0-.4.411,3.953,3.953,0,0,0-2.478-.861,3.543,3.543,0,0,0-.749.073,4.217,4.217,0,0,0,.5.974" transform="translate(-25.377 -1.717)"/>
    <path id="Path_1869" data-name="Path 1869" d="M90.139,9.178a4.568,4.568,0,0,1,.729.06,3.138,3.138,0,0,1-.152.557,4.214,4.214,0,0,0-.576-.04,3.951,3.951,0,0,0-2.425.822c-.033.027-.066.053-.106.08a2.7,2.7,0,0,1-.033-.4,2.179,2.179,0,0,1,.02-.3,4.541,4.541,0,0,1,2.544-.775m.2-3.889a4.5,4.5,0,0,1,.994,1.478l.1.258a3.627,3.627,0,0,0-.7-.2,4.024,4.024,0,0,0-.6-.914,4,4,0,0,0-.669,1.073,3.953,3.953,0,0,0-.258,2.107,4.889,4.889,0,0,0-.557.146,4.569,4.569,0,0,1,.285-2.471,4.5,4.5,0,0,1,.994-1.478l.2-.2c.073.066.139.133.205.2M91.67,8.2a4.642,4.642,0,0,1-.331,2.054,4.543,4.543,0,0,1-.676,1.133A4.352,4.352,0,0,1,90.272,11l-.013-.007-.007-.007-.007-.007a3.969,3.969,0,0,0,.8-3.121,2.717,2.717,0,0,1,.623.345M89.45,9.986a4.033,4.033,0,0,0,1.279,1.69,3.846,3.846,0,0,0,1.02.57,2.522,2.522,0,0,1-.6.364,4.376,4.376,0,0,1-.769-.477,4.542,4.542,0,0,1-1.484-1.994l.02-.007a2.915,2.915,0,0,1,.537-.146m3.359,2.491c.113.007.225.013.345.013a3.542,3.542,0,0,0,.749-.073,4.014,4.014,0,0,0-1.338-1.855,3.911,3.911,0,0,0-.961-.543c.06-.186.113-.371.152-.557a4.531,4.531,0,0,1,1.16.649,4.6,4.6,0,0,1,1.63,2.445l.073.278-.278.073a4.488,4.488,0,0,1-1.186.159,4.577,4.577,0,0,1-.861-.08c.106-.086.212-.179.311-.272.066-.08.139-.152.205-.239m-2.67-5.533a3.3,3.3,0,0,1,3.306,3.306v.1c-.133-.133-.278-.252-.424-.371-.06-.046-.119-.086-.179-.133a2.734,2.734,0,0,0-2.7-2.332,2.929,2.929,0,0,0-.689.086,3.7,3.7,0,0,1,.212-.629c.152-.013.311-.027.477-.027m3.068,4.532a3.314,3.314,0,0,1-4.81,1.59c.08-.02.166-.046.245-.073.166-.06.331-.126.49-.2a2.8,2.8,0,0,0,1.007.186,2.725,2.725,0,0,0,2.63-2.008,4.494,4.494,0,0,1,.437.5m-5.665.822a3.307,3.307,0,0,1,1.027-4.956,4.325,4.325,0,0,0-.126.769,2.731,2.731,0,0,0-1.034,2.14,2.693,2.693,0,0,0,.788,1.915,3.113,3.113,0,0,1-.656.133m-.669-.848a3.972,3.972,0,0,0-.5.974,4.039,4.039,0,0,0,.749.073,3.967,3.967,0,0,0,2.478-.861c.126.146.265.278.4.411l-.106.086a4.541,4.541,0,0,1-2.776.941,4.488,4.488,0,0,1-1.186-.159l-.278-.073.073-.278a4.488,4.488,0,0,1,.961-1.815,3.122,3.122,0,0,0,.179.7" transform="translate(-28.903 -1.717)"/>
  </g>
</svg>
