<?xml version="1.0" encoding="utf-8"?>
<!-- Generator: Adobe Illustrator 24.2.3, SVG Export Plug-In . SVG Version: 6.00 Build 0)  -->
<svg version="1.1" id="Layer_1" xmlns="http://www.w3.org/2000/svg" xmlns:xlink="http://www.w3.org/1999/xlink" x="0px" y="0px"
	 viewBox="0 0 80.46 85.24" style="enable-background:new 0 0 80.46 85.24;" xml:space="preserve">
<style type="text/css">
	.st0{fill:#ECECEC;stroke:#000000;stroke-width:0.75;stroke-miterlimit:10;}
	.st1{fill-rule:evenodd;clip-rule:evenodd;fill:#FFFFFF;stroke:#000000;stroke-width:0.5;stroke-miterlimit:10;}
</style>
<path class="st0" d="M29.5,6.64C8.31,12.57-4.07,34.55,1.86,55.74s27.91,33.57,49.1,27.64c21.19-5.93,33.57-27.91,27.64-49.1
	S50.69,0.72,29.5,6.64z M48.95,76.19C31.73,81,13.87,70.95,9.05,53.73s5.24-35.08,22.46-39.9s35.08,5.24,39.9,22.46
	S66.17,71.38,48.95,76.19z"/>
<path class="st1" d="M40.65,12.02h-0.2L31.7,3.74v-0.2l2.85-2.5l0.99-0.79h2.5h7.57l1.94,1.66l1.86,1.74L40.65,12.02L40.65,12.02z"
	/>
<path class="st1" d="M27.35,14.84l-0.18,0.08l-11.36-4l-0.08-0.18l1.59-3.44l0.58-1.13l2.28-1.01l6.91-3.08l2.45,0.73l2.41,0.83
	L27.35,14.84L27.35,14.84z"/>
<path class="st1" d="M16.35,22.82l-0.13,0.15L4.21,23.94l-0.15-0.13l0.05-3.79l0.07-1.27l1.67-1.85l5.06-5.62l2.54-0.33l2.54-0.22
	L16.35,22.82L16.35,22.82z"/>
<path class="st1" d="M64.93,22.85L64.8,22.7l0.29-12.04l0.15-0.13L69,10.98l1.25,0.21l1.67,1.85l5.06,5.62l0.06,2.56l-0.05,2.55
	L64.93,22.85L64.93,22.85z"/>
<path class="st1" d="M53.94,14.86l-0.18-0.08L49.13,3.66l0.08-0.18l3.62-1.12l1.23-0.32l2.28,1.01l6.91,3.08l1.1,2.31l0.99,2.35
	L53.94,14.86L53.94,14.86z"/>
</svg>
