<?xml version="1.0" encoding="utf-8"?>
<!-- Generator: Adobe Illustrator 24.2.3, SVG Export Plug-In . SVG Version: 6.00 Build 0)  -->
<svg version="1.1" id="Layer_1" xmlns="http://www.w3.org/2000/svg" xmlns:xlink="http://www.w3.org/1999/xlink" x="0px" y="0px"
	 viewBox="0 0 89.98 89.49" style="enable-background:new 0 0 89.98 89.49;" xml:space="preserve">
<style type="text/css">
	.st0{fill:#ECECEC;stroke:#000000;stroke-width:0.75;stroke-miterlimit:10;}
	.st1{fill-rule:evenodd;clip-rule:evenodd;fill:#FFFFFF;stroke:#000000;stroke-width:0.5;stroke-miterlimit:10;}
</style>
<path class="st0" d="M34.47,6.37C13.28,12.3,0.9,34.28,6.83,55.47s27.91,33.57,49.1,27.64S89.5,55.2,83.57,34.01
	S55.67,0.45,34.47,6.37z M53.92,75.92c-17.22,4.81-35.08-5.24-39.9-22.46s5.24-35.08,22.46-39.9s35.08,5.24,39.9,22.46
	C81.2,53.25,71.14,71.11,53.92,75.92z"/>
<path class="st1" d="M45.01,12.02h-0.2l-8.75-8.28v-0.2l2.85-2.5l0.99-0.79h2.5h7.57l1.94,1.66l1.86,1.74L45.01,12.02L45.01,12.02z"
	/>
<path class="st1" d="M31.72,14.84l-0.18,0.08l-11.36-4l-0.08-0.18l1.59-3.44l0.58-1.13l2.28-1.01l6.91-3.08l2.45,0.73l2.41,0.83
	L31.72,14.84L31.72,14.84z"/>
<path class="st1" d="M20.71,22.82l-0.13,0.15L8.57,23.93L8.42,23.8l0.05-3.79l0.07-1.27l1.67-1.85l5.06-5.62l2.54-0.33l2.54-0.22
	L20.71,22.82L20.71,22.82z"/>
<path class="st1" d="M13.91,34.58l-0.06,0.19L3.27,40.53l-0.19-0.06l-1.49-3.48L1.14,35.8l0.77-2.37l2.34-7.19l2.18-1.33l2.23-1.23
	L13.91,34.58L13.91,34.58z"/>
<path class="st1" d="M12.48,48.09l0.02,0.2l-7.32,9.57l-0.2,0.02L2.2,55.3l-0.89-0.9l-0.26-2.48L0.26,44.4l1.45-2.1l1.54-2.03
	L12.48,48.09L12.48,48.09z"/>
<path class="st1" d="M16.67,61.02l0.1,0.17l-2.79,11.72l-0.17,0.1l-3.59-1.22l-1.18-0.46l-1.25-2.16l-3.78-6.55l0.47-2.51l0.58-2.48
	L16.67,61.02L16.67,61.02z"/>
<path class="st1" d="M25.76,71.13l0.16,0.12l2.22,11.84l-0.12,0.16l-3.77,0.34l-1.27,0.06l-2.02-1.47l-6.12-4.45l-0.59-2.49
	l-0.48-2.5L25.76,71.13L25.76,71.13z"/>
<path class="st1" d="M38.17,76.66l0.19,0.04l6.84,9.92l-0.04,0.19l-3.31,1.85l-1.13,0.57l-2.44-0.52l-7.4-1.57l-1.55-2.03
	l-1.46-2.09L38.17,76.66L38.17,76.66z"/>
<path class="st1" d="M51.76,76.67l0.19-0.04l10.28,6.28l0.04,0.19L60,86.13l-0.8,0.98l-2.44,0.52l-7.4,1.57l-2.24-1.22l-2.18-1.32
	L51.76,76.67L51.76,76.67z"/>
<path class="st1" d="M64.18,71.16l0.16-0.12l11.95,1.55l0.12,0.16l-0.84,3.69l-0.34,1.22l-2.02,1.47l-6.12,4.45l-2.55-0.21
	l-2.53-0.32L64.18,71.16L64.18,71.16z"/>
<path class="st1" d="M73.28,61.06l0.1-0.17l11.55-3.44l0.17,0.1l0.74,3.72l0.19,1.25l-1.25,2.16L81,71.23l-2.41,0.85l-2.44,0.74
	L73.28,61.06L73.28,61.06z"/>
<path class="st1" d="M77.49,48.14l0.02-0.2l9.15-7.84l0.2,0.02l2.18,3.1l0.68,1.07l-0.26,2.48l-0.79,7.52l-1.86,1.76l-1.93,1.67
	L77.49,48.14L77.49,48.14z"/>
<path class="st1" d="M76.08,34.62l-0.06-0.19l5.17-10.88l0.19-0.06l3.25,1.94l1.06,0.7l0.77,2.37l2.34,7.19l-0.98,2.36l-1.08,2.31
	L76.08,34.62L76.08,34.62z"/>
<path class="st1" d="M69.29,22.85l-0.13-0.15l0.29-12.04l0.15-0.13l3.76,0.45l1.25,0.21l1.67,1.85l5.06,5.62l0.06,2.56l-0.05,2.55
	L69.29,22.85L69.29,22.85z"/>
<path class="st1" d="M58.3,14.85l-0.18-0.08L53.49,3.65l0.08-0.18l3.62-1.12l1.23-0.32l2.28,1.01l6.91,3.08l1.1,2.31l0.99,2.35
	L58.3,14.85L58.3,14.85z"/>
</svg>
