<svg xmlns="http://www.w3.org/2000/svg" width="33.706" height="67" viewBox="0 0 33.706 67">
  <g id="marquis" transform="translate(-0.004)">
    <path id="Path_126" data-name="Path 126" d="M16.694,66.947l-5.029-4.459-4.8-6.527-3.411-5.8-2.49-7.7-.957-8.3.661-8.117,2.1-7.491,3.278-6.7L9.808,6.571l4.136-4.276L16.778.03l3.341,2.616,3.925,4.108,2.715,3.65,3.088,5.514,1.864,4.748,1.2,4.656.7,5.2v4.241L33.159,38l-.267,3.7L32,45.4l-1.456,4.115-1.393,3.01-3.292,5.106-2.553,3.123L20.119,64.38Z" transform="translate(-0.002 -0.009)" fill="none"/>
    <path id="Path_127" data-name="Path 127" d="M32.749,24.533A41.857,41.857,0,0,0,17.022.063h0a.546.546,0,0,1-.049-.028.053.053,0,0,0-.028-.014.026.026,0,0,1-.021-.007c-.007,0-.007-.007-.014-.007h-.021c-.007,0-.014-.007-.028-.007a.042.042,0,0,0-.028.007h-.021L16.8.014a.026.026,0,0,0-.021.007.053.053,0,0,0-.028.014c-.021.007-.049.021-.049.028A41.848,41.848,0,0,0,.986,24.449a.188.188,0,0,0-.028.12A42.246,42.246,0,0,0,.965,42.455c0,.014.007.028.007.042a41.845,41.845,0,0,0,15.72,24.449h0a.231.231,0,0,0,.042.021l.028.014c.014.007.014,0,.021.007s.007.007.014.007a.2.2,0,0,0,.091,0c.007,0,.007-.007.014-.007h.021s.07-.035.077-.042h0A41.826,41.826,0,0,0,32.721,42.5a.089.089,0,0,0,.007-.042A42.021,42.021,0,0,0,32.749,24.533ZM28.178,53.181,23.3,49.77c10.29-7.864,7.547-5.753,8.729-6.661A40.949,40.949,0,0,1,28.178,53.181ZM1.682,43.109c1.273.985-1.02-.788,8.729,6.668L5.537,53.188A41.106,41.106,0,0,1,1.682,43.109ZM5.122,33.5c3.545-6.6,2-3.714,5.486-10.2V43.7C7.119,37.215,8.666,40.1,5.122,33.5Zm23.478,0c-3.545,6.6-2,3.714-5.486,10.2V23.3C26.6,29.787,25.048,26.9,28.6,33.5ZM11.156,22.318l5.7-5.964,5.7,5.964V44.691l-5.7,5.964-5.7-5.964S11.156,22.318,11.156,22.318Zm11.4-4.867v4.065l-4.881-5.106C20.448,17,19.568,16.81,22.558,17.45Zm-6.52-1.041-4.881,5.106V17.45C14.146,16.81,13.273,17,16.038,16.409Zm-5.43,28.458v4.354L1.577,42.314l3.271-8.166Zm.549,4.691V45.493L16.038,50.6C13.266,50.009,14.146,50.192,11.156,49.559Zm6.52,1.034,4.881-5.106v4.065C19.568,50.192,20.448,50.009,17.676,50.592Zm5.437-5.725,5.76-10.712,3.271,8.166-9.031,6.907Zm9.031-20.179-3.271,8.159-5.76-10.712V17.781C34.276,26.313,30.639,23.534,32.145,24.688ZM22.41,16.852l-5.275-1.125V1.9C18.795,6.612,19.836,9.552,22.41,16.852ZM16.579,1.9V15.727c-3.172.675-3.383.717-5.275,1.125C13.885,9.552,14.919,6.612,16.579,1.9ZM10.608,17.781v4.354L4.847,32.847,1.577,24.688C7.844,19.891,6.036,21.277,10.608,17.781Zm.7,32.376,5.275,1.125V65.11C14.919,60.4,13.885,57.45,11.311,50.156ZM17.135,65.1V51.275c3.172-.675,3.383-.717,5.275-1.125C19.836,57.45,18.795,60.4,17.135,65.1ZM32.4,41.449,29.212,33.5,32.4,25.553A41.959,41.959,0,0,1,32.4,41.449ZM23.3,17.232l4.874-3.411a40.894,40.894,0,0,1,3.861,10.086Zm4.607-3.9c-1.815,1.273-.563.394-4.931,3.453L17.437,1.076A41.849,41.849,0,0,1,27.91,13.336ZM16.284,1.076,10.741,16.789c-4.705-3.292-3.186-2.23-4.931-3.453A41.744,41.744,0,0,1,16.284,1.076ZM5.544,13.821l4.874,3.411L1.682,23.907A40.618,40.618,0,0,1,5.544,13.821ZM1.316,25.56C1.724,26.573,2.6,28.76,4.5,33.5L1.316,41.449A41.922,41.922,0,0,1,1.316,25.56ZM5.811,53.666c1.815-1.273.563-.394,4.931-3.453l5.542,15.713A41.744,41.744,0,0,1,5.811,53.666ZM17.43,65.926l5.542-15.713c4.705,3.292,3.186,2.23,4.931,3.453A41.64,41.64,0,0,1,17.43,65.926Z" fill="#09090a"/>
  </g>
</svg>