<svg xmlns="http://www.w3.org/2000/svg" xmlns:xlink="http://www.w3.org/1999/xlink" width="67" height="14.175" viewBox="0 0 67 14.175">
  <defs>
    <clipPath id="clip-path">
      <rect id="Rectangle_384" data-name="Rectangle 384" width="67" height="14.175" fill="none"/>
    </clipPath>
  </defs>
  <g id="Group_275" data-name="Group 275" clip-path="url(#clip-path)">
    <path id="Path_2129" data-name="Path 2129" d="M64.459.408a74.713,74.713,0,0,0-9.372,0A57.15,57.15,0,0,0,36.826,5.7S23.117,1.774,13.477.883C9.615.529,2.707.408,2.707.408A2.458,2.458,0,0,0,.25,2.865v8.374A2.458,2.458,0,0,0,2.707,13.7s15.182.5,19.151,0C25.58,13.226,31.812,9,31.812,9s15.617,4.451,19.339,4.92c3.963.5,13.308-.221,13.308-.221a2.459,2.459,0,0,0,2.457-2.457V2.858A2.461,2.461,0,0,0,64.459.408Z" transform="translate(-0.083 -0.083)" fill="none" stroke="#000" stroke-miterlimit="10" stroke-width="0.5"/>
    <path id="Path_2130" data-name="Path 2130" d="M54.88,8.375S65.276,11.227,68.9,11.8c3.26.515,11.989.274,11.989.274" transform="translate(-18.143 -2.769)" fill="none" stroke="#000" stroke-miterlimit="10" stroke-width="0.5"/>
    <path id="Path_2131" data-name="Path 2131" d="M6.85,8.375s10.771.289,14.426.556c3.293.241,12.712,2.724,12.712,2.724" transform="translate(-2.265 -2.769)" fill="none" stroke="#000" stroke-miterlimit="10" stroke-width="0.5"/>
  </g>
</svg>