<svg id="_2mm" data-name="2mm" xmlns="http://www.w3.org/2000/svg" xmlns:xlink="http://www.w3.org/1999/xlink" width="11.286" height="104" viewBox="0 0 11.286 104">
  <defs>
    <clipPath id="clip-path">
      <rect id="Rectangle_340" data-name="Rectangle 340" width="11.286" height="104" fill="none"/>
    </clipPath>
  </defs>
  <g id="_2mm-2" data-name="2mm" clip-path="url(#clip-path)">
    <path id="Path_1750" data-name="Path 1750" d="M8.21,104H3.075A3.08,3.08,0,0,1,0,100.924V3.076A3.078,3.078,0,0,1,3.075,0H8.21a3.079,3.079,0,0,1,3.076,3.075V100.92A3.078,3.078,0,0,1,8.21,104M3.075.991A2.087,2.087,0,0,0,.99,3.076v97.848a2.086,2.086,0,0,0,2.085,2.085H8.21a2.083,2.083,0,0,0,2.085-2.087V3.076A2.087,2.087,0,0,0,8.21.991Z"/>
  </g>
</svg>