<svg xmlns="http://www.w3.org/2000/svg" width="14.607" height="15" viewBox="0 0 14.607 15">
  <g id="settings" transform="translate(-6.705)">
    <path id="Path_1669" data-name="Path 1669" d="M21.059,9.144,19.68,8.066a5.257,5.257,0,0,0,.032-.566,5.428,5.428,0,0,0-.032-.566l1.38-1.079a.675.675,0,0,0,.163-.861L19.79,2.513a.676.676,0,0,0-.829-.3l-1.627.653a5.549,5.549,0,0,0-.976-.567L16.11.576A.664.664,0,0,0,15.447,0H12.572a.663.663,0,0,0-.662.569L11.662,2.3a5.753,5.753,0,0,0-.975.568L9.056,2.214a.665.665,0,0,0-.823.293L6.8,4.991a.67.67,0,0,0,.163.865L8.338,6.934a5.461,5.461,0,0,0-.032.566c0,.172.011.355.031.566L6.957,9.146a.677.677,0,0,0-.163.861l1.434,2.481a.677.677,0,0,0,.829.3l1.627-.653a5.633,5.633,0,0,0,.977.567l.247,1.725a.664.664,0,0,0,.662.576h2.875a.663.663,0,0,0,.662-.569l.248-1.731a5.753,5.753,0,0,0,.975-.568l1.631.655a.666.666,0,0,0,.823-.293L21.227,10A.676.676,0,0,0,21.059,9.144Zm-.378.55-1.489,2.511L17.4,11.487a.314.314,0,0,0-.3.04,5.178,5.178,0,0,1-1.146.665.312.312,0,0,0-.191.245l-.316,1.938-2.917-.033-.273-1.9a.314.314,0,0,0-.191-.245,4.98,4.98,0,0,1-1.143-.663.311.311,0,0,0-.191-.065.306.306,0,0,0-.117.023l-1.841.694L7.34,9.7a.053.053,0,0,1,0-.064L8.861,8.451a.313.313,0,0,0,.118-.285A5.273,5.273,0,0,1,8.931,7.5a5.4,5.4,0,0,1,.048-.666.313.313,0,0,0-.118-.285L7.337,5.306,8.826,2.8l1.789.719a.312.312,0,0,0,.3-.04,5.139,5.139,0,0,1,1.146-.665.314.314,0,0,0,.191-.245L12.572.625,15.49.659l.272,1.9a.314.314,0,0,0,.191.245,4.961,4.961,0,0,1,1.143.663.31.31,0,0,0,.307.042l1.841-.694L20.678,5.3a.052.052,0,0,1,0,.064L19.157,6.549a.313.313,0,0,0-.118.285,5.316,5.316,0,0,1,.048.666,5.307,5.307,0,0,1-.048.666.313.313,0,0,0,.118.285l1.515,1.185A.049.049,0,0,1,20.681,9.694Z" transform="translate(0)"/>
    <path id="Path_1670" data-name="Path 1670" d="M152.477,149.333a3.125,3.125,0,1,0,3.125,3.125A3.129,3.129,0,0,0,152.477,149.333Zm0,5.625a2.5,2.5,0,1,1,2.5-2.5A2.5,2.5,0,0,1,152.477,154.958Z" transform="translate(-138.468 -144.958)"/>
  </g>
</svg>