<svg xmlns="http://www.w3.org/2000/svg" xmlns:xlink="http://www.w3.org/1999/xlink" width="67" height="14.175" viewBox="0 0 67 14.175">
  <defs>
    <clipPath id="clip-path">
      <rect id="Rectangle_378" data-name="Rectangle 378" width="67" height="14.175" fill="none"/>
    </clipPath>
  </defs>
  <g id="Group_269" data-name="Group 269" clip-path="url(#clip-path)">
    <path id="Path_2086" data-name="Path 2086" d="M64.459.408a74.713,74.713,0,0,0-9.372,0A57.15,57.15,0,0,0,36.826,5.7S23.117,1.774,13.477.883C9.615.529,2.707.408,2.707.408A2.458,2.458,0,0,0,.25,2.865v8.374A2.458,2.458,0,0,0,2.707,13.7s15.182.5,19.151,0C25.58,13.226,31.812,9,31.812,9s15.617,4.451,19.339,4.92c3.963.5,13.308-.221,13.308-.221a2.459,2.459,0,0,0,2.457-2.457V2.858A2.461,2.461,0,0,0,64.459.408Z" transform="translate(-0.083 -0.083)" fill="none" stroke="#000" stroke-miterlimit="10" stroke-width="0.5"/>
    <path id="Path_2087" data-name="Path 2087" d="M54.88,8.375S65.276,11.227,68.9,11.8c3.26.515,11.989.274,11.989.274" transform="translate(-18.143 -2.769)" fill="none" stroke="#000" stroke-miterlimit="10" stroke-width="0.5"/>
    <path id="Path_2088" data-name="Path 2088" d="M6.85,8.375s10.771.289,14.426.556c3.293.241,12.712,2.724,12.712,2.724" transform="translate(-2.265 -2.769)" fill="none" stroke="#000" stroke-miterlimit="10" stroke-width="0.5"/>
    <path id="Path_2089" data-name="Path 2089" d="M13.166,12.76A3.2,3.2,0,0,0,7,11.529a3.249,3.249,0,0,0,0,2.456,3.2,3.2,0,0,0,6.165-1.225M7.8,15.03c.87-.048,1.084-.061,1.2-.068l-.281.676A3.035,3.035,0,0,1,7.8,15.03m-.114-.114a3.078,3.078,0,0,1-.609-.931c.375-.154.194-.08.676-.281-.033.583-.033.643-.067,1.212m5.389-2.156c-.348.315-.589.529-.937.844-.094-.175-.315-.576-.455-.844.228-.421.208-.388.455-.843.562.5.582.521.937.843m-1.981-1.251c-.368-.154-.683-.281-1.051-.435l.8-.428Zm.027.087c.408.984.3.73.482,1.164-.181.428-.074.175-.482,1.165l-1.165.482c-.428-.181-.174-.074-1.165-.482-.408-.985-.3-.73-.482-1.165.181-.428.074-.173.482-1.164.676-.281.536-.221,1.165-.483l1.165.483m-.027,2.41-.254.87-.8-.435c.395-.161.676-.281,1.051-.435M8.273,12.674l-.435-.8.87-.254c-.154.375-.274.656-.435,1.051m.435,1.218-.87-.255.435-.8c.161.395.281.676.435,1.051m.368-3.253.8.435c-.623.254-.408.167-1.051.435.315-1.071.214-.723.254-.87m0,4.237c-.04-.134,0-.007-.254-.87.643.268.408.167,1.051.435-.482.268-.308.167-.8.435m3-1.239-.87.255c.154-.369.281-.683.435-1.051.154.274.261.482.435.8m-.435-.963c-.06-.147-.348-.83-.435-1.051.221.067.649.194.87.254-.261.482-.274.5-.435.8m.455-.864-.917-.274-.274-.917,1.258-.067c-.033.623-.033.569-.067,1.258m-3.862.95-.455.837-.937-.843.937-.843Zm.509,1.212c.208.71.06.215.274.918l-1.258.066L7.824,13.7Zm1.212.509.843.455-.843.938-.843-.938Zm1.218-.509c.234-.066.683-.2.917-.274.04.676.033.656.067,1.258L10.9,14.889Zm.991-2.168.067-1.212a3.067,3.067,0,0,1,.609.93ZM10.8,10.578c-.448.241-.4.221-.843.455-1.366-.743-.6-.328-.843-.455.288-.315.5-.562.843-.937.408.455.174.187.843.937m-1.787.04-.274.917-.917.274-.067-1.258c.442.027.783.047,1.258.067M7.751,11.8c-.482-.2-.3-.127-.676-.281a3.289,3.289,0,0,1,.609-.93c.033.576.033.636.067,1.212m1.319,3.186c.355.4.663.737.81.9a3.219,3.219,0,0,1-1.091-.221Zm3.093-1.278.676.281a3.3,3.3,0,0,1-.609.93Zm.7.214c-.254-.108-.422-.174-.676-.281.308-.275.348-.308.9-.81a3.178,3.178,0,0,1-.228,1.091m-.676-2.055c.254-.107.428-.174.676-.282a3.029,3.029,0,0,1,.221,1.092c-.268-.248-.629-.569-.9-.81M10.91,10.552c.047-.114.167-.408.281-.676a3.274,3.274,0,0,1,.93.609Zm.214-.7c-.107.254-.174.421-.281.676-.274-.309-.308-.348-.81-.9a3.162,3.162,0,0,1,1.091.228m-2.055.676-.281-.676a3.008,3.008,0,0,1,1.091-.221Zm-.348-.649L9,10.552c-.3-.013-.9-.047-1.2-.067a3.024,3.024,0,0,1,.924-.609m-1.68,1.713.676.282c-.415.375-.469.422-.9.81a3.349,3.349,0,0,1,.228-1.092m.683,2.056-.676.281a3.022,3.022,0,0,1-.221-1.091c.368.341.462.422.9.81m3.119,1.345.281.677a3.037,3.037,0,0,1-1.091.221c.73-.8.576-.636.81-.9m.348.649-.281-.676c.254.013.823.048,1.212.068a3.022,3.022,0,0,1-.93.608" transform="translate(-2.235 -3.158)" fill="#09090a"/>
    <path id="Path_2090" data-name="Path 2090" d="M34.6,13.518A2.082,2.082,0,0,0,31.718,11.6a2.06,2.06,0,0,0-1.125,1.125,2.116,2.116,0,0,0,0,1.593,2.08,2.08,0,0,0,4-.8M31.115,15c.562-.033.7-.04.783-.04l-.181.434a2.117,2.117,0,0,1-.6-.394m-.074-.074a2,2,0,0,1-.395-.6c.248-.1.127-.054.442-.181-.02.375-.027.408-.047.783m3.5-1.406c-.228.2-.382.341-.609.548-.06-.114-.2-.374-.295-.548.147-.275.134-.254.295-.549.361.327.375.341.609.549m-1.292-.811c-.241-.1-.442-.18-.683-.28l.515-.281Zm.02.06c.268.637.194.475.315.757-.114.281-.047.114-.315.756-.636.268-.475.194-.756.314-.281-.113-.114-.046-.756-.314-.268-.636-.194-.475-.315-.756.114-.282.047-.114.315-.757.442-.18.348-.141.756-.314.408.167.315.127.756.314m-.02,1.56-.167.562-.515-.28c.261-.1.442-.181.683-.281m-1.827-.864-.281-.515.562-.167c-.1.248-.174.429-.281.683m.281.791-.562-.167.281-.515c.107.261.181.442.281.683m.248-2.109.515.281c-.4.167-.261.107-.683.28a4.388,4.388,0,0,1,.167-.562m0,2.744c-.027-.086,0-.006-.167-.562l.683.281c-.315.174-.2.113-.515.28m1.941-.8-.562.167c.1-.241.181-.442.281-.683.094.181.167.314.281.515m-.281-.623c-.04-.093-.221-.542-.281-.683.141.041.422.127.562.167-.174.315-.181.329-.281.515m.288-.556-.6-.173-.174-.6.817-.047c-.02.4-.02.367-.047.816m-2.5.61-.295.548-.609-.548.609-.549Zm.328.79c.134.462.04.141.174.6l-.817.048.047-.817Zm.783.328.549.295-.549.609-.549-.609Zm.79-.328c.154-.048.442-.134.6-.174.027.442.02.421.047.817L33.13,14.9Zm.643-1.406.04-.783a1.99,1.99,0,0,1,.395.6Zm-.884-.8c-.288.16-.261.141-.549.295-.884-.482-.388-.214-.549-.295.187-.208.328-.361.549-.609.268.294.114.127.549.609m-1.158.027-.174.6-.6.175-.047-.817c.288.02.509.033.817.047m-.817.77c-.315-.127-.194-.08-.442-.181a1.99,1.99,0,0,1,.395-.6c.02.367.027.408.047.783m.85,2.068c.228.254.428.482.522.582a1.942,1.942,0,0,1-.7-.147Zm2.008-.83.442.181a2,2,0,0,1-.395.6Zm.462.134c-.161-.067-.274-.114-.442-.181.2-.181.221-.2.582-.521a2.09,2.09,0,0,1-.141.7m-.442-1.332c.167-.067.274-.114.442-.181a2.127,2.127,0,0,1,.147.7c-.181-.153-.415-.361-.589-.521m-.83-.857c.033-.074.114-.268.181-.442a1.984,1.984,0,0,1,.6.394Zm.141-.455c-.067.16-.114.274-.181.441-.181-.2-.2-.22-.522-.582a1.949,1.949,0,0,1,.7.141m-1.339.441-.181-.441a2.129,2.129,0,0,1,.7-.148Zm-.221-.422.181.442c-.194-.013-.582-.033-.783-.04a1.9,1.9,0,0,1,.6-.4m-1.091,1.112.442.181c-.268.241-.3.274-.582.521a2.119,2.119,0,0,1,.141-.7m.442,1.331-.442.181a2.128,2.128,0,0,1-.147-.7c.248.221.308.268.589.521m2.022.878.181.442a2.11,2.11,0,0,1-.7.147c.469-.528.375-.421.522-.588m.228.421-.181-.441c.167.007.536.027.783.04a2.091,2.091,0,0,1-.6.4" transform="translate(-10.063 -3.781)" fill="#09090a"/>
    <path id="Path_2091" data-name="Path 2091" d="M24.479,13.22a2.681,2.681,0,0,0-3.708-2.477A2.709,2.709,0,0,0,19.318,12.2,2.684,2.684,0,0,0,23.7,15.12a2.7,2.7,0,0,0,.783-1.9m-4.492,1.9c.73-.039.9-.046,1.011-.053l-.234.568a2.6,2.6,0,0,1-.777-.515m-.094-.093a2.608,2.608,0,0,1-.509-.777c.315-.135.161-.068.569-.235-.033.483-.033.536-.06,1.011m4.512-1.807c-.295.261-.489.442-.79.7-.08-.147-.261-.481-.382-.7.194-.355.174-.328.382-.7.475.421.489.434.79.7m-1.66-1.044c-.308-.128-.576-.235-.884-.361l.663-.361Zm.02.073c.341.824.254.609.4.971-.147.361-.06.147-.4.971-.823.341-.609.254-.971.4-.361-.147-.147-.06-.971-.4-.341-.823-.254-.609-.4-.971.147-.362.06-.147.4-.971.569-.234.448-.187.971-.4.522.214.4.167.971.4m-.02,2.016-.214.722-.663-.361c.328-.135.562-.228.877-.361m-2.363-1.112-.361-.662.723-.215c-.127.308-.221.542-.361.877m.368,1.017-.723-.214.361-.663c.134.329.228.563.361.877m.308-2.724.663.361-.884.361c.274-.89.187-.6.221-.723m0,3.548c-.033-.114,0-.007-.214-.724.542.221.341.141.884.361l-.669.362m2.51-1.038-.723.214c.127-.308.234-.575.361-.883.127.234.214.408.361.669m-.361-.8c-.054-.127-.288-.7-.361-.884.187.054.542.161.723.214-.221.4-.228.422-.361.669m.375-.723-.77-.227-.228-.77,1.058-.06c-.033.522-.027.481-.06,1.057m-3.226.791-.382.7-.79-.7.79-.7Zm.422,1.017c.174.6.054.181.228.77l-1.058.06.06-1.058Zm1.017.421.7.382-.7.79-.7-.79Zm1.017-.421c.194-.06.576-.167.77-.228.033.569.027.549.06,1.058l-1.058-.06Zm.83-1.815.054-1.011a2.616,2.616,0,0,1,.509.777ZM22.5,11.4c-.375.2-.341.18-.7.382-1.145-.623-.5-.274-.7-.382l.7-.783c.341.374.147.153.7.783m-1.493.033-.228.77-.77.227-.06-1.057c.375.02.656.039,1.058.06m-1.058.991c-.4-.167-.254-.107-.569-.234a2.616,2.616,0,0,1,.509-.777c.033.483.033.529.06,1.011m1.1,2.665c.295.328.556.616.676.756a2.647,2.647,0,0,1-.91-.187Zm2.591-1.072.569.235a2.608,2.608,0,0,1-.509.777Zm.589.181-.569-.234c.254-.227.288-.26.756-.675a2.628,2.628,0,0,1-.187.91m-.569-1.72c.214-.087.355-.148.569-.235a2.638,2.638,0,0,1,.187.91c-.228-.2-.529-.475-.756-.675m-1.071-1.1c.04-.094.141-.341.234-.569a2.587,2.587,0,0,1,.777.509Zm.181-.589c-.087.207-.147.355-.234.568-.228-.254-.261-.287-.676-.756a2.632,2.632,0,0,1,.91.188m-1.72.568-.234-.568a2.632,2.632,0,0,1,.91-.188Zm-.288-.548.234.569-1.011-.054a2.728,2.728,0,0,1,.777-.515m-1.406,1.439.569.235c-.348.314-.395.348-.756.675a2.638,2.638,0,0,1,.187-.91m.569,1.72-.569.234a2.628,2.628,0,0,1-.187-.91c.315.281.388.348.756.675m2.611,1.125.234.569a2.647,2.647,0,0,1-.91.187c.609-.676.482-.536.676-.756m.288.548-.234-.568c.214.013.689.039,1.011.053a2.6,2.6,0,0,1-.777.515" transform="translate(-6.319 -3.483)" fill="#09090a"/>
    <path id="Path_2092" data-name="Path 2092" d="M85.86,8A3.213,3.213,0,0,0,91.1,6.964a3.251,3.251,0,0,0,0-2.457A3.2,3.2,0,0,0,84.93,5.739,3.162,3.162,0,0,0,85.86,8m3.5.616-.281-.676c.127.007.341.02,1.2.066a3.167,3.167,0,0,1-.924.61m.977-1.935c.482.2.3.127.676.281a3.3,3.3,0,0,1-.609.93c-.033-.576-.04-.629-.067-1.212M85.947,4.889c.248.455.228.422.455.843-.141.261-.361.663-.455.843-.355-.315-.589-.529-.937-.843.355-.322.375-.341.937-.843m1.305-1.272.8.428c-.368.155-.683.281-1.051.436Zm.877.475c.629.26.482.2,1.165.481.408.985.3.73.482,1.165-.181.428-.074.173-.482,1.165l-1.165.482c-.428-.181-.174-.074-1.165-.482-.408-.985-.3-.73-.482-1.165.181-.428.074-.174.482-1.165.683-.28.542-.227,1.165-.481m-.08,3.327-.8.435L87,6.984c.368.154.649.268,1.051.435M89.375,4.6l.87.254-.428.8c-.167-.4-.288-.683-.442-1.052m.442,1.212.435.8-.87.254c.154-.374.268-.649.435-1.05m-.556-1.332c-.643-.268-.435-.181-1.051-.436l.8-.434c.04.153-.06-.194.254.87M88.21,7.42c.643-.268.408-.167,1.051-.435-.254.856-.214.73-.254.87-.489-.268-.315-.174-.8-.435M86.443,5.813c.154.368.281.683.435,1.05l-.87-.254c.174-.315.281-.515.435-.8m-.428-.958c.221-.066.649-.194.87-.254-.094.221-.375.9-.435,1.052-.167-.3-.181-.322-.435-.8M85.921,3.53l1.258.066-.268.918-.917.274c-.04-.69-.04-.643-.074-1.258m4.385,1.359.937.843-.937.843-.455-.843Zm-.04,1.787.067,1.258-1.258-.067c.208-.71.06-.208.274-.918ZM88.973,7.915l-.843.937-.843-.937.843-.455Zm-1.787-.047-1.258.067c.033-.609.033-.582.067-1.258.234.067.683.2.917.274ZM85.245,4.5a3.279,3.279,0,0,1,.609-.93l.067,1.212ZM88.13,2.613c.335.374.556.623.843.937-.248.127.522-.282-.843.455-.435-.242-.395-.214-.843-.455.669-.743.435-.482.843-.937m2.2.917-.067,1.258-.917-.274L89.074,3.6c.475-.026.817-.046,1.258-.066m.067.04a3.059,3.059,0,0,1,.609.93c-.375.153-.194.08-.676.281.033-.582.04-.636.067-1.212m-1.1,5.074a3.022,3.022,0,0,1-1.091.221c.147-.161.455-.509.81-.9Zm-3.441-.75a3.083,3.083,0,0,1-.609-.93l.676-.281ZM84.99,5.813c.556.495.6.529.9.81-.254.107-.428.174-.676.281a3.214,3.214,0,0,1-.228-1.091m0-.161a3.2,3.2,0,0,1,.221-1.091c.254.107.422.174.676.281-.261.248-.623.568-.9.81m.977-2.2a3.067,3.067,0,0,1,.93-.609c.107.268.234.562.281.676ZM88.049,2.6c-.5.556-.529.6-.81.9-.107-.254-.174-.428-.281-.676A2.935,2.935,0,0,1,88.049,2.6m.161,0A3.235,3.235,0,0,1,89.3,2.82L89.02,3.5Zm2.082.857c-.308.02-.9.047-1.2.067l.281-.676a3.353,3.353,0,0,1,.924.609m.971,2.2c-.435-.388-.482-.436-.9-.8l.676-.281a2.981,2.981,0,0,1,.221,1.084m0,.161A3.054,3.054,0,0,1,91.042,6.9l-.676-.281c.435-.395.522-.475.9-.81M88.049,8.865a3.2,3.2,0,0,1-1.091-.221l.281-.676c.234.261.087.094.81.9m-2.082-.857c.382-.019.957-.054,1.212-.066l-.281.676a3.2,3.2,0,0,1-.93-.61" transform="translate(-28.078 -0.836)" fill="#09090a"/>
    <path id="Path_2093" data-name="Path 2093" d="M65.2,7.96a2.082,2.082,0,0,0,3.394-.676,2.116,2.116,0,0,0,0-1.593,2.081,2.081,0,0,0-4,.8A2.047,2.047,0,0,0,65.2,7.96m2.269.4-.181-.435c.08.007.221.013.783.04a1.919,1.919,0,0,1-.6.395M68.1,7.11c.315.127.194.08.442.181a2,2,0,0,1-.395.6c-.027-.368-.027-.408-.047-.783M65.259,5.945c.161.295.147.274.295.549-.094.174-.234.428-.295.549-.228-.208-.382-.341-.609-.549.228-.208.241-.221.609-.549m.843-.823.515.281c-.241.1-.442.181-.683.281Zm.569.308c.408.167.315.127.756.315.268.636.194.475.315.756-.114.281-.047.114-.315.756-.636.268-.475.194-.756.315-.281-.114-.114-.047-.756-.315-.268-.636-.194-.475-.315-.756.114-.281.047-.114.315-.756.442-.187.348-.147.756-.315m-.054,2.155-.515.281L65.935,7.3c.241.1.422.174.683.281m.864-1.827.562.167-.281.515c-.107-.261-.181-.442-.281-.683m.281.79.281.515-.562.167c.1-.248.174-.428.281-.683m-.355-.864c-.415-.174-.281-.114-.683-.281l.515-.281c.027.094-.04-.134.167.562m-.683,1.9c.415-.174.261-.107.683-.281-.167.556-.141.475-.167.562-.315-.174-.2-.107-.515-.281M65.581,6.548c.1.241.181.442.281.683L65.3,7.063c.107-.2.181-.335.281-.515M65.3,5.925c.141-.04.422-.127.562-.167-.06.141-.241.589-.281.683-.107-.194-.114-.208-.281-.515m-.06-.864.817.048-.174.6-.6.175c-.027-.442-.027-.415-.047-.817m2.845.884.609.549-.609.549-.295-.549ZM68.057,7.1l.047.817-.823-.04c.134-.455.04-.134.174-.6Zm-.843.8-.549.609-.549-.609.556-.295ZM66.056,7.88l-.817.047c.02-.395.02-.375.047-.817.154.047.442.134.6.174ZM64.8,5.691a1.989,1.989,0,0,1,.4-.6l.04.783Zm1.874-1.218c.221.248.361.4.549.609-.161.087.341-.181-.549.295-.281-.154-.254-.141-.549-.295.435-.489.281-.315.549-.609m1.426.588-.047.817-.6-.175-.174-.6c.315-.021.529-.027.817-.048m.047.027a2.01,2.01,0,0,1,.395.6c-.248.1-.127.054-.442.18.027-.367.027-.408.047-.783m-.716,3.294a2.128,2.128,0,0,1-.7.147c.094-.107.295-.328.522-.582ZM65.2,7.893a2,2,0,0,1-.395-.6l.442-.181Zm-.562-1.345c.361.321.388.348.582.522-.167.067-.274.114-.442.181a2.119,2.119,0,0,1-.141-.7m0-.107a1.942,1.942,0,0,1,.147-.7c.161.067.274.114.442.181-.181.154-.408.361-.589.522m.629-1.419a2,2,0,0,1,.6-.395c.074.174.154.368.181.442Zm1.352-.562c-.321.361-.348.388-.522.582-.067-.167-.114-.274-.181-.442a2.086,2.086,0,0,1,.7-.141m.107,0a1.942,1.942,0,0,1,.7.147l-.181.442Zm1.345.562c-.2.013-.589.033-.783.039l.181-.441a2.062,2.062,0,0,1,.6.4m.636,1.419c-.281-.254-.315-.281-.582-.522l.442-.181a2.263,2.263,0,0,1,.141.7m0,.107a1.942,1.942,0,0,1-.147.7l-.442-.181c.281-.254.341-.308.589-.522M66.618,8.529a1.942,1.942,0,0,1-.7-.147L66.1,7.94c.147.167.054.06.522.589m-1.352-.562c.248-.013.623-.033.783-.04l-.181.442a2.256,2.256,0,0,1-.6-.4" transform="translate(-21.354 -1.457)" fill="#09090a"/>
    <path id="Path_2094" data-name="Path 2094" d="M74.9,8.092a2.685,2.685,0,1,0-.783-1.9,2.623,2.623,0,0,0,.783,1.9m2.925.515-.234-.569c.107.007.281.013,1.011.054a2.5,2.5,0,0,1-.776.515m.817-1.613c.4.167.254.107.569.234a2.6,2.6,0,0,1-.509.777c-.027-.482-.033-.529-.06-1.011M74.977,5.488c.208.382.194.355.382.7-.12.221-.3.556-.382.7-.295-.268-.5-.442-.79-.7.3-.268.321-.281.79-.7m1.091-1.064.663.361c-.308.127-.576.234-.884.361Zm.73.395c.522.214.408.167.971.4.341.823.254.609.4.971-.147.361-.06.147-.4.971-.823.341-.609.254-.971.4-.361-.147-.147-.06-.971-.4-.341-.823-.254-.609-.4-.971.147-.361.06-.147.4-.971.569-.234.448-.181.971-.4M76.731,7.6l-.663.361-.214-.723c.308.127.542.228.877.361m1.111-2.356.723.214-.361.663c-.134-.335-.228-.569-.361-.877m.368,1.017.361.663-.723.214c.127-.315.221-.549.361-.877m-.462-1.118c-.542-.221-.361-.147-.877-.361l.663-.361c.033.12-.047-.167.214.723M76.871,7.6l.884-.361-.214.723c-.415-.221-.268-.141-.669-.361M75.392,6.265c.127.308.234.576.361.884l-.723-.214c.141-.268.234-.435.361-.669m-.361-.8c.187-.054.542-.161.723-.214-.074.181-.315.756-.361.884-.141-.254-.147-.268-.361-.669M74.957,4.35l1.058.06-.234.763-.77.228c-.027-.576-.027-.529-.054-1.051m3.668,1.138.79.7-.79.7-.382-.7Zm-.04,1.5.06,1.058-1.058-.06c.174-.589.054-.174.228-.77ZM77.507,8.019l-.7.79-.7-.79.7-.382Zm-1.5-.033-1.058.06c.027-.509.027-.489.06-1.058.194.06.576.167.77.228ZM74.388,5.16a2.6,2.6,0,0,1,.509-.777l.054,1.011ZM76.8,3.587c.281.315.469.522.7.783-.208.107.435-.234-.7.382-.368-.2-.328-.181-.7-.382.562-.623.361-.4.7-.783m1.848.763-.06,1.058-.77-.234-.228-.763c.4-.027.683-.04,1.058-.06m.06.04a2.6,2.6,0,0,1,.509.777c-.315.134-.161.067-.569.234.027-.489.033-.536.06-1.011m-.93,4.244a2.631,2.631,0,0,1-.91.187c.12-.134.382-.422.676-.756ZM74.9,8.005a2.6,2.6,0,0,1-.509-.777l.569-.234Zm-.723-1.74c.469.415.5.442.756.676-.214.087-.355.147-.569.234a2.663,2.663,0,0,1-.187-.91m0-.134a2.631,2.631,0,0,1,.187-.91c.208.087.355.147.569.234-.228.2-.529.469-.756.676M74.99,4.29a2.6,2.6,0,0,1,.777-.509c.094.221.194.475.234.569Zm1.74-.716c-.415.469-.442.5-.676.756-.087-.214-.147-.355-.234-.569a2.515,2.515,0,0,1,.91-.187m.134,0a2.631,2.631,0,0,1,.91.187l-.234.569Zm1.74.716-1.011.054.234-.569a2.756,2.756,0,0,1,.776.515m.817,1.841c-.361-.328-.4-.361-.756-.676l.569-.234a2.486,2.486,0,0,1,.187.91m0,.134a2.631,2.631,0,0,1-.187.91l-.569-.234c.368-.328.442-.395.756-.676M76.731,8.822a2.631,2.631,0,0,1-.91-.187l.234-.569c.194.214.074.074.676.756M74.99,8.1c.321-.02.8-.047,1.011-.054l-.234.569A2.756,2.756,0,0,1,74.99,8.1" transform="translate(-24.504 -1.16)" fill="#09090a"/>
  </g>
</svg>