<svg xmlns="http://www.w3.org/2000/svg" xmlns:xlink="http://www.w3.org/1999/xlink" width="67" height="15.571" viewBox="0 0 67 15.571">
  <defs>
    <clipPath id="clip-path">
      <rect id="Rectangle_354" data-name="Rectangle 354" width="67" height="15.571" fill="none"/>
    </clipPath>
  </defs>
  <g id="pave" clip-path="url(#clip-path)">
    <path id="Path_1910" data-name="Path 1910" d="M64.461,15.485H2.7A2.454,2.454,0,0,1,.25,13.032V2.7A2.454,2.454,0,0,1,2.7.25H64.461A2.454,2.454,0,0,1,66.914,2.7V13.032a2.449,2.449,0,0,1-2.453,2.453" transform="translate(-0.082 -0.082)" fill="#fff"/>
    <path id="Path_1911" data-name="Path 1911" d="M64.461,15.485H2.7A2.454,2.454,0,0,1,.25,13.032V2.7A2.454,2.454,0,0,1,2.7.25H64.461A2.454,2.454,0,0,1,66.914,2.7V13.032A2.449,2.449,0,0,1,64.461,15.485Z" transform="translate(-0.082 -0.082)" fill="none" stroke="#000" stroke-miterlimit="10" stroke-width="0.5"/>
    <path id="Path_1912" data-name="Path 1912" d="M22.851,2.9A1.411,1.411,0,1,1,21.44,4.311,1.411,1.411,0,0,1,22.851,2.9" transform="translate(-7.032 -0.951)" fill="#fff"/>
    <circle id="Ellipse_122" data-name="Ellipse 122" cx="1.411" cy="1.411" r="1.411" transform="translate(14.408 1.949)" fill="none" stroke="#000" stroke-miterlimit="10" stroke-width="0.5"/>
    <path id="Path_1913" data-name="Path 1913" d="M23.091,16.57a1.411,1.411,0,1,1-1.411,1.411,1.411,1.411,0,0,1,1.411-1.411" transform="translate(-7.111 -5.435)" fill="#fff"/>
    <circle id="Ellipse_123" data-name="Ellipse 123" cx="1.411" cy="1.411" r="1.411" transform="translate(14.569 11.135)" fill="none" stroke="#000" stroke-miterlimit="10" stroke-width="0.5"/>
    <path id="Path_1914" data-name="Path 1914" d="M29.46,2.86A5.86,5.86,0,1,1,23.6,8.72a5.86,5.86,0,0,1,5.86-5.86" transform="translate(-7.74 -0.938)" fill="#fff"/>
    <path id="Path_1915" data-name="Path 1915" d="M35.359,8.691a5.936,5.936,0,1,0-1.741,4.193,5.94,5.94,0,0,0,1.741-4.193m-9.926,4.2c1.606-.087,2-.108,2.231-.121l-.517,1.25a5.506,5.506,0,0,1-1.714-1.129m-.208-.208A5.794,5.794,0,0,1,24.1,10.969c.7-.289.363-.148,1.257-.517-.067,1.069-.074,1.176-.128,2.231M35.2,8.691,33.457,10.25c-.175-.329-.578-1.069-.847-1.559.423-.78.39-.719.847-1.559,1.042.927,1.075.961,1.741,1.559M31.528,6.379c-.679-.282-1.263-.524-1.949-.806l1.472-.8Zm.047.161c.753,1.821.558,1.351.887,2.15-.329.8-.134.329-.887,2.15-1.821.753-1.351.558-2.15.887-.8-.329-.329-.134-2.15-.887-.753-1.821-.558-1.351-.887-2.15.329-.8.134-.329.887-2.15,1.25-.517.988-.41,2.15-.887,1.156.477.894.363,2.15.887M31.528,11l-.477,1.606-1.472-.8c.739-.309,1.257-.524,1.949-.806M26.313,8.536l-.8-1.472,1.606-.477c-.289.692-.5,1.21-.806,1.949m.8,2.251-1.606-.477.8-1.472c.309.732.524,1.25.806,1.949m.692-6.015,1.472.8c-1.149.477-.753.309-1.949.806.585-1.976.4-1.331.477-1.606m0,7.829c-.074-.255-.007-.013-.477-1.606,1.2.5.753.309,1.949.806-.894.491-.571.309-1.472.8m5.537-2.292-1.606.477c.282-.679.524-1.263.806-1.949.282.517.484.894.8,1.472m-.8-1.774C32.429,8.261,31.9,7,31.736,6.587l1.606.477c-.477.887-.5.921-.8,1.472m.833-1.593-1.7-.5-.5-1.7L33.5,4.612c-.06,1.149-.054,1.055-.128,2.332m-7.13,1.747L25.4,10.25,23.659,8.691,25.4,7.132Zm.927,2.251c.39,1.317.114.4.5,1.7l-2.332.128.128-2.332Zm2.251.927,1.559.847-1.559,1.741-1.559-1.741Zm2.251-.927,1.7-.5c.067,1.257.067,1.21.128,2.332l-2.332-.128Zm1.835-4.019.121-2.238A5.794,5.794,0,0,1,34.761,6.4ZM30.984,4.659c-.827.45-.746.4-1.559.847-2.527-1.371-1.1-.6-1.559-.847.524-.591.934-1.042,1.559-1.741.759.84.323.356,1.559,1.741m-3.306.081-.5,1.7-1.7.5-.128-2.332c.827.04,1.452.074,2.332.128M25.346,6.923c-.894-.37-.558-.228-1.257-.517a5.753,5.753,0,0,1,1.129-1.714c.06,1.062.067,1.163.128,2.231m2.439,5.9c.652.732,1.223,1.364,1.492,1.667a5.779,5.779,0,0,1-2.016-.417Zm5.726-2.372,1.257.517a5.839,5.839,0,0,1-1.129,1.714Zm1.3.4c-.464-.195-.786-.323-1.257-.517l1.667-1.492a5.7,5.7,0,0,1-.41,2.009m-1.257-3.8c.47-.195.786-.329,1.257-.517a5.869,5.869,0,0,1,.417,2.016c-.511-.457-1.176-1.048-1.673-1.5M31.192,4.6c.087-.208.316-.759.517-1.257a5.839,5.839,0,0,1,1.714,1.129Zm.4-1.3c-.195.464-.323.786-.517,1.257L29.579,2.891a5.734,5.734,0,0,1,2.009.41m-3.8,1.257-.517-1.25a5.9,5.9,0,0,1,2.016-.417Zm-.638-1.2.517,1.25c-.558-.034-1.66-.094-2.238-.121a5.74,5.74,0,0,1,1.72-1.129m-3.1,3.172,1.257.517c-.773.692-.867.773-1.667,1.492a5.7,5.7,0,0,1,.41-2.009m1.25,3.8-1.257.517a5.71,5.71,0,0,1-.41-2.016c.7.625.86.773,1.667,1.5m5.779,2.493.517,1.25a5.869,5.869,0,0,1-2.016.417c1.344-1.5,1.069-1.189,1.5-1.667m.638,1.2-.517-1.25c.47.027,1.532.081,2.238.121a5.96,5.96,0,0,1-1.72,1.129" transform="translate(-7.705 -0.902)" fill="#09090a"/>
    <path id="Path_1916" data-name="Path 1916" d="M40.5,2.76A1.411,1.411,0,1,1,39.09,4.171,1.411,1.411,0,0,1,40.5,2.76" transform="translate(-12.821 -0.905)" fill="#fff"/>
    <circle id="Ellipse_124" data-name="Ellipse 124" cx="1.411" cy="1.411" r="1.411" transform="translate(26.269 1.855)" fill="none" stroke="#000" stroke-miterlimit="10" stroke-width="0.5"/>
    <path id="Path_1917" data-name="Path 1917" d="M40.461,16.15a1.411,1.411,0,1,1-1.411,1.411,1.411,1.411,0,0,1,1.411-1.411" transform="translate(-12.808 -5.297)" fill="#fff"/>
    <circle id="Ellipse_125" data-name="Ellipse 125" cx="1.411" cy="1.411" r="1.411" transform="translate(26.242 10.853)" fill="none" stroke="#000" stroke-miterlimit="10" stroke-width="0.5"/>
    <path id="Path_1918" data-name="Path 1918" d="M46.97,2.86a5.86,5.86,0,1,1-5.86,5.86,5.86,5.86,0,0,1,5.86-5.86" transform="translate(-13.483 -0.938)" fill="#fff"/>
    <path id="Path_1919" data-name="Path 1919" d="M52.869,8.691a5.936,5.936,0,1,0-1.741,4.193,5.94,5.94,0,0,0,1.741-4.193m-9.926,4.2c1.606-.087,2-.108,2.231-.121l-.517,1.25a5.506,5.506,0,0,1-1.714-1.129m-.215-.208A5.794,5.794,0,0,1,41.6,10.969c.7-.289.363-.148,1.257-.517-.06,1.069-.067,1.176-.128,2.231m9.979-3.992L50.967,10.25c-.175-.329-.578-1.069-.847-1.559.423-.78.39-.719.847-1.559,1.042.927,1.075.961,1.741,1.559M49.031,6.379c-.679-.282-1.263-.524-1.949-.806l1.472-.8Zm.054.161c.753,1.821.558,1.351.887,2.15-.329.8-.134.329-.887,2.15-1.821.753-1.351.558-2.15.887-.8-.329-.329-.134-2.15-.887-.753-1.821-.558-1.351-.887-2.15.329-.8.134-.329.887-2.15,1.25-.517.988-.41,2.15-.887,1.156.477.894.363,2.15.887M49.031,11l-.477,1.606-1.472-.8c.739-.309,1.257-.524,1.949-.806M43.817,8.536l-.793-1.472,1.606-.477c-.289.692-.5,1.21-.813,1.949m.806,2.251-1.6-.477.8-1.472c.3.732.511,1.25.8,1.949m.692-6.015,1.472.8c-1.149.477-.753.309-1.949.806.585-1.976.4-1.331.477-1.606m0,7.829c-.074-.255-.007-.013-.477-1.606,1.2.5.753.309,1.949.806-.894.491-.571.309-1.472.8m5.537-2.292-1.606.477c.282-.679.524-1.263.806-1.949.282.517.484.894.8,1.472m-.8-1.774c-.114-.276-.638-1.539-.806-1.949l1.606.477c-.477.887-.5.921-.8,1.472m.833-1.593-1.7-.5-.5-1.7,2.332-.128c-.06,1.149-.054,1.055-.128,2.332m-7.13,1.747-.847,1.559L41.169,8.691l1.741-1.559Zm.927,2.251c.39,1.317.114.4.5,1.7l-2.332.128.128-2.332Zm2.251.927,1.559.847-1.559,1.741-1.559-1.741Zm2.251-.927,1.7-.5c.067,1.257.067,1.21.128,2.332l-2.332-.128Zm1.835-4.019.121-2.238A5.794,5.794,0,0,1,52.271,6.4ZM48.494,4.659c-.827.45-.746.4-1.559.847-2.527-1.371-1.1-.6-1.559-.847.524-.591.934-1.042,1.559-1.741.753.84.323.356,1.559,1.741m-3.306.081-.5,1.7-1.7.5-.128-2.332c.827.04,1.452.074,2.332.128M42.856,6.923c-.894-.37-.558-.228-1.257-.517a5.752,5.752,0,0,1,1.129-1.714c.06,1.062.067,1.163.128,2.231m2.439,5.9c.652.732,1.223,1.364,1.492,1.667a5.779,5.779,0,0,1-2.016-.417Zm5.726-2.372,1.257.517a5.839,5.839,0,0,1-1.129,1.714Zm1.3.4c-.464-.195-.786-.323-1.257-.517l1.667-1.492a5.7,5.7,0,0,1-.41,2.009m-1.257-3.8c.47-.195.786-.329,1.257-.517a5.869,5.869,0,0,1,.417,2.016c-.511-.457-1.176-1.048-1.673-1.5M48.7,4.6c.087-.208.316-.759.517-1.257a5.839,5.839,0,0,1,1.714,1.129Zm.4-1.3c-.195.464-.323.786-.517,1.257L47.089,2.891A5.734,5.734,0,0,1,49.1,3.3M45.3,4.558l-.517-1.25a5.9,5.9,0,0,1,2.016-.417Zm-.638-1.2.517,1.25c-.558-.034-1.66-.094-2.238-.121a5.74,5.74,0,0,1,1.72-1.129m-3.1,3.172,1.257.517c-.773.692-.867.773-1.667,1.492a5.559,5.559,0,0,1,.41-2.009m1.25,3.8-1.257.517a5.71,5.71,0,0,1-.41-2.016c.7.625.86.773,1.667,1.5m5.773,2.493.517,1.25a5.869,5.869,0,0,1-2.016.417c1.351-1.5,1.075-1.189,1.5-1.667m.645,1.2-.517-1.25c.47.027,1.532.081,2.238.121a6.052,6.052,0,0,1-1.72,1.129" transform="translate(-13.448 -0.902)" fill="#09090a"/>
    <path id="Path_1920" data-name="Path 1920" d="M57.731,2.48A1.411,1.411,0,1,1,56.32,3.891,1.411,1.411,0,0,1,57.731,2.48" transform="translate(-18.472 -0.813)" fill="#fff"/>
    <circle id="Ellipse_126" data-name="Ellipse 126" cx="1.411" cy="1.411" r="1.411" transform="translate(37.848 1.667)" fill="none" stroke="#000" stroke-miterlimit="10" stroke-width="0.5"/>
    <path id="Path_1921" data-name="Path 1921" d="M57.971,16.15a1.411,1.411,0,1,1-1.411,1.411,1.411,1.411,0,0,1,1.411-1.411" transform="translate(-18.551 -5.297)" fill="#fff"/>
    <circle id="Ellipse_127" data-name="Ellipse 127" cx="1.411" cy="1.411" r="1.411" transform="translate(38.009 10.853)" fill="none" stroke="#000" stroke-miterlimit="10" stroke-width="0.5"/>
    <path id="Path_1922" data-name="Path 1922" d="M64.34,2.44A5.86,5.86,0,1,1,58.48,8.3a5.86,5.86,0,0,1,5.86-5.86" transform="translate(-19.181 -0.8)" fill="#fff"/>
    <path id="Path_1923" data-name="Path 1923" d="M70.239,8.271A5.936,5.936,0,1,0,68.5,12.464a5.94,5.94,0,0,0,1.741-4.193m-9.926,4.2c1.606-.087,2-.108,2.231-.121l-.517,1.25a5.709,5.709,0,0,1-1.714-1.129m-.208-.208a5.794,5.794,0,0,1-1.129-1.714c.7-.289.363-.148,1.257-.517-.067,1.069-.074,1.176-.128,2.231m9.973-3.992L68.337,9.83c-.175-.329-.578-1.069-.847-1.559.423-.78.39-.719.847-1.559,1.042.927,1.075.961,1.741,1.559M66.408,5.959c-.679-.282-1.263-.524-1.949-.806l1.472-.8Zm.047.161c.753,1.821.558,1.351.887,2.15-.329.8-.134.329-.887,2.15-1.821.753-1.351.558-2.15.887-.8-.329-.329-.134-2.15-.887C61.4,8.6,61.6,9.07,61.267,8.271c.329-.8.134-.329.887-2.15,1.25-.517.988-.41,2.15-.887,1.156.47.894.363,2.15.887m-.047,4.455-.477,1.606-1.472-.8c.739-.3,1.257-.517,1.949-.806m-5.215-2.46-.8-1.472L62,6.167c-.289.692-.5,1.21-.806,1.949M62,10.367,60.394,9.89l.8-1.472c.3.732.517,1.25.806,1.949m.685-6.015,1.472.8c-1.149.477-.753.309-1.949.806.585-1.976.4-1.337.477-1.606m0,7.829c-.074-.255-.007-.013-.477-1.606,1.2.5.753.309,1.949.806-.894.491-.571.309-1.472.8M68.223,9.89l-1.606.477c.282-.679.524-1.263.806-1.949.282.517.484.894.8,1.472m-.8-1.774c-.114-.276-.638-1.539-.806-1.949l1.606.477c-.477.887-.5.921-.8,1.472m.833-1.6-1.7-.5-.5-1.7,2.332-.128c-.06,1.149-.054,1.062-.128,2.332m-7.13,1.754L60.279,9.83,58.539,8.271l1.741-1.559Zm.927,2.245c.39,1.317.114.4.5,1.7l-2.332.128.128-2.332Zm2.251.934,1.559.847L64.3,14.037,62.746,12.3Zm2.251-.934,1.7-.5c.067,1.257.067,1.21.128,2.332l-2.332-.128ZM68.391,6.5l.121-2.238a5.794,5.794,0,0,1,1.129,1.714ZM65.864,4.239c-.827.45-.746.4-1.559.847-2.527-1.371-1.1-.6-1.559-.847C63.27,3.647,63.68,3.2,64.3,2.5c.759.84.323.356,1.559,1.741m-3.306.074-.5,1.7-1.7.5-.128-2.332c.827.047,1.452.081,2.332.128M60.226,6.5c-.894-.37-.558-.228-1.257-.517A5.752,5.752,0,0,1,60.1,4.272c.06,1.062.067,1.163.128,2.231M62.665,12.4c.652.732,1.223,1.364,1.492,1.667a5.779,5.779,0,0,1-2.016-.417Zm5.726-2.365,1.257.517a5.839,5.839,0,0,1-1.129,1.714Zm1.3.4c-.464-.195-.786-.323-1.257-.517L70.1,8.419a5.7,5.7,0,0,1-.41,2.009m-1.257-3.8c.47-.195.786-.329,1.257-.517a5.869,5.869,0,0,1,.417,2.016c-.511-.457-1.176-1.048-1.673-1.5M66.072,4.185c.087-.208.316-.759.517-1.257A5.839,5.839,0,0,1,68.3,4.057Zm.4-1.3c-.195.464-.323.786-.517,1.257L64.459,2.471a5.734,5.734,0,0,1,2.009.41m-3.8,1.257-.517-1.25a5.9,5.9,0,0,1,2.016-.417Zm-.638-1.21.517,1.25c-.558-.034-1.66-.094-2.238-.121a6.1,6.1,0,0,1,1.72-1.129m-3.1,3.179,1.257.517c-.773.692-.867.773-1.667,1.492a5.7,5.7,0,0,1,.41-2.009m1.25,3.8-1.257.517a5.71,5.71,0,0,1-.41-2.016c.7.625.86.773,1.667,1.5M65.951,12.4l.517,1.25a5.869,5.869,0,0,1-2.016.417c1.344-1.492,1.069-1.183,1.5-1.667m.638,1.21-.517-1.25c.47.027,1.532.081,2.238.121a5.96,5.96,0,0,1-1.72,1.129" transform="translate(-19.145 -0.764)" fill="#09090a"/>
    <path id="Path_1924" data-name="Path 1924" d="M75.381,2.34A1.411,1.411,0,1,1,73.97,3.751,1.411,1.411,0,0,1,75.381,2.34" transform="translate(-24.261 -0.767)" fill="#fff"/>
    <circle id="Ellipse_128" data-name="Ellipse 128" cx="1.411" cy="1.411" r="1.411" transform="translate(49.709 1.573)" fill="none" stroke="#000" stroke-miterlimit="10" stroke-width="0.5"/>
    <path id="Path_1925" data-name="Path 1925" d="M75.341,15.73a1.411,1.411,0,1,1-1.411,1.411,1.411,1.411,0,0,1,1.411-1.411" transform="translate(-24.248 -5.159)" fill="#fff"/>
    <circle id="Ellipse_129" data-name="Ellipse 129" cx="1.411" cy="1.411" r="1.411" transform="translate(49.682 10.571)" fill="none" stroke="#000" stroke-miterlimit="10" stroke-width="0.5"/>
    <path id="Path_1926" data-name="Path 1926" d="M5.141,2.95A1.411,1.411,0,1,1,3.73,4.361,1.411,1.411,0,0,1,5.141,2.95" transform="translate(-1.223 -0.968)" fill="#fff"/>
    <circle id="Ellipse_130" data-name="Ellipse 130" cx="1.411" cy="1.411" r="1.411" transform="translate(2.507 1.982)" fill="none" stroke="#000" stroke-miterlimit="10" stroke-width="0.5"/>
    <path id="Path_1927" data-name="Path 1927" d="M5.381,16.62A1.411,1.411,0,1,1,3.97,18.031,1.411,1.411,0,0,1,5.381,16.62" transform="translate(-1.302 -5.451)" fill="#fff"/>
    <circle id="Ellipse_131" data-name="Ellipse 131" cx="1.411" cy="1.411" r="1.411" transform="translate(2.668 11.169)" fill="none" stroke="#000" stroke-miterlimit="10" stroke-width="0.5"/>
    <path id="Path_1928" data-name="Path 1928" d="M11.75,2.91A5.86,5.86,0,1,1,5.89,8.77a5.86,5.86,0,0,1,5.86-5.86" transform="translate(-1.932 -0.954)" fill="#fff"/>
    <path id="Path_1929" data-name="Path 1929" d="M17.649,8.741a5.936,5.936,0,1,0-1.741,4.193,5.94,5.94,0,0,0,1.741-4.193m-9.926,4.2c1.606-.087,2-.108,2.231-.121l-.517,1.25a5.506,5.506,0,0,1-1.714-1.129m-.208-.208a5.794,5.794,0,0,1-1.129-1.714c.7-.289.363-.148,1.257-.517-.067,1.069-.074,1.176-.128,2.231m9.973-3.992L15.747,10.3c-.175-.329-.578-1.069-.847-1.559.423-.78.39-.719.847-1.559,1.042.927,1.075.961,1.741,1.559M13.811,6.429c-.679-.282-1.263-.524-1.949-.806l1.472-.8Zm.054.161c.753,1.821.558,1.351.887,2.15-.329.8-.134.329-.887,2.15-1.821.753-1.351.558-2.15.887-.8-.329-.329-.134-2.15-.887-.753-1.821-.558-1.351-.887-2.15.329-.8.134-.329.887-2.15,1.25-.517.988-.41,2.15-.887,1.156.477.894.363,2.15.887m-.054,4.462-.477,1.606-1.472-.8c.746-.309,1.257-.524,1.949-.806M8.6,8.586,7.8,7.114,9.41,6.637c-.289.692-.5,1.21-.806,1.949m.8,2.251L7.8,10.36l.8-1.472c.309.732.524,1.25.806,1.949M10.1,4.823l1.472.8c-1.149.477-.753.309-1.949.806.585-1.976.4-1.331.477-1.606m0,7.829c-.074-.255-.007-.013-.477-1.606,1.2.5.753.309,1.949.806-.894.491-.571.309-1.472.8m5.537-2.292-1.606.477c.282-.679.524-1.263.806-1.949.282.517.484.894.8,1.472m-.8-1.774c-.114-.276-.638-1.539-.806-1.949l1.606.477c-.477.887-.5.921-.8,1.472m.833-1.593-1.7-.5-.5-1.7,2.332-.128c-.06,1.149-.054,1.055-.128,2.332M8.536,8.741,7.689,10.3,5.949,8.741,7.689,7.182Zm.927,2.251c.39,1.317.114.4.5,1.7l-2.332.128.128-2.332Zm2.251.927,1.559.847-1.559,1.741-1.559-1.741Zm2.251-.927,1.7-.5c.067,1.257.067,1.21.128,2.332l-2.332-.128ZM15.8,6.973l.121-2.238a5.794,5.794,0,0,1,1.129,1.714ZM13.274,4.709c-.827.45-.746.4-1.559.847-2.527-1.371-1.1-.6-1.559-.847.524-.591.934-1.042,1.559-1.741.759.84.323.356,1.559,1.741m-3.306.081-.5,1.7-1.7.5L7.636,4.662c.827.04,1.452.074,2.332.128M7.636,6.973c-.894-.37-.558-.228-1.257-.517A5.752,5.752,0,0,1,7.508,4.742c.06,1.062.067,1.163.128,2.231m2.439,5.9c.652.732,1.223,1.364,1.492,1.667a5.779,5.779,0,0,1-2.016-.417ZM15.8,10.5l1.257.517a5.839,5.839,0,0,1-1.129,1.714Zm1.3.4c-.464-.195-.786-.323-1.257-.517l1.667-1.492A5.7,5.7,0,0,1,17.1,10.9m-1.257-3.8c.47-.195.786-.329,1.257-.517a5.869,5.869,0,0,1,.417,2.016c-.511-.457-1.176-1.048-1.673-1.5M13.482,4.655C13.569,4.447,13.8,3.9,14,3.4a5.839,5.839,0,0,1,1.714,1.129Zm.4-1.3c-.195.464-.323.786-.517,1.257L11.869,2.941a5.734,5.734,0,0,1,2.009.41m-3.8,1.257-.517-1.25a5.9,5.9,0,0,1,2.016-.417ZM9.437,3.4l.517,1.25c-.558-.034-1.66-.094-2.238-.121A5.74,5.74,0,0,1,9.437,3.4m-3.1,3.172,1.257.517c-.773.692-.867.773-1.667,1.492a5.7,5.7,0,0,1,.41-2.009m1.25,3.8L6.325,10.9a5.71,5.71,0,0,1-.41-2.016c.7.625.86.773,1.667,1.5m5.779,2.493.517,1.25a5.869,5.869,0,0,1-2.016.417c1.344-1.5,1.069-1.189,1.5-1.667m.638,1.2-.517-1.25c.47.027,1.532.081,2.238.121A5.96,5.96,0,0,1,14,14.077" transform="translate(-1.897 -0.918)" fill="#09090a"/>
    <path id="Path_1930" data-name="Path 1930" d="M81.76,2.7A5.86,5.86,0,1,1,75.9,8.56,5.86,5.86,0,0,1,81.76,2.7" transform="translate(-24.894 -0.886)" fill="#fff"/>
    <path id="Path_1931" data-name="Path 1931" d="M87.649,8.521a5.936,5.936,0,1,0-1.741,4.193,5.94,5.94,0,0,0,1.741-4.193m-9.926,4.207c1.606-.087,2-.108,2.231-.121l-.517,1.25a5.709,5.709,0,0,1-1.714-1.129m-.208-.208a5.794,5.794,0,0,1-1.129-1.714c.7-.289.363-.148,1.257-.517-.067,1.069-.074,1.169-.128,2.231m9.973-4L85.747,10.08c-.175-.329-.578-1.069-.847-1.559.423-.78.39-.719.847-1.559,1.042.934,1.075.968,1.741,1.559M83.818,6.209c-.679-.282-1.263-.524-1.949-.806l1.472-.8Zm.047.161c.753,1.821.558,1.351.887,2.15-.329.8-.134.329-.887,2.15-1.821.753-1.351.558-2.15.887-.8-.329-.329-.134-2.15-.887-.753-1.821-.558-1.351-.887-2.15.329-.8.134-.329.887-2.15,1.25-.517.988-.41,2.15-.887l2.15.887m-.047,4.462-.477,1.606-1.472-.8c.739-.3,1.257-.517,1.949-.806M78.6,8.373,77.8,6.9l1.606-.477c-.289.692-.5,1.21-.806,1.949m.806,2.245L77.8,10.14l.8-1.472c.3.739.517,1.257.806,1.949M80.1,4.6l1.472.8c-1.149.477-.753.309-1.949.806.585-1.976.4-1.331.477-1.606m0,7.836c-.074-.255-.007-.013-.477-1.606,1.2.5.753.309,1.949.806-.894.484-.571.309-1.472.8m5.537-2.292-1.606.477c.282-.679.524-1.263.806-1.949.282.511.491.894.8,1.472m-.8-1.774c-.114-.276-.638-1.539-.806-1.949l1.606.477c-.477.88-.5.921-.8,1.472m.833-1.6-1.7-.5-.5-1.7,2.332-.128c-.06,1.149-.054,1.055-.128,2.332m-7.13,1.747-.847,1.559L75.949,8.521l1.741-1.559Zm.927,2.251c.39,1.317.114.4.5,1.7l-2.332.128.128-2.332Zm2.251.934,1.559.847-1.559,1.741-1.559-1.741Zm2.251-.934,1.7-.5c.067,1.257.067,1.21.128,2.332l-2.332-.128ZM85.8,6.76l.121-2.238a5.794,5.794,0,0,1,1.129,1.714ZM83.274,4.5c-.827.45-.746.4-1.559.847-2.527-1.371-1.1-.6-1.559-.847.524-.591.934-1.042,1.559-1.741.759.84.323.356,1.559,1.741m-3.306.074-.5,1.7-1.7.5-.128-2.332c.827.047,1.452.081,2.332.128M77.636,6.76c-.894-.37-.558-.228-1.257-.517a5.752,5.752,0,0,1,1.129-1.714c.06,1.055.067,1.163.128,2.231m2.439,5.894c.652.732,1.223,1.364,1.492,1.667a5.779,5.779,0,0,1-2.016-.417ZM85.8,10.281l1.257.517a5.839,5.839,0,0,1-1.129,1.714Zm1.3.4c-.464-.195-.786-.323-1.257-.517l1.667-1.492a5.734,5.734,0,0,1-.41,2.009m-1.257-3.8c.47-.195.786-.329,1.257-.517a5.869,5.869,0,0,1,.417,2.016c-.511-.457-1.176-1.055-1.673-1.5M83.482,4.442c.087-.208.316-.759.517-1.257a5.839,5.839,0,0,1,1.714,1.129Zm.4-1.3c-.195.464-.323.786-.517,1.257L81.869,2.728a5.559,5.559,0,0,1,2.009.41m-3.8,1.25-.517-1.25a5.9,5.9,0,0,1,2.016-.417Zm-.638-1.2.517,1.25c-.558-.034-1.66-.094-2.238-.121a5.96,5.96,0,0,1,1.72-1.129m-3.1,3.179,1.257.517c-.773.692-.867.773-1.667,1.492a5.7,5.7,0,0,1,.41-2.009m1.25,3.8-1.257.517a5.71,5.71,0,0,1-.41-2.016c.7.632.86.78,1.667,1.5m5.779,2.493.517,1.25a5.869,5.869,0,0,1-2.016.417c1.344-1.5,1.069-1.189,1.5-1.667m.638,1.2-.517-1.25c.47.027,1.532.081,2.238.121A5.825,5.825,0,0,1,84,13.857" transform="translate(-24.855 -0.846)" fill="#09090a"/>
    <path id="Path_1932" data-name="Path 1932" d="M92.791,2.6A1.411,1.411,0,1,1,91.38,4.011,1.411,1.411,0,0,1,92.791,2.6" transform="translate(-29.971 -0.853)" fill="#fff"/>
    <circle id="Ellipse_132" data-name="Ellipse 132" cx="1.411" cy="1.411" r="1.411" transform="translate(61.409 1.747)" fill="none" stroke="#000" stroke-miterlimit="10" stroke-width="0.5"/>
    <path id="Path_1933" data-name="Path 1933" d="M92.751,15.98a1.411,1.411,0,1,1-1.411,1.411,1.411,1.411,0,0,1,1.411-1.411" transform="translate(-29.958 -5.241)" fill="#fff"/>
    <circle id="Ellipse_133" data-name="Ellipse 133" cx="1.411" cy="1.411" r="1.411" transform="translate(61.382 10.739)" fill="none" stroke="#000" stroke-miterlimit="10" stroke-width="0.5"/>
  </g>
</svg>