<?xml version="1.0" encoding="utf-8"?>
<!-- Generator: Adobe Illustrator 24.2.3, SVG Export Plug-In . SVG Version: 6.00 Build 0)  -->
<svg version="1.1" id="Layer_1" xmlns="http://www.w3.org/2000/svg" xmlns:xlink="http://www.w3.org/1999/xlink" x="0px" y="0px"
	 viewBox="0 0 71.67 71.63" style="enable-background:new 0 0 71.67 71.63;" xml:space="preserve">
<style type="text/css">
	.st0{fill:#FFFFFF;}
	.st1{fill:#09090A;}
</style>
<g>
	<rect x="0.3" y="0.01" class="st0" width="71.06" height="71.59"/>
	<path class="st1" d="M71.65,0.39c0-0.01,0-0.02,0-0.03c0-0.02-0.01-0.07-0.01-0.07c-0.01-0.06-0.07-0.15-0.1-0.18
		C71.53,0.1,71.53,0.1,71.52,0.1c-0.09-0.08-0.17-0.09-0.23-0.1C71.05-0.02,0.27,0.03,0.31,0.01C0.25,0.03,0.2,0.06,0.16,0.09
		C-0.08,0.3,0.03,71.21,0.03,71.25c0,0.02,0.01,0.07,0.01,0.07c0.01,0.04,0.05,0.11,0.09,0.16c0.19,0.21,71.2,0.13,71.25,0.12
		C71.8,71.47,71.65,74.24,71.65,0.39z M61.57,65.49l-5.49-9.43l9.43,5.49c1.18,2.16,3.49,6.4,4.75,8.7
		C67.97,68.98,63.72,66.67,61.57,65.49z M55.44,54.77l3.13-17.24l6.6,22.9L55.44,54.77z M58.57,34.09l-3.13-17.24l9.73-5.66
		L58.57,34.09z M54.8,16.21l-17.24-3.13l22.9-6.6C55.64,14.76,56.9,12.59,54.8,16.21z M13.1,34.09l-6.6-22.9l9.73,5.66L13.1,34.09z
		 M13.1,37.53l3.13,17.24L6.5,60.43L13.1,37.53z M16.88,16.21l-5.66-9.73l22.9,6.6L16.88,16.21z M6.25,13.15l6.53,22.66L6.25,58.47
		C6.25,58.47,6.25,13.15,6.25,13.15z M35.84,58.05c-5.49-1-12.96-2.36-18.82-3.42L13.6,35.81l3.42-18.82
		c5.86-1.07,13.33-2.42,18.82-3.42c5.49,1,12.96,2.36,18.82,3.42l3.42,18.82l-3.42,18.82C48.8,55.7,41.33,57.06,35.84,58.05z
		 M54.8,55.41c3.06,5.26,2.37,4.07,5.66,9.73l-22.9-6.6L54.8,55.41z M65.42,58.47l-6.53-22.66l6.53-22.66V58.47z M65.52,10.07
		l-9.43,5.49l5.49-9.43l8.7-4.75C69.01,3.68,66.69,7.92,65.52,10.07z M5.47,10.46v50.7l-4.66,8.53V1.93L5.47,10.46z M11.22,65.14
		l5.66-9.73l17.24,3.13C23.04,61.73,17.7,63.27,11.22,65.14z M66.21,61.16v-50.7l4.66-8.53v67.76L66.21,61.16z M35.84,12.75
		c-4.18-1.2-16.08-4.63-22.66-6.53h45.33L35.84,12.75z M10.1,6.12c2.12,3.64,4.49,7.72,5.49,9.43l-9.43-5.49
		c-1.18-2.16-3.49-6.4-4.75-8.7C4.39,3,7.05,4.46,10.1,6.12z M1.4,70.24c1.26-2.3,3.58-6.55,4.75-8.7l9.43-5.49
		c-1.61,2.77-3.04,5.22-5.49,9.43C8.37,66.44,3.45,69.13,1.4,70.24z M35.84,58.86c4.81,1.38,17.28,4.98,22.66,6.53H13.17
		C21.7,62.94,27.51,61.26,35.84,58.86z M69.72,0.78c-2.98,1.63-5.54,3.03-8.53,4.66h-50.7c-3.9-2.13-2.01-1.1-8.53-4.66H69.72z
		 M10.49,66.18h50.7l8.53,4.66H1.96C7.16,67.99,7.44,67.85,10.49,66.18z"/>
</g>
</svg>
