<svg id="sparkle" xmlns="http://www.w3.org/2000/svg" xmlns:xlink="http://www.w3.org/1999/xlink" width="67" height="15.386" viewBox="0 0 67 15.386">
  <defs>
    <clipPath id="clip-path">
      <rect id="Rectangle_348" data-name="Rectangle 348" width="67" height="15.386" fill="none"/>
    </clipPath>
  </defs>
  <g id="Group_238" data-name="Group 238" transform="translate(0 0)" clip-path="url(#clip-path)">
    <path id="Path_1801" data-name="Path 1801" d="M62.291,14.093H4.882A4.633,4.633,0,0,1,.25,9.461V7.612A4.633,4.633,0,0,1,4.882,2.98H62.291a4.633,4.633,0,0,1,4.632,4.632V9.461a4.633,4.633,0,0,1-4.632,4.632" transform="translate(-0.087 -1.033)" fill="#fff"/>
    <path id="Path_1802" data-name="Path 1802" d="M62.291,14.093H4.882A4.633,4.633,0,0,1,.25,9.461V7.612A4.633,4.633,0,0,1,4.882,2.98H62.291a4.633,4.633,0,0,1,4.632,4.632V9.461A4.633,4.633,0,0,1,62.291,14.093Z" transform="translate(-0.087 -1.033)" fill="none" stroke="#000" stroke-miterlimit="10" stroke-width="0.5"/>
    <path id="Path_1803" data-name="Path 1803" d="M65.727,2.471H3.131a1.111,1.111,0,0,1,0-2.221h62.6a1.111,1.111,0,1,1,0,2.221" transform="translate(-0.7 -0.087)" fill="#fff"/>
    <path id="Path_1804" data-name="Path 1804" d="M65.727,2.471H3.131a1.111,1.111,0,0,1,0-2.221h62.6a1.111,1.111,0,1,1,0,2.221Z" transform="translate(-0.7 -0.087)" fill="none" stroke="#000" stroke-miterlimit="10" stroke-width="0.5"/>
    <path id="Path_1805" data-name="Path 1805" d="M65.727,22.121H3.131a1.111,1.111,0,1,1,0-2.221h62.6a1.111,1.111,0,1,1,0,2.221" transform="translate(-0.7 -6.899)" fill="#fff"/>
    <path id="Path_1806" data-name="Path 1806" d="M65.727,22.121H3.131a1.111,1.111,0,1,1,0-2.221h62.6a1.111,1.111,0,1,1,0,2.221Z" transform="translate(-0.7 -6.899)" fill="none" stroke="#000" stroke-miterlimit="10" stroke-width="0.5"/>
    <line id="Line_7" data-name="Line 7" y2="7.115" transform="translate(14.942 4.09)" fill="none" stroke="#000" stroke-miterlimit="10" stroke-width="0.5"/>
    <line id="Line_8" data-name="Line 8" x1="7.115" transform="translate(11.388 7.651)" fill="none" stroke="#000" stroke-miterlimit="10" stroke-width="0.5"/>
    <line id="Line_9" data-name="Line 9" x1="5.024" y1="5.031" transform="translate(12.433 5.135)" fill="none" stroke="#000" stroke-miterlimit="10" stroke-width="0.5"/>
    <line id="Line_10" data-name="Line 10" x1="5.024" y2="5.031" transform="translate(12.433 5.135)" fill="none" stroke="#000" stroke-miterlimit="10" stroke-width="0.5"/>
    <line id="Line_11" data-name="Line 11" y2="7.115" transform="translate(60.976 4.09)" fill="none" stroke="#000" stroke-miterlimit="10" stroke-width="0.5"/>
    <line id="Line_12" data-name="Line 12" x1="7.115" transform="translate(57.415 7.651)" fill="none" stroke="#000" stroke-miterlimit="10" stroke-width="0.5"/>
    <line id="Line_13" data-name="Line 13" x1="5.031" y1="5.031" transform="translate(58.461 5.135)" fill="none" stroke="#000" stroke-miterlimit="10" stroke-width="0.5"/>
    <line id="Line_14" data-name="Line 14" x1="5.031" y2="5.031" transform="translate(58.461 5.135)" fill="none" stroke="#000" stroke-miterlimit="10" stroke-width="0.5"/>
    <line id="Line_15" data-name="Line 15" y2="7.115" transform="translate(33.36 4.09)" fill="none" stroke="#000" stroke-miterlimit="10" stroke-width="0.5"/>
    <line id="Line_16" data-name="Line 16" x1="7.115" transform="translate(29.799 7.651)" fill="none" stroke="#000" stroke-miterlimit="10" stroke-width="0.5"/>
    <line id="Line_17" data-name="Line 17" x1="5.024" y1="5.031" transform="translate(30.844 5.135)" fill="none" stroke="#000" stroke-miterlimit="10" stroke-width="0.5"/>
    <line id="Line_18" data-name="Line 18" x1="5.024" y2="5.031" transform="translate(30.844 5.135)" fill="none" stroke="#000" stroke-miterlimit="10" stroke-width="0.5"/>
    <line id="Line_19" data-name="Line 19" y2="7.115" transform="translate(24.147 4.09)" fill="none" stroke="#000" stroke-miterlimit="10" stroke-width="0.5"/>
    <line id="Line_20" data-name="Line 20" x1="7.115" transform="translate(20.593 7.651)" fill="none" stroke="#000" stroke-miterlimit="10" stroke-width="0.5"/>
    <line id="Line_21" data-name="Line 21" x1="5.024" y1="5.031" transform="translate(21.639 5.135)" fill="none" stroke="#000" stroke-miterlimit="10" stroke-width="0.5"/>
    <line id="Line_22" data-name="Line 22" x1="5.024" y2="5.031" transform="translate(21.639 5.135)" fill="none" stroke="#000" stroke-miterlimit="10" stroke-width="0.5"/>
    <line id="Line_23" data-name="Line 23" y2="7.115" transform="translate(42.565 4.09)" fill="none" stroke="#000" stroke-miterlimit="10" stroke-width="0.5"/>
    <line id="Line_24" data-name="Line 24" x1="7.115" transform="translate(39.004 7.651)" fill="none" stroke="#000" stroke-miterlimit="10" stroke-width="0.5"/>
    <line id="Line_25" data-name="Line 25" x1="5.031" y1="5.031" transform="translate(40.05 5.135)" fill="none" stroke="#000" stroke-miterlimit="10" stroke-width="0.5"/>
    <line id="Line_26" data-name="Line 26" x1="5.031" y2="5.031" transform="translate(40.05 5.135)" fill="none" stroke="#000" stroke-miterlimit="10" stroke-width="0.5"/>
    <line id="Line_27" data-name="Line 27" y2="7.115" transform="translate(51.771 4.09)" fill="none" stroke="#000" stroke-miterlimit="10" stroke-width="0.5"/>
    <line id="Line_28" data-name="Line 28" x1="7.115" transform="translate(48.21 7.651)" fill="none" stroke="#000" stroke-miterlimit="10" stroke-width="0.5"/>
    <line id="Line_29" data-name="Line 29" x1="5.031" y1="5.031" transform="translate(49.255 5.135)" fill="none" stroke="#000" stroke-miterlimit="10" stroke-width="0.5"/>
    <line id="Line_30" data-name="Line 30" x1="5.031" y2="5.031" transform="translate(49.255 5.135)" fill="none" stroke="#000" stroke-miterlimit="10" stroke-width="0.5"/>
    <line id="Line_31" data-name="Line 31" y2="7.115" transform="translate(5.736 4.09)" fill="none" stroke="#000" stroke-miterlimit="10" stroke-width="0.5"/>
    <line id="Line_32" data-name="Line 32" x1="7.115" transform="translate(2.182 7.651)" fill="none" stroke="#000" stroke-miterlimit="10" stroke-width="0.5"/>
    <line id="Line_33" data-name="Line 33" x1="5.031" y1="5.031" transform="translate(3.221 5.135)" fill="none" stroke="#000" stroke-miterlimit="10" stroke-width="0.5"/>
    <line id="Line_34" data-name="Line 34" x1="5.031" y2="5.031" transform="translate(3.221 5.135)" fill="none" stroke="#000" stroke-miterlimit="10" stroke-width="0.5"/>
  </g>
</svg>
