<svg xmlns="http://www.w3.org/2000/svg" xmlns:xlink="http://www.w3.org/1999/xlink" width="67" height="16.713" viewBox="0 0 67 16.713">
  <defs>
    <clipPath id="clip-path">
      <rect id="Rectangle_353" data-name="Rectangle 353" width="67" height="16.713" fill="none"/>
    </clipPath>
  </defs>
  <g id="channel" clip-path="url(#clip-path)">
    <path id="Path_1894" data-name="Path 1894" d="M6.794,4.67A5.484,5.484,0,1,1,1.31,10.154,5.484,5.484,0,0,1,6.794,4.67" transform="translate(-0.436 -1.554)" fill="#fff"/>
    <path id="Path_1895" data-name="Path 1895" d="M12.312,10.118a5.553,5.553,0,1,0-1.628,3.923,5.558,5.558,0,0,0,1.628-3.923M3.018,14.054c1.5-.08,1.875-.1,2.088-.113l-.487,1.168a5.512,5.512,0,0,1-1.6-1.054m-.193-.193a5.522,5.522,0,0,1-1.061-1.608c.654-.274.334-.14,1.174-.487-.053,1-.06,1.1-.113,2.1m9.334-3.743c-.607.54-1.014.914-1.628,1.461-.167-.307-.54-1-.794-1.461.394-.727.367-.674.794-1.461.974.874,1.007.907,1.628,1.461M8.723,7.956C8.089,7.689,7.535,7.462,6.9,7.2l1.374-.747Zm.047.153c.707,1.708.527,1.268.834,2.008-.307.747-.127.307-.834,2.008-1.708.707-1.268.527-2.008.834-.747-.307-.307-.127-2.008-.834-.707-1.708-.527-1.268-.834-2.008.307-.747.127-.307.834-2.008,1.174-.487.927-.387,2.008-.834,1.081.447.834.347,2.008.834m-.047,4.17-.447,1.5L6.9,13.033c.687-.28,1.174-.48,1.821-.754m-4.877-2.3L3.1,8.6l1.5-.447c-.267.647-.474,1.128-.754,1.821m.754,2.1-1.5-.447.747-1.374c.28.687.48,1.174.754,1.821M5.24,6.455,6.614,7.2c-1.074.447-.707.294-1.821.754.554-1.848.374-1.248.447-1.5m0,7.326c-.067-.24-.007-.013-.447-1.5l1.821.754c-.834.46-.527.294-1.374.747m5.184-2.142-1.5.447c.267-.634.494-1.188.754-1.821.26.48.454.834.747,1.374M9.677,9.978c-.107-.254-.6-1.441-.754-1.821l1.5.447c-.447.827-.467.861-.747,1.374m.781-1.495L8.869,8.009,8.4,6.421l2.182-.12c-.06,1.074-.053.987-.12,2.182M3.779,10.118l-.794,1.461L1.357,10.118,2.985,8.657Zm.874,2.108c.367,1.228.107.367.474,1.595l-2.182.12.12-2.182Zm2.108.874,1.461.794L6.761,15.522,5.3,13.894Zm2.108-.874c.407-.12,1.188-.354,1.588-.474.067,1.174.06,1.134.12,2.182L8.4,13.814ZM10.577,8.47l.113-2.1a5.522,5.522,0,0,1,1.061,1.608ZM8.216,6.348l-1.461.794C4.393,5.861,5.727,6.575,5.3,6.348c.494-.547.874-.974,1.454-1.628.714.787.307.334,1.461,1.628m-3.089.073L4.653,8.009l-1.595.474L2.938,6.3c.774.04,1.361.073,2.188.12M2.938,8.47c-.834-.347-.52-.214-1.174-.487A5.476,5.476,0,0,1,2.825,6.375c.053.994.06,1.094.113,2.1m2.288,5.518c.614.687,1.148,1.281,1.4,1.561a5.323,5.323,0,0,1-1.881-.387Zm5.351-2.222,1.174.487a5.476,5.476,0,0,1-1.061,1.608Zm1.221.374c-.434-.18-.734-.3-1.174-.487.534-.474.594-.534,1.561-1.394a5.354,5.354,0,0,1-.387,1.881M10.624,8.583c.44-.18.741-.307,1.174-.487a5.354,5.354,0,0,1,.387,1.881c-.474-.42-1.094-.974-1.561-1.394M8.409,6.3c.08-.193.294-.714.487-1.174A5.348,5.348,0,0,1,10.5,6.188ZM8.783,5.08c-.18.434-.3.734-.487,1.174-.474-.534-.534-.594-1.394-1.561a5.354,5.354,0,0,1,1.881.387M5.227,6.255,4.739,5.08a5.354,5.354,0,0,1,1.881-.387Zm-.6-1.128L5.113,6.3c-.527-.027-1.555-.087-2.088-.113a5.236,5.236,0,0,1,1.6-1.061M1.717,8.1l1.174.487c-.721.647-.807.727-1.561,1.394A5.507,5.507,0,0,1,1.717,8.1m1.174,3.556-1.174.487a5.354,5.354,0,0,1-.387-1.881c.654.58.807.721,1.561,1.394m5.4,2.335.487,1.174a5.354,5.354,0,0,1-1.881.387c1.254-1.4.994-1.114,1.394-1.561m.6,1.128-.487-1.174c.44.027,1.428.08,2.1.113A5.612,5.612,0,0,1,8.9,15.115" transform="translate(-0.403 -1.518)" fill="#09090a"/>
    <path id="Path_1896" data-name="Path 1896" d="M23.164,4.27A5.484,5.484,0,1,1,17.68,9.754,5.484,5.484,0,0,1,23.164,4.27" transform="translate(-5.884 -1.421)" fill="#fff"/>
    <path id="Path_1897" data-name="Path 1897" d="M28.682,9.728a5.553,5.553,0,1,0-1.628,3.923,5.558,5.558,0,0,0,1.628-3.923m-9.287,3.93c1.5-.08,1.875-.1,2.088-.113L21,14.712a5.216,5.216,0,0,1-1.6-1.054m-.2-.193a5.522,5.522,0,0,1-1.061-1.608c.654-.274.334-.14,1.174-.487-.053,1.007-.06,1.108-.113,2.1m9.334-3.736c-.607.54-1.014.914-1.628,1.461-.167-.307-.54-1-.794-1.461.394-.727.367-.674.794-1.461.974.874,1.007.9,1.628,1.461M25.093,7.559c-.634-.267-1.188-.494-1.821-.754l1.374-.747Zm.053.153c.707,1.708.527,1.268.834,2.008-.307.747-.127.307-.834,2.008-1.708.707-1.268.527-2.008.834-.747-.307-.307-.127-2.008-.834-.707-1.708-.527-1.268-.834-2.008.307-.747.127-.307.834-2.008,1.174-.487.927-.387,2.008-.834,1.074.447.827.347,2.008.834m-.053,4.177-.447,1.5-1.374-.747c.694-.287,1.174-.487,1.821-.754M20.215,9.581l-.747-1.374,1.5-.447c-.267.647-.467,1.134-.754,1.821m.754,2.108-1.5-.447.747-1.374c.287.687.487,1.168.754,1.821m.647-5.631,1.374.747c-1.074.447-.707.294-1.821.754.547-1.848.367-1.241.447-1.5m0,7.333c-.067-.24-.007-.013-.447-1.5l1.821.754c-.834.454-.534.287-1.374.747m5.177-2.148-1.5.447c.267-.634.494-1.188.754-1.821.267.48.454.834.747,1.374m-.747-1.661c-.107-.254-.6-1.441-.754-1.821l1.5.447c-.447.827-.467.861-.747,1.374m.781-1.495-1.588-.474-.474-1.588,2.182-.12c-.06,1.081-.053.994-.12,2.182M20.155,9.728l-.794,1.461L17.733,9.728l1.628-1.461Zm.867,2.1c.367,1.228.107.367.474,1.595l-2.182.12.12-2.182Zm2.108.874,1.461.794-1.461,1.628L21.67,13.5Zm2.108-.874c.407-.12,1.188-.354,1.588-.474.067,1.174.06,1.134.12,2.182l-2.182-.12Zm1.715-3.756.113-2.1a5.522,5.522,0,0,1,1.061,1.608ZM24.592,5.951l-1.461.794c-2.362-1.281-1.027-.567-1.454-.794.494-.547.874-.974,1.454-1.628l1.461,1.628m-3.1.073-.474,1.595-1.595.474-.12-2.182c.774.04,1.361.067,2.188.113M19.315,8.073c-.834-.347-.52-.214-1.174-.487A5.477,5.477,0,0,1,19.2,5.978c.047,1,.053,1.094.113,2.1M21.6,13.591c.614.687,1.148,1.281,1.4,1.561a5.323,5.323,0,0,1-1.882-.387Zm5.358-2.215,1.174.487a5.476,5.476,0,0,1-1.061,1.608Zm1.221.374c-.434-.18-.734-.3-1.174-.487.534-.474.594-.534,1.561-1.394a5.507,5.507,0,0,1-.387,1.881M27,8.186c.44-.18.741-.307,1.174-.487a5.354,5.354,0,0,1,.387,1.881c-.474-.42-1.094-.974-1.561-1.394M24.779,5.9c.08-.193.294-.714.487-1.174a5.348,5.348,0,0,1,1.608,1.061Zm.374-1.221c-.18.434-.3.734-.487,1.174-.474-.534-.534-.594-1.394-1.561a5.354,5.354,0,0,1,1.881.387M21.6,5.858l-.487-1.174A5.354,5.354,0,0,1,22.991,4.3ZM21,4.73,21.483,5.9c-.527-.027-1.555-.087-2.088-.113A5.36,5.36,0,0,1,21,4.73M18.094,7.7l1.174.487c-.721.647-.807.727-1.561,1.394A5.354,5.354,0,0,1,18.094,7.7m1.174,3.563-1.174.487a5.354,5.354,0,0,1-.387-1.881c.647.58.8.714,1.561,1.394m5.4,2.329.487,1.174a5.354,5.354,0,0,1-1.881.387c1.254-1.4.994-1.114,1.394-1.561m.6,1.128-.487-1.174c.44.027,1.428.08,2.1.113a5.476,5.476,0,0,1-1.608,1.061" transform="translate(-5.851 -1.388)" fill="#09090a"/>
    <path id="Path_1898" data-name="Path 1898" d="M39.674,4.27A5.484,5.484,0,1,1,34.19,9.754,5.484,5.484,0,0,1,39.674,4.27" transform="translate(-11.379 -1.421)" fill="#fff"/>
    <path id="Path_1899" data-name="Path 1899" d="M45.192,9.728a5.553,5.553,0,1,0-1.628,3.923,5.558,5.558,0,0,0,1.628-3.923M35.9,13.658c1.5-.08,1.875-.1,2.088-.113L37.5,14.712a5.216,5.216,0,0,1-1.6-1.054m-.193-.193a5.522,5.522,0,0,1-1.061-1.608c.654-.274.334-.14,1.174-.487-.053,1.007-.06,1.108-.113,2.1m9.334-3.736c-.607.54-1.014.914-1.628,1.461-.167-.307-.54-1-.794-1.461.394-.727.367-.674.794-1.461.974.874,1.007.9,1.628,1.461M41.6,7.559c-.634-.267-1.188-.494-1.821-.754l1.374-.747Zm.047.153c.707,1.708.527,1.268.834,2.008-.307.747-.127.307-.834,2.008-1.708.707-1.268.527-2.008.834-.747-.307-.307-.127-2.008-.834-.707-1.708-.527-1.268-.834-2.008.307-.747.127-.307.834-2.008,1.174-.487.927-.387,2.008-.834l2.008.834M41.6,11.889l-.447,1.5-1.374-.747c.687-.287,1.174-.487,1.821-.754M36.719,9.581l-.747-1.374,1.5-.447c-.267.647-.467,1.134-.754,1.821m.754,2.108-1.5-.447.747-1.374c.287.687.487,1.168.754,1.821m.647-5.631,1.374.747c-1.074.447-.707.294-1.821.754.547-1.848.374-1.241.447-1.5m0,7.333c-.067-.24-.007-.013-.447-1.5l1.821.754c-.834.454-.534.287-1.374.747M43.3,11.242l-1.5.447c.267-.634.494-1.188.754-1.821.26.48.454.834.747,1.374m-.747-1.661c-.107-.254-.6-1.441-.754-1.821l1.5.447c-.454.827-.467.861-.747,1.374m.781-1.495-1.588-.474-.474-1.588,2.182-.12c-.06,1.081-.053.994-.12,2.182M36.659,9.728l-.794,1.461L34.237,9.728l1.628-1.461Zm.874,2.1c.367,1.228.107.367.474,1.595l-2.182.12.12-2.182Zm2.108.874L41.1,13.5l-1.461,1.628L38.18,13.5Zm2.1-.874c.407-.12,1.188-.354,1.588-.474.067,1.174.06,1.134.12,2.182l-2.182-.12Zm1.715-3.756.113-2.1a5.522,5.522,0,0,1,1.061,1.608ZM41.1,5.951l-1.461.794c-2.362-1.281-1.027-.567-1.454-.794.494-.547.874-.974,1.454-1.628L41.1,5.951M38,6.025l-.474,1.595-1.595.474-.12-2.182c.781.04,1.361.067,2.188.113M35.818,8.073c-.834-.347-.52-.214-1.174-.487A5.477,5.477,0,0,1,35.7,5.978c.053,1,.06,1.094.113,2.1M38.1,13.591c.614.687,1.148,1.281,1.4,1.561a5.36,5.36,0,0,1-1.888-.387Zm5.358-2.215,1.174.487a5.476,5.476,0,0,1-1.061,1.608Zm1.221.374c-.434-.18-.734-.3-1.174-.487.534-.474.594-.534,1.561-1.394a5.354,5.354,0,0,1-.387,1.881M43.5,8.186c.44-.18.741-.307,1.174-.487a5.354,5.354,0,0,1,.387,1.881c-.474-.42-1.094-.974-1.561-1.394M41.289,5.9c.08-.193.294-.714.487-1.174a5.348,5.348,0,0,1,1.608,1.061Zm.374-1.221c-.18.434-.3.734-.487,1.174-.474-.534-.534-.594-1.394-1.561a5.354,5.354,0,0,1,1.881.387M38.1,5.858l-.487-1.174A5.354,5.354,0,0,1,39.494,4.3ZM37.506,4.73,37.993,5.9c-.527-.027-1.555-.087-2.088-.113a5.2,5.2,0,0,1,1.6-1.061M34.6,7.7l1.174.487c-.721.647-.807.727-1.561,1.394A5.354,5.354,0,0,1,34.6,7.7m1.174,3.563-1.174.487a5.354,5.354,0,0,1-.387-1.881c.654.58.807.714,1.561,1.394m5.4,2.329.487,1.174a5.354,5.354,0,0,1-1.881.387c1.248-1.4.987-1.114,1.394-1.561m.594,1.128-.487-1.174c.44.027,1.428.08,2.095.113a5.308,5.308,0,0,1-1.608,1.061" transform="translate(-11.345 -1.388)" fill="#09090a"/>
    <path id="Path_1900" data-name="Path 1900" d="M56.044,3.87A5.484,5.484,0,1,1,50.56,9.354,5.484,5.484,0,0,1,56.044,3.87" transform="translate(-16.826 -1.288)" fill="#fff"/>
    <path id="Path_1901" data-name="Path 1901" d="M61.562,9.328a5.553,5.553,0,1,0-1.628,3.923,5.558,5.558,0,0,0,1.628-3.923m-9.294,3.936c1.5-.08,1.875-.1,2.088-.113l-.487,1.168a5.512,5.512,0,0,1-1.6-1.054m-.193-.2a5.522,5.522,0,0,1-1.061-1.608c.654-.274.334-.14,1.174-.487-.053,1.007-.06,1.108-.113,2.1m9.334-3.736c-.607.54-1.014.914-1.628,1.461-.167-.307-.54-1-.794-1.461.394-.727.367-.674.794-1.461.974.874,1.007.9,1.628,1.461M57.973,7.166c-.634-.267-1.188-.494-1.821-.754l1.374-.747Zm.047.147c.707,1.708.527,1.268.834,2.008-.307.747-.127.307-.834,2.008-1.708.707-1.268.527-2.008.834-.747-.307-.307-.127-2.008-.834-.707-1.708-.527-1.268-.834-2.008.307-.747.127-.307.834-2.008,1.174-.487.927-.387,2.008-.834,1.081.454.834.347,2.008.834m-.047,4.177-.447,1.5-1.374-.747c.694-.287,1.174-.487,1.821-.754M53.1,9.188l-.747-1.374,1.5-.447c-.267.641-.467,1.128-.754,1.821m.754,2.1-1.5-.447L53.1,9.468c.28.687.48,1.168.754,1.821m.641-5.624,1.374.747c-1.074.447-.707.294-1.821.754.554-1.848.374-1.248.447-1.5m0,7.326c-.067-.24-.007-.013-.447-1.5l1.821.754-1.374.747m5.184-2.148-1.5.447c.267-.634.494-1.188.754-1.821.26.48.454.834.747,1.374m-.747-1.655c-.107-.254-.6-1.441-.754-1.821l1.5.447c-.447.821-.467.854-.747,1.374m.781-1.495-1.588-.474-.474-1.588,2.182-.12c-.06,1.074-.053.987-.12,2.182M53.029,9.328l-.794,1.461L50.607,9.328l1.628-1.461Zm.874,2.108c.367,1.228.107.367.474,1.595l-2.182.12.12-2.182Zm2.108.867,1.461.794-1.461,1.628L54.55,13.1Zm2.108-.867c.407-.12,1.188-.354,1.588-.474.067,1.174.06,1.134.12,2.182l-2.182-.12ZM59.834,7.68l.113-2.1a5.522,5.522,0,0,1,1.061,1.608ZM57.466,5.558,56,6.352c-2.362-1.281-1.027-.567-1.454-.794.494-.547.874-.974,1.454-1.628.714.787.307.334,1.461,1.628m-3.089.073L53.9,7.226,52.308,7.7l-.12-2.182c.774.033,1.361.067,2.188.113M52.188,7.68c-.834-.347-.52-.214-1.174-.487a5.476,5.476,0,0,1,1.061-1.608c.053.994.06,1.094.113,2.1M54.477,13.2c.614.687,1.148,1.281,1.4,1.561A5.323,5.323,0,0,1,54,14.372Zm5.358-2.222,1.174.487a5.476,5.476,0,0,1-1.061,1.608Zm1.214.374c-.434-.18-.734-.3-1.174-.487.534-.474.594-.534,1.561-1.394a5.21,5.21,0,0,1-.387,1.881M59.881,7.793c.44-.18.741-.307,1.174-.487a5.354,5.354,0,0,1,.387,1.881c-.474-.42-1.1-.981-1.561-1.394M57.659,5.5c.08-.193.294-.714.487-1.174a5.348,5.348,0,0,1,1.608,1.061Zm.374-1.221c-.18.434-.3.734-.487,1.174-.474-.534-.534-.594-1.394-1.561a5.507,5.507,0,0,1,1.881.387M54.477,5.458l-.487-1.174A5.354,5.354,0,0,1,55.871,3.9Zm-.6-1.128L54.363,5.5c-.527-.027-1.555-.087-2.088-.113a5.49,5.49,0,0,1,1.6-1.061M50.967,7.306l1.174.487c-.721.647-.807.727-1.561,1.394a5.474,5.474,0,0,1,.387-1.881m1.174,3.556-1.174.487a5.354,5.354,0,0,1-.387-1.881c.654.58.807.721,1.561,1.394m5.4,2.335.487,1.174a5.354,5.354,0,0,1-1.881.387c1.254-1.408.994-1.114,1.394-1.561m.6,1.121-.487-1.174c.44.027,1.428.08,2.1.113a5.348,5.348,0,0,1-1.608,1.061" transform="translate(-16.793 -1.255)" fill="#09090a"/>
    <path id="Path_1902" data-name="Path 1902" d="M72.684,4A5.484,5.484,0,1,1,67.2,9.484,5.484,5.484,0,0,1,72.684,4" transform="translate(-22.364 -1.331)" fill="#fff"/>
    <path id="Path_1903" data-name="Path 1903" d="M78.2,9.458a5.553,5.553,0,1,0-1.628,3.923A5.558,5.558,0,0,0,78.2,9.458m-9.294,3.936c1.5-.08,1.875-.1,2.088-.113l-.487,1.168a5.512,5.512,0,0,1-1.6-1.054m-.193-.2a5.522,5.522,0,0,1-1.061-1.608c.654-.274.334-.14,1.174-.487-.053,1.007-.06,1.108-.113,2.1m9.334-3.736c-.607.54-1.014.914-1.628,1.461-.167-.307-.54-1-.794-1.461.394-.727.367-.674.794-1.461.974.874,1.007.9,1.628,1.461M74.613,7.3c-.634-.267-1.188-.494-1.821-.754l1.374-.747Zm.047.147c.707,1.708.527,1.268.834,2.008-.307.747-.127.307-.834,2.008-1.708.707-1.268.527-2.008.834-.747-.307-.307-.127-2.008-.834-.707-1.708-.527-1.268-.834-2.008.307-.747.127-.307.834-2.008,1.174-.487.927-.387,2.008-.834,1.081.454.834.347,2.008.834m-.047,4.177-.447,1.5-1.374-.747c.694-.287,1.174-.487,1.821-.754m-4.877-2.3-.747-1.374,1.5-.447c-.267.641-.467,1.128-.754,1.821m.754,2.1-1.5-.447L69.735,9.6c.28.687.48,1.168.754,1.821m.647-5.624,1.374.747c-1.074.447-.707.294-1.821.754.547-1.855.367-1.248.447-1.5m0,7.326c-.067-.24-.007-.013-.447-1.5l1.821.754c-.841.454-.534.287-1.374.747m5.177-2.148-1.5.447c.267-.634.494-1.188.754-1.821.267.48.454.834.747,1.374m-.747-1.655c-.107-.254-.6-1.441-.754-1.821l1.5.447c-.447.821-.467.854-.747,1.374m.781-1.495-1.588-.474-.474-1.588,2.182-.12c-.06,1.074-.053.987-.12,2.182M69.675,9.458l-.794,1.454L67.253,9.451,68.881,7.99Zm.867,2.108c.367,1.228.107.367.474,1.595l-2.182.12.12-2.182Zm2.108.867,1.461.794-1.461,1.628L71.19,13.227Zm2.108-.867c.407-.12,1.188-.354,1.588-.474.067,1.174.06,1.134.12,2.182l-2.182-.12ZM76.474,7.81l.113-2.1a5.522,5.522,0,0,1,1.061,1.608ZM74.112,5.688l-1.461.794C70.289,5.2,71.624,5.915,71.2,5.688c.494-.547.874-.974,1.454-1.628l1.461,1.628m-3.1.073-.474,1.595-1.595.474-.12-2.182c.774.033,1.361.067,2.188.113M68.828,7.81c-.834-.347-.52-.214-1.174-.487a5.476,5.476,0,0,1,1.061-1.608c.053.994.06,1.094.113,2.1m2.288,5.511c.614.687,1.148,1.281,1.4,1.561a5.323,5.323,0,0,1-1.881-.387Zm5.358-2.215,1.174.487A5.476,5.476,0,0,1,76.588,13.2Zm1.214.374c-.434-.18-.734-.3-1.174-.487.534-.474.594-.534,1.561-1.394a5.21,5.21,0,0,1-.387,1.881M76.521,7.923c.44-.18.741-.307,1.174-.487a5.354,5.354,0,0,1,.387,1.881c-.474-.42-1.1-.981-1.561-1.394M74.3,5.635c.08-.193.294-.714.487-1.174a5.348,5.348,0,0,1,1.608,1.061Zm.374-1.221c-.18.434-.3.734-.487,1.174-.474-.534-.534-.594-1.394-1.561a5.507,5.507,0,0,1,1.881.387M71.117,5.588l-.487-1.174a5.354,5.354,0,0,1,1.882-.387Zm-.6-1.128L71,5.635c-.527-.027-1.555-.087-2.088-.113a5.49,5.49,0,0,1,1.6-1.061m-2.9,2.976,1.174.487c-.721.647-.807.727-1.561,1.394a5.181,5.181,0,0,1,.387-1.881m1.168,3.556-1.174.487A5.354,5.354,0,0,1,67.22,9.6c.654.58.807.721,1.561,1.394m5.4,2.329.487,1.174a5.354,5.354,0,0,1-1.881.387c1.254-1.4.994-1.108,1.394-1.561m.6,1.128L74.3,13.274c.44.027,1.428.08,2.1.113a5.348,5.348,0,0,1-1.608,1.061" transform="translate(-22.331 -1.298)" fill="#09090a"/>
    <path id="Path_1904" data-name="Path 1904" d="M89.364,4.22A5.484,5.484,0,1,1,83.88,9.7,5.484,5.484,0,0,1,89.364,4.22" transform="translate(-27.915 -1.404)" fill="#fff"/>
    <path id="Path_1905" data-name="Path 1905" d="M94.882,9.668a5.553,5.553,0,1,0-1.628,3.923,5.558,5.558,0,0,0,1.628-3.923M85.588,13.6c1.5-.08,1.875-.1,2.088-.113l-.487,1.168a5.512,5.512,0,0,1-1.6-1.054m-.193-.193A5.522,5.522,0,0,1,84.334,11.8c.654-.274.334-.14,1.174-.487-.053,1-.06,1.1-.113,2.1m9.334-3.743c-.607.54-1.014.914-1.628,1.461-.167-.307-.54-1-.794-1.461.394-.727.367-.674.794-1.461.974.874,1.007.907,1.628,1.461M91.293,7.506c-.634-.267-1.188-.494-1.821-.754L90.846,6Zm.047.153c.707,1.708.527,1.268.834,2.008-.307.747-.127.307-.834,2.008-1.708.707-1.268.527-2.008.834-.747-.307-.307-.127-2.008-.834-.707-1.708-.527-1.268-.834-2.008.307-.747.127-.307.834-2.008,1.174-.487.927-.387,2.008-.834,1.081.447.834.347,2.008.834m-.047,4.17-.447,1.5-1.374-.747c.694-.287,1.174-.487,1.821-.754m-4.877-2.3-.747-1.374,1.5-.447c-.267.641-.467,1.128-.754,1.821m.754,2.1-1.5-.447.747-1.374c.28.687.48,1.168.754,1.821M87.81,6l1.374.747c-1.074.447-.707.294-1.821.754.554-1.848.374-1.248.447-1.5m0,7.326c-.067-.24-.007-.013-.447-1.5l1.821.754c-.834.454-.527.294-1.374.747m5.184-2.148-1.5.447c.267-.634.494-1.188.754-1.821.26.48.454.834.747,1.374m-.747-1.655c-.107-.254-.6-1.441-.754-1.821l1.5.447c-.447.821-.467.861-.747,1.374m.781-1.495-1.588-.474-.474-1.588,2.182-.12c-.06,1.074-.053.987-.12,2.182M86.349,9.668l-.794,1.461L83.927,9.668l1.628-1.461Zm.874,2.108c.367,1.228.107.367.474,1.595l-2.182.12.12-2.182Zm2.108.874,1.461.794-1.461,1.628L87.87,13.444Zm2.108-.874c.407-.12,1.188-.354,1.588-.474.067,1.174.06,1.134.12,2.182l-2.182-.12ZM93.154,8.02l.113-2.1a5.522,5.522,0,0,1,1.061,1.608ZM90.786,5.9l-1.461.794C86.963,5.411,88.3,6.125,87.87,5.9c.494-.547.874-.974,1.454-1.628.714.787.307.334,1.461,1.628M87.7,5.971l-.474,1.595-1.595.474-.12-2.182c.774.033,1.361.067,2.188.113M85.508,8.02c-.834-.347-.52-.214-1.174-.487a5.476,5.476,0,0,1,1.061-1.608c.053.994.06,1.094.113,2.1M87.8,13.537c.614.687,1.148,1.281,1.4,1.561a5.323,5.323,0,0,1-1.882-.387Zm5.358-2.222,1.174.487a5.476,5.476,0,0,1-1.061,1.608Zm1.214.374c-.434-.18-.734-.3-1.174-.487.534-.474.594-.534,1.561-1.394a5.21,5.21,0,0,1-.387,1.881M93.2,8.133c.44-.18.741-.307,1.174-.487a5.354,5.354,0,0,1,.387,1.881c-.474-.42-1.1-.981-1.561-1.394M90.979,5.845c.08-.193.294-.714.487-1.174a5.348,5.348,0,0,1,1.608,1.061Zm.374-1.214c-.18.434-.3.734-.487,1.174-.474-.534-.534-.594-1.394-1.561a5.209,5.209,0,0,1,1.882.387M87.8,5.8l-.487-1.174a5.354,5.354,0,0,1,1.882-.387Zm-.6-1.121.487,1.174c-.527-.027-1.555-.087-2.088-.113a5.236,5.236,0,0,1,1.6-1.061M84.287,7.646l1.174.487c-.721.647-.807.727-1.561,1.394a5.507,5.507,0,0,1,.387-1.881M85.461,11.2l-1.174.487A5.354,5.354,0,0,1,83.9,9.808c.654.58.807.721,1.561,1.394m5.4,2.335.487,1.174a5.354,5.354,0,0,1-1.882.387c1.254-1.408.994-1.114,1.394-1.561m.6,1.121-.487-1.174c.44.027,1.428.08,2.1.113a5.348,5.348,0,0,1-1.608,1.061" transform="translate(-27.882 -1.368)" fill="#09090a"/>
    <path id="Path_1906" data-name="Path 1906" d="M65.028,3.092H1.671a1.421,1.421,0,1,1,0-2.842H65.028a1.421,1.421,0,1,1,0,2.842" transform="translate(-0.083 -0.083)" fill="#fff"/>
    <path id="Path_1907" data-name="Path 1907" d="M65.028,3.092H1.671a1.421,1.421,0,1,1,0-2.842H65.028a1.421,1.421,0,1,1,0,2.842Z" transform="translate(-0.083 -0.083)" fill="none" stroke="#000" stroke-miterlimit="10" stroke-width="0.5"/>
    <path id="Path_1908" data-name="Path 1908" d="M65.028,23.382H1.671a1.421,1.421,0,1,1,0-2.842H65.028a1.421,1.421,0,1,1,0,2.842" transform="translate(-0.083 -6.836)" fill="#fff"/>
    <path id="Path_1909" data-name="Path 1909" d="M65.028,23.382H1.671a1.421,1.421,0,1,1,0-2.842H65.028a1.421,1.421,0,1,1,0,2.842Z" transform="translate(-0.083 -6.836)" fill="none" stroke="#000" stroke-miterlimit="10" stroke-width="0.5"/>
  </g>
</svg>