<svg xmlns="http://www.w3.org/2000/svg" xmlns:xlink="http://www.w3.org/1999/xlink" width="67" height="21.363" viewBox="0 0 67 21.363">
  <defs>
    <clipPath id="clip-path">
      <rect id="Rectangle_356" data-name="Rectangle 356" width="67" height="21.363" fill="none"/>
    </clipPath>
  </defs>
  <g id="mixed" clip-path="url(#clip-path)">
    <path id="Path_1944" data-name="Path 1944" d="M5.85,9.172a4.62,4.62,0,1,1-4.62,4.62,4.62,4.62,0,0,1,4.62-4.62" transform="translate(-0.379 -2.829)" fill="#fff"/>
    <path id="Path_1945" data-name="Path 1945" d="M10.5,13.765A4.677,4.677,0,1,0,9.131,17.07,4.683,4.683,0,0,0,10.5,13.765m-7.822,3.32c1.266-.069,1.577-.083,1.764-.1l-.408.989a4.706,4.706,0,0,1-1.355-.892m-.166-.166a4.438,4.438,0,0,1-.892-1.355l.989-.408c-.048.844-.048.927-.1,1.764m7.863-3.154c-.512.456-.858.768-1.369,1.231-.138-.256-.456-.844-.664-1.231.332-.616.3-.567.664-1.231.816.74.844.768,1.369,1.231m-2.9-1.819c-.539-.221-1-.415-1.535-.636L7.1,10.68Zm.041.124c.595,1.438.443,1.065.7,1.694-.263.629-.1.256-.7,1.694-1.438.595-1.065.443-1.694.7-.629-.263-.256-.1-1.694-.7-.595-1.438-.443-1.065-.7-1.694.263-.629.1-.256.7-1.694.989-.408.781-.325,1.694-.7.913.373.705.29,1.694.7m-.041,3.52L7.1,16.856l-1.162-.629c.581-.242.989-.415,1.535-.636M3.37,13.647l-.629-1.162,1.266-.373c-.228.546-.394.954-.636,1.535m.636,1.77-1.266-.373.629-1.162c.242.581.408.989.636,1.535m.539-4.737,1.162.629c-.906.373-.595.249-1.535.636.463-1.556.311-1.051.373-1.266m0,6.176c-.055-.2-.007-.014-.373-1.266.941.387.595.249,1.535.636-.705.38-.45.242-1.162.629m4.364-1.812-1.266.373c.221-.539.415-1,.636-1.535.221.408.387.705.629,1.162m-.629-1.4c-.09-.214-.5-1.217-.636-1.535.318.1.941.277,1.266.373-.373.7-.387.726-.629,1.162m.657-1.259L7.6,11.994,7.2,10.652l1.84-.1c-.048.906-.048.837-.1,1.84M3.315,13.765,2.651,15,1.281,13.765l1.369-1.231Zm.74,1.777c.3,1.037.09.311.394,1.342l-1.84.1.1-1.84Zm1.77.733,1.231.664L5.825,18.308,4.594,16.939ZM7.6,15.542c.339-.1,1-.3,1.342-.394.055.989.055.954.1,1.84l-1.84-.1Zm1.438-3.161.1-1.764a4.568,4.568,0,0,1,.892,1.355ZM7.056,10.59c-.657.353-.588.318-1.231.664-1.992-1.079-.864-.477-1.231-.671.415-.463.733-.823,1.231-1.369.595.671.256.284,1.231,1.376m-2.607.062-.394,1.342-1.342.394-.1-1.84c.65.035,1.141.062,1.84.1m-1.84,1.729-.989-.408a4.522,4.522,0,0,1,.892-1.355c.048.837.048.92.1,1.764m1.923,4.64c.519.574.968,1.079,1.176,1.314a4.591,4.591,0,0,1-1.584-.325Zm4.509-1.867.989.408a4.522,4.522,0,0,1-.892,1.355Zm1.03.311c-.367-.152-.616-.256-.989-.408.45-.4.5-.45,1.314-1.176a4.591,4.591,0,0,1-.325,1.584m-.989-2.995c.373-.152.622-.256.989-.408a4.591,4.591,0,0,1,.325,1.584L9.082,12.471M7.215,10.549c.069-.166.249-.6.408-.989a4.522,4.522,0,0,1,1.355.892Zm.311-1.03c-.152.367-.256.616-.408.989-.4-.45-.45-.5-1.176-1.314a4.591,4.591,0,0,1,1.584.325m-2.995.989-.408-.989a4.591,4.591,0,0,1,1.584-.325Zm-.5-.947.408.989c-.443-.028-1.307-.069-1.764-.1A4.61,4.61,0,0,1,4.027,9.56m-2.448,2.5.989.408c-.609.546-.685.609-1.314,1.176a4.591,4.591,0,0,1,.325-1.584m.989,2.995-.989.408a4.591,4.591,0,0,1-.325-1.584c.546.491.678.609,1.314,1.176m4.551,1.964.408.989a4.591,4.591,0,0,1-1.584.325C7,17.16,6.779,17.4,7.118,17.022m.5.947-.408-.989c.367.021,1.2.069,1.764.1a4.522,4.522,0,0,1-1.355.892" transform="translate(-0.355 -2.802)" fill="#09090a"/>
    <path id="Path_1946" data-name="Path 1946" d="M19.16,8.852a4.62,4.62,0,1,1-4.62,4.62,4.62,4.62,0,0,1,4.62-4.62" transform="translate(-4.484 -2.73)" fill="#fff"/>
    <path id="Path_1947" data-name="Path 1947" d="M23.81,13.445a4.677,4.677,0,1,0-1.369,3.306,4.683,4.683,0,0,0,1.369-3.306m-7.829,3.313c1.266-.069,1.577-.083,1.764-.1l-.408.989a4.438,4.438,0,0,1-1.355-.892m-.166-.159a4.438,4.438,0,0,1-.892-1.355l.989-.408c-.041.844-.048.927-.1,1.764m7.863-3.154c-.512.456-.858.768-1.369,1.231-.138-.256-.456-.844-.664-1.231.332-.616.3-.567.664-1.231.816.74.844.761,1.369,1.231m-2.891-1.819c-.539-.221-1-.415-1.535-.636l1.162-.629Zm.041.124c.595,1.438.443,1.065.7,1.694-.263.629-.1.256-.7,1.694-1.438.595-1.065.443-1.694.7-.629-.263-.256-.1-1.694-.7-.595-1.438-.443-1.065-.7-1.694.263-.629.1-.256.7-1.694.989-.408.781-.325,1.694-.7.906.373.7.29,1.694.7m-.041,3.513-.373,1.266L19.253,15.9c.581-.235.989-.408,1.535-.636m-4.115-1.936-.629-1.162,1.266-.373c-.221.546-.394.954-.636,1.535m.636,1.77-1.266-.373.629-1.162c.242.581.408.989.636,1.535m.546-4.737,1.162.629c-.906.373-.595.249-1.535.636.456-1.563.311-1.051.373-1.266m0,6.169c-.055-.2-.007-.014-.373-1.266.941.387.595.249,1.535.636-.712.387-.45.249-1.162.629m4.364-1.805-1.266.373c.221-.539.415-1,.636-1.535.221.408.38.705.629,1.162m-.629-1.4c-.09-.214-.5-1.217-.636-1.535.318.1.941.277,1.266.373-.38.7-.394.726-.629,1.162m.657-1.259-1.342-.394-.394-1.342,1.84-.1c-.055.906-.048.837-.1,1.84m-5.623,1.376-.664,1.231-1.369-1.231,1.369-1.231Zm.733,1.777c.3,1.037.09.311.394,1.342l-1.84.1.1-1.84Zm1.777.733,1.231.664-1.231,1.369L17.9,16.619Zm1.77-.733c.339-.1,1-.3,1.342-.394.055.989.055.954.1,1.84l-1.84-.1Zm1.445-3.167.1-1.764a4.568,4.568,0,0,1,.892,1.355ZM20.359,10.27c-.657.353-.588.318-1.231.664-1.992-1.079-.864-.477-1.231-.671.415-.463.733-.823,1.231-1.369.6.664.256.284,1.231,1.376m-2.607.062-.394,1.342-1.342.394-.1-1.84c.65.035,1.148.062,1.84.1m-1.84,1.722-.989-.408a4.522,4.522,0,0,1,.892-1.355c.048.837.055.92.1,1.764M17.842,16.7c.519.574.968,1.079,1.176,1.314a4.591,4.591,0,0,1-1.584-.325Zm4.509-1.867.989.408a4.522,4.522,0,0,1-.892,1.355Zm1.024.311c-.367-.152-.616-.256-.989-.408.45-.4.5-.45,1.314-1.176a4.293,4.293,0,0,1-.325,1.584m-.982-2.995c.373-.152.622-.256.989-.408a4.591,4.591,0,0,1,.325,1.584c-.4-.353-.927-.823-1.314-1.176m-1.874-1.923c.069-.166.249-.6.408-.989a4.522,4.522,0,0,1,1.355.892Zm.318-1.03c-.152.367-.256.616-.408.989-.4-.45-.45-.5-1.176-1.314a4.591,4.591,0,0,1,1.584.325m-2.995.989L17.434,9.2a4.591,4.591,0,0,1,1.584-.325Zm-.5-.947.408.989c-.443-.028-1.307-.069-1.764-.1a4.438,4.438,0,0,1,1.355-.892m-2.448,2.5.989.408c-.609.546-.685.609-1.314,1.176a4.437,4.437,0,0,1,.325-1.584m.989,2.995-.989.408a4.591,4.591,0,0,1-.325-1.584c.546.491.678.609,1.314,1.176M20.428,16.7l.408.989a4.591,4.591,0,0,1-1.584.325c1.051-1.183.837-.934,1.176-1.314m.5.947-.408-.989c.367.021,1.2.069,1.764.1a4.611,4.611,0,0,1-1.355.892" transform="translate(-4.46 -2.703)" fill="#09090a"/>
    <path id="Path_1948" data-name="Path 1948" d="M32.57,8.852a4.62,4.62,0,1,1-4.62,4.62,4.62,4.62,0,0,1,4.62-4.62" transform="translate(-8.62 -2.73)" fill="#fff"/>
    <path id="Path_1949" data-name="Path 1949" d="M37.22,13.445a4.677,4.677,0,1,0-1.369,3.306,4.683,4.683,0,0,0,1.369-3.306m-7.829,3.313c1.266-.069,1.577-.083,1.764-.1l-.408.989a4.438,4.438,0,0,1-1.355-.892m-.166-.159a4.438,4.438,0,0,1-.892-1.355l.989-.408c-.041.844-.048.927-.1,1.764m7.863-3.154c-.512.456-.858.768-1.369,1.231-.138-.256-.456-.844-.664-1.231.332-.616.3-.567.664-1.231.816.74.844.761,1.369,1.231M34.2,11.626c-.539-.221-1-.415-1.535-.636l1.162-.629Zm.035.124c.595,1.438.443,1.065.7,1.694-.263.629-.1.256-.7,1.694-1.438.595-1.065.443-1.694.7-.629-.263-.256-.1-1.694-.7-.595-1.438-.443-1.065-.7-1.694.263-.629.1-.256.7-1.694.989-.408.781-.325,1.694-.7.913.373.705.29,1.694.7M34.2,15.263l-.373,1.266L32.663,15.9c.581-.235.989-.408,1.535-.636m-4.115-1.936-.629-1.162,1.266-.373c-.221.546-.394.954-.636,1.535m.636,1.77-1.266-.373.629-1.162c.242.581.408.989.636,1.535m.546-4.737,1.162.629c-.906.373-.595.249-1.535.636.456-1.563.311-1.051.373-1.266m0,6.169c-.055-.2-.007-.014-.373-1.266.941.387.595.249,1.535.636-.712.387-.456.249-1.162.629m4.364-1.805-1.266.373c.221-.539.415-1,.636-1.535.221.408.38.705.629,1.162M35,13.327c-.09-.214-.5-1.217-.636-1.535.318.1.941.277,1.266.373-.38.7-.394.726-.629,1.162m.657-1.259-1.342-.394-.394-1.342,1.84-.1c-.055.906-.048.837-.1,1.84m-5.623,1.376-.664,1.231L28,13.445l1.369-1.231Zm.733,1.777c.3,1.037.09.311.394,1.342l-1.84.1.1-1.84Zm1.777.733,1.231.664-1.231,1.369-1.231-1.369Zm1.77-.733c.339-.1,1-.3,1.342-.394.055.989.055.954.1,1.84l-1.84-.1Zm1.445-3.167.1-1.764a4.568,4.568,0,0,1,.892,1.355ZM33.769,10.27c-.657.353-.588.318-1.231.664-1.992-1.079-.864-.477-1.231-.671.415-.463.733-.823,1.231-1.369.595.664.256.284,1.231,1.376m-2.607.062-.394,1.342-1.342.394-.1-1.84c.65.035,1.148.062,1.84.1m-1.84,1.722-.989-.408a4.522,4.522,0,0,1,.892-1.355c.048.837.055.92.1,1.764M31.252,16.7c.519.574.968,1.079,1.176,1.314a4.591,4.591,0,0,1-1.584-.325Zm4.509-1.867.989.408a4.522,4.522,0,0,1-.892,1.355Zm1.024.311c-.367-.152-.616-.256-.989-.408.45-.4.5-.45,1.314-1.176a4.293,4.293,0,0,1-.325,1.584M35.8,12.151c.373-.152.622-.256.989-.408a4.591,4.591,0,0,1,.325,1.584c-.4-.353-.927-.823-1.314-1.176m-1.874-1.923c.069-.166.249-.6.408-.989a4.522,4.522,0,0,1,1.355.892Zm.318-1.03c-.152.367-.256.616-.408.989-.4-.45-.45-.5-1.176-1.314a4.591,4.591,0,0,1,1.584.325m-2.995.989L30.844,9.2a4.591,4.591,0,0,1,1.584-.325Zm-.5-.947.408.989c-.443-.028-1.307-.069-1.764-.1a4.438,4.438,0,0,1,1.355-.892m-2.448,2.5.989.408c-.609.546-.685.609-1.314,1.176a4.437,4.437,0,0,1,.325-1.584m.989,2.995-.989.408a4.591,4.591,0,0,1-.325-1.584c.546.491.678.609,1.314,1.176M33.838,16.7l.408.989a4.591,4.591,0,0,1-1.584.325c1.051-1.183.837-.934,1.176-1.314m.5.947-.408-.989c.367.021,1.2.069,1.764.1a4.611,4.611,0,0,1-1.355.892" transform="translate(-8.596 -2.703)" fill="#09090a"/>
    <path id="Path_1950" data-name="Path 1950" d="M45.87,8.522a4.62,4.62,0,1,1-4.62,4.62,4.62,4.62,0,0,1,4.62-4.62" transform="translate(-12.722 -2.629)" fill="#fff"/>
    <path id="Path_1951" data-name="Path 1951" d="M50.52,13.125a4.677,4.677,0,1,0-1.369,3.306,4.683,4.683,0,0,0,1.369-3.306M42.7,16.437c1.266-.069,1.577-.083,1.764-.1l-.408.989a4.438,4.438,0,0,1-1.355-.892m-.166-.166a4.438,4.438,0,0,1-.892-1.355l.989-.408c-.048.851-.055.934-.1,1.764M50.4,13.125c-.512.456-.858.768-1.369,1.231-.138-.256-.456-.844-.664-1.231.332-.616.3-.567.664-1.231.816.733.844.761,1.369,1.231M47.5,11.3c-.539-.221-1-.415-1.535-.636l1.162-.629Zm.041.131c.595,1.438.443,1.065.7,1.694-.263.629-.1.256-.7,1.694-1.438.595-1.065.443-1.694.7-.629-.263-.256-.1-1.694-.7-.595-1.438-.443-1.065-.7-1.694.263-.629.1-.256.7-1.694.989-.408.781-.325,1.694-.7.913.373.705.29,1.694.7M47.5,14.943l-.373,1.266-1.162-.629c.581-.242.989-.408,1.535-.636M43.39,13.007l-.629-1.162,1.266-.373c-.228.539-.394.947-.636,1.535m.636,1.77L42.761,14.4l.629-1.162c.235.581.408.982.636,1.535m.539-4.744,1.162.629c-.906.373-.595.249-1.535.636.463-1.556.311-1.044.373-1.266m0,6.176c-.055-.2-.007-.014-.373-1.266.941.387.595.249,1.535.636-.705.38-.45.242-1.162.629M48.929,14.4l-1.266.373c.221-.539.415-1,.636-1.535.221.408.387.705.629,1.162m-.629-1.4c-.09-.214-.5-1.217-.636-1.535.318.1.941.277,1.266.373-.373.7-.394.726-.629,1.162m.657-1.259-1.342-.394-.394-1.342,1.84-.1c-.048.906-.048.83-.1,1.84m-5.623,1.376-.664,1.231L41.3,13.125l1.369-1.231Zm.733,1.77c.3,1.037.09.311.394,1.342l-1.84.1.1-1.84Zm1.777.74,1.231.664-1.231,1.369L44.614,16.3Zm1.777-.74c.339-.1,1-.3,1.342-.394.055.989.055.954.1,1.84l-1.84-.1Zm1.438-3.161.1-1.764a4.568,4.568,0,0,1,.892,1.355ZM47.076,9.95c-.657.353-.588.318-1.231.664-1.992-1.079-.864-.477-1.231-.671.415-.463.733-.823,1.231-1.369.595.664.249.284,1.231,1.376m-2.607.055-.394,1.342-1.342.394-.1-1.84c.65.041,1.141.069,1.84.1m-1.84,1.729-.989-.408a4.522,4.522,0,0,1,.892-1.355c.041.837.048.92.1,1.764m1.923,4.647c.519.574.968,1.079,1.176,1.314a4.591,4.591,0,0,1-1.584-.325Zm4.509-1.867.989.408a4.522,4.522,0,0,1-.892,1.355Zm1.03.311c-.367-.152-.616-.256-.989-.408.45-.4.5-.45,1.314-1.176a4.591,4.591,0,0,1-.325,1.584M49.1,11.831c.373-.152.622-.256.989-.408a4.591,4.591,0,0,1,.325,1.584L49.1,11.831M47.235,9.909c.069-.166.249-.6.408-.989A4.522,4.522,0,0,1,49,9.812Zm.311-1.03c-.152.367-.256.616-.408.989-.4-.45-.45-.5-1.176-1.314a4.591,4.591,0,0,1,1.584.325m-2.995.989-.408-.989a4.591,4.591,0,0,1,1.584-.325Zm-.5-.947.408.989c-.443-.028-1.307-.069-1.764-.1a4.611,4.611,0,0,1,1.355-.892m-2.448,2.5.989.408c-.609.546-.685.609-1.314,1.176a4.591,4.591,0,0,1,.325-1.584m.989,2.995-.989.408a4.591,4.591,0,0,1-.325-1.584c.546.491.678.6,1.314,1.176m4.551,1.964.408.989a4.591,4.591,0,0,1-1.584.325c1.058-1.183.837-.941,1.176-1.314m.5.947-.408-.989c.367.021,1.2.069,1.764.1a4.522,4.522,0,0,1-1.355.892" transform="translate(-12.698 -2.605)" fill="#09090a"/>
    <path id="Path_1952" data-name="Path 1952" d="M59.39,8.632a4.62,4.62,0,1,1-4.62,4.62,4.62,4.62,0,0,1,4.62-4.62" transform="translate(-16.892 -2.663)" fill="#fff"/>
    <path id="Path_1953" data-name="Path 1953" d="M64.04,13.225a4.677,4.677,0,1,0-1.369,3.306,4.683,4.683,0,0,0,1.369-3.306m-7.822,3.32c1.266-.069,1.577-.083,1.764-.1l-.408.989a4.706,4.706,0,0,1-1.355-.892m-.166-.166a4.438,4.438,0,0,1-.892-1.355l.989-.408c-.048.844-.048.927-.1,1.764m7.863-3.154c-.512.456-.858.768-1.369,1.231-.138-.256-.456-.844-.664-1.231.332-.616.3-.567.664-1.231.816.74.844.768,1.369,1.231m-2.9-1.819c-.539-.221-1-.415-1.535-.636l1.162-.629Zm.041.124c.595,1.438.443,1.065.7,1.694-.263.629-.1.256-.7,1.694-1.438.595-1.065.443-1.694.7-.629-.263-.256-.1-1.694-.7-.595-1.438-.443-1.065-.7-1.694.263-.629.1-.256.7-1.694.989-.408.781-.325,1.694-.7.913.373.705.29,1.694.7m-.041,3.52-.373,1.266-1.162-.629c.581-.242.989-.415,1.535-.636M56.91,13.107l-.629-1.162,1.266-.373c-.228.546-.394.954-.636,1.535m.636,1.77L56.281,14.5l.629-1.162c.242.581.408.989.636,1.535m.539-4.737,1.162.629c-.906.373-.595.249-1.535.636.463-1.556.311-1.051.373-1.266m0,6.176c-.055-.2-.007-.014-.373-1.266.941.387.595.249,1.535.636-.705.38-.45.242-1.162.629M62.45,14.5l-1.266.373c.221-.539.415-1,.636-1.535.221.408.387.705.629,1.162m-.629-1.4c-.09-.214-.5-1.217-.636-1.535.318.1.941.277,1.266.373-.373.7-.387.726-.629,1.162m.657-1.259-1.342-.394-.394-1.342,1.84-.1c-.048.906-.048.837-.1,1.84m-5.623,1.376-.664,1.231-1.369-1.231,1.369-1.231ZM57.595,15c.3,1.037.09.311.394,1.342l-1.84.1.1-1.84Zm1.77.733L60.6,16.4l-1.231,1.369L58.134,16.4ZM61.142,15c.339-.1,1-.3,1.342-.394.055.989.055.954.1,1.84l-1.84-.1Zm1.438-3.161.1-1.764a4.568,4.568,0,0,1,.892,1.355ZM60.6,10.05c-.657.353-.588.318-1.231.664-1.992-1.079-.864-.477-1.231-.671.415-.463.733-.823,1.231-1.369.595.671.256.29,1.231,1.376m-2.607.062-.394,1.342-1.342.394-.1-1.84c.65.041,1.141.062,1.84.1m-1.84,1.729-.989-.408a4.522,4.522,0,0,1,.892-1.355c.048.837.048.92.1,1.764m1.923,4.64c.519.574.968,1.079,1.176,1.314a4.591,4.591,0,0,1-1.584-.325Zm4.509-1.867.989.408a4.522,4.522,0,0,1-.892,1.355Zm1.03.318c-.367-.152-.616-.256-.989-.408.45-.4.5-.45,1.314-1.176a4.658,4.658,0,0,1-.325,1.584m-.989-3c.373-.152.622-.256.989-.408a4.591,4.591,0,0,1,.325,1.584l-1.314-1.176m-1.867-1.923c.069-.166.249-.6.408-.989a4.522,4.522,0,0,1,1.355.892Zm.311-1.024c-.152.367-.256.616-.408.989-.4-.45-.45-.5-1.176-1.314a4.293,4.293,0,0,1,1.584.325m-2.995.982-.408-.989a4.591,4.591,0,0,1,1.584-.325Zm-.5-.947.408.989c-.443-.028-1.307-.069-1.764-.1a4.751,4.751,0,0,1,1.355-.892m-2.448,2.5.989.408c-.609.546-.685.609-1.314,1.176a4.591,4.591,0,0,1,.325-1.584m.989,2.995-.989.408a4.591,4.591,0,0,1-.325-1.584c.546.491.678.609,1.314,1.176m4.551,1.964.408.989a4.591,4.591,0,0,1-1.584.325c1.058-1.176.837-.934,1.176-1.314m.5.947-.408-.989c.367.021,1.2.069,1.764.1a4.522,4.522,0,0,1-1.355.892" transform="translate(-16.868 -2.635)" fill="#09090a"/>
    <path id="Path_1954" data-name="Path 1954" d="M72.94,8.8a4.62,4.62,0,1,1-4.62,4.62A4.62,4.62,0,0,1,72.94,8.8" transform="translate(-21.071 -2.715)" fill="#fff"/>
    <path id="Path_1955" data-name="Path 1955" d="M77.59,13.4a4.677,4.677,0,1,0-1.369,3.306A4.683,4.683,0,0,0,77.59,13.4m-7.822,3.313c1.266-.069,1.577-.083,1.764-.1l-.408.989a4.568,4.568,0,0,1-1.355-.892m-.166-.166A4.438,4.438,0,0,1,68.71,15.2l.989-.408c-.048.844-.048.927-.1,1.764M77.466,13.4c-.512.456-.858.768-1.369,1.231-.138-.256-.456-.844-.664-1.231.332-.616.3-.567.664-1.231.816.733.844.761,1.369,1.231m-2.9-1.826c-.539-.221-1-.415-1.535-.636l1.162-.629Zm.041.131c.595,1.438.443,1.065.7,1.694-.263.629-.1.256-.7,1.694-1.438.595-1.065.443-1.694.7-.629-.263-.256-.1-1.694-.7-.595-1.438-.443-1.065-.7-1.694.263-.629.1-.256.7-1.694.989-.408.781-.325,1.694-.7.913.373.705.284,1.694.7m-.041,3.513-.373,1.266-1.162-.629c.588-.242,1-.408,1.535-.636M70.46,13.28l-.629-1.162,1.266-.373c-.228.546-.394.954-.636,1.535m.636,1.777-1.266-.373.629-1.162c.242.574.408.982.636,1.535m.546-4.744,1.162.629c-.906.373-.595.249-1.535.636.456-1.556.3-1.051.373-1.266m0,6.176c-.055-.2-.007-.014-.373-1.266.941.387.595.249,1.535.636-.712.38-.456.242-1.162.629m4.364-1.812-1.266.373c.221-.539.415-1,.636-1.535.221.408.38.712.629,1.162m-.629-1.4c-.09-.214-.5-1.217-.636-1.535.318.1.941.277,1.266.373-.38.7-.394.733-.629,1.162m.657-1.259-1.342-.394L74.3,10.286l1.84-.1c-.055.913-.048.837-.1,1.84M70.412,13.4l-.664,1.231L68.378,13.4l1.369-1.231Zm.733,1.77c.3,1.037.09.311.394,1.342l-1.84.1.1-1.84Zm1.77.733,1.231.664-1.231,1.369-1.231-1.369Zm1.777-.733c.339-.1,1-.3,1.342-.394.055.989.055.954.1,1.84l-1.84-.1Zm1.445-3.161.1-1.764a4.568,4.568,0,0,1,.892,1.355Zm-1.992-1.791c-.657.353-.588.318-1.231.664-1.992-1.079-.864-.477-1.231-.671.415-.463.733-.823,1.231-1.369.595.671.256.29,1.231,1.376m-2.607.062-.394,1.342-1.342.394-.1-1.84c.65.041,1.141.069,1.84.1M69.7,12.014l-.989-.408a4.523,4.523,0,0,1,.892-1.355c.048.837.048.92.1,1.764m1.923,4.647c.519.574.968,1.079,1.176,1.314a4.591,4.591,0,0,1-1.584-.325Zm4.516-1.874.989.408a4.523,4.523,0,0,1-.892,1.355Zm1.024.318c-.367-.152-.616-.256-.989-.408.45-.4.5-.45,1.314-1.176a4.437,4.437,0,0,1-.325,1.584m-.989-2.995c.373-.152.622-.256.989-.408a4.591,4.591,0,0,1,.325,1.584c-.394-.36-.92-.83-1.314-1.176m-1.867-1.93c.069-.166.249-.6.408-.989a4.522,4.522,0,0,1,1.355.892Zm.318-1.024c-.152.367-.256.616-.408.989-.4-.45-.45-.5-1.176-1.314a4.468,4.468,0,0,1,1.584.325m-3,.989-.408-.989A4.591,4.591,0,0,1,72.8,8.833Zm-.5-.954.408.989c-.443-.028-1.307-.069-1.764-.1a4.751,4.751,0,0,1,1.355-.892m-2.441,2.5.989.408c-.609.546-.685.609-1.314,1.176a4.293,4.293,0,0,1,.325-1.584m.982,3-.989.408a4.592,4.592,0,0,1-.325-1.584c.553.484.678.6,1.314,1.176m4.551,1.964.408.989a4.591,4.591,0,0,1-1.584.325c1.058-1.183.844-.941,1.176-1.314m.5.947-.408-.989c.367.021,1.2.069,1.764.1a4.568,4.568,0,0,1-1.355.892" transform="translate(-21.047 -2.691)" fill="#09090a"/>
    <path id="Path_1956" data-name="Path 1956" d="M86.47,8.972a4.62,4.62,0,1,1-4.62,4.62,4.62,4.62,0,0,1,4.62-4.62" transform="translate(-25.244 -2.767)" fill="#fff"/>
    <path id="Path_1957" data-name="Path 1957" d="M91.12,13.575a4.677,4.677,0,1,0-1.369,3.306,4.683,4.683,0,0,0,1.369-3.306m-7.829,3.313c1.266-.069,1.577-.083,1.764-.1l-.408.989a4.438,4.438,0,0,1-1.355-.892m-.166-.166a4.438,4.438,0,0,1-.892-1.355l.989-.408c-.041.844-.048.934-.1,1.764m7.863-3.147c-.512.456-.858.768-1.369,1.231-.138-.256-.456-.844-.664-1.231.332-.616.3-.567.664-1.231.816.733.844.761,1.369,1.231M88.1,11.749c-.539-.221-1-.415-1.535-.636l1.162-.629Zm.035.131c.595,1.438.443,1.065.7,1.694-.263.629-.1.256-.7,1.694-1.438.595-1.065.443-1.694.7-.629-.263-.256-.1-1.694-.7-.595-1.438-.443-1.065-.7-1.694.263-.629.1-.256.7-1.694.989-.408.781-.325,1.694-.7.913.373.705.29,1.694.7M88.1,15.393l-.373,1.266-1.162-.629c.581-.242.989-.408,1.535-.636M83.983,13.45l-.629-1.162,1.266-.373c-.221.546-.394.954-.636,1.535m.636,1.777-1.266-.373.629-1.162c.242.581.408.982.636,1.535m.546-4.744,1.162.629c-.906.373-.595.249-1.535.636.456-1.556.311-1.044.373-1.266m0,6.176c-.055-.2-.007-.014-.373-1.266.941.387.595.249,1.535.636-.712.38-.456.242-1.162.629m4.364-1.805-1.266.373c.221-.539.415-1,.636-1.535.221.408.38.705.629,1.162m-.629-1.4c-.09-.214-.5-1.217-.636-1.535.318.1.941.277,1.266.373-.38.705-.394.733-.629,1.162m.657-1.252L88.215,11.8l-.394-1.342,1.84-.1c-.055.906-.048.83-.1,1.84m-5.623,1.376-.664,1.231L81.9,13.575l1.369-1.231Zm.733,1.77c.3,1.037.09.311.394,1.342l-1.84.1.1-1.84Zm1.777.74,1.231.664-1.231,1.369-1.231-1.369Zm1.77-.74c.339-.1,1-.3,1.342-.394.055.989.055.954.1,1.84l-1.84-.1Zm1.445-3.161.1-1.764a4.568,4.568,0,0,1,.892,1.355Zm-1.992-1.791c-.657.353-.588.318-1.231.664-1.992-1.079-.864-.477-1.231-.671.415-.463.733-.823,1.231-1.369.595.671.256.29,1.231,1.376m-2.607.062L84.668,11.8l-1.342.394-.1-1.84c.65.041,1.148.069,1.84.1m-1.84,1.729-.989-.408a4.522,4.522,0,0,1,.892-1.355c.048.837.055.92.1,1.764m1.923,4.647c.519.574.968,1.079,1.176,1.314a4.591,4.591,0,0,1-1.584-.325Zm4.516-1.874.989.408a4.522,4.522,0,0,1-.892,1.355Zm1.024.318c-.367-.152-.616-.256-.989-.408.45-.4.5-.45,1.314-1.176a4.293,4.293,0,0,1-.325,1.584M89.7,12.281c.373-.152.622-.256.989-.408a4.591,4.591,0,0,1,.325,1.584c-.4-.36-.927-.823-1.314-1.176m-1.874-1.93c.069-.166.249-.6.408-.989a4.522,4.522,0,0,1,1.355.892Zm.318-1.024c-.152.367-.256.616-.408.989-.4-.45-.45-.5-1.176-1.314a4.591,4.591,0,0,1,1.584.325m-3,.989-.408-.989A4.591,4.591,0,0,1,86.321,9Zm-.5-.947.408.989c-.443-.028-1.307-.069-1.764-.1a4.438,4.438,0,0,1,1.355-.892m-2.448,2.5.989.408c-.609.546-.685.609-1.314,1.176a4.437,4.437,0,0,1,.325-1.584m.989,2.995-.989.408a4.592,4.592,0,0,1-.325-1.584c.546.491.678.6,1.314,1.176m4.551,1.964.408.989a4.591,4.591,0,0,1-1.584.325c1.051-1.183.837-.941,1.176-1.314m.5.947-.408-.989c.367.021,1.2.069,1.764.1a4.61,4.61,0,0,1-1.355.892" transform="translate(-25.22 -2.743)" fill="#09090a"/>
    <path id="Path_1958" data-name="Path 1958" d="M3.986.5A2.676,2.676,0,1,1,1.31,3.178,2.677,2.677,0,0,1,3.986.5" transform="translate(-0.404 -0.155)" fill="#fff"/>
    <path id="Path_1959" data-name="Path 1959" d="M6.682,3.172a2.711,2.711,0,1,0-.8,1.916,2.714,2.714,0,0,0,.8-1.916M2.145,5.088c.733-.041.913-.048,1.017-.055l-.235.574a2.57,2.57,0,0,1-.781-.519m-.1-.1A2.57,2.57,0,0,1,1.53,4.21c.318-.131.166-.069.574-.235-.021.491-.028.539-.055,1.017M6.606,3.172c-.3.263-.5.443-.8.712-.083-.152-.263-.491-.387-.712.194-.353.18-.325.387-.712.477.422.491.436.8.712M4.932,2.114c-.311-.131-.581-.242-.892-.367l.671-.367Zm.021.076c.346.83.256.616.408.982-.152.367-.062.152-.408.982l-.982.408-.982-.408c-.346-.83-.256-.616-.408-.982.152-.367.062-.152.408-.982.574-.235.45-.187.982-.408.526.214.408.166.982.408M4.932,4.224l-.214.733L4.047,4.59l.885-.367M2.546,3.1l-.36-.678.733-.214c-.131.318-.235.553-.373.892M2.92,4.127l-.733-.214.367-.671c.131.332.228.567.367.885m.311-2.746.671.367c-.526.214-.346.145-.892.367.27-.906.187-.609.221-.733m0,3.575c-.035-.118,0-.007-.214-.733.546.228.346.145.892.367-.415.221-.263.145-.678.367M5.762,3.912l-.733.214c.131-.311.242-.581.367-.892.124.242.221.415.367.678M5.4,3.1c-.048-.124-.29-.705-.367-.892l.733.214c-.221.408-.228.422-.367.678m.38-.733L5,2.142l-.228-.775,1.065-.055c-.035.519-.028.477-.062,1.058m-3.257.8-.387.712-.8-.712.8-.712ZM2.941,4.2c.18.6.055.18.228.775L2.1,5.026l.055-1.065Zm1.03.429.712.387-.712.8-.712-.8ZM5,4.2c.2-.055.581-.173.775-.228.035.574.028.553.055,1.065L4.766,4.977Zm.837-1.833L5.894,1.34a2.57,2.57,0,0,1,.519.781ZM4.683,1.326c-.38.207-.339.187-.712.387-1.155-.629-.5-.277-.712-.387.242-.27.429-.477.712-.8.346.387.145.166.712.8m-1.508.041-.228.775-.775.228L2.118,1.305c.367.021.65.035,1.058.062m-1.065,1c-.408-.166-.256-.1-.574-.235a2.57,2.57,0,0,1,.519-.781c.021.484.028.533.055,1.017m1.113,2.69c.3.332.56.622.685.761a2.6,2.6,0,0,1-.92-.187ZM5.838,3.975l.574.235a2.57,2.57,0,0,1-.519.781Zm.595.18c-.214-.09-.36-.145-.574-.235.263-.235.29-.263.761-.685a2.6,2.6,0,0,1-.187.92M5.859,2.419c.214-.09.36-.152.574-.235a2.6,2.6,0,0,1,.187.92c-.228-.207-.533-.477-.761-.685M4.773,1.305c.041-.1.145-.346.235-.574a2.57,2.57,0,0,1,.781.519ZM4.96.71c-.09.214-.145.36-.235.574C4.49,1.022,4.462.994,4.04.524A2.63,2.63,0,0,1,4.96.71m-1.736.574L2.989.71a2.6,2.6,0,0,1,.92-.187Zm-.3-.553.235.574L2.138,1.25A2.688,2.688,0,0,1,2.927.731M1.509,2.184l.574.235c-.353.318-.394.353-.761.685a2.6,2.6,0,0,1,.187-.92m.574,1.736-.574.235a2.6,2.6,0,0,1-.187-.92c.318.284.394.353.761.685M4.718,5.054l.235.574a2.6,2.6,0,0,1-.92.187c.616-.678.491-.539.685-.761m.3.553L4.78,5.033c.214.014.7.041,1.024.055a2.688,2.688,0,0,1-.788.519" transform="translate(-0.389 -0.142)" fill="#09090a"/>
    <path id="Path_1960" data-name="Path 1960" d="M11.7.322A2.676,2.676,0,1,1,9.02,3,2.677,2.677,0,0,1,11.7.322" transform="translate(-2.782 -0.1)" fill="#fff"/>
    <path id="Path_1961" data-name="Path 1961" d="M14.392,2.982A2.711,2.711,0,1,0,13.6,4.9a2.714,2.714,0,0,0,.8-1.916M9.855,4.905c.733-.041.913-.048,1.017-.055l-.235.574a2.851,2.851,0,0,1-.781-.519m-.1-.1a2.57,2.57,0,0,1-.519-.781c.318-.131.166-.069.574-.235-.028.484-.028.533-.055,1.017m4.557-1.826c-.3.263-.5.443-.8.712-.083-.152-.263-.491-.387-.712.194-.353.18-.325.387-.712.477.422.491.443.8.712M12.635,1.924c-.311-.131-.581-.242-.892-.367l.671-.367ZM12.663,2c.346.83.256.616.408.982-.152.367-.062.152-.408.982l-.982.408L10.7,3.965c-.346-.83-.256-.616-.408-.982.152-.367.062-.152.408-.982.574-.235.45-.187.982-.408.526.221.408.173.982.408m-.028,2.033-.214.733L11.75,4.4c.339-.131.574-.235.885-.367m-2.379-1.12L9.89,2.242l.733-.214c-.124.311-.228.546-.367.885m.367,1.024L9.89,3.722l.367-.671c.138.332.235.567.367.885m.318-2.746.671.367c-.526.214-.346.145-.892.367.27-.9.187-.609.221-.733m0,3.575c-.035-.118,0-.007-.214-.733.546.228.346.145.892.367-.415.228-.27.145-.678.367m2.531-1.044-.733.214c.131-.311.242-.581.367-.892.124.242.221.415.367.678m-.367-.809c-.048-.124-.29-.705-.367-.892l.733.214c-.221.408-.228.429-.367.678m.38-.733-.775-.228-.228-.775,1.065-.055c-.035.519-.035.477-.062,1.058m-3.257.8-.387.712-.8-.712.8-.712Zm.422,1.03c.18.6.055.18.228.775l-1.065.055.055-1.065Zm1.03.422.712.387-.712.8-.712-.8Zm1.03-.422c.2-.055.581-.173.775-.228.035.574.028.553.055,1.065l-1.065-.055Zm.837-1.833L13.6,1.157a2.57,2.57,0,0,1,.519.781ZM12.393,1.143c-.38.207-.339.187-.712.387-1.155-.629-.5-.277-.712-.387.242-.27.429-.477.712-.8.346.38.145.159.712.8m-1.508.035-.228.775-.775.228L9.828,1.115c.367.021.65.041,1.058.062m-1.072,1c-.408-.166-.256-.1-.574-.235a2.57,2.57,0,0,1,.519-.781c.028.477.028.526.055,1.017m1.12,2.69c.3.332.56.622.685.761a2.6,2.6,0,0,1-.92-.187Zm2.614-1.086.574.235A2.57,2.57,0,0,1,13.6,4.8Zm.595.187c-.214-.09-.36-.145-.574-.235.263-.235.29-.263.761-.685a2.63,2.63,0,0,1-.187.92m-.574-1.736c.214-.09.36-.152.574-.235a2.6,2.6,0,0,1,.187.92c-.228-.214-.533-.484-.761-.685m-1.086-1.12c.041-.1.145-.346.235-.574a2.57,2.57,0,0,1,.781.519ZM12.67.52c-.09.214-.145.36-.235.574C12.2.832,12.172.8,11.75.334a2.63,2.63,0,0,1,.92.187m-1.736.574L10.7.52a2.6,2.6,0,0,1,.92-.187Zm-.3-.546.235.574L9.848,1.067a2.558,2.558,0,0,1,.788-.519M9.219,1.994l.574.235c-.353.318-.394.353-.761.685a2.63,2.63,0,0,1,.187-.92m.574,1.736-.574.235a2.6,2.6,0,0,1-.187-.92c.318.29.394.353.761.685M12.428,4.87l.235.574a2.6,2.6,0,0,1-.92.187l.685-.761m.3.546-.235-.574c.214.014.7.041,1.024.055a2.688,2.688,0,0,1-.788.519" transform="translate(-2.767 -0.084)" fill="#09090a"/>
    <path id="Path_1962" data-name="Path 1962" d="M19.466.322A2.676,2.676,0,1,1,16.79,3,2.677,2.677,0,0,1,19.466.322" transform="translate(-5.178 -0.1)" fill="#fff"/>
    <path id="Path_1963" data-name="Path 1963" d="M22.162,2.982a2.711,2.711,0,1,0-.8,1.916,2.714,2.714,0,0,0,.8-1.916M17.625,4.905c.733-.041.913-.048,1.017-.055l-.235.574a2.851,2.851,0,0,1-.781-.519m-.1-.1a2.57,2.57,0,0,1-.519-.781c.318-.131.166-.069.574-.235-.028.484-.028.533-.055,1.017m4.557-1.826c-.3.263-.5.443-.8.712-.083-.152-.263-.491-.387-.712.194-.353.18-.325.387-.712.477.422.491.443.8.712M20.405,1.924c-.311-.131-.581-.242-.892-.367l.671-.367ZM20.433,2c.346.83.256.616.408.982-.152.367-.062.152-.408.982l-.982.408-.982-.408c-.346-.83-.256-.616-.408-.982.152-.367.062-.152.408-.982.574-.235.45-.187.982-.408.526.221.408.173.982.408m-.028,2.033-.214.733L19.52,4.4c.339-.131.574-.235.885-.367m-2.379-1.12-.367-.671.733-.214c-.131.311-.228.546-.367.885m.367,1.024-.733-.214.367-.671c.138.332.235.567.367.885m.318-2.746.671.367c-.526.214-.346.145-.892.367.27-.9.187-.609.221-.733m0,3.575c-.035-.118,0-.007-.214-.733.546.228.346.145.892.367-.415.228-.27.145-.678.367m2.524-1.044-.733.214c.131-.311.242-.581.367-.892.131.242.228.415.367.678m-.36-.809c-.048-.124-.29-.705-.367-.892l.733.214c-.221.408-.228.429-.367.678m.38-.733-.775-.228-.228-.775,1.065-.055c-.035.519-.035.477-.062,1.058M18,2.982l-.387.712-.8-.712.8-.712Zm.422,1.03c.18.6.055.18.228.775l-1.065.055.055-1.065Zm1.03.422.712.387-.712.8-.712-.8Zm1.03-.422c.2-.055.581-.173.775-.228.035.574.028.553.055,1.065l-1.065-.055Zm.83-1.833.055-1.024a2.57,2.57,0,0,1,.519.781ZM20.163,1.143c-.38.207-.339.187-.712.387-1.155-.629-.5-.277-.712-.387.242-.27.429-.477.712-.8.346.38.145.159.712.8m-1.515.035-.228.775-.775.228-.055-1.065c.373.021.657.041,1.058.062m-1.065,1c-.408-.166-.256-.1-.574-.235a2.57,2.57,0,0,1,.519-.781c.028.477.028.526.055,1.017M18.7,4.87c.3.332.56.622.685.761a2.6,2.6,0,0,1-.92-.187Zm2.607-1.086.574.235a2.57,2.57,0,0,1-.519.781Zm.6.187c-.214-.09-.36-.145-.574-.235.263-.235.29-.263.761-.685a2.63,2.63,0,0,1-.187.92m-.574-1.736c.214-.09.36-.152.574-.235a2.6,2.6,0,0,1,.187.92c-.228-.214-.533-.484-.761-.685m-1.086-1.12c.041-.1.145-.346.235-.574a2.57,2.57,0,0,1,.781.519ZM20.44.52c-.09.214-.145.36-.235.574C19.97.832,19.942.8,19.52.334a2.63,2.63,0,0,1,.92.187M18.7,1.094,18.469.52a2.6,2.6,0,0,1,.92-.187Zm-.3-.546.235.574-1.024-.055a2.558,2.558,0,0,1,.788-.519M16.989,1.994l.574.235c-.353.318-.394.353-.761.685a2.63,2.63,0,0,1,.187-.92m.574,1.736-.574.235a2.6,2.6,0,0,1-.187-.92c.318.29.394.353.761.685M20.2,4.87l.235.574a2.6,2.6,0,0,1-.92.187L20.2,4.87m.3.546-.235-.574c.214.014.7.041,1.024.055a2.688,2.688,0,0,1-.788.519" transform="translate(-5.163 -0.084)" fill="#09090a"/>
    <path id="Path_1964" data-name="Path 1964" d="M27.176.132A2.676,2.676,0,1,1,24.5,2.808,2.677,2.677,0,0,1,27.176.132" transform="translate(-7.556 -0.041)" fill="#fff"/>
    <path id="Path_1965" data-name="Path 1965" d="M29.862,2.792a2.711,2.711,0,1,0-.8,1.916,2.665,2.665,0,0,0,.8-1.916m-4.53,1.923c.733-.041.913-.048,1.017-.055l-.235.574a2.7,2.7,0,0,1-.781-.519m-.1-.1a2.57,2.57,0,0,1-.519-.781c.318-.131.166-.069.574-.235-.028.484-.028.533-.055,1.017m4.557-1.826c-.3.263-.5.443-.8.712-.083-.152-.263-.491-.387-.712.194-.353.18-.325.387-.712.477.429.491.443.8.712M28.112,1.741c-.311-.131-.581-.242-.892-.367l.671-.367Zm.028.069c.346.83.256.616.408.982-.152.367-.062.152-.408.982l-.982.408-.982-.408c-.346-.83-.256-.616-.408-.982.152-.367.062-.152.408-.982.574-.235.45-.187.982-.408.526.221.408.173.982.408m-.028,2.04-.214.733-.671-.367c.332-.138.574-.235.885-.367M25.733,2.723l-.367-.671.733-.214c-.131.311-.228.546-.367.885m.367,1.03-.733-.214.367-.671c.138.332.235.567.367.885m.318-2.746.671.367c-.526.214-.346.145-.892.367.27-.906.18-.609.221-.733m0,3.575c-.035-.118,0-.007-.214-.733.546.228.346.145.892.367-.415.221-.27.138-.678.367m2.524-1.051-.733.214c.131-.311.242-.581.367-.892.131.242.228.415.367.678m-.36-.809c-.048-.124-.29-.705-.367-.892l.733.214c-.221.408-.235.429-.367.678M28.963,2l-.775-.228L27.96.994,29.025.939c-.035.519-.035.477-.062,1.058m-3.257.8-.387.712-.8-.712.8-.712Zm.422,1.03c.18.6.055.18.228.775l-1.065.055.055-1.065Zm1.03.422.712.387-.712.8-.712-.8Zm1.024-.422c.2-.055.581-.173.775-.228.035.574.028.553.055,1.065L27.946,4.6Zm.837-1.833L29.074.967a2.57,2.57,0,0,1,.519.781ZM27.87.953c-.38.207-.339.187-.712.387-1.155-.629-.5-.277-.712-.387.242-.27.429-.477.712-.8.346.387.145.166.712.8M26.356.987l-.228.775-.775.228L25.3.925c.373.028.657.041,1.058.062m-1.065,1c-.408-.166-.256-.1-.574-.235a2.57,2.57,0,0,1,.519-.781c.028.477.028.526.055,1.017M26.4,4.68c.3.332.56.622.685.761a2.6,2.6,0,0,1-.92-.187Zm2.614-1.086.574.235a2.57,2.57,0,0,1-.519.781Zm.595.187c-.214-.09-.36-.145-.574-.235.263-.235.29-.263.761-.685a2.483,2.483,0,0,1-.187.92m-.567-1.736c.214-.09.36-.152.574-.235a2.6,2.6,0,0,1,.187.92c-.235-.207-.533-.484-.761-.685M27.96.932c.041-.1.145-.346.235-.574a2.57,2.57,0,0,1,.781.519Zm.18-.595c-.09.214-.145.36-.235.574-.235-.263-.263-.29-.685-.761a2.455,2.455,0,0,1,.92.187M26.4.9,26.169.33a2.6,2.6,0,0,1,.92-.187Zm-.29-.546.235.574L25.325.877a2.688,2.688,0,0,1,.788-.519M24.7,1.81l.574.235c-.353.318-.394.353-.761.685a2.568,2.568,0,0,1,.187-.92m.574,1.736-.574.235a2.6,2.6,0,0,1-.187-.92c.318.284.394.353.761.685M27.9,4.68l.235.574a2.6,2.6,0,0,1-.92.187c.616-.685.491-.539.685-.761m.29.553L27.96,4.66c.214.014.7.041,1.024.055a2.833,2.833,0,0,1-.788.519" transform="translate(-7.538 -0.025)" fill="#09090a"/>
    <path id="Path_1966" data-name="Path 1966" d="M35.006.192A2.676,2.676,0,1,1,32.33,2.868,2.677,2.677,0,0,1,35.006.192" transform="translate(-9.971 -0.059)" fill="#fff"/>
    <path id="Path_1967" data-name="Path 1967" d="M37.7,2.852a2.711,2.711,0,1,0-.8,1.916,2.714,2.714,0,0,0,.8-1.916M33.165,4.775c.733-.041.913-.048,1.017-.055l-.235.574a2.656,2.656,0,0,1-.781-.519m-.1-.1A2.57,2.57,0,0,1,32.55,3.9c.318-.131.166-.069.574-.235-.021.484-.028.533-.055,1.017m4.557-1.826c-.3.263-.5.443-.8.712-.083-.152-.263-.491-.387-.712.194-.353.18-.325.387-.712.477.429.491.443.8.712M35.952,1.8c-.311-.131-.581-.242-.892-.367l.671-.367Zm.021.069c.346.83.256.616.408.982-.152.367-.062.152-.408.982l-.982.408-.982-.408c-.346-.83-.256-.616-.408-.982.152-.367.062-.152.408-.982.574-.235.45-.187.982-.408.526.221.408.173.982.408m-.021,2.04-.214.733-.671-.367.885-.367M33.566,2.783,33.2,2.112l.733-.214c-.124.311-.221.553-.367.885m.373,1.03L33.207,3.6l.367-.671c.131.332.235.567.367.885m.311-2.746.671.367c-.526.214-.346.145-.892.367.27-.906.187-.609.221-.733m0,3.575c-.035-.118,0-.007-.214-.733.546.228.346.145.892.367-.415.221-.263.145-.678.367m2.531-1.051-.733.214c.131-.311.242-.581.367-.892.131.242.221.415.367.678m-.367-.809c-.048-.124-.29-.705-.367-.892l.733.214c-.221.415-.228.429-.367.678m.38-.726-.775-.228-.228-.775L36.858,1c-.035.519-.028.477-.062,1.058m-3.257.8-.387.712-.8-.712.8-.712Zm.429,1.03c.18.6.055.18.228.775l-1.065.055.055-1.065Zm1.024.429L35.7,4.7l-.712.8-.712-.8Zm1.03-.429c.2-.055.581-.173.775-.228.035.574.028.553.055,1.065l-1.065-.055Zm.837-1.833.055-1.024a2.57,2.57,0,0,1,.519.781ZM35.7,1.013c-.38.207-.339.187-.712.387-1.155-.629-.5-.277-.712-.387.242-.27.429-.477.712-.8.346.387.145.166.712.8M34.2,1.047l-.228.775-.775.228L33.138.985c.367.028.65.041,1.058.062m-1.065,1c-.408-.166-.256-.1-.574-.235a2.57,2.57,0,0,1,.519-.781c.021.477.028.526.055,1.017m1.113,2.69c.3.332.56.622.685.761a2.6,2.6,0,0,1-.92-.187Zm2.614-1.079.574.235a2.57,2.57,0,0,1-.519.781Zm.595.18c-.214-.09-.36-.145-.574-.235.263-.235.29-.263.761-.685a2.6,2.6,0,0,1-.187.92m-.574-1.736c.214-.09.36-.152.574-.235a2.6,2.6,0,0,1,.187.92c-.228-.207-.533-.484-.761-.685M35.8.992c.041-.1.145-.346.235-.574a2.57,2.57,0,0,1,.781.519ZM35.98.4c-.09.214-.145.36-.235.574-.235-.263-.263-.29-.685-.761A2.483,2.483,0,0,1,35.98.4M34.244.964,34.009.39A2.6,2.6,0,0,1,34.929.2Zm-.29-.546.235.574L33.165.937a2.6,2.6,0,0,1,.788-.519M32.536,1.87l.574.235c-.353.318-.394.353-.761.685a2.455,2.455,0,0,1,.187-.92M33.1,3.606l-.574.235a2.6,2.6,0,0,1-.187-.92c.318.284.394.353.761.685M35.745,4.74l.235.574a2.6,2.6,0,0,1-.92.187c.616-.685.484-.539.685-.761m.29.553L35.8,4.72c.214.014.7.041,1.024.055a2.688,2.688,0,0,1-.788.519" transform="translate(-9.956 -0.044)" fill="#09090a"/>
    <path id="Path_1968" data-name="Path 1968" d="M42.856.292A2.676,2.676,0,1,1,40.18,2.968,2.677,2.677,0,0,1,42.856.292" transform="translate(-12.392 -0.09)" fill="#fff"/>
    <path id="Path_1969" data-name="Path 1969" d="M45.552,2.952a2.711,2.711,0,1,0-.8,1.916,2.714,2.714,0,0,0,.8-1.916M41.015,4.875c.733-.041.913-.048,1.017-.055l-.235.574a2.749,2.749,0,0,1-.781-.519m-.09-.1A2.57,2.57,0,0,1,40.407,4c.318-.131.166-.069.574-.235-.028.484-.028.533-.055,1.017m4.551-1.826c-.3.263-.5.443-.8.712-.083-.152-.263-.491-.387-.712.194-.353.18-.325.387-.712.477.429.5.443.8.712M43.8,1.9c-.311-.131-.581-.242-.892-.367l.671-.367Zm.021.069c.346.83.256.616.408.982-.152.367-.062.152-.408.982l-.982.408-.982-.408c-.346-.83-.256-.616-.408-.982.152-.367.062-.152.408-.982.574-.235.45-.187.982-.408.533.221.408.173.982.408M43.8,4.011l-.214.733-.671-.367.885-.367M41.423,2.883l-.367-.671L41.79,2c-.131.311-.228.546-.367.885m.367,1.03L41.057,3.7l.367-.671c.138.332.235.567.367.885M42.1,1.168l.671.367c-.526.214-.346.145-.892.367.277-.906.187-.609.221-.733m0,3.575c-.035-.118,0-.007-.214-.733.546.228.346.145.892.367-.415.221-.263.145-.678.367m2.531-1.051-.733.214c.131-.311.242-.581.367-.892.131.242.221.415.367.678m-.367-.809c-.048-.124-.29-.705-.367-.892l.733.214c-.221.415-.228.429-.367.678m.38-.726-.775-.228-.228-.775L44.708,1.1c-.028.519-.028.477-.062,1.058m-3.257.8L41,3.665l-.8-.712L41,2.24Zm.429,1.03c.18.6.055.18.228.775l-1.065.055.055-1.065Zm1.024.422.712.387-.712.8-.712-.8Zm1.03-.422c.2-.055.581-.173.775-.228.035.574.028.553.055,1.065l-1.065-.055Zm.837-1.833.055-1.024a2.57,2.57,0,0,1,.519.781ZM43.553,1.113c-.38.207-.339.187-.712.387-1.155-.629-.5-.277-.712-.387.242-.27.429-.477.712-.8.346.387.152.166.712.8m-1.508.035-.228.775-.775.228-.055-1.065c.367.028.657.041,1.058.062m-1.065,1c-.408-.166-.256-.1-.574-.235a2.57,2.57,0,0,1,.519-.781c.028.477.028.526.055,1.017m1.113,2.69c.3.332.56.622.685.761a2.6,2.6,0,0,1-.92-.187Zm2.614-1.079L45.282,4a2.57,2.57,0,0,1-.519.781Zm.595.18c-.214-.09-.36-.145-.574-.235.263-.235.29-.263.761-.685a2.6,2.6,0,0,1-.187.92m-.574-1.736c.214-.09.36-.152.574-.235a2.6,2.6,0,0,1,.187.92c-.228-.207-.533-.484-.761-.685M43.65,1.092c.041-.1.145-.346.235-.574a2.57,2.57,0,0,1,.781.519ZM43.83.5c-.09.214-.145.36-.235.574-.235-.263-.263-.29-.685-.761A2.455,2.455,0,0,1,43.83.5m-1.736.567L41.859.49A2.6,2.6,0,0,1,42.779.3ZM41.8.518l.235.574-1.024-.055A2.688,2.688,0,0,1,41.8.518M40.386,1.97l.574.235c-.353.318-.394.353-.761.685a2.6,2.6,0,0,1,.187-.92m.574,1.736-.574.235a2.6,2.6,0,0,1-.187-.92c.311.284.387.353.761.685M43.595,4.84l.235.574a2.6,2.6,0,0,1-.92.187c.616-.685.484-.539.685-.761m.29.553L43.65,4.82c.214.014.7.041,1.024.055a2.688,2.688,0,0,1-.788.519" transform="translate(-12.377 -0.074)" fill="#09090a"/>
    <path id="Path_1970" data-name="Path 1970" d="M50.7.392A2.676,2.676,0,1,1,48.02,3.068,2.677,2.677,0,0,1,50.7.392" transform="translate(-14.81 -0.121)" fill="#fff"/>
    <path id="Path_1971" data-name="Path 1971" d="M53.392,3.052a2.711,2.711,0,1,0-.8,1.916,2.714,2.714,0,0,0,.8-1.916M48.855,4.975c.733-.041.913-.048,1.017-.055l-.235.574a2.57,2.57,0,0,1-.781-.519m-.1-.1A2.57,2.57,0,0,1,48.24,4.1c.318-.131.166-.069.574-.235-.028.484-.028.533-.055,1.017m4.557-1.826c-.3.263-.5.443-.8.712-.083-.152-.263-.491-.387-.712.194-.353.18-.325.387-.712.477.429.491.443.8.712M51.635,2c-.311-.131-.581-.242-.892-.367l.671-.367Zm.028.069c.346.83.256.616.408.982-.152.367-.062.152-.408.982l-.982.408L49.7,4.035c-.346-.83-.256-.616-.408-.982.152-.367.062-.152.408-.982.574-.235.45-.187.982-.408.526.221.408.173.982.408m-.028,2.04-.214.733-.671-.367c.332-.138.574-.235.885-.367M49.256,2.983l-.367-.671.733-.214c-.131.311-.228.546-.367.885m.367,1.03L48.89,3.8l.367-.671c.138.332.235.567.367.885m.318-2.746.671.367c-.526.214-.346.145-.892.367.27-.906.18-.609.221-.733m0,3.575c-.035-.118,0-.007-.214-.733.546.228.346.145.892.367-.415.221-.27.138-.678.367m2.524-1.051-.733.214c.131-.311.242-.581.367-.892.131.242.228.415.367.678m-.36-.809c-.048-.124-.29-.705-.367-.892l.733.214c-.221.408-.235.429-.367.678m.38-.726-.775-.228-.228-.775L52.548,1.2c-.035.519-.035.477-.062,1.058m-3.257.8-.387.712-.8-.712.8-.712Zm.422,1.03c.18.6.055.18.228.775l-1.065.055.055-1.065Zm1.03.422.712.387-.712.8-.712-.8ZM51.7,4.083c.2-.055.581-.173.775-.228.035.574.028.553.055,1.065l-1.065-.055Zm.837-1.833L52.6,1.227a2.57,2.57,0,0,1,.519.781ZM51.393,1.213c-.38.207-.339.187-.712.387-1.155-.629-.5-.277-.712-.387.242-.27.429-.477.712-.8.346.387.145.166.712.8m-1.515.035-.228.775-.775.228-.055-1.065c.373.028.657.041,1.058.062m-1.065,1c-.408-.166-.256-.1-.574-.235a2.57,2.57,0,0,1,.519-.781c.028.477.028.526.055,1.017m1.113,2.69c.3.332.56.622.685.761a2.6,2.6,0,0,1-.92-.187Zm2.614-1.079.574.235a2.57,2.57,0,0,1-.519.781Zm.595.18c-.214-.09-.36-.145-.574-.235.263-.235.29-.263.761-.685a2.455,2.455,0,0,1-.187.92m-.567-1.736c.214-.09.36-.152.574-.235a2.6,2.6,0,0,1,.187.92c-.235-.207-.533-.484-.761-.685M51.483,1.192c.041-.1.145-.346.235-.574a2.57,2.57,0,0,1,.781.519ZM51.663.6c-.09.214-.145.36-.235.574-.235-.263-.263-.29-.685-.761a2.455,2.455,0,0,1,.92.187m-1.736.567L49.692.59A2.6,2.6,0,0,1,50.612.4Zm-.29-.546.235.574-1.024-.055a2.688,2.688,0,0,1,.788-.519M48.219,2.07l.574.235c-.353.318-.394.353-.761.685a2.6,2.6,0,0,1,.187-.92m.574,1.736-.574.235a2.6,2.6,0,0,1-.187-.92c.318.284.394.353.761.685M51.428,4.94l.235.574a2.6,2.6,0,0,1-.92.187c.616-.685.491-.539.685-.761m.29.553-.235-.574c.214.014.7.041,1.024.055a2.6,2.6,0,0,1-.788.519" transform="translate(-14.795 -0.105)" fill="#09090a"/>
    <path id="Path_1972" data-name="Path 1972" d="M58.676.422A2.676,2.676,0,1,1,56,3.1,2.677,2.677,0,0,1,58.676.422" transform="translate(-17.272 -0.13)" fill="#fff"/>
    <path id="Path_1973" data-name="Path 1973" d="M61.372,3.082A2.711,2.711,0,1,0,60.577,5a2.714,2.714,0,0,0,.8-1.916M56.835,5.005c.733-.041.913-.048,1.017-.055l-.235.574a2.851,2.851,0,0,1-.781-.519m-.1-.1a2.57,2.57,0,0,1-.519-.781c.318-.131.166-.069.574-.235-.028.484-.028.533-.055,1.017M61.3,3.082c-.3.263-.5.443-.8.712-.083-.152-.263-.491-.387-.712.194-.353.18-.325.387-.712.477.429.491.443.8.712M59.615,2.024c-.311-.131-.581-.242-.892-.367l.671-.367Zm.028.076c.346.83.256.616.408.982-.152.367-.062.152-.408.982l-.982.408-.982-.408c-.346-.83-.256-.616-.408-.982.152-.367.062-.152.408-.982.574-.235.45-.187.982-.408.526.221.408.173.982.408m-.028,2.04-.214.733-.671-.367c.339-.138.574-.235.885-.367M57.236,3.013l-.367-.671.733-.214c-.131.311-.228.546-.367.885m.367,1.03-.733-.214.367-.671c.138.332.235.567.367.885m.318-2.752.671.367c-.526.214-.346.145-.892.367.27-.9.187-.6.221-.733m0,3.582c-.035-.118,0-.007-.214-.733.546.228.346.145.892.367-.415.221-.27.138-.678.367m2.531-1.051-.733.214c.131-.311.242-.581.367-.892.124.242.221.415.367.678m-.367-.809c-.048-.124-.29-.705-.367-.892l.733.214c-.221.408-.228.429-.367.678m.38-.726-.775-.228-.228-.775,1.065-.055c-.035.519-.035.47-.062,1.058m-3.257.8-.387.712-.8-.712.8-.712Zm.422,1.03c.18.6.055.18.228.775l-1.065.055.055-1.065Zm1.03.422.712.387-.712.8-.712-.8Zm1.03-.422c.2-.055.581-.173.775-.228.035.574.028.553.055,1.065l-1.065-.055Zm.837-1.833.055-1.024a2.57,2.57,0,0,1,.519.781ZM59.373,1.243c-.38.207-.339.187-.712.387-1.155-.629-.5-.277-.712-.387.242-.27.429-.477.712-.8.346.387.145.166.712.8m-1.508.035-.228.775-.775.228-.055-1.065c.367.028.65.041,1.058.062m-1.072,1c-.408-.166-.256-.1-.574-.235a2.57,2.57,0,0,1,.519-.781c.028.477.028.526.055,1.017m1.12,2.69c.3.332.56.622.685.761a2.6,2.6,0,0,1-.92-.187Zm2.614-1.086.574.235a2.57,2.57,0,0,1-.519.781Zm.595.187c-.214-.09-.36-.145-.574-.235.263-.235.29-.263.761-.685a2.63,2.63,0,0,1-.187.92m-.574-1.736c.214-.09.36-.152.574-.235a2.6,2.6,0,0,1,.187.92c-.228-.214-.533-.484-.761-.685M59.463,1.222c.041-.1.145-.346.235-.574a2.57,2.57,0,0,1,.781.519Zm.187-.6c-.09.214-.145.36-.235.574C59.18.932,59.152.9,58.73.434a2.63,2.63,0,0,1,.92.187m-1.736.574L57.679.62A2.6,2.6,0,0,1,58.6.434Zm-.3-.546.235.574-1.024-.055a2.688,2.688,0,0,1,.788-.519M56.2,2.094l.574.235c-.353.318-.394.353-.761.685a2.63,2.63,0,0,1,.187-.92m.574,1.736-.574.235a2.6,2.6,0,0,1-.187-.92c.318.29.394.36.761.685M59.408,4.97l.235.574a2.6,2.6,0,0,1-.92.187c.616-.685.491-.539.685-.761m.3.546-.235-.574c.214.014.7.041,1.024.055a2.688,2.688,0,0,1-.788.519" transform="translate(-17.256 -0.114)" fill="#09090a"/>
    <path id="Path_1974" data-name="Path 1974" d="M66.386.232A2.676,2.676,0,1,1,63.71,2.908,2.677,2.677,0,0,1,66.386.232" transform="translate(-19.65 -0.072)" fill="#fff"/>
    <path id="Path_1975" data-name="Path 1975" d="M69.072,2.892a2.711,2.711,0,1,0-.8,1.916,2.653,2.653,0,0,0,.8-1.916m-4.53,1.923c.733-.041.913-.048,1.017-.055l-.235.574a2.57,2.57,0,0,1-.781-.519m-.1-.1a2.57,2.57,0,0,1-.519-.781c.318-.131.166-.069.574-.235-.028.484-.028.533-.055,1.017M69,2.892c-.3.263-.5.443-.8.712-.083-.152-.263-.491-.387-.712.194-.353.18-.325.387-.712.477.429.491.443.8.712M67.322,1.841c-.311-.131-.581-.242-.892-.367l.671-.367Zm.028.069c.346.83.256.616.408.982-.152.367-.062.152-.408.982l-.982.408-.982-.408c-.346-.83-.256-.616-.408-.982.152-.367.062-.152.408-.982.574-.235.45-.187.982-.408.526.221.408.173.982.408m-.028,2.04-.214.733-.671-.367c.332-.138.574-.235.885-.367M64.943,2.823l-.367-.671.733-.214c-.131.311-.228.553-.367.885m.367,1.03-.733-.214.367-.671c.138.332.235.567.367.885m.318-2.746.671.367c-.526.214-.346.145-.892.367.27-.906.18-.609.221-.733m0,3.575c-.035-.118,0-.007-.214-.733.546.228.346.145.892.367-.415.221-.27.145-.678.367m2.524-1.051-.733.214c.131-.311.242-.581.367-.892.131.242.228.415.367.678m-.36-.809c-.048-.124-.29-.705-.367-.892l.733.214c-.221.415-.235.429-.367.678m.38-.726L67.4,1.869l-.228-.775,1.065-.055c-.035.519-.035.477-.062,1.058m-3.257.8-.387.712-.8-.712.8-.712Zm.422,1.03c.18.6.055.18.228.775L64.5,4.753l.055-1.065Zm1.03.429.712.387-.712.8-.712-.8Zm1.024-.429c.2-.055.581-.173.775-.228.035.574.028.553.055,1.065L67.156,4.7Zm.837-1.833.055-1.024a2.57,2.57,0,0,1,.519.781ZM67.08,1.053c-.38.207-.339.187-.712.387-1.155-.629-.5-.277-.712-.387.242-.27.429-.477.712-.8.346.387.145.166.712.8m-1.515.035-.228.775-.775.228-.055-1.065c.373.028.657.041,1.058.062m-1.065,1c-.408-.166-.256-.1-.574-.235a2.57,2.57,0,0,1,.519-.781c.028.477.028.526.055,1.017m1.113,2.69c.3.332.56.622.685.761a2.6,2.6,0,0,1-.92-.187ZM68.228,3.7l.574.235a2.57,2.57,0,0,1-.519.781Zm.595.18c-.214-.09-.36-.145-.574-.235.263-.235.29-.263.761-.685a2.455,2.455,0,0,1-.187.92m-.567-1.736c.214-.09.36-.152.574-.235a2.6,2.6,0,0,1,.187.92c-.235-.207-.533-.484-.761-.685M67.17,1.032c.041-.1.145-.346.235-.574a2.569,2.569,0,0,1,.781.519Zm.18-.595c-.09.214-.145.36-.235.574-.235-.263-.263-.29-.685-.761a2.6,2.6,0,0,1,.92.187M65.614,1,65.379.43A2.6,2.6,0,0,1,66.3.244Zm-.29-.546.235.574L64.535.977a2.688,2.688,0,0,1,.788-.519M63.906,1.91l.574.235c-.353.318-.394.353-.761.685a2.6,2.6,0,0,1,.187-.92m.574,1.736-.574.235a2.6,2.6,0,0,1-.187-.92c.318.284.394.353.761.685M67.115,4.78l.235.574a2.6,2.6,0,0,1-.92.187c.616-.685.491-.539.685-.761m.29.553L67.17,4.76c.214.014.7.041,1.024.055a2.688,2.688,0,0,1-.788.519" transform="translate(-19.631 -0.056)" fill="#09090a"/>
    <path id="Path_1976" data-name="Path 1976" d="M74.156.232A2.676,2.676,0,1,1,71.48,2.908,2.677,2.677,0,0,1,74.156.232" transform="translate(-22.046 -0.072)" fill="#fff"/>
    <path id="Path_1977" data-name="Path 1977" d="M76.842,2.892a2.711,2.711,0,1,0-.8,1.916,2.654,2.654,0,0,0,.8-1.916m-4.53,1.923c.733-.041.913-.048,1.017-.055l-.235.574a2.57,2.57,0,0,1-.781-.519m-.1-.1a2.57,2.57,0,0,1-.519-.781c.318-.131.166-.069.574-.235-.028.484-.028.533-.055,1.017m4.557-1.826c-.3.263-.5.443-.8.712-.083-.152-.263-.491-.387-.712.194-.353.18-.325.387-.712.47.429.491.443.8.712M75.092,1.841c-.311-.131-.581-.242-.892-.367l.671-.367Zm.028.069c.346.83.256.616.408.982-.152.367-.062.152-.408.982l-.982.408-.982-.408c-.346-.83-.256-.616-.408-.982.152-.367.062-.152.408-.982.574-.235.45-.187.982-.408.526.221.408.173.982.408m-.028,2.04-.214.733-.671-.367c.332-.138.574-.235.885-.367M72.713,2.823l-.367-.671.733-.214c-.131.311-.228.553-.367.885m.367,1.03-.733-.214.367-.671c.138.332.235.567.367.885M73.4,1.108l.671.367c-.526.214-.346.145-.892.367.27-.906.18-.609.221-.733m0,3.575c-.035-.118,0-.007-.214-.733.546.228.346.145.892.367-.415.221-.27.145-.678.367m2.524-1.051-.733.214c.131-.311.242-.581.367-.892.131.242.228.415.367.678m-.36-.809c-.048-.124-.29-.705-.367-.892l.733.214c-.221.415-.235.429-.367.678m.38-.726-.775-.228-.228-.775,1.065-.055c-.035.519-.035.477-.062,1.058m-3.257.8L72.3,3.6l-.8-.712.8-.712Zm.422,1.03c.18.6.055.18.228.775l-1.065.055.055-1.065Zm1.03.429.712.387-.712.8-.712-.8Zm1.024-.429c.2-.055.581-.173.775-.228.035.574.028.553.055,1.065L74.926,4.7ZM76,2.09l.055-1.024a2.57,2.57,0,0,1,.519.781ZM74.85,1.053c-.38.207-.339.187-.712.387-1.155-.629-.5-.277-.712-.387.242-.27.429-.477.712-.8.346.387.145.166.712.8m-1.515.035-.228.775-.775.228-.055-1.065c.373.028.657.041,1.058.062m-1.065,1c-.408-.166-.256-.1-.574-.235a2.57,2.57,0,0,1,.519-.781c.028.477.028.526.055,1.017m1.113,2.69c.3.332.56.622.685.761a2.6,2.6,0,0,1-.92-.187ZM76,3.7l.574.235a2.57,2.57,0,0,1-.519.781Zm.595.18c-.214-.09-.36-.145-.574-.235.263-.235.29-.263.761-.685a2.455,2.455,0,0,1-.187.92m-.567-1.736c.214-.09.36-.152.574-.235a2.6,2.6,0,0,1,.187.92c-.235-.207-.539-.484-.761-.685M74.94,1.032c.041-.1.145-.346.235-.574a2.57,2.57,0,0,1,.781.519Zm.18-.595c-.09.214-.145.36-.235.574C74.65.749,74.622.721,74.2.251a2.6,2.6,0,0,1,.92.187M73.384,1,73.149.43a2.6,2.6,0,0,1,.92-.187Zm-.29-.546.235.574L72.305.977a2.688,2.688,0,0,1,.788-.519M71.676,1.91l.574.235c-.353.318-.394.353-.761.685a2.6,2.6,0,0,1,.187-.92m.574,1.736-.574.235a2.6,2.6,0,0,1-.187-.92c.318.284.394.353.761.685M74.885,4.78l.235.574a2.6,2.6,0,0,1-.92.187c.616-.685.491-.539.685-.761m.29.553L74.94,4.76c.214.014.7.041,1.024.055a2.688,2.688,0,0,1-.788.519" transform="translate(-22.028 -0.056)" fill="#09090a"/>
    <path id="Path_1978" data-name="Path 1978" d="M81.866.042A2.676,2.676,0,1,1,79.19,2.718,2.677,2.677,0,0,1,81.866.042" transform="translate(-24.424 -0.013)" fill="#fff"/>
    <path id="Path_1979" data-name="Path 1979" d="M84.552,2.712a2.711,2.711,0,1,0-.8,1.916,2.714,2.714,0,0,0,.8-1.916m-4.53,1.916c.733-.041.913-.048,1.017-.055l-.235.574a2.57,2.57,0,0,1-.781-.519m-.1-.09a2.57,2.57,0,0,1-.519-.781c.318-.131.166-.069.574-.235-.028.484-.028.533-.055,1.017m4.557-1.826c-.3.263-.5.443-.8.712-.083-.152-.263-.491-.387-.712.194-.353.18-.325.387-.712.47.422.491.436.8.712M82.8,1.654c-.311-.131-.581-.242-.892-.367l.671-.367Zm.021.076c.346.83.256.616.408.982-.152.367-.062.152-.408.982l-.982.408-.982-.408c-.346-.83-.256-.616-.408-.982.152-.367.062-.152.408-.982.574-.235.45-.187.982-.408.533.221.415.166.982.408M82.8,3.764l-.214.733-.671-.367.885-.367m-2.379-1.12-.367-.671.733-.214c-.131.311-.228.546-.367.885m.367,1.024-.733-.214.367-.671c.138.332.235.567.367.885M81.1.921l.671.367c-.526.214-.346.145-.892.367.277-.9.187-.609.221-.733m0,3.575c-.035-.118,0-.007-.214-.733.546.228.346.145.892.367-.408.228-.263.145-.678.367m2.531-1.044-.733.214c.131-.311.242-.581.367-.892.131.242.221.415.367.678m-.367-.809c-.048-.124-.29-.705-.367-.892l.733.214c-.221.408-.228.422-.367.678m.38-.733-.775-.228L82.643.907,83.708.852c-.028.519-.028.477-.062,1.058m-3.257.8L80,3.425l-.8-.712L80,2Zm.429,1.024c.18.6.055.18.228.775l-1.065.055L80.036,3.5Zm1.03.429.712.387-.712.8-.712-.8Zm1.024-.429c.2-.055.581-.173.775-.228.035.574.028.553.055,1.065l-1.065-.055ZM83.708,1.9,83.764.88a2.57,2.57,0,0,1,.519.781ZM82.553.873c-.38.207-.339.187-.712.387-1.155-.629-.5-.277-.712-.387.242-.27.429-.477.712-.8.346.38.152.159.712.8M81.046.907l-.228.775-.775.228L79.988.845c.373.021.657.041,1.058.062m-1.065,1c-.408-.166-.256-.1-.574-.235a2.57,2.57,0,0,1,.519-.781c.028.484.028.533.055,1.017m1.113,2.7c.3.332.56.622.685.761a2.6,2.6,0,0,1-.92-.187Zm2.614-1.086.574.235a2.57,2.57,0,0,1-.519.781Zm.595.18c-.214-.09-.36-.145-.574-.235.263-.235.29-.263.761-.685a2.6,2.6,0,0,1-.187.92m-.574-1.736c.214-.09.36-.152.574-.235a2.6,2.6,0,0,1,.187.92c-.228-.207-.533-.477-.761-.685M82.65.845c.041-.1.145-.346.235-.574a2.57,2.57,0,0,1,.781.519ZM82.83.25c-.09.214-.145.36-.235.574-.235-.263-.263-.29-.685-.761a2.6,2.6,0,0,1,.92.187M81.094.824,80.859.25a2.6,2.6,0,0,1,.92-.187ZM80.8.271l.235.574L80.015.79A2.688,2.688,0,0,1,80.8.271M79.386,1.724l.574.235c-.353.318-.394.353-.761.685a2.6,2.6,0,0,1,.187-.92m.574,1.736-.574.235a2.6,2.6,0,0,1-.187-.92c.318.29.387.353.761.685M82.595,4.6l.235.574a2.6,2.6,0,0,1-.92.187l.685-.761m.29.546-.235-.574c.214.014.7.041,1.024.055a2.688,2.688,0,0,1-.788.519" transform="translate(-24.406 0)" fill="#09090a"/>
    <path id="Path_1980" data-name="Path 1980" d="M89.7.112A2.676,2.676,0,1,1,87.02,2.788,2.677,2.677,0,0,1,89.7.112" transform="translate(-26.839 -0.035)" fill="#fff"/>
    <path id="Path_1981" data-name="Path 1981" d="M92.392,2.772a2.711,2.711,0,1,0-.8,1.916,2.714,2.714,0,0,0,.8-1.916M87.855,4.7c.733-.041.913-.048,1.017-.055l-.235.574a2.851,2.851,0,0,1-.781-.519m-.1-.1a2.57,2.57,0,0,1-.519-.781c.318-.131.166-.069.574-.235-.021.484-.028.533-.055,1.017m4.557-1.826c-.3.263-.5.443-.8.712-.083-.152-.263-.491-.387-.712.194-.353.18-.325.387-.712.477.422.491.443.8.712M90.642,1.714c-.311-.131-.581-.242-.892-.367l.671-.367Zm.021.076c.346.83.256.616.408.982-.152.367-.062.152-.408.982l-.982.408L88.7,3.755c-.346-.83-.256-.616-.408-.982.152-.367.062-.152.408-.982.574-.235.45-.187.982-.408.526.221.408.173.982.408m-.021,2.033-.214.733-.671-.367c.332-.131.567-.235.885-.367M88.256,2.7l-.367-.671.733-.214c-.124.311-.228.546-.367.885m.367,1.024-.733-.214.367-.671c.138.332.235.567.367.885M88.941.981l.671.367c-.526.214-.346.145-.892.367.27-.9.187-.609.221-.733m0,3.575c-.035-.118,0-.007-.214-.733.546.228.346.145.892.367-.415.228-.27.145-.678.367m2.531-1.044-.733.214c.131-.311.242-.581.367-.892.124.242.221.415.367.678M91.106,2.7c-.048-.124-.29-.705-.367-.892l.733.214c-.221.408-.228.422-.367.678m.38-.733-.775-.228L90.483.967,91.548.912c-.035.519-.028.477-.062,1.058m-3.257.8-.387.712-.8-.712.8-.712ZM88.651,3.8c.18.6.055.18.228.775l-1.065.055.055-1.065Zm1.03.429.712.387-.712.8-.712-.8Zm1.03-.429c.2-.055.581-.173.775-.228.035.574.028.553.055,1.065l-1.065-.055Zm.837-1.826L91.6.947a2.569,2.569,0,0,1,.519.781ZM90.393.933c-.38.207-.339.187-.712.387-1.155-.629-.5-.277-.712-.387.242-.27.429-.477.712-.8.346.38.145.159.712.8M88.886.967l-.228.775-.775.228L87.828.905c.367.021.65.041,1.058.062m-1.072,1c-.408-.166-.256-.1-.574-.235a2.57,2.57,0,0,1,.519-.781c.028.477.035.526.055,1.017m1.12,2.69c.3.332.56.622.685.761a2.6,2.6,0,0,1-.92-.187Zm2.614-1.086.574.235a2.569,2.569,0,0,1-.519.781Zm.595.18c-.214-.09-.36-.145-.574-.235.263-.235.29-.263.761-.685a2.6,2.6,0,0,1-.187.92m-.574-1.736c.214-.09.36-.152.574-.235a2.6,2.6,0,0,1,.187.92c-.228-.207-.533-.477-.761-.685M90.483.905c.041-.1.145-.346.235-.574A2.57,2.57,0,0,1,91.5.85ZM90.67.31c-.09.214-.145.36-.235.574C90.2.622,90.172.594,89.75.124a2.63,2.63,0,0,1,.92.187M88.934.884,88.7.31a2.6,2.6,0,0,1,.92-.187Zm-.3-.553.235.574L87.848.85a2.833,2.833,0,0,1,.788-.519M87.219,1.784l.574.235c-.353.318-.394.353-.761.685a2.6,2.6,0,0,1,.187-.92m.574,1.736-.574.235a2.6,2.6,0,0,1-.187-.92c.318.29.394.353.761.685M90.428,4.66l.235.574a2.6,2.6,0,0,1-.92.187l.685-.761m.3.546-.235-.574c.214.014.7.041,1.024.055a2.688,2.688,0,0,1-.788.519" transform="translate(-26.824 -0.019)" fill="#09090a"/>
    <path id="Path_1982" data-name="Path 1982" d="M66.143,8.963H1.011a.761.761,0,1,1,0-1.521H66.143a.761.761,0,0,1,0,1.521" transform="translate(-0.077 -2.296)" fill="#fff"/>
    <path id="Path_1983" data-name="Path 1983" d="M66.143,8.963H1.011a.761.761,0,1,1,0-1.521H66.143a.761.761,0,0,1,0,1.521Z" transform="translate(-0.077 -2.296)" fill="none" stroke="#000" stroke-miterlimit="10" stroke-width="0.5"/>
    <path id="Path_1984" data-name="Path 1984" d="M4.4,23.1A2.676,2.676,0,1,1,1.72,25.778,2.677,2.677,0,0,1,4.4,23.1" transform="translate(-0.53 -7.125)" fill="#fff"/>
    <path id="Path_1985" data-name="Path 1985" d="M7.082,25.762a2.711,2.711,0,1,0-.8,1.916,2.677,2.677,0,0,0,.8-1.916m-4.53,1.923c.733-.041.913-.048,1.017-.055l-.235.574a2.851,2.851,0,0,1-.781-.519m-.1-.1a2.57,2.57,0,0,1-.519-.781c.318-.131.166-.069.574-.235-.028.484-.028.533-.055,1.017m4.557-1.826c-.3.263-.5.443-.8.712-.083-.152-.263-.491-.387-.712.194-.353.18-.325.387-.712.477.429.491.443.8.712M5.332,24.7c-.311-.131-.581-.242-.892-.367l.671-.367Zm.028.076c.346.83.256.616.408.982-.152.367-.062.152-.408.982l-.982.408L3.4,26.745c-.346-.83-.256-.616-.408-.982.152-.367.062-.152.408-.982.574-.235.45-.187.982-.408.526.221.408.173.982.408m-.028,2.04-.214.733-.671-.367c.332-.138.574-.242.885-.367M2.953,25.693l-.367-.671.733-.214c-.131.311-.228.546-.367.885m.367,1.024L2.587,26.5l.367-.671c.138.332.235.567.367.885m.318-2.746.671.367c-.526.214-.346.145-.892.367.27-.9.18-.609.221-.733m0,3.582c-.035-.118,0-.007-.214-.733.546.228.346.145.892.367-.415.221-.27.138-.678.367M6.162,26.5l-.733.214c.131-.311.242-.581.367-.892.131.242.228.415.367.678m-.36-.809c-.048-.124-.29-.705-.367-.892l.733.214c-.221.408-.235.429-.367.678m.38-.726-.775-.228-.228-.775,1.065-.055c-.035.512-.035.47-.062,1.058m-3.257.8-.387.712-.8-.712.8-.712Zm.422,1.03c.18.6.055.18.228.775l-1.065.055.055-1.065Zm1.03.422.712.387-.712.8-.712-.8ZM5.4,26.793c.2-.055.581-.173.775-.228.035.574.028.553.055,1.065l-1.065-.055Zm.837-1.833.055-1.024a2.57,2.57,0,0,1,.519.781ZM5.09,23.923c-.38.207-.339.187-.712.387-1.155-.629-.5-.277-.712-.387.242-.27.429-.477.712-.8.346.387.145.166.712.8m-1.515.035-.228.775-.775.228L2.518,23.9c.373.028.657.041,1.058.062m-1.065,1c-.408-.166-.256-.1-.574-.235a2.57,2.57,0,0,1,.519-.781c.028.477.028.526.055,1.017m1.113,2.69c.3.332.56.622.685.761a2.6,2.6,0,0,1-.92-.187Zm2.614-1.086.574.235a2.57,2.57,0,0,1-.519.781Zm.595.187c-.214-.09-.36-.145-.574-.235.263-.235.29-.263.761-.685a2.483,2.483,0,0,1-.187.92m-.567-1.736c.214-.09.36-.152.574-.235a2.6,2.6,0,0,1,.187.92c-.235-.214-.533-.484-.761-.685M5.18,23.9c.041-.1.145-.346.235-.574a2.57,2.57,0,0,1,.781.519Zm.18-.595c-.09.214-.145.36-.235.574-.235-.263-.263-.29-.685-.761a2.6,2.6,0,0,1,.92.187m-1.736.574L3.389,23.3a2.6,2.6,0,0,1,.92-.187Zm-.29-.546.235.574-1.024-.055a2.688,2.688,0,0,1,.788-.519M1.916,24.774l.574.235c-.353.318-.394.353-.761.685a2.63,2.63,0,0,1,.187-.92m.574,1.736-.574.235a2.6,2.6,0,0,1-.187-.92c.318.29.394.36.761.685M5.125,27.65l.235.574a2.6,2.6,0,0,1-.92.187l.685-.761m.29.546-.235-.574c.214.014.7.041,1.024.055a2.688,2.688,0,0,1-.788.519" transform="translate(-0.512 -7.11)" fill="#09090a"/>
    <path id="Path_1986" data-name="Path 1986" d="M12.106,22.912A2.676,2.676,0,1,1,9.43,25.588a2.677,2.677,0,0,1,2.676-2.676" transform="translate(-2.908 -7.067)" fill="#fff"/>
    <path id="Path_1987" data-name="Path 1987" d="M14.792,25.572a2.711,2.711,0,1,0-.8,1.916,2.714,2.714,0,0,0,.8-1.916M10.262,27.5c.733-.041.913-.048,1.017-.055l-.235.574a2.57,2.57,0,0,1-.781-.519m-.1-.1a2.57,2.57,0,0,1-.519-.781c.318-.131.166-.069.574-.235-.028.484-.028.533-.055,1.017m4.557-1.826c-.3.263-.5.443-.8.712-.083-.152-.263-.491-.387-.712.194-.353.18-.325.387-.712.47.429.491.443.8.712m-1.681-1.051c-.311-.131-.581-.242-.892-.367l.671-.367Zm.028.069c.346.83.256.616.408.982-.152.367-.062.152-.408.982l-.982.408-.982-.408c-.346-.83-.256-.616-.408-.982.152-.367.062-.152.408-.982.574-.235.45-.187.982-.408.526.221.408.173.982.408m-.028,2.04-.214.733L12.157,27l.885-.367M10.663,25.5l-.367-.671.733-.214c-.131.311-.228.546-.367.885m.367,1.03-.733-.214.367-.671c.138.332.235.567.367.885m.318-2.746.671.367c-.526.214-.346.145-.892.367.27-.906.18-.609.221-.733m0,3.575c-.035-.118,0-.007-.214-.733.546.228.346.145.892.367-.415.221-.27.145-.678.367m2.524-1.051-.733.214c.131-.311.242-.581.367-.892.131.242.221.415.367.678m-.367-.809c-.048-.124-.29-.705-.367-.892l.733.214c-.214.415-.228.429-.367.678m.387-.726-.775-.228-.228-.775,1.065-.055c-.035.519-.035.477-.062,1.058m-3.264.8-.387.712-.8-.712.8-.712Zm.429,1.03c.18.6.055.18.228.775l-1.065.062.055-1.065Zm1.03.422.712.387-.712.8-.712-.8Zm1.024-.422c.2-.055.581-.173.775-.228.035.574.028.553.055,1.065l-1.065-.055Zm.837-1.833L14,23.747a2.57,2.57,0,0,1,.519.781ZM12.8,23.733c-.38.207-.339.187-.712.387-1.155-.629-.5-.277-.712-.387.242-.27.429-.477.712-.8.339.387.145.166.712.8m-1.515.035-.228.775-.775.228-.062-1.058,1.065.055m-1.065,1c-.408-.166-.256-.1-.574-.235a2.57,2.57,0,0,1,.519-.781c.028.477.028.526.055,1.017m1.113,2.69c.3.332.56.622.685.761a2.6,2.6,0,0,1-.92-.187Zm2.614-1.079.574.235A2.57,2.57,0,0,1,14,27.4Zm.595.18c-.214-.09-.36-.145-.574-.235.263-.235.29-.263.761-.685a2.6,2.6,0,0,1-.187.92m-.574-1.736c.214-.09.36-.152.574-.235a2.6,2.6,0,0,1,.187.92c-.228-.207-.533-.484-.761-.685M12.89,23.712c.041-.1.145-.346.235-.574a2.57,2.57,0,0,1,.781.519Zm.18-.595c-.083.207-.145.353-.235.567-.235-.263-.263-.29-.685-.761a2.605,2.605,0,0,1,.92.194m-1.736.567L11.1,23.11a2.6,2.6,0,0,1,.92-.187Zm-.29-.546.235.574-1.024-.055a2.688,2.688,0,0,1,.788-.519M9.626,24.59l.574.235c-.353.318-.394.353-.761.685a2.6,2.6,0,0,1,.187-.92m.574,1.736-.574.235a2.6,2.6,0,0,1-.187-.92c.318.284.387.353.761.685m2.635,1.134.235.574a2.6,2.6,0,0,1-.92.187c.616-.685.491-.539.685-.761m.29.553-.235-.574c.214.014.7.041,1.024.055a2.688,2.688,0,0,1-.788.519" transform="translate(-2.89 -7.051)" fill="#09090a"/>
    <path id="Path_1988" data-name="Path 1988" d="M19.876,22.912A2.676,2.676,0,1,1,17.2,25.588a2.677,2.677,0,0,1,2.676-2.676" transform="translate(-5.305 -7.067)" fill="#fff"/>
    <path id="Path_1989" data-name="Path 1989" d="M22.562,25.572a2.711,2.711,0,1,0-.8,1.916,2.714,2.714,0,0,0,.8-1.916M18.032,27.5c.733-.041.913-.048,1.017-.055l-.235.574a2.57,2.57,0,0,1-.781-.519m-.1-.1a2.57,2.57,0,0,1-.519-.781c.318-.131.166-.069.574-.235-.028.484-.028.533-.055,1.017m4.557-1.826c-.3.263-.5.443-.8.712-.083-.152-.263-.491-.387-.712.194-.353.18-.325.387-.712.47.429.491.443.8.712m-1.681-1.051c-.311-.131-.581-.242-.892-.367l.671-.367Zm.021.069c.346.83.256.616.408.982-.152.367-.062.152-.408.982l-.982.408-.982-.408c-.346-.83-.256-.616-.408-.982.152-.367.062-.152.408-.982.574-.235.45-.187.982-.408.533.221.408.173.982.408m-.021,2.04-.214.733L19.927,27l.885-.367M18.433,25.5l-.367-.671.733-.214c-.131.311-.228.546-.367.885m.367,1.03-.733-.214.367-.671c.138.332.235.567.367.885m.311-2.746.671.367c-.526.214-.346.145-.892.367.277-.906.187-.609.221-.733m0,3.575c-.035-.118,0-.007-.214-.733.546.228.346.145.892.367-.408.221-.263.145-.678.367m2.531-1.051-.733.214c.131-.311.242-.581.367-.892.131.242.221.415.367.678m-.367-.809c-.048-.124-.29-.705-.367-.892l.733.214c-.221.415-.228.429-.367.678m.38-.726-.775-.228-.228-.775,1.065-.055c-.028.519-.028.477-.062,1.058m-3.257.8-.387.712-.8-.712.8-.712Zm.429,1.03c.18.6.055.18.228.775l-1.065.055.055-1.065Zm1.03.422.712.387-.712.8-.712-.8Zm1.024-.422c.2-.055.581-.173.775-.228.035.574.028.553.055,1.065l-1.065-.055Zm.837-1.833.055-1.024a2.57,2.57,0,0,1,.519.781Zm-1.155-1.037c-.38.207-.339.187-.712.387-1.155-.629-.5-.277-.712-.387.242-.27.429-.477.712-.8.346.387.152.166.712.8m-1.508.035-.228.775-.775.228L18,23.705c.373.028.657.041,1.058.062m-1.065,1c-.408-.166-.256-.1-.574-.235a2.57,2.57,0,0,1,.519-.781c.028.477.028.526.055,1.017M19.1,27.46c.3.332.56.622.685.761a2.6,2.6,0,0,1-.92-.187Zm2.614-1.079.574.235a2.57,2.57,0,0,1-.519.781Zm.595.18c-.214-.09-.36-.145-.574-.235.263-.235.29-.263.761-.685a2.6,2.6,0,0,1-.187.92m-.574-1.736c.214-.09.36-.152.574-.235a2.6,2.6,0,0,1,.187.92c-.228-.207-.533-.484-.761-.685M20.66,23.712c.041-.1.145-.346.235-.574a2.57,2.57,0,0,1,.781.519Zm.18-.595c-.09.214-.145.36-.235.574-.235-.263-.263-.29-.685-.761a2.455,2.455,0,0,1,.92.187m-1.736.567-.235-.574a2.6,2.6,0,0,1,.92-.187Zm-.29-.546.235.574-1.024-.055a2.688,2.688,0,0,1,.788-.519M17.4,24.59l.574.235c-.353.318-.394.353-.761.685a2.6,2.6,0,0,1,.187-.92m.574,1.736-.574.235a2.6,2.6,0,0,1-.187-.92c.318.284.387.353.761.685M20.6,27.46l.235.574a2.6,2.6,0,0,1-.92.187c.616-.685.491-.539.685-.761m.29.553-.235-.574c.214.014.7.041,1.024.055a2.688,2.688,0,0,1-.788.519" transform="translate(-5.286 -7.051)" fill="#09090a"/>
    <path id="Path_1990" data-name="Path 1990" d="M27.576,22.722A2.676,2.676,0,1,1,24.9,25.4a2.677,2.677,0,0,1,2.676-2.676" transform="translate(-7.68 -7.008)" fill="#fff"/>
    <path id="Path_1991" data-name="Path 1991" d="M30.272,25.392a2.711,2.711,0,1,0-.8,1.916,2.714,2.714,0,0,0,.8-1.916m-4.53,1.916c.733-.041.913-.048,1.017-.055l-.235.574a2.57,2.57,0,0,1-.781-.519m-.1-.1a2.57,2.57,0,0,1-.519-.781c.318-.131.166-.069.574-.235-.028.491-.028.539-.055,1.017M30.2,25.392c-.3.263-.5.443-.8.712-.083-.152-.263-.491-.387-.712.194-.353.18-.325.387-.712.477.422.5.436.8.712m-1.674-1.058c-.311-.131-.581-.242-.892-.367L28.3,23.6Zm.021.076c.346.83.256.616.408.982-.152.367-.062.152-.408.982l-.982.408-.982-.408c-.346-.83-.256-.616-.408-.982.152-.367.062-.152.408-.982.574-.235.45-.187.982-.408.533.214.408.166.982.408m-.021,2.033-.214.733-.671-.367.885-.367m-2.379-1.12-.367-.671.733-.214c-.131.311-.228.546-.367.885m.367,1.024-.733-.214.367-.671c.138.332.235.567.367.885m.311-2.746.671.367c-.526.214-.346.145-.892.367.277-.906.187-.609.221-.733m0,3.575c-.035-.118,0-.007-.214-.733.546.228.346.145.892.367-.415.221-.263.145-.678.367m2.531-1.044-.733.214c.131-.311.242-.581.367-.892.131.242.221.415.367.678m-.367-.809c-.048-.124-.29-.705-.367-.892l.733.214c-.221.408-.228.422-.367.678m.38-.733-.775-.228-.228-.775,1.065-.055c-.028.519-.028.477-.062,1.058m-3.257.8-.387.712-.8-.712.8-.712Zm.429,1.024c.18.6.055.18.228.775l-1.065.055.055-1.065Zm1.024.429.712.387-.712.8-.712-.8Zm1.03-.429c.2-.055.581-.173.775-.228.035.574.028.553.055,1.065L28.356,27.2Zm.837-1.833.055-1.024a2.57,2.57,0,0,1,.519.781Zm-1.155-1.037c-.38.207-.339.187-.712.387-1.155-.629-.5-.277-.712-.387.242-.27.429-.477.712-.8.346.387.152.166.712.8m-1.508.041-.228.775-.775.228-.055-1.065c.367.021.657.035,1.058.062m-1.065,1c-.408-.166-.256-.1-.574-.235a2.57,2.57,0,0,1,.519-.781c.028.484.028.533.055,1.017m1.113,2.69c.3.332.56.622.685.761a2.6,2.6,0,0,1-.92-.187Zm2.614-1.079L30,26.43a2.57,2.57,0,0,1-.519.781Zm.595.18c-.214-.09-.36-.145-.574-.235.263-.235.29-.263.761-.685a2.6,2.6,0,0,1-.187.92m-.574-1.736c.214-.09.36-.152.574-.235a2.6,2.6,0,0,1,.187.92c-.228-.207-.533-.477-.761-.685M28.37,23.525c.041-.1.145-.346.235-.574a2.57,2.57,0,0,1,.781.519Zm.18-.595c-.09.214-.145.36-.235.574-.235-.263-.263-.29-.685-.761a2.6,2.6,0,0,1,.92.187m-1.736.574-.235-.574a2.6,2.6,0,0,1,.92-.187Zm-.29-.553.235.574-1.024-.055a2.688,2.688,0,0,1,.788-.519M25.106,24.4l.574.235c-.353.318-.394.353-.761.685a2.6,2.6,0,0,1,.187-.92m.574,1.736-.574.235a2.6,2.6,0,0,1-.187-.92c.311.284.387.353.761.685m2.635,1.134.235.574a2.6,2.6,0,0,1-.92.187c.616-.678.484-.539.685-.761m.29.553-.235-.574c.214.014.7.041,1.024.055a2.688,2.688,0,0,1-.788.519" transform="translate(-7.664 -6.995)" fill="#09090a"/>
    <path id="Path_1992" data-name="Path 1992" d="M35.416,22.782a2.676,2.676,0,1,1-2.676,2.676,2.677,2.677,0,0,1,2.676-2.676" transform="translate(-10.098 -7.027)" fill="#fff"/>
    <path id="Path_1993" data-name="Path 1993" d="M38.112,25.452a2.711,2.711,0,1,0-.8,1.916,2.714,2.714,0,0,0,.8-1.916m-4.537,1.916c.733-.041.913-.048,1.017-.055l-.235.574a2.57,2.57,0,0,1-.781-.519m-.1-.09a2.57,2.57,0,0,1-.519-.781c.318-.131.166-.069.574-.235-.028.484-.028.533-.055,1.017m4.557-1.826c-.3.263-.5.443-.8.712-.083-.152-.263-.491-.387-.712.194-.353.18-.325.387-.712.477.422.491.436.8.712m-1.681-1.058c-.311-.131-.581-.242-.892-.367l.671-.367Zm.028.076c.346.83.256.616.408.982-.152.367-.062.152-.408.982l-.982.408-.982-.408c-.346-.83-.256-.616-.408-.982.152-.367.062-.152.408-.982.574-.235.45-.187.982-.408.526.221.408.166.982.408M36.355,26.5l-.214.733-.671-.367c.339-.138.574-.235.885-.367m-2.379-1.12-.367-.671.733-.214c-.131.311-.228.546-.367.885m.367,1.024-.733-.214.367-.671c.138.332.235.567.367.885m.318-2.746.671.367c-.526.214-.346.145-.892.367.27-.9.18-.609.221-.733m0,3.575c-.035-.118,0-.007-.214-.733.546.228.346.145.892.367-.415.228-.27.145-.678.367m2.524-1.044-.733.214c.131-.311.242-.581.367-.892.131.242.228.415.367.678m-.36-.809c-.048-.124-.29-.705-.367-.892l.733.214c-.221.408-.235.422-.367.678m.38-.733-.775-.228-.235-.775,1.065-.055c-.028.519-.028.477-.055,1.058m-3.257.8-.387.712-.8-.712.8-.712Zm.422,1.024c.18.6.055.18.228.775l-1.065.055.055-1.065Zm1.03.429.712.387-.712.8-.712-.8Zm1.024-.429c.2-.055.581-.173.775-.228.035.574.028.553.055,1.065l-1.065-.055Zm.837-1.833.055-1.024a2.57,2.57,0,0,1,.519.781Zm-1.148-1.03c-.38.207-.339.187-.712.387-1.155-.629-.5-.277-.712-.387.242-.27.429-.477.712-.8.346.38.145.159.712.8m-1.515.035-.228.775-.775.228-.055-1.065c.373.021.657.041,1.058.062m-1.065,1c-.408-.166-.256-.1-.574-.235a2.57,2.57,0,0,1,.519-.781c.028.484.028.533.055,1.017m1.113,2.7c.3.332.56.622.685.761a2.6,2.6,0,0,1-.92-.187Zm2.614-1.086.574.235a2.57,2.57,0,0,1-.519.781Zm.595.18c-.214-.09-.36-.145-.574-.235.263-.235.29-.263.761-.685a2.327,2.327,0,0,1-.187.92M37.289,24.7c.214-.09.36-.152.574-.235a2.6,2.6,0,0,1,.187.92c-.235-.207-.533-.477-.761-.685M36.2,23.585c.041-.1.145-.346.235-.574a2.57,2.57,0,0,1,.781.519Zm.18-.595c-.09.214-.145.36-.235.574-.235-.263-.263-.29-.685-.761a2.6,2.6,0,0,1,.92.187m-1.736.574-.235-.574a2.6,2.6,0,0,1,.92-.187Zm-.29-.553.235.574-1.024-.055a2.688,2.688,0,0,1,.788-.519m-1.418,1.452.574.235c-.353.318-.394.353-.761.685a2.6,2.6,0,0,1,.187-.92m.574,1.736-.574.235a2.6,2.6,0,0,1-.187-.92c.318.29.394.353.761.685m2.635,1.141.235.574a2.6,2.6,0,0,1-.92.187l.685-.761m.29.546-.235-.574c.214.014.7.041,1.024.055a2.6,2.6,0,0,1-.788.519" transform="translate(-10.082 -7.014)" fill="#09090a"/>
    <path id="Path_1994" data-name="Path 1994" d="M43.266,22.882a2.676,2.676,0,1,1-2.676,2.676,2.677,2.677,0,0,1,2.676-2.676" transform="translate(-12.519 -7.058)" fill="#fff"/>
    <path id="Path_1995" data-name="Path 1995" d="M45.962,25.552a2.711,2.711,0,1,0-.8,1.916,2.714,2.714,0,0,0,.8-1.916m-4.537,1.916c.733-.041.913-.048,1.017-.055l-.235.574a2.57,2.57,0,0,1-.781-.519m-.1-.09a2.57,2.57,0,0,1-.519-.781c.318-.131.166-.069.574-.235-.021.484-.028.533-.055,1.017m4.557-1.826c-.3.263-.5.443-.8.712-.083-.152-.263-.491-.387-.712.194-.353.18-.325.387-.712.477.422.491.436.8.712m-1.674-1.058c-.311-.131-.581-.242-.892-.367l.671-.367Zm.021.076c.346.83.256.616.408.982-.152.367-.062.152-.408.982l-.982.408-.982-.408c-.346-.83-.256-.616-.408-.982.152-.367.062-.152.408-.982.574-.235.45-.187.982-.408.526.221.408.166.982.408M44.212,26.6,44,27.337l-.671-.367.885-.367m-2.386-1.12-.367-.671.733-.214c-.124.311-.228.546-.367.885m.367,1.024-.733-.214.367-.671c.138.332.235.567.367.885m.318-2.746.671.367c-.526.214-.346.145-.892.367.27-.9.187-.609.221-.733m0,3.575c-.035-.118,0-.007-.214-.733.546.228.346.145.892.367-.415.228-.27.145-.678.367m2.531-1.044-.733.214c.131-.311.242-.581.367-.892.124.242.221.415.367.678m-.367-.809c-.048-.124-.29-.705-.367-.892l.733.214c-.221.408-.228.422-.367.678m.38-.733-.775-.228-.228-.775,1.065-.055c-.035.519-.028.477-.062,1.058m-3.257.8-.387.712-.8-.712.8-.712Zm.422,1.024c.18.6.055.18.228.775l-1.065.055.055-1.065Zm1.03.429.712.387-.712.8-.712-.8Zm1.03-.429c.2-.055.581-.173.775-.228.035.574.028.553.055,1.065l-1.065-.055Zm.837-1.833.055-1.024a2.57,2.57,0,0,1,.519.781Zm-1.155-1.03c-.38.207-.339.187-.712.387-1.155-.629-.5-.277-.712-.387.242-.27.429-.477.712-.8.346.38.145.159.712.8m-1.508.035-.228.775-.775.228L41.4,23.685c.367.021.65.041,1.058.062m-1.072,1c-.408-.166-.256-.1-.574-.235a2.57,2.57,0,0,1,.519-.781c.028.484.035.533.055,1.017m1.12,2.7c.3.332.56.622.685.761a2.6,2.6,0,0,1-.92-.187Zm2.614-1.086.574.235a2.57,2.57,0,0,1-.519.781Zm.595.18c-.214-.09-.36-.145-.574-.235.263-.235.29-.263.761-.685a2.6,2.6,0,0,1-.187.92M45.139,24.8c.214-.09.36-.152.574-.235a2.6,2.6,0,0,1,.187.92c-.228-.207-.533-.477-.761-.685m-1.086-1.113c.041-.1.145-.346.235-.574a2.57,2.57,0,0,1,.781.519Zm.187-.595c-.09.214-.145.36-.235.574-.235-.263-.263-.29-.685-.761a2.63,2.63,0,0,1,.92.187m-1.736.574-.235-.574a2.6,2.6,0,0,1,.92-.187Zm-.3-.553.235.574-1.024-.055a2.688,2.688,0,0,1,.788-.519m-1.418,1.452.574.235c-.353.318-.394.353-.761.685a2.6,2.6,0,0,1,.187-.92m.574,1.736-.574.235a2.6,2.6,0,0,1-.187-.92c.318.29.394.353.761.685M44,27.44l.235.574a2.6,2.6,0,0,1-.92.187L44,27.44m.3.546-.235-.574c.214.014.7.041,1.024.055a2.688,2.688,0,0,1-.788.519" transform="translate(-12.503 -7.045)" fill="#09090a"/>
    <path id="Path_1996" data-name="Path 1996" d="M51.106,22.982a2.676,2.676,0,1,1-2.676,2.676,2.677,2.677,0,0,1,2.676-2.676" transform="translate(-14.937 -7.088)" fill="#fff"/>
    <path id="Path_1997" data-name="Path 1997" d="M53.792,25.652a2.711,2.711,0,1,0-.8,1.916,2.714,2.714,0,0,0,.8-1.916m-4.53,1.916c.733-.041.913-.048,1.017-.055l-.235.574a2.57,2.57,0,0,1-.781-.519m-.1-.09a2.57,2.57,0,0,1-.519-.781c.318-.131.166-.069.574-.235-.028.484-.028.533-.055,1.017m4.551-1.826c-.3.263-.5.443-.8.712-.083-.152-.263-.491-.387-.712.194-.353.18-.325.387-.712.477.422.5.436.8.712m-1.674-1.058c-.311-.131-.581-.242-.892-.367l.671-.367Zm.021.076c.346.83.256.616.408.982-.152.367-.062.152-.408.982l-.982.408-.982-.408c-.346-.83-.256-.616-.408-.982.152-.367.062-.152.408-.982.574-.235.45-.187.982-.408.533.221.408.166.982.408M52.042,26.7l-.214.733-.671-.367.885-.367m-2.379-1.12-.367-.671.733-.214c-.131.311-.228.546-.367.885m.367,1.024-.733-.214.367-.671c.138.332.235.567.367.885m.311-2.746.671.367c-.526.214-.346.145-.892.367.277-.9.187-.609.221-.733m0,3.575c-.035-.118,0-.007-.214-.733.546.228.346.145.892.367-.415.228-.263.145-.678.367m2.531-1.044-.733.214c.131-.311.242-.581.367-.892.131.242.221.415.367.678m-.367-.809c-.048-.124-.29-.705-.367-.892l.733.214c-.221.408-.228.422-.367.678m.38-.733-.775-.228-.228-.775,1.065-.055c-.028.519-.028.477-.062,1.058m-3.257.8-.387.712-.8-.712.8-.712Zm.429,1.024c.18.6.055.18.228.775l-1.065.062.055-1.065Zm1.024.429.712.387-.712.8-.712-.8Zm1.03-.429c.2-.055.581-.173.775-.228.035.574.028.553.055,1.065l-1.065-.055Zm.837-1.833L53,23.82a2.57,2.57,0,0,1,.519.781Zm-1.155-1.03c-.38.207-.339.187-.712.387-1.155-.629-.5-.277-.712-.387.242-.27.429-.477.712-.8.346.38.152.159.712.8m-1.508.035-.228.775-.775.228-.062-1.065c.373.021.664.035,1.065.062m-1.065,1c-.408-.166-.256-.1-.574-.235a2.57,2.57,0,0,1,.519-.781c.028.484.028.533.055,1.017m1.113,2.7c.3.332.56.622.685.761a2.6,2.6,0,0,1-.92-.187Zm2.614-1.086.574.235a2.57,2.57,0,0,1-.519.781Zm.595.18c-.214-.09-.36-.145-.574-.235.263-.235.29-.263.761-.685a2.6,2.6,0,0,1-.187.92M52.969,24.9c.214-.09.36-.152.574-.235a2.6,2.6,0,0,1,.187.92c-.228-.207-.533-.477-.761-.685M51.89,23.785c.041-.1.145-.346.235-.574a2.57,2.57,0,0,1,.781.519Zm.18-.595c-.09.214-.145.36-.235.574-.235-.263-.263-.29-.685-.761a2.6,2.6,0,0,1,.92.187m-1.736.574L50.1,23.19a2.6,2.6,0,0,1,.92-.187Zm-.29-.553.235.574-1.024-.055a2.688,2.688,0,0,1,.788-.519m-1.418,1.452.574.235c-.353.318-.394.353-.761.685a2.6,2.6,0,0,1,.187-.92M49.2,26.4l-.574.235a2.6,2.6,0,0,1-.187-.92c.311.284.387.353.761.685m2.635,1.141.235.574a2.6,2.6,0,0,1-.92.187c.616-.685.484-.546.685-.761m.29.546-.235-.574c.214.014.7.041,1.024.055a2.688,2.688,0,0,1-.788.519" transform="translate(-14.918 -7.076)" fill="#09090a"/>
    <path id="Path_1998" data-name="Path 1998" d="M59.086,23.012a2.676,2.676,0,1,1-2.676,2.676,2.677,2.677,0,0,1,2.676-2.676" transform="translate(-17.398 -7.098)" fill="#fff"/>
    <path id="Path_1999" data-name="Path 1999" d="M61.772,25.672a2.711,2.711,0,1,0-.8,1.916,2.682,2.682,0,0,0,.8-1.916M57.242,27.6c.733-.041.913-.048,1.017-.055l-.235.574a2.57,2.57,0,0,1-.781-.519m-.1-.1a2.57,2.57,0,0,1-.519-.781c.318-.131.166-.069.574-.235-.028.484-.028.533-.055,1.017M61.7,25.672c-.3.263-.5.443-.8.712-.083-.152-.263-.491-.387-.712.194-.353.18-.325.387-.712.47.429.491.443.8.712m-1.681-1.051c-.311-.131-.581-.242-.892-.367l.671-.367Zm.021.076c.346.83.256.616.408.982-.152.367-.062.152-.408.982l-.982.408-.982-.408c-.346-.83-.256-.616-.408-.982.152-.367.062-.152.408-.982.574-.235.45-.187.982-.408.533.214.415.166.982.408m-.021,2.033-.214.733-.671-.367.885-.367M57.643,25.6l-.367-.671.733-.214c-.131.311-.228.553-.367.885m.367,1.03-.733-.214.367-.671c.138.332.235.567.367.885m.318-2.746.671.367c-.526.214-.346.145-.892.367.27-.906.18-.609.221-.733m0,3.575c-.035-.118,0-.007-.214-.733.546.228.346.145.892.367-.415.221-.27.145-.678.367m2.524-1.044-.733.214c.131-.311.242-.581.367-.892.131.235.221.408.367.678m-.367-.816c-.048-.124-.29-.705-.367-.892l.733.214c-.221.415-.228.429-.367.678m.38-.726-.775-.228-.228-.775,1.065-.055c-.028.519-.028.477-.062,1.058m-3.257.8-.387.712-.8-.712.8-.712Zm.429,1.03c.18.6.055.18.228.775l-1.065.055.055-1.065Zm1.03.429.712.387-.712.8-.712-.8Zm1.024-.429c.2-.055.581-.173.775-.228.035.574.028.553.055,1.065l-1.065-.055Zm.837-1.833.055-1.024a2.57,2.57,0,0,1,.519.781Zm-1.155-1.037c-.38.207-.339.187-.712.387-1.155-.629-.5-.277-.712-.387.242-.27.429-.477.712-.8.346.387.152.166.712.8m-1.508.041-.228.775-.775.228-.055-1.065c.373.021.657.035,1.058.062m-1.065,1c-.408-.166-.256-.1-.574-.235a2.57,2.57,0,0,1,.519-.781c.028.484.028.526.055,1.017m1.113,2.69c.3.332.56.622.685.761a2.6,2.6,0,0,1-.92-.187Zm2.614-1.079.574.235a2.57,2.57,0,0,1-.519.781Zm.595.18c-.214-.09-.36-.145-.574-.235.263-.235.29-.263.761-.685a2.6,2.6,0,0,1-.187.92m-.574-1.736c.214-.09.36-.152.574-.235a2.6,2.6,0,0,1,.187.92c-.228-.207-.533-.477-.761-.685M59.87,23.812c.041-.1.145-.346.235-.574a2.57,2.57,0,0,1,.781.519Zm.18-.595c-.09.214-.145.36-.235.574-.235-.263-.263-.29-.685-.761a2.6,2.6,0,0,1,.92.187m-1.736.574-.235-.574a2.6,2.6,0,0,1,.92-.187Zm-.29-.553.235.574-1.024-.055a2.688,2.688,0,0,1,.788-.519M56.606,24.69l.574.235c-.353.318-.394.353-.761.685a2.6,2.6,0,0,1,.187-.92m.574,1.736-.574.235a2.6,2.6,0,0,1-.187-.92c.318.284.387.353.761.685m2.635,1.134.235.574a2.6,2.6,0,0,1-.92.187c.616-.678.491-.539.685-.761m.29.553-.235-.574c.214.014.7.041,1.024.055a2.688,2.688,0,0,1-.788.519" transform="translate(-17.38 -7.082)" fill="#09090a"/>
    <path id="Path_2000" data-name="Path 2000" d="M66.786,22.832a2.676,2.676,0,1,1-2.676,2.676,2.677,2.677,0,0,1,2.676-2.676" transform="translate(-19.773 -7.042)" fill="#fff"/>
    <path id="Path_2001" data-name="Path 2001" d="M69.482,25.492a2.711,2.711,0,1,0-.8,1.916,2.714,2.714,0,0,0,.8-1.916m-4.53,1.916c.733-.041.913-.048,1.017-.055l-.235.574a2.57,2.57,0,0,1-.781-.519m-.1-.09a2.57,2.57,0,0,1-.519-.781c.318-.131.166-.069.574-.235-.028.484-.028.533-.055,1.017m4.551-1.826c-.3.263-.5.443-.8.712-.083-.152-.263-.491-.387-.712.194-.353.18-.325.387-.712.477.422.5.443.8.712m-1.674-1.058c-.311-.131-.581-.242-.892-.367l.671-.367Zm.021.076c.346.83.256.616.408.982-.152.367-.062.152-.408.982l-.982.408-.982-.408c-.346-.83-.256-.616-.408-.982.152-.367.062-.152.408-.982.574-.235.45-.187.982-.408.533.221.408.173.982.408m-.021,2.033-.214.733-.671-.367.885-.367m-2.379-1.12-.367-.671.733-.214c-.131.311-.228.546-.367.885m.367,1.024-.733-.214.367-.671c.138.332.235.567.367.885m.311-2.746.671.367c-.526.214-.346.145-.892.367.277-.9.187-.609.221-.733m0,3.575c-.035-.118,0-.007-.214-.733.546.228.346.145.892.367-.415.228-.263.145-.678.367m2.531-1.044-.733.214c.131-.311.242-.581.367-.892.131.242.221.415.367.678m-.367-.809c-.048-.124-.29-.705-.367-.892l.733.214c-.221.408-.228.422-.367.678m.38-.733-.775-.228-.228-.775,1.065-.055c-.028.519-.028.477-.062,1.058m-3.257.8-.387.712-.8-.712.8-.712Zm.429,1.024c.18.6.055.18.228.775l-1.065.055.055-1.065Zm1.024.429.712.387-.712.8-.712-.8Zm1.03-.429c.2-.055.581-.173.775-.228.035.574.028.553.055,1.065L67.566,27.3Zm.837-1.833.055-1.024a2.57,2.57,0,0,1,.519.781Zm-1.155-1.03c-.38.207-.339.187-.712.387-1.155-.629-.5-.277-.712-.387.242-.27.429-.477.712-.8.346.38.152.159.712.8m-1.508.035-.228.775-.775.228-.055-1.065c.367.021.657.041,1.058.062m-1.065,1c-.408-.166-.256-.1-.574-.235a2.57,2.57,0,0,1,.519-.781c.028.484.028.533.055,1.017m1.113,2.7c.3.332.56.622.685.761a2.6,2.6,0,0,1-.92-.187Zm2.614-1.086.574.235a2.57,2.57,0,0,1-.519.781Zm.595.18c-.214-.09-.36-.145-.574-.235.263-.235.29-.263.761-.685a2.6,2.6,0,0,1-.187.92m-.574-1.736c.214-.09.36-.152.574-.235a2.6,2.6,0,0,1,.187.92c-.228-.207-.533-.477-.761-.685M67.58,23.625c.041-.1.145-.346.235-.574a2.569,2.569,0,0,1,.781.519Zm.18-.595c-.09.214-.145.36-.235.574-.235-.263-.263-.29-.685-.761a2.6,2.6,0,0,1,.92.187m-1.736.574-.235-.574a2.6,2.6,0,0,1,.92-.187Zm-.29-.553.235.574-1.024-.055a2.688,2.688,0,0,1,.788-.519M64.316,24.5l.574.235c-.353.318-.394.353-.761.685a2.6,2.6,0,0,1,.187-.92m.574,1.736-.574.235a2.6,2.6,0,0,1-.187-.92c.311.29.387.353.761.685m2.635,1.141.235.574a2.6,2.6,0,0,1-.92.187c.616-.685.484-.546.685-.761m.29.546-.235-.574c.214.014.7.041,1.024.055a2.688,2.688,0,0,1-.788.519" transform="translate(-19.758 -7.026)" fill="#09090a"/>
    <path id="Path_2002" data-name="Path 2002" d="M74.556,22.832a2.676,2.676,0,1,1-2.676,2.676,2.677,2.677,0,0,1,2.676-2.676" transform="translate(-22.169 -7.042)" fill="#fff"/>
    <path id="Path_2003" data-name="Path 2003" d="M77.252,25.492a2.711,2.711,0,1,0-.8,1.916,2.714,2.714,0,0,0,.8-1.916m-4.537,1.916c.733-.041.913-.048,1.017-.055l-.235.574a2.749,2.749,0,0,1-.781-.519m-.09-.09a2.57,2.57,0,0,1-.519-.781c.318-.131.166-.069.574-.235-.028.484-.028.533-.055,1.017m4.551-1.826c-.3.263-.5.443-.8.712-.083-.152-.263-.491-.387-.712.194-.353.18-.325.387-.712.477.422.5.443.8.712M75.5,24.434c-.311-.131-.581-.242-.892-.367l.671-.367Zm.021.076c.346.83.256.616.408.982-.152.367-.062.152-.408.982l-.982.408-.982-.408c-.346-.83-.256-.616-.408-.982.152-.367.062-.152.408-.982.574-.235.45-.187.982-.408.533.221.408.173.982.408M75.5,26.544l-.214.733-.671-.367.885-.367m-2.379-1.12-.367-.671.733-.214c-.131.311-.228.546-.367.885m.367,1.024-.733-.214.367-.671c.138.332.235.567.367.885M73.8,23.7l.671.367c-.526.214-.346.145-.892.367.277-.9.187-.609.221-.733m0,3.575c-.035-.118,0-.007-.214-.733.546.228.346.145.892.367-.415.228-.263.145-.678.367m2.531-1.044-.733.214c.131-.311.242-.581.367-.892.131.242.221.415.367.678m-.367-.809c-.048-.124-.29-.705-.367-.892l.733.214c-.221.408-.228.422-.367.678m.38-.733-.775-.228-.228-.775,1.065-.055c-.028.519-.028.477-.062,1.058m-3.257.8L72.7,26.2l-.8-.712.8-.712Zm.429,1.024c.18.6.055.18.228.775l-1.065.055.055-1.065Zm1.024.429.712.387-.712.8-.712-.8Zm1.03-.429c.2-.055.581-.173.775-.228.035.574.028.553.055,1.065L75.336,27.3Zm.837-1.833.055-1.024a2.57,2.57,0,0,1,.519.781Zm-1.155-1.03c-.38.207-.339.187-.712.387-1.155-.629-.5-.277-.712-.387.242-.27.429-.477.712-.8.346.38.152.159.712.8m-1.508.035-.228.775-.775.228-.055-1.065c.367.021.657.041,1.058.062m-1.065,1c-.408-.166-.256-.1-.574-.235a2.57,2.57,0,0,1,.519-.781c.028.484.028.533.055,1.017m1.113,2.7c.3.332.56.622.685.761a2.6,2.6,0,0,1-.92-.187Zm2.614-1.086.574.235a2.57,2.57,0,0,1-.519.781Zm.595.18c-.214-.09-.36-.145-.574-.235.263-.235.29-.263.761-.685a2.6,2.6,0,0,1-.187.92m-.574-1.736c.214-.09.36-.152.574-.235a2.6,2.6,0,0,1,.187.92c-.228-.207-.533-.477-.761-.685M75.35,23.625c.042-.1.145-.346.235-.574a2.57,2.57,0,0,1,.781.519Zm.18-.595c-.09.214-.145.36-.235.574-.235-.263-.263-.29-.685-.761a2.6,2.6,0,0,1,.92.187m-1.736.574-.235-.574a2.6,2.6,0,0,1,.92-.187Zm-.29-.553.235.574-1.024-.055a2.688,2.688,0,0,1,.788-.519M72.086,24.5l.574.235c-.353.318-.394.353-.761.685a2.6,2.6,0,0,1,.187-.92m.574,1.736-.574.235a2.6,2.6,0,0,1-.187-.92c.311.29.387.353.761.685m2.635,1.141.235.574a2.6,2.6,0,0,1-.92.187c.616-.685.484-.546.685-.761m.29.546-.235-.574c.214.014.7.041,1.024.055a2.688,2.688,0,0,1-.788.519" transform="translate(-22.154 -7.026)" fill="#09090a"/>
    <path id="Path_2004" data-name="Path 2004" d="M82.266,22.642a2.676,2.676,0,1,1-2.676,2.676,2.677,2.677,0,0,1,2.676-2.676" transform="translate(-24.547 -6.984)" fill="#fff"/>
    <path id="Path_2005" data-name="Path 2005" d="M84.962,25.3a2.711,2.711,0,1,0-.8,1.916,2.714,2.714,0,0,0,.8-1.916m-4.537,1.923c.733-.041.913-.048,1.017-.055l-.235.574a3.075,3.075,0,0,1-.781-.519m-.09-.1a2.57,2.57,0,0,1-.519-.781c.318-.131.166-.069.574-.235-.028.484-.035.533-.055,1.017M84.886,25.3c-.3.263-.5.443-.8.712-.083-.152-.263-.491-.387-.712.194-.353.18-.325.387-.712.477.429.491.443.8.712m-1.674-1.058c-.311-.131-.581-.242-.892-.367l.671-.367Zm.021.076c.346.83.256.616.408.982-.152.367-.062.152-.408.982l-.982.408-.982-.408c-.346-.83-.256-.616-.408-.982.152-.367.062-.152.408-.982.574-.235.45-.187.982-.408.526.221.408.173.982.408m-.021,2.04L83,27.094l-.671-.367.885-.367m-2.386-1.127-.367-.671.733-.214c-.124.311-.221.546-.367.885m.373,1.03-.733-.214.367-.671c.131.332.235.567.367.885m.311-2.746.671.367c-.526.214-.346.145-.892.367.27-.906.187-.609.221-.733m0,3.575c-.035-.118,0-.007-.214-.733.546.228.346.145.892.367-.415.221-.263.138-.678.367m2.531-1.051-.733.214c.131-.311.242-.581.367-.892.131.242.221.415.367.678m-.367-.809c-.048-.124-.29-.705-.367-.892l.733.214c-.221.408-.228.429-.367.678m.38-.726-.775-.228-.228-.775,1.065-.055c-.035.519-.028.477-.062,1.058m-3.257.8-.387.712-.8-.712.8-.712Zm.429,1.03c.18.6.055.18.228.775l-1.065.055.055-1.065Zm1.024.422.712.387-.712.8-.712-.8Zm1.03-.422c.2-.055.581-.173.775-.228.035.574.028.553.055,1.065l-1.065-.055Zm.837-1.833.055-1.024a2.57,2.57,0,0,1,.519.781Zm-1.155-1.037c-.38.207-.339.187-.712.387-1.155-.629-.5-.277-.712-.387.242-.27.429-.477.712-.8.346.387.145.166.712.8m-1.508.035-.228.775-.775.228L80.4,23.435c.367.028.65.041,1.058.062m-1.065,1c-.408-.166-.256-.1-.574-.235a2.57,2.57,0,0,1,.519-.781c.021.477.028.526.055,1.017M81.5,27.19c.3.332.56.622.685.761a2.6,2.6,0,0,1-.92-.187ZM84.118,26.1l.574.235a2.57,2.57,0,0,1-.519.781Zm.595.187c-.214-.09-.36-.145-.574-.235.263-.235.29-.263.761-.685a2.63,2.63,0,0,1-.187.92m-.574-1.736c.214-.09.36-.152.574-.235a2.6,2.6,0,0,1,.187.92c-.228-.214-.533-.484-.761-.685M83.06,23.442c.041-.1.145-.346.235-.574a2.57,2.57,0,0,1,.781.519Zm.18-.6c-.09.214-.145.36-.235.574-.235-.263-.263-.29-.685-.761a2.6,2.6,0,0,1,.92.187m-1.736.574-.235-.574a2.6,2.6,0,0,1,.92-.187Zm-.29-.546.235.574-1.024-.055a2.688,2.688,0,0,1,.788-.519M79.8,24.314l.574.235c-.353.318-.394.353-.761.685a2.483,2.483,0,0,1,.187-.92m.567,1.736-.574.235a2.6,2.6,0,0,1-.187-.92c.318.29.394.36.761.685M83,27.19l.235.574a2.6,2.6,0,0,1-.92.187c.616-.685.484-.539.685-.761m.29.546-.235-.574c.214.014.7.041,1.024.055a2.688,2.688,0,0,1-.788.519" transform="translate(-24.532 -6.968)" fill="#09090a"/>
    <path id="Path_2006" data-name="Path 2006" d="M90.106,22.7a2.676,2.676,0,1,1-2.676,2.676A2.677,2.677,0,0,1,90.106,22.7" transform="translate(-26.965 -7.002)" fill="#fff"/>
    <path id="Path_2007" data-name="Path 2007" d="M92.792,25.362a2.711,2.711,0,1,0-.8,1.916,2.714,2.714,0,0,0,.8-1.916m-4.53,1.923c.733-.041.913-.048,1.017-.055l-.235.574a2.7,2.7,0,0,1-.781-.519m-.1-.1a2.57,2.57,0,0,1-.519-.781c.318-.131.166-.069.574-.235-.028.484-.028.533-.055,1.017m4.557-1.826c-.3.263-.5.443-.8.712-.083-.152-.263-.491-.387-.712.194-.353.18-.325.387-.712.47.429.491.443.8.712m-1.681-1.051c-.311-.131-.581-.242-.892-.367l.671-.367Zm.028.069c.346.83.256.616.408.982-.152.367-.062.152-.408.982l-.982.408-.982-.408c-.346-.83-.256-.616-.408-.982.152-.367.062-.152.408-.982.574-.235.45-.187.982-.408.526.221.408.173.982.408m-.028,2.04-.214.733-.671-.367.885-.367m-2.379-1.127-.367-.671.733-.214c-.131.311-.228.546-.367.885m.367,1.03-.733-.214.367-.671c.138.332.235.567.367.885m.318-2.746.671.367c-.526.214-.346.145-.892.367.27-.906.18-.609.221-.733m0,3.575c-.035-.118,0-.007-.214-.733.546.228.346.145.892.367-.415.221-.27.138-.678.367M91.872,26.1l-.733.214c.131-.311.242-.581.367-.892.131.242.228.415.367.678m-.36-.809c-.048-.124-.29-.705-.367-.892l.733.214c-.221.408-.235.429-.367.678m.38-.726-.775-.228-.228-.775,1.065-.055c-.035.519-.035.477-.062,1.058m-3.264.8-.387.712-.8-.712.8-.712Zm.429,1.03c.18.6.055.18.228.775l-1.065.062.055-1.065Zm1.03.422.712.387-.712.8-.712-.8Zm1.024-.422c.2-.055.581-.173.775-.228.035.574.028.553.055,1.065l-1.065-.055Zm.837-1.833L92,23.537a2.57,2.57,0,0,1,.519.781ZM90.8,23.523c-.38.207-.339.187-.712.387-1.155-.629-.5-.277-.712-.387.242-.27.429-.477.712-.8.339.387.145.166.712.8m-1.515.035-.228.775-.775.228L88.221,23.5l1.065.055m-1.065,1c-.408-.166-.256-.1-.574-.235a2.57,2.57,0,0,1,.519-.781c.028.477.028.526.055,1.017m1.113,2.69c.3.332.56.622.685.761a2.6,2.6,0,0,1-.92-.187Zm2.614-1.079.574.235a2.57,2.57,0,0,1-.519.781Zm.595.18c-.214-.09-.36-.145-.574-.235.263-.235.29-.263.761-.685a2.455,2.455,0,0,1-.187.92m-.567-1.736c.214-.09.36-.152.574-.235a2.6,2.6,0,0,1,.187.92c-.235-.207-.539-.484-.761-.685M90.89,23.5c.041-.1.145-.346.235-.574a2.57,2.57,0,0,1,.781.519Zm.18-.595c-.09.214-.145.36-.235.574-.235-.263-.263-.29-.685-.761a2.455,2.455,0,0,1,.92.187m-1.736.567L89.1,22.9a2.6,2.6,0,0,1,.92-.187Zm-.29-.546.235.574-1.024-.055a2.688,2.688,0,0,1,.788-.519M87.626,24.38l.574.235c-.353.318-.394.353-.761.685a2.568,2.568,0,0,1,.187-.92m.574,1.736-.574.235a2.6,2.6,0,0,1-.187-.92c.318.284.387.353.761.685m2.635,1.134.235.574a2.6,2.6,0,0,1-.92.187c.616-.685.491-.539.685-.761m.29.553-.235-.574c.214.014.7.041,1.024.055a2.833,2.833,0,0,1-.788.519" transform="translate(-26.947 -6.986)" fill="#09090a"/>
    <path id="Path_2008" data-name="Path 2008" d="M66.143,23.013H1.011a.761.761,0,1,1,0-1.521H66.143a.761.761,0,0,1,0,1.521" transform="translate(-0.077 -6.629)" fill="#fff"/>
    <path id="Path_2009" data-name="Path 2009" d="M66.143,23.013H1.011a.761.761,0,1,1,0-1.521H66.143a.761.761,0,0,1,0,1.521Z" transform="translate(-0.077 -6.629)" fill="none" stroke="#000" stroke-miterlimit="10" stroke-width="0.5"/>
  </g>
</svg>