<svg xmlns="http://www.w3.org/2000/svg" xmlns:xlink="http://www.w3.org/1999/xlink" width="67" height="13.842" viewBox="0 0 67 13.842">
  <defs>
    <clipPath id="clip-path">
      <rect id="Rectangle_379" data-name="Rectangle 379" width="67" height="13.842" fill="none"/>
    </clipPath>
  </defs>
  <g id="Group_270" data-name="Group 270" clip-path="url(#clip-path)">
    <path id="Path_2095" data-name="Path 2095" d="M64.459.25S52.47.7,48.607,1.06c-9.639.89-15.028,4.947-15.028,4.947S28.2,1.944,18.558,1.06C14.7.7,2.707.25,2.707.25A2.458,2.458,0,0,0,.25,2.707v8.374a2.458,2.458,0,0,0,2.457,2.457s15.182.5,19.151,0c3.722-.469,11.6-4.485,11.6-4.485s8.126,4.016,11.848,4.485c3.963.5,19.151,0,19.151,0a2.458,2.458,0,0,0,2.457-2.457V2.707A2.463,2.463,0,0,0,64.459.25Z" transform="translate(-0.083 -0.083)" fill="none" stroke="#000" stroke-miterlimit="10" stroke-width="0.5"/>
    <path id="Path_2096" data-name="Path 2096" d="M10.9,9.175A3.209,3.209,0,0,0,4.731,7.943a3.251,3.251,0,0,0,0,2.457,3.209,3.209,0,0,0,5.235,1.038A3.173,3.173,0,0,0,10.9,9.175M5.534,11.444c.87-.047,1.084-.06,1.2-.067l-.281.676a3,3,0,0,1-.924-.609m-.114-.107a3.067,3.067,0,0,1-.609-.93c.375-.154.194-.08.676-.281-.033.582-.033.636-.067,1.212m5.4-2.162c-.348.315-.589.529-.937.843-.094-.174-.315-.576-.455-.843.228-.422.208-.388.455-.843.556.5.576.522.937.843M8.828,7.923c-.368-.154-.683-.281-1.051-.435l.8-.428Zm.027.087c.408.984.3.73.482,1.165-.181.428-.074.174-.482,1.165-.984.408-.73.3-1.165.482-.428-.181-.174-.074-1.165-.482-.408-.984-.3-.73-.482-1.165.181-.428.074-.174.482-1.165.683-.281.542-.221,1.171-.482.623.261.482.2,1.158.482m-.027,2.417-.254.87-.8-.435c.395-.167.676-.281,1.051-.435M6.01,9.094l-.435-.8.87-.254c-.154.368-.268.649-.435,1.051m.435,1.212-.87-.254.435-.8c.167.395.281.676.435,1.051M6.82,7.059l.8.435c-.623.248-.408.161-1.058.428.321-1.064.214-.716.261-.864m0,4.231c-.04-.134,0-.007-.254-.87.643.268.408.167,1.051.435-.489.268-.308.174-.8.435m2.992-1.238-.87.254c.154-.368.281-.683.435-1.051.154.281.268.482.435.8m-.435-.957c-.06-.147-.348-.83-.435-1.051.221.067.649.194.87.254-.261.475-.268.5-.435.8m.455-.864-.917-.274L8.64,7.039,9.9,6.972c-.033.616-.033.569-.067,1.258m-3.856.944-.455.843-.937-.843.937-.843Zm.5,1.218c.208.71.06.214.274.917l-1.258.067.067-1.258Zm1.218.5.843.455-.843.937-.843-.937Zm1.212-.5c.234-.067.683-.2.917-.274.04.676.033.656.067,1.258L8.634,11.31ZM9.9,8.224l.067-1.212a3.067,3.067,0,0,1,.609.93ZM8.54,6.992c-.448.241-.4.221-.843.455l-.843-.455c.288-.315.5-.562.843-.937.408.455.174.194.843.937m-1.787.047-.274.917-.917.274L5.494,6.972c.442.02.777.04,1.258.067M5.487,8.224c-.482-.2-.3-.127-.676-.281a3.067,3.067,0,0,1,.609-.93c.033.576.033.629.067,1.212M6.806,11.41c.355.395.663.736.81.9a3.2,3.2,0,0,1-1.091-.221ZM9.9,10.125l.676.281a3.289,3.289,0,0,1-.609.93Zm.71.214c-.254-.107-.422-.174-.676-.281.308-.274.348-.308.9-.81a3.306,3.306,0,0,1-.228,1.091M9.926,8.284c.254-.107.428-.174.676-.281a3.022,3.022,0,0,1,.221,1.091c-.268-.248-.623-.569-.9-.81M8.647,6.966c.047-.114.167-.408.281-.676a3.289,3.289,0,0,1,.93.609Zm.214-.7c-.107.254-.174.422-.281.676-.274-.308-.308-.348-.81-.9a3.178,3.178,0,0,1,1.091.228m-2.055.676-.281-.676a3.211,3.211,0,0,1,1.091-.228ZM6.458,6.29l.281.676c-.3-.013-.9-.047-1.2-.067a3.256,3.256,0,0,1,.924-.609M4.785,8l.676.281c-.415.375-.469.422-.9.81A3.21,3.21,0,0,1,4.785,8m.676,2.055-.676.281a3.022,3.022,0,0,1-.221-1.091c.368.341.462.422.9.81M8.58,11.41l.281.676a3.022,3.022,0,0,1-1.091.221c.73-.81.582-.643.81-.9m.348.649-.281-.676c.254.013.823.047,1.212.067a3.289,3.289,0,0,1-.93.609" transform="translate(-1.484 -1.972)" fill="#09090a"/>
    <path id="Path_2097" data-name="Path 2097" d="M24.646,9.295a3.2,3.2,0,0,0-6.165-1.232,3.251,3.251,0,0,0,0,2.457,3.2,3.2,0,0,0,6.165-1.225m-5.369,2.276c.87-.047,1.084-.06,1.2-.067l-.281.676a3.12,3.12,0,0,1-.924-.609m-.114-.114a3.067,3.067,0,0,1-.609-.93c.375-.154.194-.08.676-.281-.027.582-.033.643-.067,1.212m5.4-2.162c-.348.315-.589.529-.937.843-.094-.174-.315-.576-.455-.843.228-.422.208-.388.455-.843.556.509.576.522.937.843M22.571,8.05c-.368-.154-.683-.281-1.051-.435l.8-.428Zm.033.087c.408.984.3.73.482,1.165-.181.428-.074.174-.482,1.165-.984.408-.73.3-1.165.482-.428-.181-.174-.074-1.165-.482-.408-.984-.3-.73-.482-1.165.181-.428.074-.174.482-1.165.676-.281.536-.221,1.165-.482.623.261.482.2,1.165.482m-.033,2.41-.254.87-.8-.435c.4-.167.683-.281,1.051-.435M19.753,9.214l-.435-.8.87-.254c-.154.375-.268.649-.435,1.051m.435,1.218-.87-.254.435-.8c.167.395.281.669.435,1.051m.375-3.253.8.435c-.623.254-.408.167-1.051.435.315-1.071.214-.723.254-.87m0,4.237c-.04-.134,0-.007-.254-.87.643.268.408.167,1.051.435-.482.261-.308.167-.8.435m2.992-1.245-.87.254c.154-.368.281-.683.435-1.051.154.281.268.489.435.8m-.428-.957c-.06-.147-.348-.83-.435-1.051.221.067.649.194.87.254-.261.482-.274.5-.435.8m.448-.864-.917-.274-.274-.917,1.258-.067c-.033.623-.027.569-.067,1.258m-3.856.944-.455.843-.937-.843.937-.843Zm.5,1.218c.208.71.06.214.274.917l-1.258.067.067-1.258Zm1.218.5.843.455-.843.937L20.6,11.47Zm1.218-.5c.234-.067.683-.2.917-.274.04.676.033.656.067,1.258l-1.258-.067Zm.991-2.169.067-1.212a3.067,3.067,0,0,1,.609.93ZM22.283,7.119c-.448.241-.4.221-.843.455-1.366-.743-.6-.328-.843-.455.288-.315.5-.562.843-.937.408.448.174.187.843.937m-1.787.04-.274.924-.917.274L19.237,7.1c.442.02.777.033,1.258.06M19.231,8.344c-.482-.2-.3-.127-.676-.281a3.289,3.289,0,0,1,.609-.93c.033.576.04.636.067,1.212m1.319,3.186c.355.395.663.736.81.9a3.2,3.2,0,0,1-1.091-.221Zm3.1-1.279.676.281a3.289,3.289,0,0,1-.609.93Zm.7.214c-.254-.107-.422-.174-.676-.281.308-.274.348-.308.9-.81a3.211,3.211,0,0,1-.228,1.091m-.676-2.055c.254-.107.428-.174.676-.281a3.022,3.022,0,0,1,.221,1.091c-.268-.248-.629-.569-.9-.81M22.39,7.092c.047-.114.167-.408.281-.676a3.289,3.289,0,0,1,.93.609Zm.221-.71c-.107.254-.174.422-.281.676-.274-.308-.308-.348-.81-.9a3.378,3.378,0,0,1,1.091.228m-2.062.683-.281-.676a3.022,3.022,0,0,1,1.091-.221Zm-.341-.656.281.676c-.3-.013-.9-.047-1.2-.067a3.079,3.079,0,0,1,.924-.609m-1.68,1.72.676.281c-.415.375-.469.422-.9.81a3.178,3.178,0,0,1,.228-1.091m.676,2.055-.676.281a3.022,3.022,0,0,1-.221-1.091c.375.341.462.415.9.81M22.33,11.53l.281.676a3.022,3.022,0,0,1-1.091.221c.723-.8.576-.636.81-.9m.341.649L22.39,11.5c.254.013.823.047,1.212.067a3.067,3.067,0,0,1-.93.609" transform="translate(-6.03 -2.011)" fill="#09090a"/>
    <path id="Path_2098" data-name="Path 2098" d="M38.383,9.425a3.209,3.209,0,0,0-6.172-1.232,3.251,3.251,0,0,0,0,2.457,3.208,3.208,0,0,0,6.172-1.225m-5.369,2.269c.87-.047,1.084-.06,1.2-.067l-.281.676a2.918,2.918,0,0,1-.924-.609m-.114-.107a3.067,3.067,0,0,1-.609-.93c.375-.154.194-.08.676-.281-.033.582-.033.636-.067,1.212m5.389-2.162c-.348.315-.589.529-.937.843-.094-.174-.315-.576-.455-.843.228-.422.208-.388.455-.843.562.5.582.522.937.843M36.308,8.173c-.368-.154-.683-.281-1.051-.435l.8-.428Zm.027.087c.408.984.3.73.482,1.165-.181.428-.074.174-.482,1.165-.984.408-.73.3-1.165.482C34.741,10.891,35,11,34,10.589c-.408-.984-.3-.73-.482-1.165C33.7,9,33.6,9.251,34,8.26c.676-.281.536-.221,1.165-.482.629.261.489.2,1.165.482m-.027,2.41-.254.87-.8-.435c.395-.161.676-.274,1.051-.435M33.49,9.344l-.435-.8.87-.254c-.154.368-.274.649-.435,1.051m.435,1.212-.87-.254.435-.8c.161.395.281.676.435,1.051M34.3,7.309l.8.435c-.623.254-.408.167-1.051.435.308-1.071.208-.723.254-.87m0,4.231c-.04-.134,0-.007-.254-.87.643.268.408.167,1.051.435-.489.268-.315.174-.8.435M37.292,10.3l-.87.254c.154-.368.281-.683.435-1.051.154.281.261.482.435.8m-.435-.957c-.06-.147-.348-.83-.435-1.051.221.067.649.194.87.254-.261.475-.274.5-.435.8m.455-.864-.917-.274-.274-.917,1.258-.067c-.033.616-.033.569-.067,1.258m-3.862.944-.455.843-.937-.843.937-.843Zm.509,1.218c.208.71.06.214.274.917l-1.258.067.067-1.258Zm1.218.5.843.455-.843.937-.843-.937Zm1.212-.5c.234-.067.683-.2.917-.274.04.676.04.656.074,1.258L36.12,11.56Zm.991-2.169.067-1.212a3.067,3.067,0,0,1,.609.93ZM36.013,7.242c-.448.241-.4.221-.843.455-1.366-.743-.6-.328-.843-.455.288-.315.5-.562.843-.937.408.455.174.194.843.937m-1.787.047-.274.917-.917.274-.067-1.258c.448.02.783.04,1.258.067M32.967,8.474c-.482-.2-.3-.127-.676-.281a3.289,3.289,0,0,1,.609-.93c.033.576.033.629.067,1.212m1.319,3.186c.355.395.663.736.81.9A3.2,3.2,0,0,1,34,12.343Zm3.093-1.285.676.281a3.289,3.289,0,0,1-.609.93Zm.7.214c-.254-.107-.422-.174-.676-.281.308-.274.348-.308.9-.81a3.029,3.029,0,0,1-.228,1.091m-.676-2.055c.254-.107.428-.174.676-.281A3.022,3.022,0,0,1,38.3,9.344c-.268-.248-.629-.569-.9-.81M36.127,7.216c.047-.114.167-.408.281-.676a3.289,3.289,0,0,1,.93.609Zm.214-.7c-.107.254-.174.422-.281.676-.274-.308-.308-.348-.81-.9a3.178,3.178,0,0,1,1.091.228m-2.055.676L34,6.513A3.022,3.022,0,0,1,35.1,6.292Zm-.348-.649.281.676c-.3-.013-.9-.047-1.2-.067a3.165,3.165,0,0,1,.924-.609M32.265,8.253l.676.281c-.415.375-.469.422-.9.81a3.21,3.21,0,0,1,.228-1.091m.676,2.055-.676.281A3.022,3.022,0,0,1,32.044,9.5c.368.341.462.422.9.81M36.06,11.66l.281.676a3.022,3.022,0,0,1-1.091.221c.73-.81.576-.643.81-.9m.348.649-.281-.676c.254.013.823.047,1.212.067a3.289,3.289,0,0,1-.93.609" transform="translate(-10.569 -2.054)" fill="#09090a"/>
    <path id="Path_2099" data-name="Path 2099" d="M64.546,9.425a3.2,3.2,0,0,0-6.165-1.232,3.251,3.251,0,0,0,0,2.457,3.2,3.2,0,0,0,6.165-1.225m-5.362,2.269c.87-.047,1.084-.06,1.2-.067l-.281.676a2.918,2.918,0,0,1-.924-.609m-.114-.107a3.067,3.067,0,0,1-.609-.93c.375-.154.194-.08.676-.281-.033.582-.04.636-.067,1.212m5.389-2.162c-.348.315-.589.529-.937.843-.094-.174-.315-.576-.455-.843.228-.422.208-.388.455-.843.562.5.582.522.937.843M62.478,8.173c-.368-.154-.683-.281-1.051-.435l.8-.428Zm.027.087c.408.984.3.73.482,1.165-.181.428-.074.174-.482,1.165-.984.408-.73.3-1.165.482-.428-.181-.174-.074-1.165-.482-.408-.984-.3-.73-.482-1.165.181-.428.074-.174.482-1.165.676-.281.536-.221,1.165-.482.629.261.482.2,1.165.482m-.027,2.41-.254.87-.8-.435c.395-.161.676-.274,1.051-.435M59.66,9.344l-.435-.8.87-.254c-.154.368-.274.649-.435,1.051m.435,1.212-.87-.254.435-.8c.161.395.274.676.435,1.051m.368-3.247.8.435c-.623.254-.408.167-1.051.435.315-1.071.214-.723.254-.87m0,4.231c-.04-.134,0-.007-.254-.87.643.268.408.167,1.051.435-.482.268-.308.174-.8.435m3-1.238-.87.254c.154-.368.281-.683.435-1.051.154.281.261.482.435.8m-.435-.957c-.06-.147-.348-.83-.435-1.051.221.067.649.194.87.254-.261.475-.274.5-.435.8m.448-.864-.917-.274-.274-.917,1.258-.067c-.027.616-.027.569-.067,1.258m-3.856.944-.455.843-.937-.843.937-.843Zm.509,1.218c.208.71.06.214.274.917l-1.258.067.067-1.258Zm1.212.5.843.455-.843.937L60.5,11.6Zm1.218-.5c.234-.067.683-.2.917-.274.04.676.033.656.067,1.258l-1.258-.067Zm.991-2.169.067-1.212a3.067,3.067,0,0,1,.609.93ZM62.183,7.242c-.448.241-.4.221-.843.455-1.366-.743-.6-.328-.843-.455.288-.315.5-.562.843-.937.408.455.174.194.843.937M60.4,7.289l-.274.917-.917.274-.067-1.258c.442.02.783.04,1.258.067M59.137,8.474c-.482-.2-.3-.127-.676-.281a3.289,3.289,0,0,1,.609-.93c.027.576.033.629.067,1.212m1.319,3.186c.355.395.663.736.81.9a3.2,3.2,0,0,1-1.091-.221Zm3.093-1.285.676.281a3.288,3.288,0,0,1-.609.93Zm.7.214c-.254-.107-.422-.174-.676-.281.308-.274.348-.308.9-.81a3.178,3.178,0,0,1-.228,1.091m-.676-2.055c.254-.107.428-.174.676-.281a3.022,3.022,0,0,1,.221,1.091c-.268-.248-.629-.569-.9-.81M62.3,7.216c.047-.114.167-.408.281-.676a3.289,3.289,0,0,1,.93.609Zm.214-.7c-.107.254-.174.422-.281.676-.274-.308-.308-.348-.81-.9a3.211,3.211,0,0,1,1.091.228m-2.055.676-.281-.676a3.022,3.022,0,0,1,1.091-.221Zm-.348-.649.281.676c-.3-.013-.9-.047-1.2-.067a3.165,3.165,0,0,1,.924-.609m-1.68,1.714.676.281c-.415.375-.469.422-.9.81a3.378,3.378,0,0,1,.228-1.091m.683,2.055-.676.281A3.022,3.022,0,0,1,58.214,9.5c.368.341.455.422.9.81M62.23,11.66l.281.676a3.022,3.022,0,0,1-1.091.221c.73-.81.576-.643.81-.9m.348.649-.281-.676c.254.013.823.047,1.212.067a3.289,3.289,0,0,1-.93.609" transform="translate(-19.221 -2.054)" fill="#09090a"/>
    <path id="Path_2100" data-name="Path 2100" d="M78.3,9.545a3.2,3.2,0,0,0-6.165-1.232,3.251,3.251,0,0,0,0,2.457A3.2,3.2,0,0,0,78.3,9.545m-5.369,2.276c.87-.047,1.084-.06,1.2-.067l-.281.676a3.12,3.12,0,0,1-.924-.609m-.114-.114a3.067,3.067,0,0,1-.609-.93c.375-.154.194-.08.676-.281-.033.582-.033.643-.067,1.212m5.4-2.162c-.348.315-.589.529-.937.843-.094-.174-.315-.576-.455-.843.228-.422.208-.388.455-.843.556.509.576.522.937.843M76.221,8.3c-.368-.154-.683-.281-1.051-.435l.8-.428Zm.027.087c.408.984.3.73.482,1.165-.181.428-.074.174-.482,1.165-.984.408-.73.3-1.165.482-.428-.181-.174-.074-1.165-.482-.408-.984-.3-.73-.482-1.165.181-.428.074-.174.482-1.165.676-.281.536-.221,1.165-.482.629.254.489.2,1.165.482m-.027,2.41-.254.87-.8-.435c.395-.167.676-.281,1.051-.435M73.4,9.464l-.435-.8.87-.254c-.154.375-.268.649-.435,1.051m.435,1.218-.87-.254.435-.8c.167.395.281.669.435,1.051m.375-3.253.8.435c-.623.254-.408.167-1.058.435.321-1.071.214-.723.261-.87m0,4.237c-.04-.134,0-.007-.254-.87.643.268.408.167,1.051.435-.489.261-.308.167-.8.435m2.992-1.245-.87.254c.154-.368.281-.683.435-1.051.154.281.268.489.435.8m-.435-.957c-.06-.147-.348-.83-.435-1.051.221.067.649.194.87.254-.261.482-.268.5-.435.8m.455-.864-.917-.274-.274-.917,1.258-.067c-.033.623-.033.569-.067,1.258m-3.856.944-.455.843-.937-.843.937-.843Zm.5,1.218c.208.71.06.214.274.917l-1.258.067.067-1.258Zm1.218.5.843.455-.843.937-.843-.937Zm1.218-.5c.234-.067.683-.2.917-.274.04.676.033.656.067,1.258l-1.258-.067Zm.984-2.169.067-1.212a3.067,3.067,0,0,1,.609.93ZM75.933,7.369c-.448.241-.4.221-.843.455-1.366-.743-.6-.328-.843-.455.288-.315.5-.562.843-.937.408.448.174.187.843.937m-1.787.04-.274.917-.917.274-.067-1.258c.442.02.777.04,1.258.067M72.881,8.594c-.482-.2-.3-.127-.676-.281a3.288,3.288,0,0,1,.609-.93c.033.576.033.636.067,1.212M74.2,11.78c.355.395.663.736.81.9a3.2,3.2,0,0,1-1.091-.221ZM77.292,10.5l.676.281a3.289,3.289,0,0,1-.609.93Zm.71.214c-.254-.107-.422-.174-.676-.281.308-.274.348-.308.9-.81A3.211,3.211,0,0,1,78,10.716m-.683-2.055c.254-.107.428-.174.676-.281a3.022,3.022,0,0,1,.221,1.091c-.268-.248-.623-.569-.9-.81M76.04,7.342c.047-.114.167-.408.281-.676a3.289,3.289,0,0,1,.93.609Zm.214-.71c-.107.254-.174.422-.281.676-.274-.308-.308-.348-.81-.9a3.342,3.342,0,0,1,1.091.228M74.2,7.316l-.281-.676a3.022,3.022,0,0,1,1.091-.221Zm-.341-.656.281.676c-.3-.013-.9-.047-1.2-.067a3.079,3.079,0,0,1,.924-.609m-1.68,1.72.676.281c-.415.375-.469.422-.9.81a3.177,3.177,0,0,1,.228-1.091m.676,2.055-.676.281a3.022,3.022,0,0,1-.221-1.091c.375.341.462.415.9.81m3.119,1.345.281.676a3.022,3.022,0,0,1-1.091.221c.73-.8.582-.636.81-.9m.348.649-.281-.676c.254.013.823.047,1.212.067a3.151,3.151,0,0,1-.93.609" transform="translate(-23.767 -2.094)" fill="#09090a"/>
    <path id="Path_2101" data-name="Path 2101" d="M92.026,9.675a3.2,3.2,0,0,0-6.165-1.232,3.251,3.251,0,0,0,0,2.457,3.2,3.2,0,0,0,6.165-1.225m-5.369,2.269c.87-.047,1.084-.06,1.2-.067l-.281.676a3.076,3.076,0,0,1-.924-.609m-.107-.107a3.067,3.067,0,0,1-.609-.93c.375-.154.194-.08.676-.281-.033.576-.04.636-.067,1.212m5.389-2.162c-.348.315-.589.529-.937.843-.094-.174-.315-.576-.455-.843.228-.422.208-.388.455-.843.562.5.582.522.937.843M89.958,8.423c-.368-.154-.683-.281-1.051-.435l.8-.428Zm.027.087c.408.984.3.73.482,1.165-.181.428-.074.174-.482,1.165-.984.408-.73.3-1.165.482-.428-.181-.174-.074-1.165-.482-.408-.984-.3-.73-.482-1.165.181-.428.074-.174.482-1.165.676-.281.536-.221,1.165-.482.623.261.482.2,1.165.482m-.027,2.41-.254.87-.8-.435c.395-.161.676-.274,1.051-.435M87.133,9.594,86.7,8.8l.87-.254c-.147.368-.268.649-.435,1.051m.442,1.212-.87-.254.435-.8c.161.395.274.676.435,1.051m.368-3.247.8.435c-.623.254-.408.167-1.051.435.315-1.071.214-.723.254-.87m0,4.231c-.04-.134,0-.007-.254-.87.643.268.408.167,1.051.435-.482.268-.308.174-.8.435m2.992-1.238-.87.254c.154-.368.281-.683.435-1.051.161.281.268.482.435.8m-.428-.957c-.06-.147-.348-.83-.435-1.051.221.067.649.194.87.254-.261.475-.274.5-.435.8m.448-.864-.917-.274-.274-.917,1.258-.067c-.027.616-.027.569-.067,1.258M87.1,9.675l-.455.843-.937-.843.937-.843Zm.5,1.218c.208.71.06.214.274.917l-1.258.067.067-1.258Zm1.218.5.843.455-.843.937-.843-.937Zm1.218-.5c.234-.067.683-.2.917-.274.04.676.033.656.067,1.258l-1.258-.067Zm.991-2.169L91.1,7.512a3.067,3.067,0,0,1,.609.93ZM89.663,7.492c-.449.241-.4.221-.843.455l-.843-.455c.288-.315.5-.562.843-.937.408.455.174.194.843.937m-1.787.047-.274.917-.917.274-.067-1.258c.442.02.783.04,1.258.067M86.611,8.724c-.482-.2-.3-.127-.676-.281a3.289,3.289,0,0,1,.609-.93c.033.576.04.629.067,1.212m1.325,3.186c.355.395.663.736.81.9a3.2,3.2,0,0,1-1.091-.221Zm3.093-1.285.676.281a3.289,3.289,0,0,1-.609.93Zm.7.214c-.254-.107-.422-.174-.676-.281.308-.274.348-.308.9-.81a3.178,3.178,0,0,1-.228,1.091m-.676-2.055c.254-.107.428-.174.676-.281a3.023,3.023,0,0,1,.221,1.091c-.268-.248-.629-.569-.9-.81M89.77,7.466c.047-.114.167-.408.281-.676a3.288,3.288,0,0,1,.93.609Zm.221-.7c-.107.254-.174.422-.281.676-.274-.308-.308-.348-.81-.9a3.211,3.211,0,0,1,1.091.228m-2.055.676-.281-.676a3.022,3.022,0,0,1,1.091-.221Zm-.348-.649.281.676c-.3-.013-.9-.047-1.2-.067a3.165,3.165,0,0,1,.924-.609M85.908,8.5l.676.281c-.415.375-.469.422-.9.81A3.211,3.211,0,0,1,85.908,8.5m.676,2.055-.676.281a3.022,3.022,0,0,1-.221-1.091c.375.341.462.422.9.81M89.71,11.91l.281.676a3.022,3.022,0,0,1-1.091.221c.723-.81.576-.643.81-.9m.341.649-.281-.676c.254.013.823.047,1.212.067a3.2,3.2,0,0,1-.93.609" transform="translate(-28.306 -2.137)" fill="#09090a"/>
  </g>
</svg>