<svg xmlns="http://www.w3.org/2000/svg" width="14.004" height="13" viewBox="0 0 14.004 13">
  <g id="download" transform="translate(-4.53 -6.5)">
    <path id="Path_1652" data-name="Path 1652" d="M18.025,38.6a.51.51,0,0,0-.51.51v1.741A1.547,1.547,0,0,1,15.967,42.4H7.1A1.547,1.547,0,0,1,5.55,40.851V39.11a.51.51,0,0,0-1.02,0v1.741A2.569,2.569,0,0,0,7.1,43.418h8.871a2.569,2.569,0,0,0,2.567-2.567V39.11A.51.51,0,0,0,18.025,38.6Z" transform="translate(0 -23.918)"/>
    <path id="Path_1653" data-name="Path 1653" d="M21.642,16.171a.51.51,0,0,0,.724,0l2.9-2.9a.51.51,0,0,0-.714-.721l-2.039,2.039V7.01a.51.51,0,1,0-1.02,0V14.58l-2.039-2.039a.51.51,0,0,0-.721.721Z" transform="translate(-10.472)"/>
  </g>
</svg>