<svg id="website" xmlns="http://www.w3.org/2000/svg" width="15" height="15" viewBox="0 0 15 15">
  <path id="Path_1678" data-name="Path 1678" d="M7.5,0A7.464,7.464,0,0,0,0,7.5,7.454,7.454,0,0,0,7.5,15C13.219,15,15,9.989,15,7.5A7.439,7.439,0,0,0,7.5,0ZM5.761.706A6.7,6.7,0,0,0,3.909,3.847,6.968,6.968,0,0,1,2.424,2.663,7.027,7.027,0,0,1,5.761.706ZM2.1,3.024A7.353,7.353,0,0,0,3.777,4.329a12.681,12.681,0,0,0-.384,2.929H.49A6.986,6.986,0,0,1,2.1,3.024Zm0,8.953A6.967,6.967,0,0,1,.49,7.742h2.9a12.659,12.659,0,0,0,.384,2.929A7.57,7.57,0,0,0,2.1,11.976Zm.322.363a6.968,6.968,0,0,1,1.485-1.184A6.712,6.712,0,0,0,5.761,14.3,7.075,7.075,0,0,1,2.424,12.34ZM7.258,14.5C6,14.339,4.916,12.933,4.332,10.919a7.058,7.058,0,0,1,2.926-.753V14.5Zm0-4.813a7.512,7.512,0,0,0-3.05.759,12.666,12.666,0,0,1-.334-2.7H7.258V9.685Zm0-2.427H3.874a12.666,12.666,0,0,1,.334-2.7,7.536,7.536,0,0,0,3.05.759Zm0-2.424a7,7,0,0,1-2.926-.753C4.916,2.064,6,.661,7.258.5Zm5.64-1.81A6.986,6.986,0,0,1,14.51,7.258h-2.9a12.659,12.659,0,0,0-.384-2.929A7.487,7.487,0,0,0,12.9,3.024Zm-.322-.363a6.968,6.968,0,0,1-1.485,1.184A6.727,6.727,0,0,0,9.239.7,7.075,7.075,0,0,1,12.576,2.66ZM7.742.5C9,.661,10.084,2.067,10.668,4.081a7.046,7.046,0,0,1-2.926.753Zm0,4.813a7.512,7.512,0,0,0,3.05-.759,12.666,12.666,0,0,1,.334,2.7H7.742Zm0,2.427h3.384a12.666,12.666,0,0,1-.334,2.7,7.418,7.418,0,0,0-3.05-.759Zm0,6.756V10.166a7,7,0,0,1,2.926.753C10.084,12.936,9,14.339,7.742,14.5Zm1.5-.2a6.7,6.7,0,0,0,1.851-3.142,6.968,6.968,0,0,1,1.485,1.184A7.027,7.027,0,0,1,9.239,14.294ZM12.9,11.976a7.487,7.487,0,0,0-1.671-1.305,12.681,12.681,0,0,0,.384-2.929h2.9A6.986,6.986,0,0,1,12.9,11.976Z"/>
</svg>