<svg xmlns="http://www.w3.org/2000/svg" xmlns:xlink="http://www.w3.org/1999/xlink" width="67" height="21.956" viewBox="0 0 67 21.956">
  <defs>
    <clipPath id="clip-path">
      <rect id="Rectangle_382" data-name="Rectangle 382" width="67" height="21.956" fill="none"/>
    </clipPath>
  </defs>
  <g id="Group_273" data-name="Group 273" clip-path="url(#clip-path)">
    <path id="Path_2120" data-name="Path 2120" d="M6.964.25C8,.25,10.357.31,10.505.324c1.915.208,3.837.323,5.739.625A26.937,26.937,0,0,1,28.562,6.123c1.7,1.29,3.387,2.6,5.1,3.918.948-.739,1.888-1.452,2.8-2.191a35,35,0,0,1,6.149-4.22A32.589,32.589,0,0,1,54.7.445c.786-.067,4.509-.188,5.571-.188.894.034,1.781.1,2.668.087a2.347,2.347,0,0,1,1.707.679A12.169,12.169,0,0,1,65.692,2.1a4.68,4.68,0,0,1,1.2,3.575,5.688,5.688,0,0,1-2.5,4.039,2.591,2.591,0,0,1-1.237.464,18.756,18.756,0,0,1-2.13.034c-2.191-.013-4.375-.155-6.552-.04a23.739,23.739,0,0,0-9.644,2.574,36.5,36.5,0,0,0-8.367,6.344c-.988.934-2,1.841-3,2.749.047.074-.034.013-.1-.047-1.1-1.116-2.184-2.251-3.32-3.34a33.511,33.511,0,0,0-7.426-5.585,26.121,26.121,0,0,0-12.379-2.822c-1.929,0-3.857.121-5.779.168A2.441,2.441,0,0,1,2.7,9.658,6.152,6.152,0,0,1,.344,6,1.493,1.493,0,0,0,.25,5.781V4.806a6.325,6.325,0,0,1,2.191-3.7A2.715,2.715,0,0,1,4.356.337C5.223.358,6.1.284,6.964.25Z" transform="translate(-0.082 -0.082)" fill="none" stroke="#000" stroke-miterlimit="10" stroke-width="0.5"/>
    <path id="Path_2121" data-name="Path 2121" d="M92.951,6.217a3.217,3.217,0,0,0-6.189-1.237,3.264,3.264,0,0,0,0,2.466,3.216,3.216,0,0,0,6.189-1.23M87.562,8.5c.874-.047,1.089-.06,1.21-.067l-.282.679a3.269,3.269,0,0,1-.927-.612m-.114-.114a3.079,3.079,0,0,1-.612-.934c.376-.155.195-.081.679-.282-.034.585-.034.638-.067,1.216m5.417-2.171c-.349.316-.591.531-.941.847-.094-.175-.316-.578-.457-.847.228-.423.208-.39.457-.847.558.5.578.524.941.847m-2-1.257c-.37-.155-.685-.282-1.055-.437l.8-.43Zm.027.087c.41.988.3.733.484,1.169-.181.43-.074.175-.484,1.169-.988.41-.733.3-1.169.484-.43-.181-.175-.074-1.169-.484-.41-.988-.3-.733-.484-1.169.181-.43.074-.175.484-1.169.679-.282.538-.222,1.169-.484.632.262.491.2,1.169.484m-.027,2.426-.255.874-.8-.437c.4-.168.679-.282,1.055-.437M88.039,6.137l-.437-.8.874-.255c-.155.37-.269.652-.437,1.055m.437,1.216L87.6,7.1l.437-.8c.168.4.282.679.437,1.055m.376-3.259.8.437c-.625.255-.41.168-1.055.437.316-1.075.208-.726.255-.874m0,4.247c-.04-.134,0-.007-.255-.874.645.269.41.168,1.055.437-.491.269-.309.175-.8.437m3-1.243-.874.255c.155-.37.282-.685.437-1.055.155.282.269.484.437.8m-.437-.961c-.06-.148-.349-.833-.437-1.055.222.067.652.195.874.255-.262.477-.269.5-.437.8m.457-.867-.921-.276-.276-.921,1.263-.067c-.034.618-.034.571-.067,1.263m-3.871.948-.457.847-.941-.847.941-.847Zm.5,1.223c.208.712.06.215.276.921l-1.27.067.067-1.263Zm1.223.5.847.457-.847.941L88.886,8.4Zm1.223-.5c.235-.067.685-.2.921-.276.04.679.034.659.067,1.263L90.68,8.361Zm.988-2.177.067-1.216a3.079,3.079,0,0,1,.612.934Zm-1.364-1.23c-.45.242-.4.222-.847.457-1.371-.746-.6-.329-.847-.457.289-.316.5-.564.847-.941.41.45.175.188.847.941m-1.794.04-.276.921-.921.276-.074-1.263c.45.02.786.04,1.27.067m-1.27,1.189c-.484-.2-.3-.128-.679-.282a3.3,3.3,0,0,1,.612-.934c.034.578.034.632.067,1.216m1.324,3.2c.356.4.665.739.813.907a3.215,3.215,0,0,1-1.1-.222Zm3.1-1.29.679.282a3.3,3.3,0,0,1-.612.934Zm.712.215c-.255-.108-.423-.175-.679-.282.309-.276.349-.309.907-.813a3.319,3.319,0,0,1-.228,1.1M91.97,5.323c.255-.108.43-.175.679-.282a3.034,3.034,0,0,1,.222,1.1c-.269-.242-.625-.571-.9-.813M90.687,4c.047-.114.168-.41.282-.679a3.3,3.3,0,0,1,.934.612Zm.215-.706c-.108.255-.175.423-.282.679-.276-.309-.309-.349-.813-.907a3.19,3.19,0,0,1,1.1.228m-2.063.679-.282-.679a3.034,3.034,0,0,1,1.1-.222Zm-.349-.652L88.771,4c-.3-.013-.9-.047-1.21-.067a3.269,3.269,0,0,1,.927-.612m-1.68,1.727.679.282c-.417.376-.47.423-.907.813a3.158,3.158,0,0,1,.228-1.1m.679,2.063-.679.282a3.034,3.034,0,0,1-.222-1.1c.37.336.464.417.9.813m3.132,1.351.282.679a3.034,3.034,0,0,1-1.1.222c.732-.813.585-.645.813-.9m.349.652-.282-.679c.255.013.827.047,1.216.067a3.3,3.3,0,0,1-.934.612" transform="translate(-28.377 -0.982)" fill="#09090a"/>
    <path id="Path_2122" data-name="Path 2122" d="M51.391,20.557A3.217,3.217,0,0,0,45.2,19.321a3.264,3.264,0,0,0,0,2.466,3.216,3.216,0,0,0,6.189-1.23M46,22.842c.874-.047,1.089-.06,1.21-.067l-.282.679A3.049,3.049,0,0,1,46,22.842m-.114-.114a3.079,3.079,0,0,1-.612-.934c.376-.155.195-.081.679-.282-.034.585-.034.645-.067,1.216m5.41-2.171c-.349.316-.591.531-.941.847-.094-.175-.316-.578-.457-.847.228-.423.208-.39.457-.847.564.511.585.524.941.847m-1.989-1.25c-.37-.155-.685-.282-1.055-.437l.8-.43Zm.027.087c.41.988.3.733.484,1.169-.181.43-.074.175-.484,1.169-.988.41-.733.3-1.169.484-.43-.181-.175-.074-1.169-.484-.41-.988-.3-.733-.484-1.169.181-.43.074-.175.484-1.169.679-.282.538-.222,1.169-.484.632.262.491.2,1.169.484m-.027,2.419-.255.874-.8-.437c.4-.161.679-.282,1.055-.437m-2.829-1.337-.437-.8.874-.255c-.155.376-.276.659-.437,1.055m.437,1.223-.874-.255.437-.8c.161.4.282.679.437,1.055m.37-3.266.8.437c-.618.255-.41.168-1.055.437.316-1.075.215-.726.255-.874m0,4.254c-.04-.134,0-.007-.255-.874.645.269.41.168,1.055.437-.484.262-.309.168-.8.437m3.011-1.25-.874.255c.155-.37.282-.685.437-1.055.155.282.262.491.437.8m-.437-.961c-.06-.148-.349-.833-.437-1.055.222.067.652.195.874.255-.262.484-.276.5-.437.8m.457-.867-.921-.276-.276-.921,1.263-.067c-.034.625-.034.571-.067,1.263m-3.878.948-.457.847-.941-.847.941-.847Zm.511,1.223c.208.712.06.215.276.921l-1.263.067.067-1.263Zm1.216.511.847.457-.847.941-.847-.941Zm1.223-.511c.235-.067.685-.2.921-.276.04.679.034.659.067,1.263L49.113,22.7Zm.995-2.177.067-1.216a3.079,3.079,0,0,1,.612.934Zm-1.371-1.23c-.45.242-.4.222-.847.457-1.371-.746-.6-.329-.847-.457.289-.316.5-.564.847-.941.41.457.175.188.847.941m-1.794.04-.276.921-.921.276-.067-1.263c.444.027.786.04,1.263.067M45.955,19.6c-.484-.2-.3-.128-.679-.282a3.3,3.3,0,0,1,.612-.934c.034.578.034.638.067,1.216m1.324,3.2c.356.4.665.739.813.907a3.215,3.215,0,0,1-1.1-.222Zm3.1-1.284.679.282a3.3,3.3,0,0,1-.612.934Zm.706.215c-.255-.108-.423-.175-.679-.282.309-.276.349-.309.907-.813a3.19,3.19,0,0,1-.228,1.1M50.41,19.67c.255-.108.43-.175.679-.282a3.034,3.034,0,0,1,.222,1.1c-.269-.249-.632-.571-.9-.813m-1.284-1.324c.047-.114.168-.41.282-.679a3.3,3.3,0,0,1,.934.612Zm.215-.706c-.108.255-.175.423-.282.679-.276-.309-.309-.349-.813-.907a3.041,3.041,0,0,1,1.1.228m-2.063.679L47,17.641a3.034,3.034,0,0,1,1.1-.222Zm-.349-.652.282.679c-.3-.013-.9-.047-1.21-.067a3.049,3.049,0,0,1,.927-.612m-1.687,1.72.679.282c-.417.376-.47.423-.907.813a3.355,3.355,0,0,1,.228-1.1m.685,2.063-.679.282a3.034,3.034,0,0,1-.222-1.1c.37.343.457.423.9.813M49.059,22.8l.282.679a3.034,3.034,0,0,1-1.1.222c.733-.806.578-.638.813-.9m.349.652-.282-.679c.255.013.827.047,1.216.067a3.163,3.163,0,0,1-.934.612" transform="translate(-14.746 -5.685)" fill="#09090a"/>
    <path id="Path_2123" data-name="Path 2123" d="M62.841,13.077a3.217,3.217,0,0,0-6.189-1.237,3.264,3.264,0,0,0,0,2.466,3.216,3.216,0,0,0,6.189-1.23m-5.39,2.278c.874-.047,1.089-.06,1.21-.067l-.282.679a3.132,3.132,0,0,1-.927-.612m-.114-.114a3.079,3.079,0,0,1-.612-.934c.376-.155.195-.081.679-.282-.027.585-.034.645-.067,1.216m5.417-2.164c-.349.316-.591.531-.941.847-.094-.175-.316-.578-.457-.847.228-.423.208-.39.457-.847.558.5.578.524.941.847m-2-1.257c-.37-.155-.685-.282-1.055-.437l.8-.43Zm.034.087c.41.988.3.733.484,1.169-.181.43-.074.175-.484,1.169-.988.41-.733.3-1.169.484-.43-.181-.175-.074-1.169-.484-.41-.988-.3-.733-.484-1.169.181-.43.074-.175.484-1.169.679-.282.538-.222,1.169-.484.625.262.484.2,1.169.484m-.034,2.419L60.5,15.2l-.8-.437c.4-.161.685-.282,1.055-.437M57.929,12.99l-.437-.8.874-.255c-.155.376-.269.659-.437,1.055m.437,1.223-.874-.255.437-.8c.168.4.282.679.437,1.055m.376-3.266.8.437c-.625.255-.41.168-1.055.437.316-1.075.215-.726.255-.874m0,4.254c-.04-.134,0-.007-.255-.874.645.269.41.168,1.055.437-.484.269-.309.168-.8.437m3-1.243-.874.255c.155-.37.282-.685.437-1.055.155.276.269.484.437.8m-.43-.968c-.06-.148-.349-.833-.437-1.055.222.067.652.195.874.255-.262.484-.276.5-.437.8m.45-.867-.921-.276-.276-.921,1.263-.067c-.034.625-.027.571-.067,1.263m-3.871.954-.457.847-.941-.847.941-.847Zm.5,1.216c.208.712.06.215.276.921l-1.263.067.067-1.263Zm1.223.511.847.457-.847.941-.847-.941Zm1.223-.511c.235-.067.685-.2.921-.276.04.679.034.659.067,1.263l-1.263-.067Zm.995-2.177.067-1.216a3.079,3.079,0,0,1,.612.934Zm-1.371-1.23c-.45.242-.4.222-.847.457-1.371-.746-.6-.329-.847-.457.289-.316.5-.564.847-.941.41.457.175.188.847.941m-1.794.04-.276.921-.921.276-.067-1.263c.444.027.78.047,1.263.067M57.4,12.116c-.484-.2-.3-.128-.679-.282a3.3,3.3,0,0,1,.612-.934c.034.578.04.638.067,1.216m1.324,3.2c.356.4.665.739.813.907a3.215,3.215,0,0,1-1.1-.222Zm3.111-1.284.679.282a3.3,3.3,0,0,1-.612.934Zm.706.215c-.255-.108-.423-.175-.679-.282.309-.276.349-.309.907-.813a3.19,3.19,0,0,1-.228,1.1m-.679-2.063c.255-.108.43-.175.679-.282a3.034,3.034,0,0,1,.222,1.1c-.269-.249-.632-.571-.9-.813m-1.29-1.324c.047-.114.168-.41.282-.679a3.3,3.3,0,0,1,.934.612Zm.222-.706c-.108.255-.175.423-.282.679-.276-.309-.309-.349-.813-.907a3.223,3.223,0,0,1,1.1.228m-2.07.679-.282-.679a3.034,3.034,0,0,1,1.1-.222Zm-.343-.652.282.679c-.3-.013-.9-.047-1.21-.067a2.969,2.969,0,0,1,.927-.612M56.7,11.9l.679.282c-.417.376-.47.423-.907.813a3.19,3.19,0,0,1,.228-1.1m.679,2.063-.679.282a3.034,3.034,0,0,1-.222-1.1c.376.343.464.423.9.813m3.138,1.351L60.8,16a3.034,3.034,0,0,1-1.1.222c.726-.813.578-.645.813-.907m.343.652-.282-.679c.255.013.827.047,1.216.067a2.959,2.959,0,0,1-.934.612" transform="translate(-18.501 -3.232)" fill="#09090a"/>
    <path id="Path_2124" data-name="Path 2124" d="M77.241,7.477a3.217,3.217,0,0,0-6.189-1.237,3.264,3.264,0,0,0,0,2.466,3.216,3.216,0,0,0,6.189-1.23m-5.39,2.285c.874-.047,1.089-.06,1.21-.067l-.282.679a3.269,3.269,0,0,1-.927-.612m-.114-.114a3.079,3.079,0,0,1-.612-.934c.376-.155.195-.081.679-.282-.034.585-.034.638-.067,1.216m5.417-2.171c-.349.316-.591.531-.941.847-.094-.175-.316-.578-.457-.847.228-.423.208-.39.457-.847.558.5.578.524.941.847m-2-1.257c-.37-.155-.685-.282-1.055-.437l.8-.43Zm.027.094c.41.988.3.733.484,1.169-.181.43-.074.175-.484,1.169-.988.41-.733.3-1.169.484-.43-.181-.175-.074-1.169-.484-.41-.988-.3-.733-.484-1.169.181-.43.074-.175.484-1.169.679-.282.538-.222,1.169-.484.632.255.491.2,1.169.484m-.027,2.419-.255.874-.8-.437c.4-.168.679-.282,1.055-.437M72.329,7.4l-.437-.8.874-.255c-.155.37-.269.652-.437,1.055m.437,1.216-.874-.255.437-.8c.168.4.282.679.437,1.055m.376-3.259.8.437c-.625.255-.41.168-1.055.437.316-1.075.208-.726.255-.874m0,4.247c-.04-.134,0-.007-.255-.874.645.269.41.168,1.055.437-.491.269-.309.175-.8.437m3-1.243-.874.255c.155-.37.282-.685.437-1.055.155.282.269.484.437.8M75.709,7.4c-.06-.148-.349-.833-.437-1.055.222.067.652.195.874.255-.262.477-.269.5-.437.8m.457-.867-.921-.276-.276-.921,1.263-.067c-.034.618-.034.571-.067,1.263M72.3,7.477l-.457.847L70.9,7.477l.941-.847ZM72.8,8.7c.208.712.06.215.276.921l-1.263.067.067-1.263Zm1.223.5.847.457-.847.941-.847-.941Zm1.223-.5c.235-.067.685-.2.921-.276.04.679.034.659.067,1.263L74.97,9.621Zm.988-2.177L76.3,5.307a3.079,3.079,0,0,1,.612.934Zm-1.364-1.23c-.45.242-.4.222-.847.457-1.371-.746-.6-.329-.847-.457.289-.316.5-.564.847-.941.41.45.175.188.847.941m-1.794.04-.276.921-.921.276-.067-1.263c.444.02.78.04,1.263.067M71.8,6.523c-.484-.2-.3-.128-.679-.282a3.3,3.3,0,0,1,.612-.934c.034.578.034.632.067,1.216m1.324,3.2c.356.4.665.739.813.907a3.215,3.215,0,0,1-1.1-.222Zm3.1-1.29.679.282a3.3,3.3,0,0,1-.612.934Zm.712.222c-.255-.108-.423-.175-.679-.282.309-.276.349-.309.907-.813a3.392,3.392,0,0,1-.228,1.1M76.26,6.59c.255-.108.43-.175.679-.282a3.034,3.034,0,0,1,.222,1.1c-.269-.249-.625-.571-.9-.813M74.977,5.26c.047-.114.168-.41.282-.679a3.3,3.3,0,0,1,.934.612Zm.215-.706c-.108.255-.175.423-.282.679-.276-.309-.309-.349-.813-.907a3.19,3.19,0,0,1,1.1.228m-2.063.679-.282-.679a3.034,3.034,0,0,1,1.1-.222Zm-.349-.652.282.679c-.3-.013-.9-.047-1.21-.067a3.269,3.269,0,0,1,.927-.612M71.1,6.308l.679.282c-.417.376-.47.423-.907.813a3.157,3.157,0,0,1,.228-1.1m.679,2.063-.679.282a3.034,3.034,0,0,1-.222-1.1c.37.336.464.417.9.813m3.132,1.351.282.679a3.034,3.034,0,0,1-1.1.222c.733-.806.585-.638.813-.9m.349.652-.282-.679c.255.013.827.047,1.216.067a3.3,3.3,0,0,1-.934.612" transform="translate(-23.224 -1.395)" fill="#09090a"/>
    <path id="Path_2125" data-name="Path 2125" d="M39.2,12.817a3.217,3.217,0,0,0-6.189-1.237,3.264,3.264,0,0,0,0,2.466,3.216,3.216,0,0,0,6.189-1.23M33.812,15.1c.874-.047,1.089-.06,1.21-.067l-.282.679a3.177,3.177,0,0,1-.927-.612m-.114-.114a3.079,3.079,0,0,1-.612-.934c.376-.155.195-.081.679-.282-.034.585-.034.638-.067,1.216m5.41-2.171c-.349.316-.591.531-.941.847-.094-.175-.316-.578-.457-.847.228-.423.208-.39.457-.847.564.5.585.524.941.847m-1.989-1.257c-.37-.155-.685-.282-1.055-.437l.8-.43Zm.027.087c.41.988.3.733.484,1.169-.181.43-.074.175-.484,1.169-.988.41-.733.3-1.169.484-.43-.181-.175-.074-1.169-.484-.41-.988-.3-.733-.484-1.169.181-.43.074-.175.484-1.169.679-.282.538-.222,1.169-.484.632.262.491.2,1.169.484m-.027,2.426-.255.874-.8-.437c.4-.168.679-.282,1.055-.437m-2.829-1.337-.437-.8.874-.255c-.155.37-.276.652-.437,1.055m.437,1.216-.874-.255.437-.8c.161.4.282.679.437,1.055m.376-3.259.8.437c-.625.255-.41.168-1.055.437.309-1.075.208-.726.255-.874m0,4.247c-.04-.134,0-.007-.255-.874.645.269.41.168,1.055.437-.491.269-.316.175-.8.437m3-1.243-.874.255c.155-.37.282-.685.437-1.055.155.282.262.484.437.8m-.437-.961c-.06-.148-.349-.833-.437-1.055.222.067.652.195.874.255-.262.477-.276.5-.437.8m.457-.867-.921-.276-.276-.921,1.263-.067c-.034.618-.034.571-.067,1.263m-3.878.948-.457.847-.941-.847.941-.847Zm.511,1.223c.208.712.06.215.276.921l-1.263.067.067-1.263Zm1.216.5.847.457-.847.941L35.129,15Zm1.223-.5c.235-.067.685-.2.921-.276.04.679.034.659.067,1.263l-1.263-.067Zm.995-2.177.067-1.216a3.079,3.079,0,0,1,.612.934Zm-1.371-1.23c-.45.242-.4.222-.847.457-1.371-.746-.6-.329-.847-.457.289-.316.5-.564.847-.941.41.45.175.188.847.941m-1.794.04-.276.921-.921.276-.067-1.263c.45.02.786.04,1.263.067m-1.263,1.189c-.484-.2-.3-.128-.679-.282a3.3,3.3,0,0,1,.612-.934c.034.578.034.632.067,1.216m1.324,3.2c.356.4.665.739.813.907a3.215,3.215,0,0,1-1.1-.222Zm3.1-1.29.679.282a3.3,3.3,0,0,1-.612.934Zm.706.215c-.255-.108-.423-.175-.679-.282.309-.276.349-.309.907-.813a3.158,3.158,0,0,1-.228,1.1m-.679-2.063c.255-.108.43-.175.679-.282a3.034,3.034,0,0,1,.222,1.1c-.269-.242-.632-.564-.9-.813M36.937,10.6c.047-.114.168-.41.282-.679a3.3,3.3,0,0,1,.934.612Zm.215-.706c-.108.255-.175.423-.282.679-.276-.309-.309-.349-.813-.907a3.19,3.19,0,0,1,1.1.228m-2.063.679-.282-.679a3.034,3.034,0,0,1,1.1-.222Zm-.349-.652.282.679c-.3-.013-.9-.047-1.21-.067a3.177,3.177,0,0,1,.927-.612m-1.687,1.727.679.282c-.417.376-.47.423-.907.813a3.319,3.319,0,0,1,.228-1.1m.685,2.063-.679.282a3.034,3.034,0,0,1-.222-1.1c.37.336.464.417.9.813m3.132,1.351.282.679a3.034,3.034,0,0,1-1.1.222c.733-.813.578-.645.813-.9m.349.652-.282-.679c.255.013.827.047,1.216.067a3.3,3.3,0,0,1-.934.612" transform="translate(-10.748 -3.147)" fill="#09090a"/>
    <path id="Path_2126" data-name="Path 2126" d="M26.151,7.547a3.217,3.217,0,0,0-6.189-1.237,3.264,3.264,0,0,0,0,2.466,3.216,3.216,0,0,0,6.189-1.23M20.768,9.832c.874-.047,1.089-.06,1.21-.067l-.282.679a3.178,3.178,0,0,1-.927-.612m-.114-.114a3.079,3.079,0,0,1-.612-.934c.376-.155.195-.081.679-.282-.034.585-.04.638-.067,1.216m5.41-2.171c-.349.316-.591.531-.941.847-.094-.175-.316-.578-.457-.847.228-.423.208-.39.457-.847.564.511.585.524.941.847M24.075,6.3c-.37-.155-.685-.282-1.055-.437l.8-.43Zm.027.087c.41.988.3.733.484,1.169-.181.43-.074.175-.484,1.169-.988.41-.733.3-1.169.484-.43-.181-.175-.074-1.169-.484-.41-.988-.3-.733-.484-1.169.181-.43.074-.175.484-1.169.679-.282.538-.222,1.169-.484.632.255.484.2,1.169.484M24.075,8.8l-.255.874-.8-.437c.4-.168.679-.282,1.055-.437M21.245,7.467l-.437-.8.874-.255c-.155.37-.276.652-.437,1.055m.437,1.223-.874-.255.437-.8c.161.4.276.672.437,1.055m.37-3.266.8.437c-.625.255-.41.168-1.055.437.316-1.075.215-.726.255-.874m0,4.247c-.04-.134,0-.007-.255-.874.645.269.41.168,1.055.437-.484.269-.309.175-.8.437m3.011-1.243-.874.255c.155-.37.282-.685.437-1.055.155.282.262.491.437.8m-.437-.961c-.06-.148-.349-.833-.437-1.055.222.067.652.195.874.255-.262.484-.276.5-.437.8m.457-.867-.927-.276L23.88,5.4l1.263-.067c-.027.625-.027.571-.06,1.263m-3.878.948-.457.847-.941-.847.941-.847Zm.511,1.223c.208.712.06.215.276.921l-1.263.067L20.8,8.495Zm1.216.5.847.457-.847.941-.847-.941Zm1.223-.5c.235-.067.685-.2.921-.276.04.679.034.659.067,1.263L23.88,9.691Zm.995-2.177.067-1.216a3.079,3.079,0,0,1,.612.934Zm-1.371-1.23c-.45.242-.4.222-.847.457-1.371-.746-.6-.329-.847-.457.289-.316.5-.564.847-.941.41.45.175.188.847.941m-1.794.04-.269.921L20.8,6.6l-.067-1.263c.437.02.78.04,1.257.067M20.721,6.593c-.484-.2-.3-.128-.679-.282a3.3,3.3,0,0,1,.612-.934c.027.578.034.632.067,1.216m1.324,3.2c.356.4.665.739.813.907a3.215,3.215,0,0,1-1.1-.222Zm3.1-1.29.679.282a3.3,3.3,0,0,1-.612.934Zm.706.222c-.255-.108-.423-.175-.679-.282.309-.276.349-.309.907-.813a3.223,3.223,0,0,1-.228,1.1M25.177,6.66c.255-.108.43-.175.679-.282a3.034,3.034,0,0,1,.222,1.1c-.269-.249-.632-.571-.9-.813M23.893,5.33c.047-.114.168-.41.282-.679a3.3,3.3,0,0,1,.934.612Zm.215-.706c-.108.255-.175.423-.282.679-.276-.309-.309-.349-.813-.907a3.223,3.223,0,0,1,1.1.228M22.045,5.3l-.282-.679a3.034,3.034,0,0,1,1.1-.222ZM21.7,4.651l.282.679c-.3-.013-.9-.047-1.21-.067a3.178,3.178,0,0,1,.927-.612M20.009,6.378l.679.282c-.417.376-.47.423-.907.813a3.319,3.319,0,0,1,.228-1.1m.685,2.063-.679.282a3.034,3.034,0,0,1-.222-1.1c.37.336.457.417.9.813m3.132,1.351.282.679a3.034,3.034,0,0,1-1.1.222c.733-.806.578-.638.813-.9m.349.652-.282-.679c.255.013.827.047,1.216.067a3.3,3.3,0,0,1-.934.612" transform="translate(-6.468 -1.418)" fill="#09090a"/>
    <path id="Path_2127" data-name="Path 2127" d="M11.3,6.217a3.215,3.215,0,0,0-6.189-1.23,3.264,3.264,0,0,0,0,2.466A3.216,3.216,0,0,0,11.3,6.217M5.918,8.5c.874-.047,1.089-.06,1.21-.067l-.282.679A3.178,3.178,0,0,1,5.918,8.5M5.8,8.388a3.079,3.079,0,0,1-.612-.934c.376-.155.188-.081.679-.282-.034.585-.04.638-.067,1.216m5.41-2.171c-.349.316-.591.531-.941.847-.094-.175-.316-.578-.457-.847.228-.423.208-.39.457-.847.564.5.585.524.941.847M9.225,4.961c-.37-.148-.685-.282-1.055-.437l.8-.43Zm.027.087c.41.988.3.733.484,1.169-.181.43-.074.175-.484,1.169-.988.41-.733.3-1.169.484-.43-.181-.175-.074-1.169-.484-.4-.995-.3-.739-.477-1.169.181-.43.074-.175.484-1.169.679-.282.538-.222,1.169-.484.625.262.477.2,1.163.484M9.225,7.474l-.255.874-.8-.437c.4-.168.679-.282,1.055-.437M6.4,6.137l-.437-.8.874-.255c-.155.37-.276.652-.437,1.055m.437,1.216L5.959,7.1,6.4,6.3c.161.4.276.679.437,1.055M7.2,4.094,8,4.53c-.618.255-.41.161-1.055.43.316-1.069.215-.719.255-.867m0,4.247c-.04-.134,0-.007-.255-.874.645.269.41.168,1.055.437-.484.269-.309.175-.8.437M10.213,7.1l-.874.255c.155-.37.282-.685.437-1.055.155.282.262.484.437.8m-.437-.961c-.06-.148-.349-.833-.437-1.055.222.067.652.195.874.255-.262.477-.276.5-.437.8m.45-.867-.921-.276-.269-.921L10.3,4.006c-.034.618-.034.571-.074,1.263m-3.871.948L5.9,7.064l-.941-.847L5.9,5.37ZM6.866,7.44c.208.712.06.215.276.921l-1.263.067.067-1.263Zm1.216.5.847.457-.847.941L7.236,8.4Zm1.223-.5c.235-.067.685-.2.921-.276.04.679.034.659.067,1.263L9.03,8.361ZM10.3,5.263l.067-1.216a3.079,3.079,0,0,1,.612.934ZM8.929,4.033c-.45.242-.4.222-.847.457-1.371-.746-.6-.329-.84-.464.289-.316.5-.564.847-.941.4.457.168.195.84.948m-1.794.04-.269.921-.927.276L5.871,4.006c.444.02.786.04,1.263.067M5.871,5.263c-.484-.2-.3-.128-.679-.282A3.3,3.3,0,0,1,5.8,4.047c.027.578.034.632.067,1.216M7.2,8.462c.356.4.665.739.813.907a3.215,3.215,0,0,1-1.1-.222Zm3.1-1.29.679.282a3.3,3.3,0,0,1-.612.934Zm.706.215c-.255-.108-.423-.175-.679-.282.309-.276.349-.309.907-.813a3.157,3.157,0,0,1-.228,1.1m-.679-2.063c.255-.1.43-.175.679-.276a3.034,3.034,0,0,1,.222,1.1c-.269-.249-.632-.578-.9-.82M9.043,4c.047-.114.168-.41.282-.679a3.3,3.3,0,0,1,.934.612Zm.215-.706c-.108.255-.175.423-.282.679-.276-.309-.309-.349-.813-.907a3.223,3.223,0,0,1,1.1.228M7.2,3.973l-.282-.679a3.034,3.034,0,0,1,1.1-.222Zm-.349-.652L7.128,4c-.3-.013-.9-.047-1.21-.067a3.178,3.178,0,0,1,.927-.612M5.159,5.048l.679.282c-.417.376-.47.423-.907.813a3.319,3.319,0,0,1,.228-1.1m.685,2.063-.685.276A3.146,3.146,0,0,1,4.937,6.3c.376.336.464.417.907.813M8.976,8.462l.282.679a3.034,3.034,0,0,1-1.1.222c.733-.813.578-.645.813-.9m.349.652-.282-.679c.255.013.827.047,1.216.067a3.3,3.3,0,0,1-.934.612" transform="translate(-1.597 -0.982)" fill="#09090a"/>
  </g>
</svg>