<?xml version="1.0" encoding="utf-8"?>
<!-- Generator: Adobe Illustrator 24.2.3, SVG Export Plug-In . SVG Version: 6.00 Build 0)  -->
<svg version="1.1" id="Layer_1" xmlns="http://www.w3.org/2000/svg" xmlns:xlink="http://www.w3.org/1999/xlink" x="0px" y="0px"
	 viewBox="0 0 89.95 85.1" style="enable-background:new 0 0 89.95 85.1;" xml:space="preserve">
<style type="text/css">
	.st0{fill:#ECECEC;stroke:#000000;stroke-width:0.75;stroke-miterlimit:10;}
	.st1{fill-rule:evenodd;clip-rule:evenodd;fill:#FFFFFF;stroke:#000000;stroke-width:0.5;stroke-miterlimit:10;}
</style>
<path class="st0" d="M33.62,6.49C12.43,12.42,0.05,34.4,5.98,55.59s27.9,33.57,49.1,27.65s33.57-27.91,27.64-49.1
	C76.79,12.94,54.81,0.57,33.62,6.49z M53.06,76.04c-17.22,4.81-35.08-5.24-39.9-22.46s5.24-35.08,22.46-39.9s35.08,5.24,39.9,22.46
	S70.28,71.23,53.06,76.04z"/>
<path class="st1" d="M50.95,12.76l-0.19-0.04l-7.1-9.74l0.04-0.19l3.26-1.93l1.12-0.6l2.45,0.46l7.44,1.38l1.6,1.99l1.51,2.05
	L50.95,12.76L50.95,12.76z"/>
<path class="st1" d="M37.37,13.1l-0.19,0.05L26.73,7.14l-0.05-0.19l2.19-3.09l0.78-1l2.43-0.58l7.36-1.76l2.28,1.17l2.22,1.26
	L37.37,13.1L37.37,13.1z"/>
<path class="st1" d="M25.1,18.94l-0.16,0.12l-11.98-1.24l-0.12-0.16l0.74-3.72l0.3-1.23l1.98-1.52l6-4.6l2.55,0.14l2.54,0.25
	L25.1,18.94L25.1,18.94z"/>
<path class="st1" d="M16.26,29.26l-0.09,0.17L4.72,33.17l-0.17-0.09l-0.83-3.7L3.5,28.13l1.19-2.19l3.61-6.65l2.39-0.91l2.42-0.8
	L16.26,29.26L16.26,29.26z"/>
<path class="st1" d="M12.39,42.29l-0.02,0.2l-8.94,8.07l-0.2-0.02L0.97,47.5l-0.71-1.05l0.2-2.49l0.6-7.54l1.81-1.8l1.88-1.72
	L12.39,42.29L12.39,42.29z"/>
<path class="st1" d="M77.37,40.65l-0.03-0.2l7.07-9.76l0.2-0.03l2.85,2.5l0.91,0.88l0.33,2.47l0.99,7.5l-1.4,2.14l-1.49,2.07
	L77.37,40.65L77.37,40.65z"/>
<path class="st1" d="M72.85,27.84l-0.1-0.17l2.49-11.79l0.17-0.1l3.62,1.13l1.19,0.43l1.3,2.13l3.95,6.45l-0.41,2.52l-0.51,2.5
	L72.85,27.84L72.85,27.84z"/>
<path class="st1" d="M63.5,17.97l-0.16-0.11L60.82,6.08l0.11-0.16l3.76-0.44l1.26-0.09l2.06,1.41l6.23,4.29l0.66,2.47l0.55,2.49
	L63.5,17.97L63.5,17.97z"/>
</svg>
