<svg xmlns="http://www.w3.org/2000/svg" xmlns:xlink="http://www.w3.org/1999/xlink" width="16.437" height="104" viewBox="0 0 16.437 104">
  <defs>
    <clipPath id="clip-path">
      <rect id="Rectangle_338" data-name="Rectangle 338" width="16.437" height="104" fill="none"/>
    </clipPath>
  </defs>
  <g id="_3" data-name="3" clip-path="url(#clip-path)">
    <path id="Path_1748" data-name="Path 1748" d="M13.361,104H3.075A3.08,3.08,0,0,1,0,100.924V3.076A3.078,3.078,0,0,1,3.075,0H13.361a3.079,3.079,0,0,1,3.076,3.075V100.92A3.078,3.078,0,0,1,13.361,104M3.075.991A2.087,2.087,0,0,0,.99,3.076v97.848a2.086,2.086,0,0,0,2.085,2.085H13.361a2.083,2.083,0,0,0,2.085-2.087V3.076A2.087,2.087,0,0,0,13.361.991Z"/>
  </g>
</svg>