<?xml version="1.0" encoding="utf-8"?>
<!-- Generator: Adobe Illustrator 24.2.3, SVG Export Plug-In . SVG Version: 6.00 Build 0)  -->
<svg version="1.1" id="Layer_1" xmlns="http://www.w3.org/2000/svg" xmlns:xlink="http://www.w3.org/1999/xlink" x="0px" y="0px"
	 viewBox="0 0 71.64 71.67" style="enable-background:new 0 0 71.64 71.67;" xml:space="preserve">
<style type="text/css">
	.st0{fill:#FFFFFF;}
	.st1{fill:#09090A;}
</style>
<g>
	<circle class="st0" cx="35.83" cy="35.83" r="35.38"/>
	<path class="st1" d="M71.64,35.85c0-25.43-25.93-42.87-49.53-33.1C13.37,6.37,6.37,13.36,2.72,22.14l0,0
		c-3.62,8.73-3.63,18.67,0,27.42c9.75,23.52,40.37,29.67,58.42,11.62C67.81,54.51,71.64,45.5,71.64,35.85z M11.7,61.24
		c9.7-0.53,12.08-0.65,13.49-0.72l-3.13,7.55C18.21,66.42,14.73,64.13,11.7,61.24z M10.44,59.98c-2.89-3.03-5.18-6.51-6.83-10.36
		c4.22-1.75,2.17-0.9,7.57-3.14C10.82,52.94,10.79,53.58,10.44,59.98z M70.66,35.85c-3.91,3.5-6.56,5.88-10.5,9.41
		c-1.07-1.97-3.51-6.46-5.11-9.41c2.56-4.71,2.35-4.33,5.11-9.41C66.43,32.06,66.65,32.26,70.66,35.85z M48.49,21.89
		c-4.11-1.7-7.64-3.16-11.75-4.87l8.88-4.82L48.49,21.89z M48.8,22.87c4.56,11,3.38,8.16,5.37,12.97
		c-1.99,4.81-0.82,1.97-5.37,12.97c-11,4.56-8.16,3.38-12.97,5.37c-4.81-1.99-1.97-0.82-12.97-5.37c-4.56-11-3.38-8.16-5.37-12.97
		c1.99-4.81,0.82-1.97,5.37-12.97c7.57-3.13,5.98-2.48,12.97-5.37C42.8,20.39,41.22,19.73,48.8,22.87z M48.49,49.8l-2.87,9.69
		l-8.88-4.82C41.19,52.83,44.31,51.53,48.49,49.8z M17.01,34.93l-4.82-8.88l9.69-2.87C20.15,27.35,18.86,30.47,17.01,34.93z
		 M21.87,48.51l-9.69-2.87L17,36.76C18.84,41.2,20.13,44.31,21.87,48.51z M26.04,12.2l8.88,4.82c-6.93,2.87-4.55,1.88-11.75,4.87
		C26.7,9.96,25.55,13.85,26.04,12.2z M26.04,59.49c-0.45-1.53-0.03-0.08-2.87-9.69c7.21,2.98,4.55,1.88,11.75,4.87
		C29.52,57.6,31.48,56.54,26.04,59.49z M59.47,45.64l-9.69,2.87c1.7-4.11,3.16-7.64,4.87-11.75C56.34,39.87,57.58,42.15,59.47,45.64
		z M54.65,34.93c-0.69-1.66-3.85-9.31-4.87-11.75c2.46,0.73,7.22,2.14,9.69,2.87C56.57,31.39,56.45,31.61,54.65,34.93z M59.68,25.3
		l-10.26-3.04L46.38,12l14.08-0.77C60.08,18.16,60.11,17.6,59.68,25.3z M16.61,35.85l-5.11,9.41L1,35.85l10.5-9.41L16.61,35.85z
		 M22.24,49.44c2.35,7.93,0.7,2.38,3.04,10.27L11.2,60.48l0.77-14.08L22.24,49.44z M35.83,55.07l9.41,5.11l-9.41,10.5l-9.41-10.5
		L35.83,55.07z M49.42,49.44c2.61-0.77,7.66-2.27,10.26-3.04c0.42,7.57,0.4,7.3,0.77,14.08l-14.07-0.77L49.42,49.44z M60.48,25.21
		l0.74-13.49c2.89,3.04,5.18,6.52,6.83,10.36L60.48,25.21z M45.23,11.52c-5.01,2.72-4.51,2.45-9.41,5.11
		c-15.25-8.28-6.65-3.67-9.4-5.12c3.18-3.55,5.63-6.28,9.4-10.49C40.38,6.1,37.76,3.17,45.23,11.52z M25.28,11.99l-3.04,10.27
		L11.97,25.3L11.2,11.22C16.17,11.49,19.94,11.7,25.28,11.99z M11.18,25.21c-5.38-2.23-3.36-1.39-7.57-3.14
		c1.65-3.85,3.94-7.33,6.83-10.36C10.79,18.12,10.82,18.75,11.18,25.21z M25.92,60.8c3.96,4.41,7.4,8.25,9.02,10.06
		c-4.2-0.1-8.28-0.94-12.16-2.5L25.92,60.8z M60.48,46.48l7.57,3.14c-1.65,3.84-3.94,7.32-6.83,10.36L60.48,46.48z M68.35,48.89
		c-2.81-1.16-4.73-1.96-7.57-3.14c3.44-3.08,3.85-3.45,10.07-9.02C70.74,40.94,69.9,45.02,68.35,48.89z M60.78,25.94
		c2.84-1.18,4.76-1.97,7.57-3.14c1.56,3.87,2.39,7.95,2.5,12.15C67.79,32.22,63.78,28.63,60.78,25.94z M46.46,11.2
		c0.52-1.25,1.9-4.59,3.14-7.57c3.84,1.64,7.32,3.94,10.36,6.83L46.46,11.2z M48.87,3.33c-1.16,2.81-1.96,4.73-3.14,7.57
		c-3.08-3.44-3.45-3.85-9.02-10.07C40.92,0.94,45,1.77,48.87,3.33z M25.92,10.9l-3.14-7.57c3.88-1.56,7.96-2.39,12.16-2.5
		L25.92,10.9z M22.05,3.63l3.14,7.57c-3.38-0.19-10.03-0.55-13.49-0.74C14.73,7.57,18.21,5.28,22.05,3.63z M3.31,22.8l7.57,3.14
		c-4.66,4.18-5.23,4.68-10.06,9.02C0.92,30.75,1.75,26.67,3.31,22.8z M10.88,45.76L3.31,48.9c-1.55-3.87-2.39-7.95-2.49-12.15
		C5.01,40.5,6,41.39,10.88,45.76z M45.74,60.8l3.14,7.57c-3.87,1.56-7.95,2.39-12.15,2.5C44.82,61.82,43.14,63.69,45.74,60.8z
		 M49.6,68.06l-3.14-7.57c2.83,0.16,9.23,0.51,13.49,0.74C56.92,64.13,53.44,66.42,49.6,68.06z"/>
</g>
</svg>
