<svg xmlns="http://www.w3.org/2000/svg" width="48.182" height="67" viewBox="0 0 48.182 67">
  <g id="oval" transform="translate(-0.001 0.005)">
    <ellipse id="Ellipse_67" data-name="Ellipse 67" cx="23.767" cy="33.035" rx="23.767" ry="33.035" transform="translate(0.403 0.246)" fill="none"/>
    <path id="Path_136" data-name="Path 136" d="M41.16,9.851C31.752-3.29,16.431-3.29,7.023,9.851-5.09,26.767-.921,55.312,14.836,64.432h0a18.011,18.011,0,0,0,18.52,0C49.154,55.3,53.241,26.7,41.16,9.851ZM7,55.978a36,36,0,0,1-4.49-9.63L7.492,43.47C7.434,44.9,7.114,53.034,7,55.978ZM2.319,45.707A44.415,44.415,0,0,1,.65,34.432L7.344,42.8C4.309,44.555,3.972,44.761,2.319,45.707ZM41.185,11.019a36,36,0,0,1,4.49,9.63l-4.967,2.87C40.79,21.619,40.609,25.509,41.185,11.019ZM33.5,45.378l3.224-10.872,3.2,8.216C35.848,44.407,37.657,43.651,33.5,45.378ZM36.349,33.5c-1.069,3.61-1.982,6.661-3.627,12.221l-8.635,4.992-8.635-4.992c-.888-2.985-1.965-6.612-3.627-12.221,1.053-3.536,2.952-9.943,3.627-12.221,2.993-1.727,5.567-3.215,8.635-4.992,3.026,1.752,5.609,3.24,8.635,4.992C33.413,23.6,35.3,29.966,36.349,33.5ZM11.456,32.491l-3.2-8.216c2.623-1.061-4.745,1.957,6.423-2.664ZM24.68,15.879l5.938-4.5c.757,3.643-1.382-6.538,1.924,9.038Zm-1.168,0-7.854,4.54,1.916-9.046ZM7.739,24.736l3.4,8.758-3.4,8.767L.74,33.5Zm9.836,30.888-1.916-9.046,7.854,4.54ZM24.68,51.11l7.854-4.54-1.916,9.046ZM36.736,32.5c-.715-2.41-.2-.65-3.224-10.88,8.158,3.372,5.592,2.327,6.423,2.664C38.274,28.536,38.38,28.272,36.736,32.5Zm3.306-8.882-6.76-2.8c-.016-.058-2.048-9.663-2.064-9.72l9.342-.715ZM24.1,15.5l-6.3-4.77L24.1.92l6.291,9.8C28.282,12.261,34.507,7.614,24.1,15.5ZM8.257,42.713c2.286-5.864,1.538-3.956,3.2-8.224.452,1.513,2.8,9.416,3.224,10.88C11.341,44,11.612,44.111,8.257,42.713ZM24.1,51.48l6.3,4.778-6.3,9.811-6.3-9.811ZM40.445,24.736l7,8.758-7.007,8.758-3.4-8.758C39.581,26.965,38.89,28.733,40.445,24.736Zm-9.729-14.7L24.7.657a17.7,17.7,0,0,1,8.117,2.336C32.295,4.72,31.259,8.215,30.716,10.04Zm-13.248,0L15.379,2.993A17.7,17.7,0,0,1,23.5.657Zm-.5,1.069c-.1.452-1.974,9.309-2.064,9.72l-6.76,2.8L7.624,10.394C13.347,10.822,11.275,10.665,16.966,11.109Zm-9.49,12.41L2.508,20.641A36,36,0,0,1,7,11.011C7.607,26.422,7.41,21.973,7.476,23.519ZM2.319,21.282c1.653.954,1.99,1.151,5.025,2.911L.65,32.565A44.479,44.479,0,0,1,2.319,21.282ZM7.624,56.6c.181-4.564.411-10.42.518-13.232,4.589,1.9,3.438,1.423,6.76,2.8.09.411,1.965,9.268,2.064,9.72C11.275,56.332,13.339,56.159,7.624,56.6Zm9.844.345L23.5,66.332A17.7,17.7,0,0,1,15.379,64Zm13.248,0L32.8,64a17.7,17.7,0,0,1-8.117,2.336Zm.5-1.061c.181-.863,1.834-8.627,2.064-9.72l6.76-2.8L40.56,56.6C34.852,56.176,36.917,56.332,31.218,55.888Zm9.474-12.426,4.984,2.878a36,36,0,0,1-4.49,9.63C41.086,53.454,40.864,47.845,40.691,43.462Zm.14-19.268c3.043-1.76,3.38-1.957,5.025-2.911a44.415,44.415,0,0,1,1.669,11.275C46.744,31.578,42.2,25.912,40.831,24.193ZM40.3,9.761c-2.294.173-6.735.518-9.03.691L33.38,3.33A24.361,24.361,0,0,1,40.3,9.761ZM14.8,3.33l2.114,7.122c-4.622-.354-4.449-.345-9.03-.691A24.47,24.47,0,0,1,14.8,3.33ZM7.887,57.236c4.572-.354,4.4-.337,9.03-.691L14.8,63.667A24.71,24.71,0,0,1,7.887,57.236ZM33.38,63.667l-2.114-7.122c4.663.354,4.342.329,9.03.691A24.71,24.71,0,0,1,33.38,63.667ZM45.864,45.707c-1.645-.954-.535-.312-5.025-2.911,7.089-8.865,5.962-7.451,6.694-8.372A44.424,44.424,0,0,1,45.864,45.707Z" transform="translate(0)" fill="#09090a"/>
  </g>
</svg>