<svg xmlns="http://www.w3.org/2000/svg" width="66.998" height="67" viewBox="0 0 66.998 67">
  <g id="cushion" transform="translate(0 0.005)">
    <path id="Path_122" data-name="Path 122" d="M5.631,61.381l-2.619-10.2L.776,41.888,0,33.517l1.094-9.952L3.012,13.406,5.734,5.568,16,2.219,25.133.854,33.5.33l9.3.524,8.951,1.562,8.9,3.414,2.086,4.106,1.253,5.911,1.843,4.976.412,6.875.748,5.35-.748,7.071-1.281,6.716-.973,4.34-1.048,3.676L61.678,59.37l-1.029,1.824L56.084,62.84,51.164,64l-6.183,2.058-9.84.935-6.641-.73H25.133L14.657,64.056Z" transform="translate(0 -0.022)" fill="none"/>
    <path id="Path_123" data-name="Path 123" d="M64.794,15.994a81.091,81.091,0,0,0-3.349-10.27c-.009-.009-.009-.028-.019-.037l-.009-.009-.037-.047-.009-.009-.009-.009L61.3,5.565A79.07,79.07,0,0,0,51,2.2a70.547,70.547,0,0,0-34.983,0A82.325,82.325,0,0,0,5.744,5.546a.324.324,0,0,0-.1.075.033.033,0,0,0-.009.019l-.037.047A79.782,79.782,0,0,0,2.218,16a70.547,70.547,0,0,0,0,34.983,79.486,79.486,0,0,0,3.358,10.27c.009.009.009.028.019.037L5.6,61.3s.028.037.037.047.009.009.009.019a72.551,72.551,0,0,0,10.383,3.423,70.546,70.546,0,0,0,34.983,0A77.035,77.035,0,0,0,61.3,61.434a.439.439,0,0,0,.084-.056.009.009,0,0,0,.009-.009,73.829,73.829,0,0,0,3.423-10.383A70.8,70.8,0,0,0,64.794,15.994Zm-.627,34.44L59.415,49.19l6.828-14.058A70.929,70.929,0,0,1,64.167,50.434ZM.759,35.132,7.587,49.19,2.835,50.434A70.507,70.507,0,0,1,.759,35.132Zm2.067-18.6,4.752,1.244L.749,31.839A71.836,71.836,0,0,1,2.826,16.537ZM66.243,31.858,59.415,17.8l4.752-1.244A70.929,70.929,0,0,1,66.243,31.858ZM8.335,16.789,6.352,6.341,16.8,8.324ZM50.193,8.324,60.64,6.341,58.658,16.789Zm8.231,9.616C56,28.538,56.712,25.413,55.131,32.3L49.3,18.567C50.193,18.51,50.988,18.445,58.424,17.94ZM32.308,55.13,17.951,58.422l.617-9.12C26.818,52.792,27.36,53.025,32.308,55.13ZM18.521,48.48l-6.36-14.985c4.078-9.606,2.741-6.445,6.36-14.985l14.985-6.36L48.49,18.51l6.36,14.985L48.49,48.48,33.506,54.84C24.751,51.117,29.184,53,18.521,48.48Zm29.9-30.792L34.684,11.86,49.042,8.568Zm-29.857,0-.617-9.12L32.308,11.86ZM48.425,49.293l.617,9.12L34.684,55.121ZM17.689,18.567c-2.264,5.341-4.826,11.374-5.827,13.731-1.843-8.035-1.45-6.332-3.292-14.358C15.144,18.389,17.053,18.529,17.689,18.567ZM8.475,20.8l2.909,12.693L8.475,46.188Zm.1,28.229c.692-3.021,2.544-11.112,3.292-14.358L17.7,48.4C17.025,48.451,15.8,48.545,8.578,49.031ZM49.3,48.414l5.827-13.731c1.562,6.809.9,3.938,3.292,14.358C51.689,48.582,49.865,48.451,49.3,48.414Zm9.223-2.236L55.618,33.486l2.909-12.693Zm-.468-28.949c-.851.056-7.988.543-8.9.6l.6-8.9C52.662,11.832,55.15,14.329,58.059,17.229ZM33.5,11.374,20.8,8.465H46.189ZM17.24,8.942l.6,8.9c-10.785-.73-8.587-.58-8.9-.6C11.843,14.329,14.34,11.832,17.24,8.942Zm-9.5,10.2V47.834L.777,33.495ZM8.943,49.752l8.9-.6-.6,8.9C14.34,55.139,11.843,52.661,8.943,49.752ZM33.5,55.607l12.693,2.909H20.813Zm16.257,2.441-.6-8.9c10.785.73,8.587.58,8.9.6C55.15,52.661,52.662,55.139,49.753,58.048Zm9.5-10.2v-28.7l6.959,14.339ZM19.157,7.726,33.5.767,47.835,7.726ZM16.8,58.647,6.352,60.63,8.335,50.182Zm31.045.6L33.506,66.2,19.157,59.246Zm2.348-.6,8.465-8.465L60.64,60.63Zm9.167-41.6L61.23,7.2a80.112,80.112,0,0,1,2.759,8.624Zm-9.41-9.419,1.216-4.63a80.786,80.786,0,0,1,8.624,2.759Zm.5-4.808L49.2,7.567,35.143.739A71.676,71.676,0,0,1,50.445,2.815ZM31.859.748,17.8,7.576,16.557,2.824A70.43,70.43,0,0,1,31.859.748ZM15.837,3l1.216,4.63L7.213,5.762A78.079,78.079,0,0,1,15.837,3ZM5.763,7.2l1.871,9.84L3,15.826A82.257,82.257,0,0,1,5.763,7.2ZM7.634,49.948c-.262,1.394-1.422,7.483-1.871,9.84A80.114,80.114,0,0,1,3,51.164Zm9.419,9.4-1.216,4.63a80.784,80.784,0,0,1-8.624-2.759Zm-.505,4.817,1.244-4.752L31.85,66.242A72.356,72.356,0,0,1,16.548,64.166Zm18.595,2.077L49.2,59.414l1.244,4.752A72.275,72.275,0,0,1,35.143,66.242Zm16.023-2.264-1.216-4.63,9.831,1.871A76.609,76.609,0,0,1,51.165,63.978ZM61.23,59.769l-1.871-9.84,4.63,1.216A79.452,79.452,0,0,1,61.23,59.769Z" transform="translate(-0.001)" fill="#09090a"/>
  </g>
</svg>