<svg id="retailer_log_in" data-name="retailer log in" xmlns="http://www.w3.org/2000/svg" xmlns:xlink="http://www.w3.org/1999/xlink" width="15" height="15" viewBox="0 0 15 15">
  <defs>
    <clipPath id="clip-path">
      <rect id="Rectangle_100" data-name="Rectangle 100" width="15" height="15" fill="none"/>
    </clipPath>
  </defs>
  <g id="icon" clip-path="url(#clip-path)">
    <path id="Path_177" data-name="Path 177" d="M12.8,9.7a7.471,7.471,0,0,0-2.85-1.788,4.336,4.336,0,1,0-4.907,0A7.512,7.512,0,0,0,0,15H1.172a6.328,6.328,0,1,1,12.656,0H15a7.451,7.451,0,0,0-2.2-5.3M7.5,7.5a3.164,3.164,0,1,1,3.164-3.164A3.168,3.168,0,0,1,7.5,7.5" transform="translate(0)"/>
  </g>
</svg>