<svg xmlns="http://www.w3.org/2000/svg" width="17" height="12.75" viewBox="0 0 17 12.75">
  <g id="contact" transform="translate(0 -64)">
    <path id="Path_1651" data-name="Path 1651" d="M15.583,64H1.417A1.418,1.418,0,0,0,0,65.417v9.917A1.418,1.418,0,0,0,1.417,76.75H15.583A1.418,1.418,0,0,0,17,75.333V65.417A1.418,1.418,0,0,0,15.583,64Zm-14.167.708H15.583a.674.674,0,0,1,.147.03c-1.226,1.122-5.293,4.843-6.717,6.125a.71.71,0,0,1-1.028,0c-1.423-1.282-5.49-5-6.716-6.125A.677.677,0,0,1,1.417,64.708ZM.708,75.333V65.417a.684.684,0,0,1,.04-.2c.939.859,3.776,3.455,5.616,5.128C4.53,71.925,1.692,74.616.746,75.518A.683.683,0,0,1,.708,75.333Zm14.875.708H1.417a.677.677,0,0,1-.16-.032c.978-.932,3.834-3.639,5.636-5.18l.619.56a1.415,1.415,0,0,0,1.977,0l.619-.56c1.8,1.541,4.658,4.248,5.636,5.18A.676.676,0,0,1,15.583,76.042Zm.708-.708a.684.684,0,0,1-.037.185c-.947-.9-3.785-3.593-5.619-5.169,1.84-1.673,4.677-4.269,5.616-5.128a.684.684,0,0,1,.04.2Z"/>
  </g>
</svg>