<svg xmlns="http://www.w3.org/2000/svg" width="66.989" height="67" viewBox="0 0 66.989 67">
  <g id="ascher" transform="translate(0 0)">
    <path id="Path_117" data-name="Path 117" d="M10.959.954,1.02,10.884V56.1l9.939,9.939,45.411.841L66.112,56.1l.907-45.3L56.127.01Z" transform="translate(-0.066 -0.001)" fill="none"/>
    <path id="Path_118" data-name="Path 118" d="M66.962,56.163C67,56.051,67,10.9,66.953,10.8s.654.6-10.64-10.677a.42.42,0,0,0-.262-.112c-47.094,0-45.2-.056-45.364.1C10.21.57.056,10.752.112,10.687a.431.431,0,0,0-.1.252c0,47.038-.056,45.2.1,45.364.355.374,10.537,10.546,10.574,10.584a.379.379,0,0,0,.252.1c47.141,0,45.2.056,45.364-.1.065-.065,10.49-10.481,10.574-10.584A.327.327,0,0,0,66.962,56.163ZM5.554,52.077.748,55.35V11.631L5.554,14.9Zm55.153-.5-4.291-2.926V18.335s3.31-2.263,4.291-2.936Zm-42.616,3.88L11.528,48.9,15.782,46l5.208,5.208C19.961,52.723,19.185,53.845,18.092,55.462Zm37.586-7.311-4.133-2.814V21.644l4.133-2.814c0,14.2-.009,21.691-.009,25.637C55.668,46.4,55.668,47.505,55.677,48.151Zm-.206-30.068c-1.646,1.122-3.478,2.365-4.254,2.9L46.01,15.773l2.9-4.245ZM45.346,15.446H21.654c-1.272-1.87-.645-.944-2.814-4.133H48.16C46.01,14.473,46.636,13.557,45.346,15.446Zm-34.014,29.1c0-3.917-.009-11.416-.009-25.712l4.133,2.814V45.336l-4.133,2.814C11.332,47.515,11.332,46.43,11.332,44.542Zm4.45-23.57c-.776-.524-2.609-1.776-4.245-2.889,1.926-1.889-3.684,3.674,6.554-6.563l2.9,4.245Zm-5.2-2.637V48.646c-1.459.954,2.833-1.926-4.291,2.926V15.408C13.454,20.289,9.135,17.39,10.584,18.335ZM21.616,50.806l-5.423-5.423V21.607l5.423-5.423H45.392l5.423,5.423V45.383l-5.423,5.423Zm24.4.411,5.208-5.208L55.471,48.9c-1.561,1.543,2.58-2.571-6.554,6.563C47.945,54.041,46.9,52.517,46.019,51.217ZM56.1,17.661l-6.769-6.769,3-4.413L60.5,14.642C57.36,16.792,56.752,17.222,56.1,17.661Zm-7.433-7.087H18.335L15.418,6.283H51.591Zm-31,.327-6.76,6.76-4.413-3L14.66,6.5Zm3.992,40.634H45.346c1.272,1.87.645.944,2.814,4.133H18.84C20.99,52.508,20.373,53.424,21.654,51.535ZM61.446,14.9l4.806-3.272V55.35l-4.806-3.272ZM52.087,5.544H14.913L11.64.739H55.359ZM6.5,52.33l4.4-3c.355.374,1.122,1.113,6.769,6.75-.9,1.318-.458.673-3,4.413C11.762,57.594,9.583,55.415,6.5,52.33Zm11.837,4.076h30.33L51.582,60.7H15.418Zm34,4.086-3-4.413c3.328-3.328,5.068-5.058,5.974-5.965.374-.374.626-.617.785-.795l4.4,3C57.65,55.182,55.191,57.64,52.339,60.492ZM66.046,10.883,61.128,14.23,52.76,5.862,56.117.944C59,3.843,60.015,4.852,66.046,10.883ZM10.892.954c.57.832,2.048,3,3.357,4.918L5.881,14.239.963,10.892Zm-5.011,51.8,8.368,8.368-3.357,4.918L.954,56.1ZM11.64,66.242c1.225-1.8,2.076-3.048,3.272-4.806H52.087c1.178,1.73,2.038,2.992,3.272,4.806Zm44.467-.206-3.357-4.918,8.368-8.368L66.036,56.1C64.5,57.64,57.771,64.382,56.107,66.036Z" transform="translate(0 0)" fill="#09090a"/>
  </g>
</svg>