<svg xmlns="http://www.w3.org/2000/svg" width="66.973" height="67" viewBox="0 0 66.973 67">
  <g id="round" transform="translate(-0.001 0.004)">
    <circle id="Ellipse_64" data-name="Ellipse 64" cx="33.076" cy="33.076" r="33.076" transform="translate(0.421 0.42)" fill="none"/>
    <path id="Path_121" data-name="Path 121" d="M66.975,33.515A33.49,33.49,0,0,0,2.543,20.7h0A33.489,33.489,0,1,0,66.975,33.515ZM10.938,57.252c9.068-.5,11.293-.608,12.611-.673l-2.926,7.058A32.538,32.538,0,0,1,10.938,57.252ZM9.76,56.074a32.538,32.538,0,0,1-6.385-9.685l7.077-2.936C10.115,49.492,10.087,50.09,9.76,56.074Zm56.3-22.559c-3.655,3.272-6.133,5.5-9.816,8.8-1-1.842-3.281-6.039-4.777-8.8,2.393-4.4,2.2-4.048,4.777-8.8C62.1,29.972,62.31,30.159,66.059,33.515ZM45.332,20.464c-3.842-1.589-7.142-2.954-10.985-4.553l8.3-4.506Zm.29.916c4.263,10.284,3.16,7.629,5.02,12.125-1.86,4.5-.767,1.842-5.02,12.125-10.284,4.263-7.629,3.16-12.125,5.02-4.5-1.86-1.842-.767-12.125-5.02-4.263-10.284-3.16-7.629-5.02-12.125,1.86-4.5.767-1.842,5.02-12.125,7.077-2.926,5.591-2.318,12.125-5.02C40.013,19.062,38.536,18.445,45.622,21.38Zm-.29,25.176-2.683,9.059-8.3-4.506C38.508,49.389,41.425,48.174,45.332,46.557ZM15.9,32.655l-4.506-8.3,9.059-2.683C18.838,25.569,17.632,28.485,15.9,32.655Zm4.544,12.7-9.059-2.683,4.506-8.3C17.613,38.517,18.819,41.424,20.446,45.351Zm3.9-33.945,8.3,4.506c-6.479,2.683-4.254,1.758-10.985,4.553C24.961,9.311,23.886,12.948,24.344,11.405Zm0,44.21c-.421-1.43-.028-.075-2.683-9.059,6.74,2.786,4.254,1.758,10.985,4.553C27.6,53.849,29.43,52.858,24.344,55.616ZM55.6,42.668l-9.059,2.683c1.589-3.842,2.954-7.142,4.553-10.985C52.671,37.273,53.83,39.4,55.6,42.668ZM51.091,32.655c-.645-1.552-3.6-8.7-4.553-10.985,2.3.682,6.75,2,9.059,2.683C52.886,29.346,52.774,29.551,51.091,32.655Zm4.7-9L46.2,20.81,43.36,11.218l13.163-.72C56.168,16.977,56.2,16.454,55.794,23.652ZM15.528,33.515l-4.777,8.8-9.816-8.8,9.816-8.8Zm5.263,12.7c2.2,7.414.654,2.225,2.842,9.6l-13.163.72.72-13.163Zm12.7,5.263,8.8,4.777-8.8,9.816-8.8-9.816ZM46.2,46.22c2.44-.72,7.161-2.122,9.592-2.842.393,7.077.374,6.825.72,13.163l-13.154-.72Zm10.34-22.652.692-12.612a32.777,32.777,0,0,1,6.385,9.685ZM42.285,10.77l-8.8,4.777C19.231,7.806,27.27,12.116,24.7,10.76c2.973-3.319,5.263-5.871,8.788-9.807C37.75,5.7,35.3,2.963,42.285,10.77Zm-18.651.439-2.842,9.6-9.6,2.842-.72-13.163C15.117,10.741,18.642,10.938,23.634,11.209ZM10.452,23.568c-5.03-2.085-3.141-1.3-7.077-2.936A32.538,32.538,0,0,1,9.76,10.947C10.087,16.94,10.115,17.529,10.452,23.568ZM24.232,56.84c3.7,4.123,6.918,7.713,8.433,9.4A32.4,32.4,0,0,1,21.3,63.908ZM56.541,43.453l7.077,2.936a32.777,32.777,0,0,1-6.385,9.685ZM63.9,45.706c-2.627-1.084-4.422-1.832-7.077-2.936,3.216-2.879,3.6-3.225,9.414-8.433A32.732,32.732,0,0,1,63.9,45.706ZM56.822,24.25c2.655-1.1,4.45-1.842,7.077-2.936a32.512,32.512,0,0,1,2.337,11.359C63.375,30.121,59.627,26.765,56.822,24.25ZM43.434,10.47c.486-1.169,1.776-4.291,2.936-7.077a32.6,32.6,0,0,1,9.685,6.385Zm2.253-7.357C44.6,5.74,43.855,7.535,42.752,10.19c-2.879-3.216-3.225-3.6-8.433-9.414A32.52,32.52,0,0,1,45.688,3.113ZM24.232,10.19,21.3,3.113A32.607,32.607,0,0,1,32.665.776Zm-3.618-6.8L23.55,10.47c-3.16-.178-9.377-.514-12.611-.692A32.613,32.613,0,0,1,20.614,3.393ZM3.095,21.315l7.077,2.936c-4.357,3.908-4.889,4.375-9.4,8.433A32.3,32.3,0,0,1,3.095,21.315ZM10.172,42.78,3.095,45.715A32.5,32.5,0,0,1,.767,34.356C4.684,37.862,5.609,38.694,10.172,42.78ZM42.761,56.84,45.7,63.917a32.512,32.512,0,0,1-11.359,2.337C41.9,57.794,40.331,59.542,42.761,56.84Zm3.609,6.787L43.434,56.55c2.646.15,8.629.477,12.612.692A32.256,32.256,0,0,1,46.37,63.627Z" fill="#09090a"/>
  </g>
</svg>