<svg xmlns="http://www.w3.org/2000/svg" width="67.04" height="67" viewBox="0 0 67.04 67">
  <g id="princess" transform="translate(-0.005 0.005)">
    <rect id="Rectangle_99" data-name="Rectangle 99" width="66.469" height="66.964" transform="translate(0.281 0.009)" fill="none"/>
    <path id="Path_140" data-name="Path 140" d="M67.021.364V.336a.527.527,0,0,0-.009-.065A.416.416,0,0,0,66.918.1C66.909.093,66.909.093,66.9.093A.375.375,0,0,0,66.684,0C66.46-.019.253.028.29.009A.5.5,0,0,0,.15.084C-.075.28.028,66.609.028,66.646a.528.528,0,0,0,.009.065.494.494,0,0,0,.084.15c.178.2,66.6.122,66.646.112C67.161,66.852,67.021,69.443,67.021.364ZM57.592,61.258l-5.135-8.821,8.821,5.135c1.1,2.02,3.265,5.986,4.443,8.138C63.579,64.523,59.6,62.362,57.592,61.258ZM51.858,51.231,54.786,35.1l6.174,21.42Zm2.928-19.344L51.858,15.761l9.1-5.294ZM51.26,15.162,35.133,12.235l21.42-6.174C52.045,13.806,53.224,11.776,51.26,15.162ZM12.254,31.887,6.08,10.467l9.1,5.294Zm0,3.218,2.928,16.126-9.1,5.294ZM15.79,15.162,10.5,6.061l21.42,6.174ZM5.846,12.3l6.108,21.2-6.108,21.2Zm27.678,42c-5.135-.935-12.123-2.208-17.6-3.2l-3.2-17.6,3.2-17.6c5.481-1,12.469-2.264,17.6-3.2,5.135.935,12.123,2.208,17.6,3.2l3.2,17.6-3.2,17.6C45.647,52.1,38.66,53.373,33.525,54.3ZM51.26,51.83c2.862,4.92,2.217,3.807,5.294,9.1l-21.42-6.174Zm9.934,2.862L55.085,33.5l6.108-21.2Zm.094-45.273-8.821,5.135L57.6,5.734l8.138-4.443C64.551,3.442,62.381,7.408,61.287,9.419Zm-56.17.365V57.208L.758,65.187V1.8ZM10.5,60.931l5.294-9.1,16.126,2.928C21.552,57.741,16.557,59.182,10.5,60.931Zm51.437-3.723V9.784L66.291,1.8V65.187ZM33.525,11.926C29.615,10.8,18.484,7.6,12.329,5.818h42.4ZM9.448,5.724c1.983,3.4,4.2,7.221,5.135,8.821L5.762,9.41C4.659,7.389,2.5,3.423,1.319,1.272,4.107,2.806,6.595,4.172,9.448,5.724ZM1.31,65.7c1.179-2.151,3.349-6.127,4.443-8.138l8.821-5.135c-1.506,2.591-2.844,4.883-5.135,8.821C7.83,62.147,3.227,64.663,1.31,65.7ZM33.525,55.057c4.5,1.291,16.164,4.658,21.2,6.108h-42.4C20.3,58.873,25.733,57.3,33.525,55.057ZM65.216.729c-2.787,1.525-5.182,2.834-7.979,4.359H9.813C6.165,3.1,7.932,4.059,1.834.729H65.216ZM9.813,61.9H57.237l7.979,4.359H1.834C6.7,63.6,6.96,63.466,9.813,61.9Z" transform="translate(0 0)" fill="#09090a"/>
  </g>
</svg>