<svg xmlns="http://www.w3.org/2000/svg" width="64.607" height="67" viewBox="0 0 64.607 67">
  <g id="mixed" transform="translate(-0.003 -0.006)">
    <circle id="Ellipse_65" data-name="Ellipse 65" cx="14.954" cy="14.954" r="14.954" transform="translate(0.187 0.445)" fill="none"/>
    <path id="Path_130" data-name="Path 130" d="M30.274,15.477A15.137,15.137,0,0,0,1.152,9.68h0a15.138,15.138,0,1,0,29.122,5.8ZM4.941,26.206c4.1-.226,5.1-.272,5.7-.3l-1.323,3.19A14.676,14.676,0,0,1,4.941,26.206ZM4.4,25.677A14.826,14.826,0,0,1,1.518,21.3c1.782-.739.918-.381,3.2-1.323C4.568,22.7,4.552,22.97,4.4,25.677Zm25.458-10.2c-1.649,1.478-2.77,2.482-4.443,3.976-.451-.833-1.486-2.731-2.155-3.976,1.081-1.992,1-1.828,2.155-3.976C28.073,13.874,28.166,13.96,29.862,15.477Zm-9.368-5.9c-1.735-.716-3.229-1.338-4.964-2.054l3.75-2.038Zm.124.412c1.922,4.653,1.432,3.447,2.272,5.485-.84,2.031-.342.833-2.272,5.485-4.653,1.922-3.447,1.432-5.485,2.272-2.031-.84-.833-.342-5.485-2.272-1.922-4.653-1.432-3.447-2.272-5.485.84-2.031.342-.833,2.272-5.485,3.2-1.323,2.529-1.05,5.485-2.272C18.082,8.941,17.413,8.669,20.619,9.992Zm-.124,11.383-1.214,4.093-3.75-2.038C17.406,22.651,18.72,22.106,20.494,21.374ZM7.182,15.088l-2.038-3.75,4.093-1.214C8.512,11.882,7.968,13.2,7.182,15.088ZM9.244,20.83,5.151,19.616l2.038-3.75C7.96,17.733,8.5,19.048,9.244,20.83ZM11,5.487l3.75,2.038c-2.925,1.214-1.922.794-4.964,2.054C11.282,4.538,10.792,6.179,11,5.487Zm0,19.98c-.187-.646-.016-.039-1.214-4.093,3.042,1.26,1.922.794,4.964,2.054C12.473,24.673,13.3,24.222,11,25.467Zm14.129-5.851L21.039,20.83c.716-1.735,1.338-3.229,2.054-4.964C23.809,17.181,24.33,18.146,25.132,19.616Zm-2.038-4.528c-.288-.7-1.626-3.937-2.054-4.964,1.043.311,3.05.9,4.093,1.214C23.91,13.594,23.856,13.687,23.093,15.088Zm2.124-4.069L20.883,9.735,19.6,5.4l5.952-.327C25.388,8,25.4,7.766,25.217,11.019Zm-18.2,4.458L4.856,19.453.421,15.477,4.856,11.5Zm2.373,5.742c1,3.353.3,1,1.284,4.342l-5.952.327.327-5.952Zm5.75,2.381,3.976,2.163L15.141,30.2l-3.976-4.435Zm5.742-2.381c1.1-.327,3.237-.957,4.334-1.284.179,3.2.171,3.089.327,5.952l-5.952-.327ZM25.559,10.98l.311-5.7a14.826,14.826,0,0,1,2.887,4.38ZM19.117,5.191C17,6.343,17.211,6.226,15.141,7.346c-6.45-3.5-2.809-1.548-3.976-2.163,1.346-1.5,2.381-2.653,3.976-4.435C17.063,2.9,15.951,1.667,19.117,5.191Zm-8.442.2L9.392,9.735,5.058,11.019,4.731,5.067C6.832,5.183,8.419,5.269,10.675,5.393ZM4.723,10.98c-2.28-.941-1.416-.591-3.2-1.323a14.826,14.826,0,0,1,2.887-4.38C4.552,7.984,4.568,8.249,4.723,10.98Zm6.224,15.04c1.673,1.867,3.128,3.486,3.812,4.256a14.656,14.656,0,0,1-5.135-1.058Zm14.612-6.045,3.2,1.323a14.676,14.676,0,0,1-2.887,4.38Zm3.322,1.011c-1.183-.49-2-.825-3.2-1.323,1.455-1.3,1.626-1.455,4.256-3.812A14.656,14.656,0,0,1,28.882,20.985Zm-3.2-9.694c1.2-.5,2.015-.833,3.2-1.323A14.833,14.833,0,0,1,29.94,15.1C28.648,13.944,26.952,12.427,25.684,11.291ZM19.631,5.059c.218-.529.8-1.945,1.323-3.2a14.676,14.676,0,0,1,4.38,2.887ZM20.65,1.737c-.49,1.183-.825,2-1.323,3.2-1.3-1.455-1.455-1.626-3.812-4.256A14.484,14.484,0,0,1,20.65,1.737Zm-9.7,3.2-1.323-3.2A14.87,14.87,0,0,1,14.76.678ZM9.314,1.861l1.323,3.2c-1.432-.078-4.24-.233-5.7-.311A14.875,14.875,0,0,1,9.314,1.861Zm-7.921,8.1,3.2,1.323C2.623,13.049,2.381,13.259.335,15.1A14.87,14.87,0,0,1,1.393,9.961Zm3.2,9.7-3.2,1.323A14.648,14.648,0,0,1,.343,15.85C2.117,17.445,2.529,17.819,4.591,19.663Zm14.736,6.357,1.323,3.2a14.833,14.833,0,0,1-5.135,1.058C18.938,26.455,18.23,27.249,19.327,26.019Zm1.634,3.073-1.323-3.2c1.2.062,3.9.21,5.7.311A14.875,14.875,0,0,1,20.961,29.093Z" transform="translate(0 -0.07)" fill="#09090a"/>
    <path id="Path_131" data-name="Path 131" d="M9.721,43.56,5.387,48.1l-.4,23.038,4.645,4.948,12.737.047L26.744,71.2l.1-22.812-4.427-4.816Z" transform="translate(-1.107 -9.667)" fill="none"/>
    <path id="Path_132" data-name="Path 132" d="M27.083,59.688c0-12.208-.008-11.538-.039-11.585-.008-.031-4.622-4.855-4.637-4.863a.111.111,0,0,0-.078-.031c-.124-.008-12.636,0-12.636,0a.164.164,0,0,0-.132.047c-.07.078-4.622,4.832-4.629,4.863-.054.117-.016,23.054-.016,23.069a.162.162,0,0,0,.023.1c.008.023,4.606,4.832,4.622,4.847.078.086-.638.047,10.994.054.739,0,1.525.008,1.735-.016H22.3a.114.114,0,0,0,.086-.016.1.1,0,0,0,.047-.031c.14-.156,4.614-4.824,4.622-4.847C27.075,71.227,27.083,71.974,27.083,59.688ZM21.349,74.105c-.482-.817-.366-.615-.545-.926l3.213-3.361.941.506C21.668,73.771,22.352,73.063,21.349,74.105ZM6.612,70.2l-1.4.747c-.016-2.3-.016-20.214,0-22.517l1.4.747V70.2ZM19.878,47.488l2.793,2.925V68.955L19.878,71.88H12.1L9.3,68.955V50.414L12.1,47.488h7.78ZM9.125,69.2l2.723,2.848-.514.864-3.1-3.237C8.775,69.39,8.519,69.523,9.125,69.2ZM8.137,49.986l.856.459V68.924l-.856.459Zm.988.179-.887-.475,3.1-3.237.514.864C10.246,48.99,10.868,48.336,9.125,50.165ZM23.838,69.383l-.856-.459V50.445l.856-.459Zm-3.2-22.929,3.1,3.237-.887.475c-1.494-1.564-.941-.988-2.723-2.848C20.609,46.516,20.555,46.609,20.641,46.453ZM6.916,49.332l.918.49V69.538l-.918.49v-20.7ZM20.135,72.051c1.782-1.867,1.229-1.292,2.723-2.848l.887.475-3.1,3.237C20.547,72.752,20.609,72.853,20.135,72.051Zm4.925-2.015-.918-.49V49.83l.918-.49Zm-.093-20.992-.941.506-3.213-3.361c.156-.257.039-.062.545-.926C22.422,46.383,21.948,45.886,24.967,49.044Zm-5.112-1.86H12.113c-.35-.591-.233-.4-.49-.825h8.722C20.026,46.9,20.135,46.71,19.855,47.185Zm-9.228-1.922c.482.817.366.615.545.926L7.958,49.55l-.941-.506C10.674,45.216,10.588,45.3,10.627,45.263ZM7.017,70.324l.941-.506,3.213,3.361c-.156.257-.039.062-.545.926C10.526,74,11.2,74.7,7.017,70.324Zm5.1,1.86c.311.016.934,0,7.734,0,.28.475.171.288.49.825H11.631C12.012,72.363,12.051,72.308,12.121,72.184ZM25.363,49.177l1.4-.747c.016,2.3.016,20.214,0,22.517l-1.4-.747Zm-4.832-3.12H11.444l-.529-.887H21.053ZM11.444,73.32h9.08l.529.887H10.923ZM25.262,48.881c-.031.016.28.327-3.75-3.89.436-.731.607-1.027.825-1.385l4.326,4.528ZM22.041,43.5c-.833,1.408-.8,1.346-.809,1.354h-10.5L9.927,43.5C12.245,43.489,9.211,43.5,22.041,43.5Zm-12.4.1.825,1.385L6.737,48.9c-.156-.086-1.292-.692-1.424-.762ZM6.737,70.48l3.727,3.906c-.366.622-.568.957-.825,1.385L5.313,71.242C5.445,71.164,6.581,70.557,6.737,70.48Zm3.2,5.384c1.1-1.852.5-.833.809-1.354h10.5l.809,1.362C19.777,75.879,24.733,75.864,9.935,75.864Zm12.4-.093-.825-1.385,3.727-3.906c.031.016,1.4.747,1.424.762Z" transform="translate(-1.088 -9.588)" fill="#09090a"/>
    <path id="Path_133" data-name="Path 133" d="M54.143.37,49.817,4.9l-.4,23.046,4.645,4.941,12.737.054,4.373-4.933.1-22.812L66.848.37Z" transform="translate(-10.969 -0.081)" fill="none"/>
    <path id="Path_134" data-name="Path 134" d="M71.511,16.488c0-12.208-.008-11.538-.039-11.585C71.464,4.872,66.85.048,66.834.04a.111.111,0,0,0-.078-.031c-.124-.008-12.636,0-12.636,0a.172.172,0,0,0-.14.047c-.07.078-4.622,4.832-4.629,4.863-.054.117-.016,23.054-.016,23.069a.162.162,0,0,0,.023.1c.008.023,4.606,4.832,4.622,4.847.078.086-.638.047,10.994.054.739,0,1.525.008,1.735-.016h.008a.114.114,0,0,0,.086-.016.1.1,0,0,0,.047-.031c.14-.156,4.614-4.824,4.622-4.847C71.5,28.027,71.511,28.774,71.511,16.488ZM65.776,30.913c-.482-.817-.366-.615-.545-.926l3.213-3.361.941.506ZM51.04,27l-1.4.747c-.016-2.3-.016-20.214,0-22.517l1.4.747ZM64.306,4.3,67.1,7.222V25.755L64.306,28.68h-7.78l-2.793-2.925V7.222L56.525,4.3h7.78ZM53.545,26l2.723,2.848-.514.864-3.1-3.237C53.2,26.19,52.946,26.33,53.545,26Zm-.98-19.21.856.459V25.731l-.856.459Zm.98.179L52.658,6.5l3.1-3.237.514.864C54.674,5.8,55.3,5.144,53.545,6.973Zm14.713,19.21-.856-.459V7.253l.856-.459ZM65.068,3.261l3.1,3.237-.887.475c-1.494-1.564-.941-.988-2.723-2.848C65.037,3.316,64.975,3.417,65.068,3.261ZM51.344,6.14l.918.49V26.346l-.918.49ZM64.563,28.859c1.782-1.867,1.229-1.292,2.723-2.848l.887.475-3.1,3.237C64.975,29.552,65.037,29.66,64.563,28.859Zm4.925-2.023-.918-.49V6.63l.918-.49Zm-.1-20.992-.941.506L65.232,2.989c.156-.257.039-.062.545-.926C66.85,3.191,66.375,2.686,69.386,5.844Zm-5.1-1.852H56.541c-.35-.591-.233-.4-.49-.825h8.722C64.454,3.7,64.563,3.518,64.283,3.993Zm-9.228-1.93c.482.817.366.615.545.926L52.386,6.35l-.941-.506C55.094,2.016,55.016,2.11,55.055,2.063ZM51.437,27.132l.941-.506,3.213,3.361c-.156.257-.039.062-.545.926C54.954,30.812,55.623,31.512,51.437,27.132Zm5.112,1.86c.311.016.934,0,7.734,0,.28.475.171.288.49.825H56.051C56.44,29.17,56.479,29.108,56.549,28.991ZM69.791,5.977l1.4-.747c.016,2.3.016,20.214,0,22.517L69.791,27Zm-4.839-3.12h-9.08l-.529-.887H65.481ZM55.872,30.12h9.08l.529.887H55.343ZM69.69,5.689c-.031.016.28.327-3.75-3.89.436-.731.607-1.027.825-1.385L71.09,4.942ZM66.469.3c-.833,1.408-.8,1.346-.809,1.354h-10.5L54.355.3C56.673.3,53.639.3,66.469.3Zm-12.4.1.825,1.385L51.165,5.7c-.156-.086-1.292-.692-1.424-.762Zm-2.9,26.874,3.727,3.906c-.366.622-.568.957-.825,1.385l-4.326-4.528C49.873,27.972,51.009,27.365,51.165,27.28Zm3.2,5.392c1.1-1.852.5-.833.809-1.354h10.5l.809,1.362C64.2,32.687,69.161,32.672,54.362,32.672Zm12.4-.1-.825-1.385,3.727-3.906c.031.016,1.4.747,1.424.762Z" transform="translate(-10.947)" fill="#09090a"/>
    <circle id="Ellipse_66" data-name="Ellipse 66" cx="14.954" cy="14.954" r="14.954" transform="translate(34.515 36.912)" fill="none"/>
    <path id="Path_135" data-name="Path 135" d="M74.4,62.347a15.137,15.137,0,0,0-29.122-5.8h0a15.138,15.138,0,1,0,29.122,5.8ZM49.063,73.084c4.1-.226,5.1-.272,5.7-.3l-1.323,3.19A14.826,14.826,0,0,1,49.063,73.084Zm-.529-.537a14.826,14.826,0,0,1-2.887-4.38c1.782-.739.918-.381,3.2-1.323C48.7,69.575,48.682,69.847,48.534,72.547Zm25.45-10.2c-1.649,1.478-2.77,2.482-4.443,3.976-.451-.833-1.486-2.731-2.155-3.976,1.081-1.992,1-1.828,2.155-3.976C72.2,60.752,72.3,60.83,73.984,62.347Zm-9.368-5.9c-1.735-.716-3.229-1.338-4.964-2.054l3.75-2.038Zm.132.42c1.922,4.653,1.432,3.447,2.272,5.485-.84,2.031-.342.833-2.272,5.485-4.653,1.922-3.447,1.432-5.485,2.272-2.031-.84-.833-.342-5.485-2.272-1.922-4.653-1.432-3.447-2.272-5.485.84-2.031.342-.833,2.272-5.485,3.2-1.323,2.529-1.05,5.485-2.272C62.212,55.819,61.543,55.539,64.749,56.869Zm-.132,11.375L63.4,72.337,59.653,70.3C61.536,69.528,62.85,68.976,64.617,68.244Zm-13.3-6.279-2.038-3.75L53.366,57C52.642,58.76,52.09,60.075,51.312,61.966ZM53.366,67.7l-4.093-1.214,2.038-3.75C52.09,64.611,52.635,65.926,53.366,67.7Zm1.758-15.343,3.75,2.038c-2.925,1.214-1.922.794-4.964,2.054C55.4,51.408,54.922,53.057,55.124,52.357Zm0,19.988c-.187-.646-.016-.039-1.214-4.093,3.042,1.26,1.922.794,4.964,2.054C56.595,71.543,57.427,71.092,55.124,72.345Zm14.129-5.859L65.161,67.7c.716-1.735,1.338-3.229,2.054-4.964C67.931,64.051,68.46,65.016,69.254,66.486Zm-2.031-4.52c-.288-.7-1.626-3.937-2.054-4.964,1.043.311,3.05.9,4.093,1.214C68.032,60.464,67.986,60.557,67.223,61.966Zm2.124-4.077L65.013,56.6,63.73,52.271l5.952-.327C69.511,54.87,69.526,54.636,69.347,57.889ZM51.141,62.347l-2.163,3.976-4.435-3.976,4.435-3.976Zm2.381,5.75c1,3.353.3,1,1.284,4.342l-5.952.327.327-5.952Zm5.742,2.373,3.976,2.163-3.976,4.435-3.976-4.435Zm5.75-2.373c1.1-.327,3.237-.957,4.334-1.284.179,3.2.171,3.089.327,5.952l-5.952-.327Zm4.668-10.239.311-5.7a14.826,14.826,0,0,1,2.887,4.38Zm-6.442-5.789c-2.116,1.152-1.906,1.035-3.976,2.155-6.45-3.5-2.809-1.548-3.976-2.163,1.346-1.5,2.381-2.653,3.976-4.435C61.185,49.774,60.081,48.537,63.239,52.069Zm-8.434.195L53.522,56.6,49.18,57.889l-.327-5.952C50.954,52.053,52.549,52.139,54.805,52.263Zm-5.96,5.594c-2.28-.941-1.416-.591-3.2-1.323a14.826,14.826,0,0,1,2.887-4.38C48.682,54.854,48.7,55.127,48.846,57.858ZM55.078,72.9c1.673,1.867,3.128,3.486,3.812,4.256A14.656,14.656,0,0,1,53.755,76.1Zm14.6-6.053,3.2,1.323a14.676,14.676,0,0,1-2.887,4.38Zm3.33,1.019c-1.183-.49-2-.825-3.2-1.323,1.455-1.3,1.626-1.455,4.256-3.812A14.833,14.833,0,0,1,73.012,67.863Zm-3.206-9.7c1.2-.5,2.015-.833,3.2-1.323a14.833,14.833,0,0,1,1.058,5.135C72.778,60.814,71.082,59.3,69.806,58.161Zm-6.045-6.224c.218-.529.8-1.945,1.323-3.2a14.675,14.675,0,0,1,4.38,2.887Zm1.019-3.33c-.49,1.183-.825,2-1.323,3.2-1.3-1.455-1.455-1.626-3.812-4.256A14.692,14.692,0,0,1,64.78,48.607Zm-9.7,3.2-1.323-3.2a14.87,14.87,0,0,1,5.135-1.058Zm-1.634-3.073,1.323,3.2c-1.432-.078-4.24-.233-5.7-.311A14.826,14.826,0,0,1,53.444,48.731Zm-7.921,8.107,3.2,1.323c-1.968,1.766-2.21,1.976-4.256,3.812A14.656,14.656,0,0,1,45.523,56.838Zm3.2,9.7-3.2,1.323a14.648,14.648,0,0,1-1.05-5.135C46.239,64.315,46.659,64.689,48.721,66.541ZM63.45,72.9l1.323,3.2a14.833,14.833,0,0,1-5.135,1.058C63.068,73.325,62.36,74.119,63.45,72.9Zm1.634,3.066-1.323-3.2c1.2.062,3.9.21,5.7.311A14.528,14.528,0,0,1,65.083,75.963Z" transform="translate(-9.795 -10.473)" fill="#09090a"/>
  </g>
</svg>