<svg id="pear" xmlns="http://www.w3.org/2000/svg" width="37.909" height="67" viewBox="0 0 37.909 67">
  <path id="Path_137" data-name="Path 137" d="M19.171.112l5.2,6.021,3.114,4.49,3.651,5.734.957,1.877,2.142,5.02,1.84,5.962,1.17,6.095.537,5.432.132,4.637-.582,4.7-1.619,4.159L32.9,58.219l-3.8,3.173-3.29,1.656L21.732,64.13l-4.225.206-4.9-1.1L8.821,61.391,5.258,58.469,2.667,55.061.857,51.005l-.832-4.77L.01,40.744l.574-5.057L1.6,30.24l1.664-5.823,1.619-4.137,2.054-4.2,2.871-4.792,4.218-5.756L18.81.06Z" transform="translate(-0.003 -0.016)" fill="none"/>
  <path id="Path_138" data-name="Path 138" d="M33.669,77.79h0c-.007.015-.022.031-.029.046Z" transform="translate(-8.877 -18.143)" fill="#09090a"/>
  <path id="Path_139" data-name="Path 139" d="M14.273,14.293l4-12.774A91.038,91.038,0,0,0,12.153,9.27Zm4.306,6.333c-2.429-2.868-1.6-1.894-3.982-4.708l-.162,10.259C15.458,24.8,17.556,22.006,18.579,20.626ZM11.755,9.838a66.836,66.836,0,0,0-4.829,8.181l7-3.036C13.11,13.035,12.558,11.739,11.755,9.838Zm-3.732,20.6c2.238-1.365,3.732-2.27,5.815-3.535.088-5.927.088-5.444.177-11.31l-7.39,3.213C6.831,20.5,7.722,27.926,8.023,30.441Zm5.521-2.661c-3.2,1.948-2.3,1.4-5.425,3.3l1.465,6.985Zm-.935,31.207L10.9,64.454a17.6,17.6,0,0,0,7.442,1.932C13.9,60.644,13.242,59.815,12.609,58.987Zm5.609-2.7L11.2,52.155l1.509,5.812ZM1.34,36.138,7.258,31,2.863,28.754A65.975,65.975,0,0,0,1.34,36.138ZM5.477,45.96,9.2,39.044c-.574-2.73-1.119-5.329-1.6-7.56-4.247,3.7-2.679,2.323-6.3,5.475Zm.346.59,4.542,4.24L9.312,40.071ZM4.071,58.474a18.591,18.591,0,0,0,6.308,5.7l1.73-5.528ZM10.482,51.7c-1.413-1.319-2.672-2.484-4.829-4.5-.5,2.952.523-3.075-1.8,10.666l8.274.176ZM7.435,30.418c-1.045-8.733-1.1-9.094-1.3-10.735a57.635,57.635,0,0,0-3.114,8.48ZM5.109,46.957l-4.52.56a19.574,19.574,0,0,0,2.753,9.815C3.482,56.5,3.82,54.571,5.109,46.957Zm-.088-.6L1.112,37.924a79.685,79.685,0,0,0-.53,8.986Zm29.863-18.2a58.707,58.707,0,0,0-3.121-8.5c-.729,6.1-.449,3.78-1.288,10.75Zm-1.995,18.2c1.244.153,3,.368,4.439.552a79.683,79.683,0,0,0-.53-8.986Zm3.68-10.229a63.024,63.024,0,0,0-1.524-7.376L30.651,31C33.787,33.73,35.045,34.811,36.569,36.13ZM34.574,57.339a19.618,19.618,0,0,0,2.753-9.815l-4.52-.56C34.125,54.747,34.39,56.273,34.574,57.339Zm-9.37.629,1.509-5.812-7.022,4.133Zm2.333,6.2a18.808,18.808,0,0,0,6.308-5.7l-8.031.169Zm4.718-16.976c-2.164,2.017-3.415,3.19-4.821,4.5l-1.649,6.341,8.274-.176C33.492,54.509,32.881,50.906,32.256,47.194Zm-.169-.644L28.6,40.071,27.545,50.791Zm-3.371-7.507c1.9,3.527,1.84,3.42,3.725,6.916,2.378-5.114,1.524-3.3,4.174-8.994l-6.308-5.482ZM18.954,20.158c.368-.437,3.813-4.5,4.314-5.091L18.954,1.273,14.641,15.067C15.141,15.657,18.586,19.721,18.954,20.158Zm4.52,6.019-.162-10.259c-2.378,2.814-1.546,1.833-3.982,4.708C20.36,22.006,22.451,24.8,23.474,26.177Zm11.137,32.2A18.77,18.77,0,0,1,18.94,67a18.2,18.2,0,0,1-8.524-2.124,19.281,19.281,0,0,1-7.118-6.5.186.186,0,0,1-.074-.107A20.256,20.256,0,0,1,0,47.248C0,36.935,1.722,27.55,6.051,18.5c.007-.015.007-.023.015-.031A78.191,78.191,0,0,1,18.748.1s.052-.038.059-.046a.007.007,0,0,0,.007-.008c.007,0,.007,0,.007-.008A.6.6,0,0,1,18.91.008h.029c.007,0,.015-.008.022-.008s.015.008.022.008h.029c.022.008.081.031.1.038l.007.008c.007.008.059.046.059.046A77.342,77.342,0,0,1,31.836,18.448a.125.125,0,0,1,.029.054,60.665,60.665,0,0,1,5.373,18.264.206.206,0,0,1,.022.146,79.812,79.812,0,0,1,.648,10.336,20.194,20.194,0,0,1-3.224,11.018A.187.187,0,0,1,34.611,58.374Zm-6.5-19.238L23.533,27.228,18.962,21.1l-4.579,6.126L9.8,39.136c.324,3.289.927,9.339,1.207,12.215l7.95,4.677,7.95-4.677C27.184,48.475,27.78,42.44,28.111,39.136ZM23.636,14.293,25.763,9.27a91.443,91.443,0,0,0-6.124-7.752Zm.339.682c5.005,2.178,5.749,2.492,6.993,3.029A65.407,65.407,0,0,0,26.146,9.83C25.351,11.739,24.8,13.035,23.975,14.975Zm.1,11.931c2.083,1.265,3.577,2.17,5.815,3.535l1.4-11.632c-2.812-1.219-4.615-2.009-7.39-3.213C23.982,21.462,23.975,20.979,24.07,26.906Zm5.719,4.171c-3.335-2.032-1.892-1.15-5.425-3.3l3.96,10.282ZM18.954,66.21c.979-1.265,5.234-6.771,5.955-7.7-2.23-.682-3.879-1.188-5.955-1.825l-5.962,1.825C14.781,60.812,17.173,63.9,18.954,66.21ZM24.8,59.639a.007.007,0,0,1-.007.008h-.007c-.015.023-.037.046-.059.077a.106.106,0,0,1-.022.031.208.208,0,0,1-.029.038c-.383.475-1.612,2.055-5.108,6.587a17.458,17.458,0,0,0,7.442-1.932L25.3,58.98c-.228.3-.383.506-.486.629A.04.04,0,0,1,24.8,59.639Z" fill="#09090a"/>
</svg>