<svg xmlns="http://www.w3.org/2000/svg" width="67.259" height="17.639" viewBox="0 0 67.259 17.639">
  <g id="contemporary" transform="translate(0.139 0.082)">
    <rect id="Rectangle_342" data-name="Rectangle 342" width="66.248" height="10.119" transform="translate(0.329 3.678)" fill="#fff"/>
    <path id="Path_1752" data-name="Path 1752" d="M10.963,5.7H8.42l10.173,9.972H21.13Z" transform="translate(-2.77 -1.875)" fill="none" stroke="#9b9b9b" stroke-miterlimit="10" stroke-width="0.2"/>
    <path id="Path_1753" data-name="Path 1753" d="M6.963,5.7H4.42l10.173,9.972H17.13Z" transform="translate(-1.454 -1.875)" fill="none" stroke="#9b9b9b" stroke-miterlimit="10" stroke-width="0.2"/>
    <path id="Path_1754" data-name="Path 1754" d="M14.963,5.7H12.42l10.173,9.972H25.13Z" transform="translate(-4.085 -1.875)" fill="none" stroke="#9b9b9b" stroke-miterlimit="10" stroke-width="0.2"/>
    <path id="Path_1755" data-name="Path 1755" d="M22.963,5.7H20.42l10.173,9.972H33.13Z" transform="translate(-6.717 -1.875)" fill="none" stroke="#9b9b9b" stroke-miterlimit="10" stroke-width="0.2"/>
    <path id="Path_1756" data-name="Path 1756" d="M26.963,5.7H24.42l10.173,9.972H37.13Z" transform="translate(-8.032 -1.875)" fill="none" stroke="#9b9b9b" stroke-miterlimit="10" stroke-width="0.2"/>
    <path id="Path_1757" data-name="Path 1757" d="M3,5.7H.53v.074l10.1,9.9h2.537Z" transform="translate(-0.174 -1.875)" fill="none" stroke="#9b9b9b" stroke-miterlimit="10" stroke-width="0.2"/>
    <path id="Path_1758" data-name="Path 1758" d="M18.963,5.7H16.42l10.173,9.972H29.13Z" transform="translate(-5.401 -1.875)" fill="none" stroke="#9b9b9b" stroke-miterlimit="10" stroke-width="0.2"/>
    <path id="Path_1759" data-name="Path 1759" d="M86.963,5.7H84.42l10.173,9.972H94.7V13.29Z" transform="translate(-27.768 -1.875)" fill="none" stroke="#9b9b9b" stroke-miterlimit="10" stroke-width="0.2"/>
    <path id="Path_1760" data-name="Path 1760" d="M.53,17.78v1.866h1.9Z" transform="translate(-0.174 -5.848)" fill="none" stroke="#9b9b9b" stroke-miterlimit="10" stroke-width="0.2"/>
    <path id="Path_1761" data-name="Path 1761" d="M.53,13.86v2.49l2.047,2.007H5.113Z" transform="translate(-0.174 -4.559)" fill="none" stroke="#9b9b9b" stroke-miterlimit="10" stroke-width="0.2"/>
    <path id="Path_1762" data-name="Path 1762" d="M30.963,5.7H28.42l10.173,9.972H41.13Z" transform="translate(-9.348 -1.875)" fill="none" stroke="#9b9b9b" stroke-miterlimit="10" stroke-width="0.2"/>
    <path id="Path_1763" data-name="Path 1763" d="M98.648,7.888V5.7H96.42Z" transform="translate(-31.715 -1.875)" fill="none" stroke="#9b9b9b" stroke-miterlimit="10" stroke-width="0.2"/>
    <path id="Path_1764" data-name="Path 1764" d="M.53,9.94v2.49l4.731,4.637H7.8Z" transform="translate(-0.174 -3.27)" fill="none" stroke="#9b9b9b" stroke-miterlimit="10" stroke-width="0.2"/>
    <path id="Path_1765" data-name="Path 1765" d="M.53,6.02V8.51l7.415,7.268h2.537Z" transform="translate(-0.174 -1.98)" fill="none" stroke="#9b9b9b" stroke-miterlimit="10" stroke-width="0.2"/>
    <path id="Path_1766" data-name="Path 1766" d="M66.963,5.7H64.42l10.173,9.972H77.13Z" transform="translate(-21.189 -1.875)" fill="none" stroke="#9b9b9b" stroke-miterlimit="10" stroke-width="0.2"/>
    <path id="Path_1767" data-name="Path 1767" d="M74.963,5.7H72.42l10.173,9.972H85.13Z" transform="translate(-23.821 -1.875)" fill="none" stroke="#9b9b9b" stroke-miterlimit="10" stroke-width="0.2"/>
    <path id="Path_1768" data-name="Path 1768" d="M70.963,5.7H68.42l10.173,9.972H81.13Z" transform="translate(-22.505 -1.875)" fill="none" stroke="#9b9b9b" stroke-miterlimit="10" stroke-width="0.2"/>
    <path id="Path_1769" data-name="Path 1769" d="M78.963,5.7H76.42l10.173,9.972H89.13Z" transform="translate(-25.137 -1.875)" fill="none" stroke="#9b9b9b" stroke-miterlimit="10" stroke-width="0.2"/>
    <path id="Path_1770" data-name="Path 1770" d="M94.963,5.7H92.42l4.912,4.818V8.029Z" transform="translate(-30.399 -1.875)" fill="none" stroke="#9b9b9b" stroke-miterlimit="10" stroke-width="0.2"/>
    <path id="Path_1771" data-name="Path 1771" d="M34.963,5.7H32.42l10.173,9.972H45.13Z" transform="translate(-10.664 -1.875)" fill="none" stroke="#9b9b9b" stroke-miterlimit="10" stroke-width="0.2"/>
    <path id="Path_1772" data-name="Path 1772" d="M62.963,5.7H60.42l10.173,9.972H73.13Z" transform="translate(-19.874 -1.875)" fill="none" stroke="#9b9b9b" stroke-miterlimit="10" stroke-width="0.2"/>
    <path id="Path_1773" data-name="Path 1773" d="M90.963,5.7H88.42l7.6,7.449v-2.49Z" transform="translate(-29.084 -1.875)" fill="none" stroke="#9b9b9b" stroke-miterlimit="10" stroke-width="0.2"/>
    <path id="Path_1774" data-name="Path 1774" d="M82.963,5.7H80.42l10.173,9.972H93.13Z" transform="translate(-26.452 -1.875)" fill="none" stroke="#9b9b9b" stroke-miterlimit="10" stroke-width="0.2"/>
    <path id="Path_1775" data-name="Path 1775" d="M46.963,5.7H44.42l10.173,9.972H57.13Z" transform="translate(-14.611 -1.875)" fill="none" stroke="#9b9b9b" stroke-miterlimit="10" stroke-width="0.2"/>
    <path id="Path_1776" data-name="Path 1776" d="M42.963,5.7H40.42l10.173,9.972H53.13Z" transform="translate(-13.295 -1.875)" fill="none" stroke="#9b9b9b" stroke-miterlimit="10" stroke-width="0.2"/>
    <path id="Path_1777" data-name="Path 1777" d="M38.963,5.7H36.42l10.173,9.972H49.13Z" transform="translate(-11.979 -1.875)" fill="none" stroke="#9b9b9b" stroke-miterlimit="10" stroke-width="0.2"/>
    <path id="Path_1778" data-name="Path 1778" d="M58.963,5.7H56.42l10.173,9.972H69.13Z" transform="translate(-18.558 -1.875)" fill="none" stroke="#9b9b9b" stroke-miterlimit="10" stroke-width="0.2"/>
    <path id="Path_1779" data-name="Path 1779" d="M50.963,5.7H48.42l10.173,9.972H61.13Z" transform="translate(-15.927 -1.875)" fill="none" stroke="#9b9b9b" stroke-miterlimit="10" stroke-width="0.2"/>
    <path id="Path_1780" data-name="Path 1780" d="M54.963,5.7H52.42l10.173,9.972H65.13Z" transform="translate(-17.242 -1.875)" fill="none" stroke="#9b9b9b" stroke-miterlimit="10" stroke-width="0.2"/>
    <path id="Path_1781" data-name="Path 1781" d="M2.4.25.53,2.794h66.2L64.43.25Z" transform="translate(-0.174 -0.082)" fill="#fff"/>
    <path id="Path_1782" data-name="Path 1782" d="M66.731,2.793H.53L2.4.25H64.43Z" transform="translate(-0.174 -0.082)" fill="none" stroke="#000" stroke-miterlimit="10" stroke-width="0.5"/>
    <path id="Path_1783" data-name="Path 1783" d="M.53,22,2.4,24.543H64.43L66.732,22Z" transform="translate(-0.174 -7.236)" fill="#fff"/>
    <path id="Path_1784" data-name="Path 1784" d="M66.731,22H.53L2.4,24.543H64.43Z" transform="translate(-0.174 -7.236)" fill="none" stroke="#000" stroke-miterlimit="10" stroke-width="0.5"/>
    <line id="Line_3" data-name="Line 3" y2="10.22" transform="translate(0.168 3.678)" fill="none" stroke="#000" stroke-miterlimit="10" stroke-width="0.5"/>
    <line id="Line_4" data-name="Line 4" y2="10.22" transform="translate(66.745 3.678)" fill="none" stroke="#000" stroke-miterlimit="10" stroke-width="0.5"/>
    <line id="Line_5" data-name="Line 5" x2="66.772" transform="translate(0.154 3.812)" fill="none" stroke="#000" stroke-miterlimit="10" stroke-width="0.5"/>
    <line id="Line_6" data-name="Line 6" x2="66.765" transform="translate(0.061 13.804)" fill="none" stroke="#000" stroke-miterlimit="10" stroke-width="0.5"/>
    <path id="Path_1785" data-name="Path 1785" d="M5.354,15.519h-.04a4.926,4.926,0,1,1,0-9.851h.04V5.5h-.04a5.093,5.093,0,1,0,0,10.187h.04Z" transform="translate(-0.072 -1.809)" fill="#3d3c3c"/>
    <path id="Path_1786" data-name="Path 1786" d="M13.674,15.519h-.04a4.926,4.926,0,1,1,0-9.851h.04V5.5h-.04a5.093,5.093,0,0,0,0,10.187h.04Z" transform="translate(-2.809 -1.809)" fill="#3d3c3c"/>
    <path id="Path_1787" data-name="Path 1787" d="M22,15.519h-.04a4.926,4.926,0,0,1,0-9.851H22V5.5h-.04a5.093,5.093,0,0,0,0,10.187H22Z" transform="translate(-5.549 -1.809)" fill="#3d3c3c"/>
    <path id="Path_1788" data-name="Path 1788" d="M30.334,15.519h-.04a4.926,4.926,0,1,1,0-9.851h.04V5.5h-.04a5.093,5.093,0,1,0,0,10.187h.04Z" transform="translate(-8.289 -1.809)" fill="#3d3c3c"/>
    <path id="Path_1789" data-name="Path 1789" d="M38.654,15.519h-.04a4.926,4.926,0,1,1,0-9.851h.04V5.5h-.04a5.093,5.093,0,0,0,0,10.187h.04Z" transform="translate(-11.025 -1.809)" fill="#3d3c3c"/>
    <path id="Path_1790" data-name="Path 1790" d="M46.984,15.519h-.04a4.926,4.926,0,1,1,0-9.851h.04V5.5h-.04a5.093,5.093,0,0,0,0,10.187h.04Z" transform="translate(-13.766 -1.809)" fill="#3d3c3c"/>
    <path id="Path_1791" data-name="Path 1791" d="M55.314,15.519h-.04a4.926,4.926,0,1,1,0-9.851h.04V5.5h-.04a5.093,5.093,0,0,0,0,10.187h.04Z" transform="translate(-16.505 -1.809)" fill="#3d3c3c"/>
    <path id="Path_1792" data-name="Path 1792" d="M63.644,15.519H63.6a4.926,4.926,0,1,1,0-9.851h.04V5.5H63.6a5.093,5.093,0,1,0,0,10.187h.04Z" transform="translate(-19.246 -1.809)" fill="#3d3c3c"/>
    <path id="Path_1793" data-name="Path 1793" d="M71.964,15.519h-.04a4.926,4.926,0,0,1,0-9.851h.04V5.5h-.04a5.093,5.093,0,0,0,0,10.187h.04v-.168" transform="translate(-21.982 -1.809)" fill="#3d3c3c"/>
    <path id="Path_1794" data-name="Path 1794" d="M80.294,15.519h-.04a4.926,4.926,0,0,1,0-9.851h.04V5.5h-.04a5.093,5.093,0,0,0,0,10.187h.04Z" transform="translate(-24.722 -1.809)" fill="#3d3c3c"/>
    <path id="Path_1795" data-name="Path 1795" d="M88.624,15.519h-.04a4.926,4.926,0,1,1,0-9.851h.04V5.5h-.04a5.093,5.093,0,1,0,0,10.187h.04Z" transform="translate(-27.462 -1.809)" fill="#3d3c3c"/>
    <path id="Path_1796" data-name="Path 1796" d="M96.954,15.519h-.04a4.926,4.926,0,1,1,0-9.851h.04V5.5h-.04a5.093,5.093,0,1,0,0,10.187h.04Z" transform="translate(-30.202 -1.809)" fill="#3d3c3c"/>
  </g>
</svg>
