<svg xmlns="http://www.w3.org/2000/svg" xmlns:xlink="http://www.w3.org/1999/xlink" width="67" height="15.571" viewBox="0 0 67 15.571">
  <defs>
    <clipPath id="clip-path">
      <rect id="Rectangle_355" data-name="Rectangle 355" width="67" height="15.571" fill="none"/>
    </clipPath>
  </defs>
  <g id="bar" clip-path="url(#clip-path)">
    <path id="Path_1934" data-name="Path 1934" d="M64.461,15.485H2.7A2.454,2.454,0,0,1,.25,13.032V2.7A2.454,2.454,0,0,1,2.7.25H64.461A2.454,2.454,0,0,1,66.914,2.7V13.032a2.449,2.449,0,0,1-2.453,2.453" transform="translate(-0.082 -0.082)" fill="#fff"/>
    <path id="Path_1935" data-name="Path 1935" d="M64.461,15.485H2.7A2.454,2.454,0,0,1,.25,13.032V2.7A2.454,2.454,0,0,1,2.7.25H64.461A2.454,2.454,0,0,1,66.914,2.7V13.032A2.449,2.449,0,0,1,64.461,15.485Z" transform="translate(-0.082 -0.082)" fill="none" stroke="#000" stroke-miterlimit="10" stroke-width="0.5"/>
    <path id="Path_1936" data-name="Path 1936" d="M12.64,2.86A5.86,5.86,0,1,1,6.78,8.72a5.86,5.86,0,0,1,5.86-5.86" transform="translate(-2.224 -0.938)" fill="#fff"/>
    <path id="Path_1937" data-name="Path 1937" d="M18.539,8.691A5.936,5.936,0,1,0,16.8,12.884a5.94,5.94,0,0,0,1.741-4.193m-9.932,4.2c1.606-.087,2-.108,2.231-.121l-.517,1.25a5.666,5.666,0,0,1-1.714-1.129M8.4,12.683a5.794,5.794,0,0,1-1.129-1.714c.7-.289.363-.148,1.257-.517-.06,1.069-.067,1.176-.128,2.231m9.973-3.992L16.63,10.25c-.175-.329-.578-1.069-.847-1.559.423-.78.39-.719.847-1.559,1.042.927,1.082.961,1.741,1.559M14.7,6.379c-.679-.282-1.263-.524-1.949-.806l1.472-.8Zm.054.161c.753,1.821.558,1.351.887,2.15-.329.8-.134.329-.887,2.15-1.821.753-1.351.558-2.15.887-.8-.329-.329-.134-2.15-.887C9.7,9.02,9.9,9.49,9.567,8.691c.329-.8.134-.329.887-2.15,1.25-.517.988-.41,2.15-.887,1.156.477.894.363,2.15.887M14.7,11l-.477,1.606-1.472-.8c.739-.309,1.257-.524,1.949-.806M9.487,8.536l-.8-1.472,1.606-.477C10,7.28,9.8,7.8,9.487,8.536m.806,2.251L8.687,10.31l.8-1.472c.3.732.517,1.25.806,1.949m.692-6.015,1.472.8c-1.149.477-.753.309-1.949.806.585-1.976.4-1.331.477-1.606m0,7.829c-.074-.255-.007-.013-.477-1.606,1.2.5.753.309,1.949.806-.9.491-.571.309-1.472.8m5.537-2.292-1.606.477c.282-.679.524-1.263.806-1.949.276.517.484.894.8,1.472m-.8-1.774c-.114-.276-.638-1.539-.806-1.949l1.606.477c-.484.887-.5.921-.8,1.472m.833-1.593-1.7-.5-.5-1.7,2.332-.128c-.06,1.149-.06,1.055-.128,2.332M9.419,8.691,8.573,10.25,6.832,8.691,8.573,7.132Zm.934,2.251c.39,1.317.114.4.5,1.7l-2.332.128.128-2.332Zm2.251.927,1.559.847L12.6,14.457l-1.559-1.741Zm2.251-.927,1.7-.5c.067,1.257.067,1.21.128,2.332l-2.332-.128Zm1.828-4.019L16.8,4.686A5.794,5.794,0,0,1,17.934,6.4Zm-2.52-2.265c-.827.45-.746.4-1.559.847-2.527-1.371-1.1-.6-1.559-.847.524-.591.934-1.042,1.559-1.741.753.84.316.356,1.559,1.741m-3.306.081-.5,1.7-1.7.5L8.526,4.612c.82.04,1.445.074,2.332.128M8.519,6.923c-.894-.37-.558-.228-1.257-.517A5.752,5.752,0,0,1,8.391,4.692c.067,1.062.074,1.163.128,2.231m2.446,5.9c.652.732,1.223,1.364,1.492,1.667a5.779,5.779,0,0,1-2.016-.417Zm5.719-2.372,1.257.517a5.839,5.839,0,0,1-1.129,1.714Zm1.3.4c-.464-.195-.786-.323-1.257-.517L18.4,8.839a5.559,5.559,0,0,1-.41,2.009m-1.25-3.8c.47-.195.786-.329,1.257-.517a5.869,5.869,0,0,1,.417,2.016c-.511-.457-1.176-1.048-1.673-1.5M14.365,4.6c.087-.208.316-.759.517-1.257A5.839,5.839,0,0,1,16.6,4.477Zm.4-1.3c-.195.464-.323.786-.517,1.257L12.753,2.891a5.7,5.7,0,0,1,2.009.41m-3.8,1.257-.517-1.25a5.9,5.9,0,0,1,2.016-.417Zm-.645-1.2.517,1.25c-.558-.034-1.66-.094-2.238-.121a5.913,5.913,0,0,1,1.72-1.129m-3.1,3.172,1.257.517c-.773.692-.867.773-1.667,1.492a5.7,5.7,0,0,1,.41-2.009m1.257,3.8-1.257.517a5.71,5.71,0,0,1-.41-2.016c.692.625.86.773,1.667,1.5m5.773,2.493.517,1.25a5.869,5.869,0,0,1-2.016.417c1.344-1.5,1.069-1.189,1.5-1.667m.638,1.2-.517-1.25c.47.027,1.532.081,2.238.121a5.871,5.871,0,0,1-1.72,1.129" transform="translate(-2.188 -0.902)" fill="#09090a"/>
    <path id="Path_1938" data-name="Path 1938" d="M35.34,2.86a5.86,5.86,0,1,1-5.86,5.86,5.86,5.86,0,0,1,5.86-5.86" transform="translate(-9.669 -0.938)" fill="#fff"/>
    <path id="Path_1939" data-name="Path 1939" d="M41.229,8.691a5.936,5.936,0,1,0-1.741,4.193,5.94,5.94,0,0,0,1.741-4.193m-9.926,4.2c1.606-.087,2-.108,2.231-.121l-.517,1.25A5.666,5.666,0,0,1,31.3,12.891m-.208-.208a5.794,5.794,0,0,1-1.129-1.714c.7-.289.363-.148,1.257-.517-.067,1.069-.067,1.176-.128,2.231m9.973-3.992L39.327,10.25c-.175-.329-.578-1.069-.847-1.559.423-.78.39-.719.847-1.559,1.042.927,1.075.961,1.741,1.559M37.4,6.379c-.679-.282-1.263-.524-1.949-.806l1.472-.8Zm.054.161c.753,1.821.558,1.351.887,2.15-.329.8-.134.329-.887,2.15-1.821.753-1.351.558-2.15.887-.8-.329-.329-.134-2.15-.887-.753-1.821-.558-1.351-.887-2.15.329-.8.134-.329.887-2.15,1.25-.517.988-.41,2.15-.887,1.156.477.894.363,2.15.887M37.4,11l-.477,1.606-1.472-.8c.739-.309,1.257-.524,1.949-.806M32.183,8.536l-.8-1.472,1.606-.477c-.289.692-.5,1.21-.806,1.949m.806,2.251-1.606-.477.8-1.472c.3.732.517,1.25.806,1.949m.685-6.015,1.472.8c-1.149.477-.753.309-1.949.806.591-1.976.4-1.331.477-1.606m0,7.829c-.074-.255-.007-.013-.477-1.606,1.2.5.753.309,1.949.806-.894.491-.564.309-1.472.8m5.537-2.292-1.606.477c.282-.679.524-1.263.806-1.949.282.517.491.894.8,1.472M38.42,8.536c-.114-.276-.638-1.539-.806-1.949l1.606.477c-.484.887-.5.921-.8,1.472m.833-1.593-1.7-.5-.5-1.7,2.332-.128c-.067,1.149-.06,1.055-.128,2.332M32.116,8.691l-.847,1.559L29.529,8.691l1.741-1.559Zm.934,2.251c.39,1.317.114.4.5,1.7l-2.332.128.128-2.332Zm2.251.927,1.559.847L35.3,14.457l-1.559-1.741Zm2.251-.927,1.7-.5c.067,1.257.067,1.21.128,2.332l-2.332-.128Zm1.828-4.019L39.5,4.686A5.794,5.794,0,0,1,40.631,6.4Zm-2.52-2.265c-.827.45-.746.4-1.559.847-2.527-1.371-1.1-.6-1.559-.847.524-.591.934-1.042,1.559-1.741.753.84.316.356,1.559,1.741m-3.306.081-.5,1.7-1.7.5-.128-2.332c.82.04,1.445.074,2.332.128M31.216,6.923c-.894-.37-.558-.228-1.257-.517a5.752,5.752,0,0,1,1.129-1.714c.067,1.062.067,1.163.128,2.231m2.439,5.9c.652.732,1.223,1.364,1.492,1.667a5.779,5.779,0,0,1-2.016-.417Zm5.726-2.372,1.257.517a5.839,5.839,0,0,1-1.129,1.714Zm1.3.4c-.464-.195-.786-.323-1.257-.517l1.667-1.492a5.559,5.559,0,0,1-.41,2.009m-1.25-3.8c.47-.195.786-.329,1.257-.517a5.869,5.869,0,0,1,.417,2.016c-.511-.457-1.176-1.048-1.673-1.5M37.062,4.6c.087-.208.316-.759.517-1.257a5.839,5.839,0,0,1,1.714,1.129Zm.4-1.3c-.195.464-.323.786-.517,1.257L35.449,2.891a5.7,5.7,0,0,1,2.009.41m-3.8,1.257-.517-1.25a5.9,5.9,0,0,1,2.016-.417Zm-.638-1.2.517,1.25c-.558-.034-1.66-.094-2.238-.121a5.913,5.913,0,0,1,1.72-1.129m-3.1,3.172,1.257.517c-.773.692-.867.773-1.667,1.492a5.7,5.7,0,0,1,.41-2.009m1.257,3.8-1.257.517a5.71,5.71,0,0,1-.41-2.016c.692.625.86.773,1.667,1.5m5.773,2.493.517,1.25a5.869,5.869,0,0,1-2.016.417c1.344-1.5,1.069-1.189,1.5-1.667m.638,1.2-.517-1.25c.47.027,1.532.081,2.238.121a5.871,5.871,0,0,1-1.72,1.129" transform="translate(-9.63 -0.902)" fill="#09090a"/>
    <path id="Path_1940" data-name="Path 1940" d="M58.04,2.86a5.86,5.86,0,1,1-5.86,5.86,5.86,5.86,0,0,1,5.86-5.86" transform="translate(-17.114 -0.938)" fill="#fff"/>
    <path id="Path_1941" data-name="Path 1941" d="M63.929,8.691a5.936,5.936,0,1,0-1.741,4.193,5.94,5.94,0,0,0,1.741-4.193M54,12.891c1.606-.087,2-.108,2.231-.121l-.517,1.25A5.584,5.584,0,0,1,54,12.891m-.208-.208a5.794,5.794,0,0,1-1.129-1.714c.7-.289.363-.148,1.257-.517-.067,1.069-.067,1.176-.128,2.231m9.973-3.992L62.027,10.25c-.175-.329-.578-1.069-.847-1.559.423-.78.39-.719.847-1.559,1.042.927,1.075.961,1.741,1.559M60.1,6.379c-.679-.282-1.263-.524-1.949-.806l1.472-.8Zm.047.161c.753,1.821.558,1.351.887,2.15-.329.8-.134.329-.887,2.15-1.821.753-1.351.558-2.15.887-.8-.329-.329-.134-2.15-.887-.753-1.821-.558-1.351-.887-2.15.329-.8.134-.329.887-2.15,1.25-.517.988-.41,2.15-.887,1.156.477.894.363,2.15.887M60.1,11l-.477,1.606-1.472-.8c.739-.309,1.257-.524,1.949-.806M54.883,8.536l-.8-1.472,1.606-.477c-.289.692-.5,1.21-.806,1.949m.806,2.251-1.606-.477.8-1.472c.3.732.517,1.25.806,1.949m.685-6.015,1.472.8c-1.149.477-.753.309-1.949.806.591-1.976.4-1.331.477-1.606m0,7.829c-.074-.255-.007-.013-.477-1.606,1.2.5.753.309,1.949.806-.894.491-.571.309-1.472.8m5.537-2.292-1.606.477c.282-.679.524-1.263.806-1.949.282.517.491.894.8,1.472M61.12,8.536c-.114-.276-.638-1.539-.806-1.949l1.606.477c-.484.887-.5.921-.8,1.472m.833-1.593-1.7-.5-.5-1.7,2.332-.128c-.067,1.149-.06,1.055-.128,2.332M54.816,8.691l-.847,1.559L52.229,8.691l1.741-1.559Zm.934,2.251c.39,1.317.114.4.5,1.7l-2.332.128.128-2.332ZM58,11.869l1.559.847L58,14.457l-1.559-1.741Zm2.251-.927,1.7-.5c.067,1.257.067,1.21.128,2.332l-2.332-.128Zm1.828-4.019L62.2,4.686A5.794,5.794,0,0,1,63.331,6.4Zm-2.52-2.265c-.827.45-.746.4-1.559.847-2.527-1.371-1.1-.6-1.559-.847.524-.591.934-1.042,1.559-1.741.753.84.316.356,1.559,1.741m-3.306.081-.5,1.7-1.7.5-.128-2.332c.82.04,1.445.074,2.332.128M53.916,6.923c-.894-.37-.558-.228-1.257-.517a5.752,5.752,0,0,1,1.129-1.714c.067,1.062.067,1.163.128,2.231m2.439,5.9c.652.732,1.223,1.364,1.492,1.667a5.779,5.779,0,0,1-2.016-.417Zm5.726-2.372,1.257.517a5.839,5.839,0,0,1-1.129,1.714Zm1.3.4c-.464-.195-.786-.323-1.257-.517l1.667-1.492a5.7,5.7,0,0,1-.41,2.009m-1.25-3.8c.47-.195.786-.329,1.257-.517a5.869,5.869,0,0,1,.417,2.016c-.517-.457-1.176-1.048-1.673-1.5M59.762,4.6c.087-.208.316-.759.517-1.257a5.839,5.839,0,0,1,1.714,1.129Zm.4-1.3c-.195.464-.323.786-.517,1.257L58.149,2.891a5.7,5.7,0,0,1,2.009.41m-3.8,1.257-.517-1.25a5.9,5.9,0,0,1,2.016-.417Zm-.638-1.2.517,1.25c-.558-.034-1.66-.094-2.238-.121a5.825,5.825,0,0,1,1.72-1.129m-3.1,3.172,1.257.517C53.1,7.736,53,7.817,52.2,8.536a5.7,5.7,0,0,1,.41-2.009m1.257,3.8-1.257.517a5.71,5.71,0,0,1-.41-2.016c.692.625.86.773,1.667,1.5m5.773,2.493.517,1.25a5.869,5.869,0,0,1-2.016.417c1.344-1.5,1.069-1.189,1.5-1.667m.638,1.2-.517-1.25c.47.027,1.532.081,2.238.121a5.871,5.871,0,0,1-1.72,1.129" transform="translate(-17.076 -0.902)" fill="#09090a"/>
    <path id="Path_1942" data-name="Path 1942" d="M80.74,2.86a5.86,5.86,0,1,1-5.86,5.86,5.86,5.86,0,0,1,5.86-5.86" transform="translate(-24.559 -0.938)" fill="#fff"/>
    <path id="Path_1943" data-name="Path 1943" d="M86.629,8.691a5.936,5.936,0,1,0-1.741,4.193,5.94,5.94,0,0,0,1.741-4.193m-9.926,4.2c1.606-.087,2-.108,2.231-.121l-.517,1.25A5.584,5.584,0,0,1,76.7,12.891m-.208-.208a5.794,5.794,0,0,1-1.129-1.714c.7-.289.363-.148,1.257-.517-.067,1.069-.074,1.176-.128,2.231m9.973-3.992L84.727,10.25c-.175-.329-.578-1.069-.847-1.559.423-.78.39-.719.847-1.559,1.042.927,1.075.961,1.741,1.559M82.8,6.379c-.679-.282-1.263-.524-1.949-.806l1.472-.8Zm.047.161c.753,1.821.558,1.351.887,2.15-.329.8-.134.329-.887,2.15-1.821.753-1.351.558-2.15.887-.8-.329-.329-.134-2.15-.887-.753-1.821-.558-1.351-.887-2.15.329-.8.134-.329.887-2.15,1.25-.517.988-.41,2.15-.887,1.156.477.894.363,2.15.887M82.8,11l-.477,1.6-1.472-.8c.739-.3,1.257-.517,1.949-.8M77.583,8.536l-.8-1.472,1.606-.477c-.289.692-.5,1.21-.806,1.949m.806,2.251-1.606-.477.8-1.472c.3.732.517,1.25.806,1.949m.685-6.015,1.472.8c-1.149.477-.753.309-1.949.806.585-1.976.4-1.331.477-1.606m0,7.829C79,12.347,79.068,12.588,78.6,11c1.2.5.753.309,1.949.806-.894.491-.571.309-1.472.8m5.537-2.292-1.606.477c.282-.679.524-1.263.806-1.949.282.517.491.894.8,1.472m-.8-1.774C83.7,8.261,83.174,7,83.006,6.587l1.606.477c-.477.887-.5.921-.8,1.472m.833-1.593-1.7-.5-.5-1.7,2.332-.128c-.06,1.149-.054,1.055-.128,2.332m-7.13,1.747-.847,1.559L74.929,8.691l1.741-1.559Zm.934,2.251c.39,1.317.114.4.5,1.7l-2.332.128.128-2.332Zm2.251.927,1.559.847L80.7,14.457l-1.559-1.741Zm2.251-.927,1.7-.5c.067,1.257.067,1.21.128,2.332l-2.332-.128Zm1.828-4.019L84.9,4.686A5.794,5.794,0,0,1,86.031,6.4ZM82.254,4.659c-.827.45-.746.4-1.559.847-2.527-1.371-1.1-.6-1.559-.847.524-.591.934-1.042,1.559-1.741.759.84.323.356,1.559,1.741m-3.306.081-.5,1.7-1.7.5-.128-2.332c.827.04,1.452.074,2.332.128M76.616,6.923c-.894-.37-.558-.228-1.257-.517a5.752,5.752,0,0,1,1.129-1.714c.06,1.062.067,1.163.128,2.231m2.439,5.9c.652.732,1.223,1.364,1.492,1.667a5.779,5.779,0,0,1-2.016-.417Zm5.726-2.372,1.257.517a5.839,5.839,0,0,1-1.129,1.714Zm1.3.4c-.464-.195-.786-.323-1.257-.517l1.667-1.492a5.7,5.7,0,0,1-.41,2.009m-1.257-3.8c.47-.195.786-.329,1.257-.517A5.869,5.869,0,0,1,86.5,8.543c-.511-.457-1.169-1.048-1.673-1.5M82.462,4.6c.087-.208.316-.759.517-1.257a5.839,5.839,0,0,1,1.714,1.129Zm.4-1.3c-.195.464-.323.786-.517,1.257L80.849,2.891a5.7,5.7,0,0,1,2.009.41m-3.8,1.257-.517-1.25a5.9,5.9,0,0,1,2.016-.417Zm-.638-1.2.517,1.25c-.558-.034-1.66-.094-2.238-.121a5.825,5.825,0,0,1,1.72-1.129m-3.1,3.172,1.257.517c-.773.692-.867.773-1.667,1.492a5.7,5.7,0,0,1,.41-2.009m1.257,3.8-1.257.517a5.71,5.71,0,0,1-.41-2.016c.692.625.853.773,1.667,1.5m5.773,2.493.517,1.25a5.869,5.869,0,0,1-2.016.417c1.344-1.5,1.069-1.189,1.5-1.667m.638,1.2-.517-1.25c.47.027,1.532.081,2.238.121a5.96,5.96,0,0,1-1.72,1.129" transform="translate(-24.521 -0.902)" fill="#09090a"/>
  </g>
</svg>