<?xml version="1.0" encoding="utf-8"?>
<!-- Generator: Adobe Illustrator 24.2.3, SVG Export Plug-In . SVG Version: 6.00 Build 0)  -->
<svg version="1.1" id="Layer_1" xmlns="http://www.w3.org/2000/svg" xmlns:xlink="http://www.w3.org/1999/xlink" x="0px" y="0px"
	 viewBox="0 0 45.3 81.48" style="enable-background:new 0 0 45.3 81.48;" xml:space="preserve">
<style type="text/css">
	.st0{fill:#FFFFFF;}
	.st1{fill:#09090A;}
</style>
<g>
	<rect x="0.15" y="0.14" class="st0" width="44.88" height="81.21"/>
	<path class="st1" d="M45.28,0.4c0,0,0-0.04-0.01-0.08c-0.03-0.18-0.16-0.28-0.3-0.31C44.92,0.01,0.37-0.03,0.22,0.05
		C0.15,0.09,0.09,0.14,0.05,0.21c-0.09,0.16-0.05,80.9-0.04,80.94c0.02,0.11,0.08,0.19,0.15,0.24c0.18,0.13,44.77,0.1,44.9,0.03
		C45.39,81.25,45.28,86.88,45.28,0.4z M44.49,80.13c-1.24-1.24-3.58-3.58-4.82-4.82V6.17l4.82-4.82V80.13z M0.79,1.35
		c1.24,1.24,3.58,3.58,4.82,4.82v69.14l-4.82,4.82V1.35z M38.33,6.4c-0.73,0.73-2.1,2.1-2.83,2.83H9.78L6.95,6.4H38.33z
		 M10.01,71.46V10.01h25.27v61.45H10.01z M6.4,74.52V6.96l2.82,2.82v61.91C8.5,72.42,7.12,73.79,6.4,74.52z M6.95,75.08
		c0.73-0.73,2.1-2.1,2.83-2.83h25.73l2.83,2.83H6.95z M36.06,9.78c0.73-0.73,2.1-2.1,2.82-2.82v67.56l-2.82-2.82V9.78z M43.93,0.79
		l-4.82,4.82c-15.99,0-32.33,0-32.95,0C4.93,4.37,2.58,2.03,1.35,0.79H43.93z M6.17,75.86c21.97,0,32.54,0,32.95,0
		c1.24,1.24,3.58,3.58,4.82,4.82H1.35L6.17,75.86z"/>
</g>
</svg>
