<svg xmlns="http://www.w3.org/2000/svg" xmlns:xlink="http://www.w3.org/1999/xlink" width="67" height="21.949" viewBox="0 0 67 21.949">
  <defs>
    <clipPath id="clip-path">
      <rect id="Rectangle_383" data-name="Rectangle 383" width="67" height="21.949" fill="none"/>
    </clipPath>
  </defs>
  <g id="Group_274" data-name="Group 274" clip-path="url(#clip-path)">
    <path id="Path_2128" data-name="Path 2128" d="M6.97.25C8,.25,10.363.31,10.5.324c1.915.2,3.844.316,5.745.625A26.924,26.924,0,0,1,28.566,6.116c1.693,1.3,3.387,2.6,5.1,3.924.947-.739,1.888-1.451,2.8-2.2a34.747,34.747,0,0,1,6.148-4.22A32.672,32.672,0,0,1,54.7.445C55.485.371,59.207.25,60.269.25c.894.034,1.781.1,2.661.087a2.351,2.351,0,0,1,1.713.679,14.375,14.375,0,0,1,1.048,1.075,4.7,4.7,0,0,1,1.2,3.575,5.687,5.687,0,0,1-2.5,4.038,2.524,2.524,0,0,1-1.236.464,18.779,18.779,0,0,1-2.13.034c-2.191-.013-4.374-.155-6.558-.04a23.734,23.734,0,0,0-9.636,2.574,36.5,36.5,0,0,0-8.366,6.343c-.981.934-1.989,1.841-2.99,2.748.04.081-.034.013-.1-.047-1.1-1.115-2.184-2.251-3.319-3.34a33.428,33.428,0,0,0-7.425-5.577A26.066,26.066,0,0,0,10.249,10.04c-1.929-.007-3.85.114-5.779.161a2.434,2.434,0,0,1-1.754-.551A6.018,6.018,0,0,1,.351,6a.9.9,0,0,0-.1-.215V4.806A6.4,6.4,0,0,1,2.441,1.117,2.692,2.692,0,0,1,4.356.337C5.222.351,6.1.284,6.97.25Z" transform="translate(-0.082 -0.082)" fill="none" stroke="#000" stroke-miterlimit="10" stroke-width="0.5"/>
  </g>
</svg>