<svg xmlns="http://www.w3.org/2000/svg" xmlns:xlink="http://www.w3.org/1999/xlink" width="67" height="17.474" viewBox="0 0 67 17.474">
  <defs>
    <clipPath id="clip-path">
      <rect id="Rectangle_381" data-name="Rectangle 381" width="67" height="17.474" fill="none"/>
    </clipPath>
  </defs>
  <g id="Group_272" data-name="Group 272" clip-path="url(#clip-path)">
    <path id="Path_2112" data-name="Path 2112" d="M66.914,5.794a5.232,5.232,0,0,0-5.4-5.04,5.56,5.56,0,0,0-.826.067c-5.315.188-9.233,1.727-15.777,3.669C40.05,5.935,37.846,8.219,30.824,7.568c-8.735-.82-13.3-6.074-21.066-7.055A24.763,24.763,0,0,0,6.553.324a5.745,5.745,0,0,0-.9-.074A5.232,5.232,0,0,0,.25,5.29a5.232,5.232,0,0,0,5.4,5.04c.074,0,.148-.007.222-.013v.114a17.359,17.359,0,0,1,2.8.181c5.046.759,10.993,5.187,18.264,6.417,6.632,1.122,14.2-.5,20.938-3.178a37.376,37.376,0,0,1,14.286-2.977v-.081A5.171,5.171,0,0,0,66.914,5.794Z" transform="translate(-0.082 -0.082)" fill="none" stroke="#000" stroke-miterlimit="10" stroke-width="0.5"/>
    <path id="Path_2113" data-name="Path 2113" d="M11.091,6A3.215,3.215,0,0,0,4.9,4.767a3.263,3.263,0,0,0,0,2.466A3.215,3.215,0,0,0,11.091,6M5.7,8.281c.874-.047,1.089-.06,1.21-.067l-.275.679A3.163,3.163,0,0,1,5.7,8.281m-.108-.114a3.079,3.079,0,0,1-.611-.934c.376-.155.188-.081.679-.282-.034.585-.04.638-.067,1.216M11,6c-.349.316-.591.531-.941.847-.094-.175-.316-.578-.457-.847.228-.423.208-.39.457-.847.564.511.585.524.941.847M9.014,4.747c-.37-.155-.685-.282-1.055-.437l.8-.43Zm.027.087c.41.988.3.732.484,1.169-.181.43-.074.175-.484,1.169-.988.41-.732.3-1.169.484-.43-.188-.175-.081-1.162-.491C6.3,6.178,6.4,6.434,6.226,6c.175-.43.074-.175.484-1.162.679-.282.538-.222,1.169-.484.618.255.477.2,1.162.484M9.014,7.253l-.255.874-.8-.437c.4-.168.679-.282,1.055-.437M6.185,5.916l-.437-.8.874-.255c-.155.376-.275.652-.437,1.055m.437,1.223-.874-.255.437-.8c.161.4.275.672.437,1.055m.37-3.266.8.437c-.625.255-.41.168-1.055.437.316-1.075.215-.726.255-.874m0,4.253c-.04-.134,0-.007-.255-.874.645.269.41.168,1.055.437-.484.262-.309.168-.8.437m3-1.25-.874.255c.155-.37.282-.685.437-1.055.161.282.269.491.437.8m-.43-.961c-.06-.148-.349-.833-.437-1.055.222.067.652.195.874.255-.262.484-.275.5-.437.8m.45-.867-.921-.275-.275-.921,1.263-.067c-.027.625-.027.571-.067,1.263M6.145,6l-.457.847L4.747,6l.941-.847Zm.5,1.223c.208.712.06.215.275.921l-1.263.067.067-1.263Zm1.223.5.847.457-.847.941-.847-.941Zm1.223-.5c.235-.067.685-.2.921-.275.04.679.034.659.067,1.263L8.819,8.14Zm.994-2.177.067-1.216a3.079,3.079,0,0,1,.611.934ZM8.719,3.813c-.45.242-.4.222-.847.457-1.371-.746-.6-.329-.847-.457.289-.316.5-.564.847-.941.41.45.175.188.847.941m-1.794.04-.275.921-.921.275L5.661,3.786c.443.02.786.04,1.263.067M5.661,5.043c-.491-.2-.3-.128-.685-.282a3.3,3.3,0,0,1,.611-.934c.034.578.04.638.074,1.216m1.324,3.2c.356.4.665.739.813.907a3.215,3.215,0,0,1-1.1-.222Zm3.1-1.29.679.282a3.3,3.3,0,0,1-.611.934Zm.706.222c-.255-.108-.423-.175-.679-.282.309-.275.349-.309.907-.813a3.223,3.223,0,0,1-.228,1.1M10.116,5.11c.255-.108.43-.175.679-.282a3.034,3.034,0,0,1,.222,1.1c-.269-.249-.632-.571-.9-.813M8.833,3.786c.047-.114.168-.41.282-.679a3.3,3.3,0,0,1,.934.611Zm.215-.712c-.108.255-.175.423-.282.679-.275-.309-.309-.349-.813-.907a3.223,3.223,0,0,1,1.1.228m-2.063.679L6.7,3.074a3.027,3.027,0,0,1,1.089-.222ZM6.636,3.1l.282.679c-.3-.013-.9-.047-1.21-.067A3.177,3.177,0,0,1,6.636,3.1M4.949,4.828l.679.282c-.417.376-.47.423-.907.813a3.19,3.19,0,0,1,.228-1.1m.679,2.063-.679.282a3.063,3.063,0,0,1-.222-1.1c.376.336.464.417.9.813M8.766,8.241l.282.679a3.034,3.034,0,0,1-1.1.222c.732-.806.578-.638.813-.9m.343.652-.282-.679c.255.013.826.047,1.216.067a3.079,3.079,0,0,1-.934.611" transform="translate(-1.529 -0.91)" fill="#09090a"/>
    <path id="Path_2114" data-name="Path 2114" d="M50.5,16.867a3.217,3.217,0,0,0-6.189-1.236,3.263,3.263,0,0,0,0,2.466,3.215,3.215,0,0,0,6.189-1.23m-5.389,2.285c.874-.047,1.089-.06,1.21-.067l-.282.679a3.132,3.132,0,0,1-.927-.611M45,19.037a3.079,3.079,0,0,1-.611-.934c.376-.155.195-.081.679-.282-.034.585-.034.645-.067,1.216m5.416-2.17c-.349.316-.591.531-.941.847-.094-.175-.316-.578-.457-.847.228-.423.208-.39.457-.847.558.511.578.524.941.847m-2-1.25c-.37-.155-.685-.282-1.055-.437l.8-.43Zm.027.087c.41.988.3.732.484,1.169-.181.43-.074.175-.484,1.169-.988.41-.732.3-1.169.484-.43-.181-.175-.074-1.169-.484-.41-.988-.3-.732-.484-1.169.181-.43.074-.175.484-1.169.679-.282.538-.222,1.169-.484.632.262.491.2,1.169.484m-.027,2.419L48.162,19l-.8-.437c.4-.161.679-.282,1.055-.437m-2.829-1.337-.437-.8.874-.255c-.155.376-.269.659-.437,1.055m.437,1.223-.874-.255.437-.8c.168.4.282.679.437,1.055m.376-3.266.8.437c-.625.255-.41.168-1.055.437.316-1.075.208-.726.255-.874M46.4,19c-.04-.134,0-.007-.255-.874.645.269.41.168,1.055.437-.491.262-.309.168-.8.437m3-1.25L48.532,18c.155-.37.282-.685.437-1.055.155.282.269.491.437.8m-.43-.961c-.06-.148-.349-.833-.437-1.055.222.067.652.195.874.255-.269.484-.275.5-.437.8m.45-.867-.921-.275-.275-.921,1.263-.067c-.034.625-.027.571-.067,1.263m-3.87.947-.457.847-.941-.847.941-.847Zm.5,1.223c.208.712.06.215.276.921l-1.263.067.067-1.263Zm1.223.511.847.457L47.282,20l-.847-.941ZM48.5,18.09c.235-.067.685-.2.921-.275.04.679.034.659.067,1.263l-1.263-.067Zm.994-2.177.067-1.216a3.079,3.079,0,0,1,.611.934Zm-1.371-1.23c-.45.242-.4.222-.847.457-1.371-.746-.6-.329-.847-.457.289-.316.5-.564.847-.941.41.457.175.188.847.941m-1.794.04-.276.921-.921.275-.067-1.263c.443.027.779.04,1.263.067m-1.27,1.189c-.484-.2-.3-.128-.679-.282A3.3,3.3,0,0,1,45,14.7c.034.578.034.638.067,1.216m1.324,3.2c.356.4.665.739.813.907a3.215,3.215,0,0,1-1.1-.222ZM49.5,17.828l.679.282a3.3,3.3,0,0,1-.611.934Zm.706.215c-.255-.108-.423-.175-.679-.282.309-.275.349-.309.907-.813a3.19,3.19,0,0,1-.228,1.1m-.679-2.063c.255-.108.43-.175.679-.282a3.034,3.034,0,0,1,.222,1.1l-.9-.813m-1.29-1.324c.047-.114.168-.41.282-.679a3.3,3.3,0,0,1,.934.611Zm.215-.706c-.108.255-.175.423-.282.679-.275-.309-.309-.349-.813-.907a3.157,3.157,0,0,1,1.1.228m-2.063.679-.282-.679a3.034,3.034,0,0,1,1.1-.222Zm-.343-.652.282.679c-.3-.013-.9-.047-1.21-.067a2.969,2.969,0,0,1,.927-.611M44.359,15.7l.679.282c-.417.376-.47.423-.907.813a3.19,3.19,0,0,1,.228-1.1m.679,2.063-.679.282a3.034,3.034,0,0,1-.222-1.1c.376.343.464.423.9.813m3.131,1.351.282.679a3.034,3.034,0,0,1-1.1.222c.732-.806.585-.638.813-.9m.349.652-.282-.679c.255.013.826.047,1.216.067a3.079,3.079,0,0,1-.934.611" transform="translate(-14.457 -4.476)" fill="#09090a"/>
    <path id="Path_2115" data-name="Path 2115" d="M37.071,15.007a3.217,3.217,0,0,0-6.189-1.236,3.263,3.263,0,0,0,0,2.466,3.215,3.215,0,0,0,6.189-1.23m-5.389,2.285c.874-.047,1.089-.06,1.21-.067l-.282.679a3.177,3.177,0,0,1-.927-.611m-.114-.114a3.079,3.079,0,0,1-.611-.934c.376-.155.195-.081.679-.282-.034.585-.034.638-.067,1.216m5.409-2.17c-.349.316-.591.531-.941.847-.094-.175-.316-.578-.457-.847.228-.423.208-.39.457-.847.564.5.585.524.941.847M34.988,13.75c-.37-.155-.685-.282-1.055-.437l.8-.43Zm.027.094c.41.988.3.732.484,1.169-.181.43-.074.175-.484,1.169-.988.41-.732.3-1.169.484-.43-.181-.175-.074-1.169-.484-.41-.988-.3-.732-.484-1.169.181-.43.074-.175.484-1.169.679-.282.538-.222,1.169-.484.632.255.491.2,1.169.484m-.027,2.419-.255.874-.8-.437c.4-.168.679-.282,1.055-.437m-2.829-1.337-.437-.8.874-.255c-.155.37-.275.652-.437,1.055m.437,1.216-.874-.255.437-.8c.161.4.282.679.437,1.055m.376-3.259.8.437c-.625.255-.41.168-1.055.437.309-1.075.208-.726.255-.874m0,4.247c-.04-.134,0-.007-.255-.874.645.269.41.168,1.055.437-.491.269-.316.175-.8.437m3-1.243-.874.255c.155-.37.282-.685.437-1.055.155.282.262.484.437.8m-.437-.961c-.06-.148-.349-.833-.437-1.055.222.067.652.195.874.255-.262.484-.276.5-.437.8M36,14.059l-.921-.275-.275-.921,1.263-.067c-.034.618-.034.571-.067,1.263m-3.877.947-.457.847-.941-.847.941-.847Zm.511,1.223c.208.712.06.215.275.921l-1.263.067.067-1.263Zm1.223.5.847.457-.847.941-.847-.941Zm1.216-.5c.235-.067.685-.2.921-.275.04.679.034.659.067,1.263l-1.263-.067Zm.994-2.177.067-1.216a3.079,3.079,0,0,1,.611.934Zm-1.371-1.23c-.45.242-.4.222-.847.457-1.371-.746-.6-.329-.847-.457.289-.316.5-.564.847-.941.41.45.175.188.847.941m-1.794.04-.275.921-.921.275L31.634,12.8c.45.02.786.04,1.263.067m-1.263,1.189c-.484-.2-.3-.128-.679-.282a3.3,3.3,0,0,1,.611-.934c.034.578.034.632.067,1.216m1.324,3.2c.356.4.665.739.813.907a3.215,3.215,0,0,1-1.1-.222Zm3.1-1.29.679.282a3.3,3.3,0,0,1-.611.934Zm.706.222c-.255-.108-.423-.175-.679-.282.309-.275.349-.309.907-.813a3.071,3.071,0,0,1-.228,1.1M36.09,14.12c.255-.108.43-.175.679-.282a3.034,3.034,0,0,1,.222,1.1c-.269-.249-.632-.571-.9-.813m-1.283-1.33c.047-.114.168-.41.282-.679a3.3,3.3,0,0,1,.934.611Zm.215-.706c-.108.255-.175.423-.282.679-.276-.309-.309-.349-.813-.907a3.19,3.19,0,0,1,1.1.228m-2.063.679-.282-.679a3.034,3.034,0,0,1,1.1-.222Zm-.349-.652.282.679c-.3-.013-.9-.047-1.21-.067a3.177,3.177,0,0,1,.927-.611m-1.68,1.727.679.282c-.417.376-.47.423-.907.813a3.157,3.157,0,0,1,.228-1.1m.679,2.063-.679.282a3.034,3.034,0,0,1-.222-1.1c.37.336.464.417.9.813m3.131,1.351.282.679a3.034,3.034,0,0,1-1.1.222c.732-.806.578-.638.813-.9m.349.652-.282-.679c.255.013.826.047,1.216.067a3.3,3.3,0,0,1-.934.611" transform="translate(-10.051 -3.866)" fill="#09090a"/>
    <path id="Path_2116" data-name="Path 2116" d="M24.077,9.3a3.22,3.22,0,0,0-6.2-1.23,3.263,3.263,0,0,0,0,2.466,3.22,3.22,0,0,0,6.2-1.236m-5.389,2.285c.874-.047,1.089-.06,1.21-.067l-.282.679a3.268,3.268,0,0,1-.927-.611m-.114-.114a3.079,3.079,0,0,1-.611-.934c.376-.155.195-.081.679-.282-.034.585-.034.638-.067,1.216M23.99,9.3c-.349.316-.591.531-.941.847-.094-.175-.316-.578-.457-.847.228-.423.208-.39.457-.847.558.5.578.524.941.847m-2-1.257c-.37-.155-.685-.282-1.055-.437l.8-.43Zm.027.087c.41.988.3.732.484,1.169-.181.43-.074.175-.484,1.169-.988.41-.732.3-1.169.484-.43-.181-.175-.074-1.169-.484-.41-.988-.3-.732-.484-1.169.181-.43.074-.175.484-1.169.679-.282.538-.222,1.169-.484.632.262.491.2,1.169.484m-.027,2.426-.255.874-.8-.437c.4-.168.679-.282,1.055-.437M19.165,9.216l-.437-.8.874-.255c-.155.37-.269.652-.437,1.055m.437,1.216-.874-.255.437-.8c.168.4.282.679.437,1.055m.376-3.259.8.437c-.625.255-.41.161-1.055.43.316-1.068.208-.719.255-.867m0,4.247c-.04-.134,0-.007-.255-.874.645.269.41.168,1.055.437-.491.269-.309.175-.8.437m3-1.243-.874.255c.155-.37.282-.685.437-1.055.155.282.269.484.437.8m-.43-.961c-.06-.148-.349-.833-.437-1.055.222.067.652.195.874.255-.269.477-.275.5-.437.8M23,8.349l-.921-.275-.275-.921,1.263-.067c-.034.618-.027.571-.067,1.263m-3.87.947-.457.847L17.734,9.3l.941-.847Zm.5,1.223c.208.712.06.215.275.921l-1.263.067.067-1.263Zm1.223.5.847.457-.847.941-.847-.941Zm1.223-.5c.235-.067.685-.2.921-.275.04.679.034.659.067,1.263l-1.263-.067Zm.994-2.177.067-1.216a3.079,3.079,0,0,1,.611.934Zm-1.371-1.23c-.45.242-.4.222-.847.457-1.371-.746-.6-.329-.847-.457.289-.316.5-.564.847-.941.41.45.175.188.847.941m-1.794.04-.275.921-.921.275-.067-1.263c.443.02.779.04,1.263.067m-1.27,1.189c-.484-.2-.3-.128-.679-.282a3.3,3.3,0,0,1,.611-.934c.034.578.034.632.067,1.216m1.324,3.2c.356.4.665.739.813.907a3.215,3.215,0,0,1-1.1-.222Zm3.111-1.29.679.282a3.3,3.3,0,0,1-.611.934Zm.706.215c-.255-.108-.423-.175-.679-.282.309-.275.349-.309.907-.813a3.157,3.157,0,0,1-.228,1.1M23.1,8.4c.255-.108.43-.175.679-.282A3.034,3.034,0,0,1,24,9.216L23.1,8.4m-1.29-1.324c.047-.114.168-.41.282-.679a3.3,3.3,0,0,1,.934.611Zm.215-.706c-.108.255-.175.423-.282.679-.275-.309-.309-.349-.813-.907a3.157,3.157,0,0,1,1.1.228m-2.063.679-.282-.679a3.034,3.034,0,0,1,1.1-.222ZM19.622,6.4l.282.679c-.3-.013-.9-.047-1.21-.067a3.091,3.091,0,0,1,.927-.611m-1.687,1.72.679.282c-.417.376-.47.423-.907.813a3.223,3.223,0,0,1,.228-1.1m.679,2.063-.679.282a3.034,3.034,0,0,1-.222-1.1c.376.343.464.423.9.813m3.131,1.357.282.679a3.034,3.034,0,0,1-1.1.222c.732-.813.585-.645.813-.9m.349.652-.282-.679c.255.013.826.047,1.216.067a3.3,3.3,0,0,1-.934.611" transform="translate(-5.787 -1.993)" fill="#09090a"/>
    <path id="Path_2117" data-name="Path 2117" d="M64,14.177a3.217,3.217,0,0,0-6.189-1.236,3.263,3.263,0,0,0,0,2.466A3.215,3.215,0,0,0,64,14.177m-5.389,2.285c.874-.047,1.089-.06,1.21-.067l-.282.679a3.048,3.048,0,0,1-.927-.611m-.114-.114a3.079,3.079,0,0,1-.611-.934c.376-.155.195-.081.679-.282-.034.585-.034.645-.067,1.216m5.409-2.17c-.349.316-.591.531-.941.847-.094-.175-.316-.578-.457-.847.228-.423.208-.39.457-.847.564.511.585.524.941.847m-1.989-1.25c-.37-.155-.685-.282-1.055-.437l.8-.43Zm.027.087c.41.988.3.732.484,1.169-.181.43-.074.175-.484,1.169-.988.41-.732.3-1.169.484-.43-.181-.175-.074-1.169-.484-.41-.988-.3-.732-.484-1.169.181-.43.074-.175.484-1.169.679-.282.538-.222,1.169-.484.632.262.491.2,1.169.484m-.027,2.419-.255.874-.8-.437c.4-.168.679-.282,1.055-.437M59.089,14.1l-.437-.8.874-.255c-.155.376-.269.652-.437,1.055m.437,1.223-.874-.255.437-.8c.161.4.282.679.437,1.055m.376-3.266.8.437c-.625.255-.41.168-1.055.437.309-1.075.208-.726.255-.874m0,4.253c-.04-.134,0-.007-.255-.874.645.269.41.168,1.055.437-.491.262-.316.168-.8.437m3-1.25-.874.255c.155-.37.282-.685.437-1.055.155.282.269.491.437.8m-.437-.961c-.06-.148-.349-.833-.437-1.055.222.067.652.195.874.255-.262.484-.275.5-.437.8m.457-.867L62,12.954l-.275-.921,1.263-.067c-.034.625-.034.571-.067,1.263m-3.877.947-.457.847-.941-.847.941-.847Zm.511,1.223c.208.712.06.215.275.921l-1.263.067.067-1.263Zm1.223.5.847.457-.847.941-.847-.941ZM62,15.4c.235-.067.685-.2.921-.275.04.679.034.659.067,1.263l-1.263-.067Zm.994-2.177.067-1.216a3.079,3.079,0,0,1,.611.934Zm-1.371-1.23c-.45.242-.4.222-.847.457-1.371-.746-.6-.329-.847-.457.289-.316.5-.564.847-.941.41.45.175.188.847.941m-1.794.04-.276.921-.921.275-.067-1.263c.45.027.786.04,1.263.067m-1.263,1.189c-.484-.2-.3-.128-.679-.282a3.3,3.3,0,0,1,.611-.934c.034.578.034.638.067,1.216m1.324,3.2c.356.4.665.739.813.907a3.215,3.215,0,0,1-1.1-.222Zm3.1-1.283.679.282a3.3,3.3,0,0,1-.611.934Zm.712.215c-.255-.108-.423-.175-.679-.282.309-.275.349-.309.907-.813a3.391,3.391,0,0,1-.228,1.1M63.02,13.29c.255-.108.43-.175.679-.282a3.034,3.034,0,0,1,.222,1.1c-.269-.249-.625-.571-.9-.813m-1.283-1.324c.047-.114.168-.41.282-.679a3.3,3.3,0,0,1,.934.611Zm.215-.712c-.108.255-.175.423-.282.679-.275-.309-.309-.349-.813-.907a3.355,3.355,0,0,1,1.1.228m-2.063.685-.282-.685a3.034,3.034,0,0,1,1.1-.222Zm-.349-.659.282.679c-.3-.013-.9-.047-1.21-.067a3.177,3.177,0,0,1,.927-.611m-1.68,1.727.679.282c-.417.376-.47.423-.907.813a3.189,3.189,0,0,1,.228-1.1m.679,2.063-.679.282a3.034,3.034,0,0,1-.222-1.1c.37.343.464.423.9.813m3.131,1.351.282.679a3.034,3.034,0,0,1-1.1.222c.732-.806.578-.638.813-.9m.349.652-.282-.679c.255.013.826.047,1.216.067a3.163,3.163,0,0,1-.934.611" transform="translate(-18.886 -3.594)" fill="#09090a"/>
    <path id="Path_2118" data-name="Path 2118" d="M76.581,10.047A3.217,3.217,0,0,0,70.392,8.81a3.263,3.263,0,0,0,0,2.466,3.215,3.215,0,0,0,6.189-1.23m-5.389,2.278c.874-.047,1.089-.06,1.21-.067l-.282.679a3.088,3.088,0,0,1-.927-.611m-.108-.114a3.079,3.079,0,0,1-.611-.934c.376-.155.195-.081.679-.282-.034.585-.04.645-.067,1.216m5.409-2.164c-.349.316-.591.531-.941.847-.094-.175-.316-.578-.457-.847.228-.423.208-.39.457-.847.564.5.585.524.941.847M74.5,8.79c-.37-.155-.685-.282-1.055-.437l.8-.43Zm.027.087c.41.988.3.732.484,1.169-.181.43-.074.175-.484,1.169-.988.41-.732.3-1.169.484-.43-.181-.175-.074-1.169-.484-.41-.988-.3-.732-.484-1.169.181-.43.074-.175.484-1.169.679-.282.538-.222,1.169-.484.625.262.484.2,1.169.484M74.5,11.3l-.255.874-.8-.437c.4-.161.679-.275,1.055-.437M71.675,9.959l-.437-.8.874-.255c-.155.376-.275.659-.437,1.055m.437,1.223-.874-.255.437-.8c.161.4.275.679.437,1.055m.37-3.266.8.437c-.625.255-.41.168-1.055.437.316-1.075.215-.726.255-.874m0,4.253c-.04-.134,0-.007-.255-.874.645.269.41.168,1.055.437-.484.269-.309.168-.8.437m3-1.243-.874.255c.155-.37.282-.685.437-1.055.161.282.269.484.437.8m-.43-.968c-.06-.148-.349-.833-.437-1.055.222.067.652.195.874.255-.262.484-.275.5-.437.8m.45-.86-.921-.275L74.309,7.9l1.263-.067c-.027.618-.027.571-.067,1.263m-3.87.947-.457.847-.941-.847.941-.847Zm.5,1.216c.208.712.06.215.275.921l-1.263.067.067-1.263Zm1.223.511.847.457-.847.941-.847-.941Zm1.223-.511c.235-.067.685-.2.921-.275.04.679.034.659.067,1.263l-1.263-.067Zm.994-2.177.067-1.216a3.079,3.079,0,0,1,.611.934Zm-1.371-1.23c-.45.242-.4.222-.847.457-1.371-.746-.6-.329-.847-.457.289-.316.5-.564.847-.941.41.457.175.195.847.941M72.414,7.9l-.275.921-.921.275-.067-1.263c.443.02.786.04,1.263.067M71.151,9.086c-.484-.2-.3-.128-.679-.282a3.3,3.3,0,0,1,.611-.934c.027.585.034.638.067,1.216m1.324,3.2c.356.4.665.739.813.907a3.215,3.215,0,0,1-1.1-.222ZM75.579,11l.679.282a3.3,3.3,0,0,1-.611.934Zm.706.215c-.255-.108-.423-.175-.679-.282.309-.275.349-.309.907-.813a3.19,3.19,0,0,1-.228,1.1m-.679-2.063c.255-.108.43-.175.679-.282a3.034,3.034,0,0,1,.222,1.1c-.269-.249-.632-.571-.9-.813M74.323,7.829c.047-.114.168-.41.282-.679a3.3,3.3,0,0,1,.934.611Zm.215-.706c-.108.255-.175.423-.282.679-.276-.309-.309-.349-.813-.907a3.223,3.223,0,0,1,1.1.228M72.475,7.8l-.282-.679a3.034,3.034,0,0,1,1.1-.222Zm-.349-.652.282.679c-.3-.013-.9-.047-1.21-.067a3.048,3.048,0,0,1,.927-.611m-1.687,1.72.679.282c-.417.376-.47.423-.907.813a3.223,3.223,0,0,1,.228-1.1m.679,2.063-.679.282a3.034,3.034,0,0,1-.222-1.1c.376.343.464.423.9.813m3.138,1.351.282.679a3.034,3.034,0,0,1-1.1.222c.732-.806.578-.638.813-.9m.343.659-.282-.679c.255.013.826.047,1.216.067a3.209,3.209,0,0,1-.934.611" transform="translate(-23.013 -2.239)" fill="#09090a"/>
    <path id="Path_2119" data-name="Path 2119" d="M90.821,6.977A3.217,3.217,0,0,0,84.632,5.74a3.263,3.263,0,0,0,0,2.466,3.215,3.215,0,0,0,6.189-1.23M85.432,9.255c.874-.047,1.089-.06,1.21-.067l-.282.679a3.007,3.007,0,0,1-.927-.611m-.114-.114a3.079,3.079,0,0,1-.611-.934c.376-.155.195-.081.679-.282-.034.585-.034.645-.067,1.216m5.416-2.164c-.349.316-.591.531-.941.847-.094-.175-.316-.578-.457-.847.228-.423.208-.39.457-.847.558.5.578.524.941.847m-2-1.257c-.37-.155-.685-.282-1.055-.437l.8-.43Zm.027.087c.41.988.3.732.484,1.169-.181.43-.074.175-.484,1.169-.988.41-.732.3-1.169.484-.43-.181-.175-.074-1.169-.484-.41-.988-.3-.732-.484-1.169.181-.43.074-.175.484-1.169.679-.282.538-.222,1.169-.484.632.262.491.2,1.169.484m-.027,2.419-.255.874-.8-.437c.4-.161.679-.276,1.055-.437M85.909,6.9l-.437-.8.874-.255c-.155.37-.269.652-.437,1.055m.437,1.216-.874-.255.437-.8c.168.4.282.679.437,1.055m.376-3.266.8.437c-.625.255-.41.168-1.055.437.316-1.075.208-.719.255-.874m0,4.253c-.04-.134,0-.007-.255-.874.645.269.41.168,1.055.437l-.8.437m3-1.243-.874.255c.155-.37.282-.685.437-1.055.155.282.269.484.437.8M89.289,6.9c-.06-.148-.349-.833-.437-1.055.222.067.652.195.874.255-.262.477-.269.5-.437.8m.457-.867-.921-.275-.275-.921,1.263-.067c-.034.618-.034.571-.067,1.263m-3.87.947-.457.847-.941-.847.941-.847Zm.5,1.223c.208.712.06.215.276.921l-1.263.067.067-1.263Zm1.223.5.847.457L87.6,10.1l-.847-.941Zm1.223-.5c.235-.067.685-.2.921-.275.04.679.034.659.067,1.263L88.549,9.12Zm.988-2.184L89.88,4.8a3.079,3.079,0,0,1,.611.934Zm-1.364-1.23c-.45.242-.4.222-.847.457-1.371-.746-.6-.329-.847-.457.289-.316.5-.564.847-.941.41.457.175.195.847.941m-1.794.047-.276.921-.921.275-.067-1.263c.443.02.779.04,1.263.067m-1.27,1.183c-.484-.2-.3-.128-.679-.282a3.3,3.3,0,0,1,.611-.934c.034.585.034.638.067,1.216m1.324,3.2c.356.4.665.739.813.907a3.215,3.215,0,0,1-1.1-.222Zm3.1-1.283.679.282a3.3,3.3,0,0,1-.611.934Zm.712.215c-.255-.108-.423-.175-.679-.282.309-.275.349-.309.907-.813a3.19,3.19,0,0,1-.228,1.1M89.84,6.083c.255-.108.43-.175.679-.282a3.034,3.034,0,0,1,.222,1.1c-.269-.249-.625-.571-.9-.813M88.556,4.759c.047-.114.168-.41.282-.679a3.3,3.3,0,0,1,.934.611Zm.215-.706c-.108.255-.175.423-.282.679-.275-.309-.309-.349-.813-.907a3.19,3.19,0,0,1,1.1.228m-2.063.679-.282-.679a3.034,3.034,0,0,1,1.1-.222Zm-.349-.652.282.679c-.3-.013-.9-.047-1.21-.067a3.132,3.132,0,0,1,.927-.611M84.679,5.8l.679.282c-.417.376-.47.423-.907.813a3.223,3.223,0,0,1,.228-1.1m.679,2.063-.679.282a3.034,3.034,0,0,1-.222-1.1c.37.343.464.423.9.813m3.131,1.351.282.679a3.034,3.034,0,0,1-1.1.222c.732-.806.585-.638.813-.9m.349.659-.282-.679c.255.013.826.047,1.216.067a3.3,3.3,0,0,1-.934.611" transform="translate(-27.684 -1.232)" fill="#09090a"/>
  </g>
</svg>