<svg xmlns="http://www.w3.org/2000/svg" xmlns:xlink="http://www.w3.org/1999/xlink" width="67" height="17.474" viewBox="0 0 67 17.474">
  <defs>
    <clipPath id="clip-path">
      <rect id="Rectangle_387" data-name="Rectangle 387" width="67" height="17.474" fill="none"/>
    </clipPath>
  </defs>
  <g id="Group_278" data-name="Group 278" clip-path="url(#clip-path)">
    <path id="Path_2134" data-name="Path 2134" d="M66.914,5.794a5.232,5.232,0,0,0-5.4-5.04,5.56,5.56,0,0,0-.826.067c-5.315.188-9.233,1.727-15.777,3.669C40.05,5.935,37.846,8.219,30.824,7.568c-8.735-.82-13.3-6.074-21.066-7.055A24.763,24.763,0,0,0,6.553.324a5.745,5.745,0,0,0-.9-.074A5.232,5.232,0,0,0,.25,5.29a5.232,5.232,0,0,0,5.4,5.04c.074,0,.148-.007.222-.013v.114a17.359,17.359,0,0,1,2.8.181c5.046.759,10.993,5.187,18.264,6.417,6.632,1.122,14.2-.5,20.938-3.178a37.376,37.376,0,0,1,14.286-2.977v-.081A5.171,5.171,0,0,0,66.914,5.794Z" transform="translate(-0.082 -0.082)" fill="none" stroke="#000" stroke-miterlimit="10" stroke-width="0.5"/>
  </g>
</svg>