<svg xmlns="http://www.w3.org/2000/svg" width="179.191" height="50" viewBox="0 0 179.191 50">
  <g id="Brown_and_Newirth_logo" data-name="Brown and Newirth logo" transform="translate(0 -0.05)">
    <g id="logo" transform="translate(0 0.05)">
      <path id="Path_26" data-name="Path 26" d="M122.015,82.13H120.91v6.107h3.737V87.212h-2.632Z" transform="translate(-56.363 -38.312)"/>
      <path id="Path_27" data-name="Path 27" d="M133.152,81.97a3.218,3.218,0,0,0-2.333.9,3.039,3.039,0,0,0-.929,2.264,2.98,2.98,0,0,0,.918,2.221,3.188,3.188,0,0,0,2.29.886,3.373,3.373,0,0,0,2.381-.881,2.94,2.94,0,0,0,.95-2.237,2.989,2.989,0,0,0-.94-2.247A3.235,3.235,0,0,0,133.152,81.97Zm.011,5.226a2.115,2.115,0,0,1-1.527-.587,1.968,1.968,0,0,1-.609-1.479,1.991,1.991,0,0,1,.6-1.505,2.144,2.144,0,0,1,1.553-.587,2.09,2.09,0,0,1,1.516.6,1.955,1.955,0,0,1,.614,1.468,2.009,2.009,0,0,1-.614,1.5A2.131,2.131,0,0,1,133.162,87.2Z" transform="translate(-60.549 -38.237)"/>
      <path id="Path_28" data-name="Path 28" d="M149.858,86.443,146.11,82.13h-.87v6.107h1.052V83.961L150,88.237h.918V82.13h-1.062Z" transform="translate(-67.704 -38.312)"/>
      <path id="Path_29" data-name="Path 29" d="M163.392,82.5a4.333,4.333,0,0,0-1.949-.374h-2.1v6.1h1.981a9.081,9.081,0,0,0,1.073-.043,3.147,3.147,0,0,0,.635-.182,2.94,2.94,0,0,0,1.036-.662,3.013,3.013,0,0,0,.673-.982,3.1,3.1,0,0,0-.192-2.755A2.8,2.8,0,0,0,163.392,82.5Zm-2.947.635h.913a6.164,6.164,0,0,1,.849.043,2.258,2.258,0,0,1,.539.176,1.815,1.815,0,0,1,.5.342,1.858,1.858,0,0,1,.593,1.436,1.98,1.98,0,0,1-.977,1.794,2.2,2.2,0,0,1-.545.2,4.27,4.27,0,0,1-.945.08h-.934V83.139Z" transform="translate(-74.277 -38.312)"/>
      <path id="Path_30" data-name="Path 30" d="M175.732,81.97a3.218,3.218,0,0,0-2.333.9,3.039,3.039,0,0,0-.929,2.264,2.98,2.98,0,0,0,.918,2.221,3.192,3.192,0,0,0,2.3.886,3.373,3.373,0,0,0,2.381-.881,2.94,2.94,0,0,0,.95-2.237,2.99,2.99,0,0,0-.94-2.247A3.256,3.256,0,0,0,175.732,81.97Zm.005,5.226a2.094,2.094,0,0,1-1.527-.587,1.949,1.949,0,0,1-.609-1.479,1.991,1.991,0,0,1,.6-1.505,2.144,2.144,0,0,1,1.553-.587,2.091,2.091,0,0,1,1.511.6,1.955,1.955,0,0,1,.614,1.468,2.009,2.009,0,0,1-.614,1.5A2.123,2.123,0,0,1,175.737,87.2Z" transform="translate(-80.398 -38.237)"/>
      <path id="Path_31" data-name="Path 31" d="M192.438,86.443,188.69,82.13h-.87v6.107h1.052V83.961l3.71,4.276h.913V82.13h-1.057Z" transform="translate(-87.553 -38.312)"/>
      <path id="Path_32" data-name="Path 32" d="M7.223,40.214a4.065,4.065,0,0,0,1.564-.982,2.572,2.572,0,0,0,.667-1.778,2.468,2.468,0,0,0-1.02-2.082,4.431,4.431,0,0,0-2.68-.742c-.3,0-.961.027-1.975.08-.448.021-.934.032-1.441.032L.753,34.715c-.432,0-.454.3-.454.358,0,.1.043.326.422.379.448.069.625.182.694.267a2.2,2.2,0,0,1,.262,1A19.718,19.718,0,0,1,1.783,39c0,.3-.011.747-.032,1.319s-.037,1.34-.037,2.285a15.926,15.926,0,0,1-.1,2.119,1.858,1.858,0,0,1-.256.854.686.686,0,0,1-.432.23,5.351,5.351,0,0,0-.71.149A.334.334,0,0,0,0,46.273c0,.112.048.363.523.363h0c.619-.032,1.836-.053,3.609-.053.032,0,.214.011.545.027.539.032.929.043,1.18.043a4.18,4.18,0,0,0,3.08-1.062A3.213,3.213,0,0,0,10,43.278a2.694,2.694,0,0,0-.865-2.007A5.133,5.133,0,0,0,7.223,40.214Zm-.678-.769a4.909,4.909,0,0,1-2.552.577c-.149,0-.23-.011-.251-.011H3.737a.681.681,0,0,1-.021-.192L3.7,38.532c0-.753.027-1.74.075-2.941a4.642,4.642,0,0,1,1.276-.214,2.7,2.7,0,0,1,1.724.55,2.38,2.38,0,0,1-.235,3.518ZM3.662,45.6A7.815,7.815,0,0,1,3.6,44.09l.059-2.7a2.126,2.126,0,0,1,.059-.566,4.852,4.852,0,0,1,3.4.566A2.288,2.288,0,0,1,7.874,43.3a2.744,2.744,0,0,1-.406,1.521,2.112,2.112,0,0,1-.865.833,3.1,3.1,0,0,1-1.265.214,5.875,5.875,0,0,1-1.313-.107C3.71,45.681,3.662,45.6,3.662,45.6Z" transform="translate(0 -16.17)"/>
      <path id="Path_33" data-name="Path 33" d="M30.9,45.9a1.718,1.718,0,0,1-1.228-.512,4.13,4.13,0,0,1-.758-2,4.057,4.057,0,0,0-.742-1.852,3.955,3.955,0,0,0-1.281-.934,8.941,8.941,0,0,0,1.249-.491,2.637,2.637,0,0,0,.993-.966,2.781,2.781,0,0,0-.614-3.625,4.981,4.981,0,0,0-3.23-.865l-5.146.112c-.47,0-.566.187-.566.342,0,.069.027.3.352.347a1.933,1.933,0,0,1,.977.3,1.358,1.358,0,0,1,.267.785,25.57,25.57,0,0,1,.091,2.712l-.011,2.707.016,1.772a5.108,5.108,0,0,1-.139,1.457,1.1,1.1,0,0,1-.336.529,1.3,1.3,0,0,1-.8.16c-.448,0-.5.246-.5.352,0,.139.075.374.577.374h4.308c.507,0,.582-.235.582-.374s-.064-.336-.507-.352a1.015,1.015,0,0,1-1.206-1.094c-.037-.427-.059-1.393-.059-2.872,0-.331.011-.651.032-.966a5.522,5.522,0,0,1,.838-.069,2.952,2.952,0,0,1,1.639.352,2.025,2.025,0,0,1,.742,1.014,13.09,13.09,0,0,1,.48,2.269c.187,1.19.475,1.8.908,1.938a14.819,14.819,0,0,0,3.016.171c.438,0,.47-.272.47-.352S31.293,45.925,30.9,45.9ZM23.274,35.536c1.634-.336,2.877-.176,3.475.491a2.277,2.277,0,0,1,.6,1.58,2.16,2.16,0,0,1-.539,1.479A2.5,2.5,0,0,1,25.5,39.9a11.833,11.833,0,0,1-2.274.224c-.027-.358-.043-.673-.043-.945C23.178,38.28,23.21,37.052,23.274,35.536Z" transform="translate(-9.09 -16.179)"/>
      <path id="Path_34" data-name="Path 34" d="M46.2,34.57a5.685,5.685,0,0,0-3.2.945,6.258,6.258,0,0,0-2.151,2.4,6.013,6.013,0,0,0-.737,2.669,6.133,6.133,0,0,0,1.644,4.431,5.471,5.471,0,0,0,4.073,1.7,5.744,5.744,0,0,0,4.335-1.933,6.245,6.245,0,0,0,1.794-4.351,5.887,5.887,0,0,0-1.623-4.068A5.379,5.379,0,0,0,46.2,34.57Zm-.16,11.291a3.148,3.148,0,0,1-1.874-.635,3.755,3.755,0,0,1-1.292-2.061,10.239,10.239,0,0,1-.427-2.856,6.975,6.975,0,0,1,.379-2.141,4.923,4.923,0,0,1,1.2-1.97,2.66,2.66,0,0,1,1.986-.8,2.955,2.955,0,0,1,2.578,1.516,6.477,6.477,0,0,1,1.02,3.625,7.045,7.045,0,0,1-1,3.758A2.905,2.905,0,0,1,46.041,45.861Z" transform="translate(-18.697 -16.142)"/>
      <path id="Path_35" data-name="Path 35" d="M78.573,35.212c-.069-.011-.256-.021-1.11-.021H75.348a1.6,1.6,0,0,0-.518.043.329.329,0,0,0-.208.32c0,.08.032.347.443.363.625.011.9.278.9.865a2.513,2.513,0,0,1-.053.5,13.058,13.058,0,0,1-.459,1.431l-.94,2.648c-.288.827-.587,1.639-.892,2.424-1.692-3.95-2.552-6.331-2.552-7.084,0-.256.08-.614.785-.726.2-.032.609-.107.609-.4a.332.332,0,0,0-.219-.342,1.542,1.542,0,0,0-.491-.043H68.024c-.272,0-.833,0-.833.374,0,.219.182.347.534.379a1.563,1.563,0,0,1,.7.235,5.237,5.237,0,0,1,.827,1.74c-.133.475-.486,1.57-1.03,3.171-.438,1.287-.763,2.226-.972,2.8-.422-.94-.961-2.21-1.618-3.785-.758-1.836-1.174-2.872-1.239-3.075a1.659,1.659,0,0,1-.085-.443c0-.272.1-.641.929-.683.422-.016.454-.278.454-.363,0-.363-.534-.363-.731-.363h-3.8c-.3,0-.859,0-.859.363,0,.117.059.32.448.358a1.235,1.235,0,0,1,.512.214,2.7,2.7,0,0,1,.683.742,33.183,33.183,0,0,1,1.7,3.523c.87,1.965,1.495,3.411,1.863,4.3s.7,1.644.972,2.242l.053.117h.534l2.669-7.789c.71,1.8,1.276,3.2,1.676,4.164.438,1.052.9,2.226,1.367,3.491l.048.133h.512l.053-.123c.23-.523.667-1.724,1.345-3.668a67.52,67.52,0,0,1,2.418-6.411,1.6,1.6,0,0,1,1.329-.94c.288-.011.39-.187.39-.342A.341.341,0,0,0,78.573,35.212Z" transform="translate(-28.114 -16.426)"/>
      <path id="Path_36" data-name="Path 36" d="M109.141,35.393c0-.085-.032-.352-.47-.352l-1.367-.005c-.5,0-1.121.011-1.852.037-1.142.043-1.2.069-1.26.1a.336.336,0,0,0-.182.3c0,.128.069.347.55.347a1.638,1.638,0,0,1,1.116.384,1.444,1.444,0,0,1,.512.95c.053.416.075,1.26.075,2.5,0,1.415-.021,2.616-.064,3.582L101.058,37.3c-.849-.977-1.457-1.708-1.8-2.173l-.059-.08-2.659-.016c-.48,0-.582.2-.582.368,0,.139.08.31.47.358a1.573,1.573,0,0,1,1.046.7,3.873,3.873,0,0,1,.635,1.116A16.587,16.587,0,0,1,98.25,40.7l.069,3.048a3.454,3.454,0,0,1-.315,1.9,1.553,1.553,0,0,1-1.265.4c-.454,0-.486.288-.486.374,0,.107.048.347.5.347l4.185.011c.47,0,.523-.251.523-.358,0-.411-.582-.411-.774-.411a1.131,1.131,0,0,1-.689-.235,1.647,1.647,0,0,1-.475-.47,6.345,6.345,0,0,1-.267-1.714c-.091-1.009-.139-2.381-.139-4.084L99.1,38.2a14.845,14.845,0,0,0,1.505,1.746q.336.36,1.628,1.933c.39.486.94,1.126,1.628,1.911s1.265,1.452,1.735,2.013c.731.87.79.9.843.929a.446.446,0,0,0,.214.059c.139,0,.374-.069.374-.545l.085-4.6c0-2.578.027-4.111.075-4.554a1.387,1.387,0,0,1,.4-.913,2.03,2.03,0,0,1,1.153-.406C109.1,35.708,109.141,35.484,109.141,35.393Z" transform="translate(-44.732 -16.356)"/>
      <path id="Path_37" data-name="Path 37" d="M167.245,27.292c-.262,0-.384.3-.432.411-.625,1.489-2,2.21-4.185,2.21a3.368,3.368,0,0,1-1.58-.267,1.041,1.041,0,0,1-.534-.667,12.46,12.46,0,0,1-.123-2.28c0-.806.005-1.425.021-1.852a3.974,3.974,0,0,1,2.226.411,2.128,2.128,0,0,1,.694,1.361c.069.32.251.368.358.368s.358-.048.358-.507c-.027-.63-.043-1.345-.043-2.125a13.331,13.331,0,0,1,.069-1.4l.037-.368c0-.432-.3-.454-.363-.454-.1,0-.267.043-.363.32a2.549,2.549,0,0,1-.779,1.308,2.768,2.768,0,0,1-1.479.294c-.139,0-.379-.005-.721-.021-.005-.069-.005-.123-.005-.171,0-2.029.027-3.288.085-3.748a1.965,1.965,0,0,0,.021-.24.831.831,0,0,1,.011-.144,11.6,11.6,0,0,1,1.868-.123,5.913,5.913,0,0,1,1.831.2,3.463,3.463,0,0,1,1.041.678,7.255,7.255,0,0,1,1.142,1.463.383.383,0,0,0,.272.128.309.309,0,0,0,.267-.165l.037-.059-.011-.069a25.089,25.089,0,0,0-.5-2.755l-.032-.128-.128-.021c-.032-.005-.069-.011-2.5-.011s-3.988-.016-4.612-.043l-1.788-.1c-.454,0-.507.251-.507.358s.048.3.374.384a2.4,2.4,0,0,1,.9.352.6.6,0,0,1,.208.294c.011.059.048.32.1,1.564.037.929.059,1.57.059,1.9l-.027,1.676.011,1.783a5.667,5.667,0,0,1-.278,2.4c-.165.278-.534.416-1.1.416-.454,0-.486.288-.486.374a.326.326,0,0,0,.123.251c.069.059.107.091,1.351.1.774.005,1.676.027,2.68.069.427.016.8.032,1.142.043-2.947,4.159-5.605,7.057-11.189,7.057-4.015,0-6.577-2.146-9.225-4.783.678-.662,2.376-2.344,2.376-2.344l.059-.059,4.015.011c.47,0,.523-.251.523-.358,0-.411-.582-.411-.774-.411a1.131,1.131,0,0,1-.689-.235,1.581,1.581,0,0,1-.475-.47,6.344,6.344,0,0,1-.267-1.714c-.091-1.009-.139-2.381-.139-4.084l-.016-1.308a15.828,15.828,0,0,0,1.505,1.746c.224.24.769.892,1.628,1.933.4.486.94,1.132,1.628,1.911s1.265,1.452,1.735,2.013c.726.87.79.9.843.929a.446.446,0,0,0,.214.059c.139,0,.374-.069.374-.545l.085-4.6c0-2.578.027-4.111.075-4.554a1.413,1.413,0,0,1,.4-.918,2.03,2.03,0,0,1,1.153-.406c.374-.037.416-.267.416-.358s-.032-.352-.47-.352l-1.367-.005c-.5,0-1.116.011-1.852.037-1.142.043-1.2.069-1.26.1a.342.342,0,0,0-.182.3c0,.128.069.347.55.347a1.638,1.638,0,0,1,1.116.384,1.444,1.444,0,0,1,.512.95c.048.416.075,1.26.075,2.5,0,1.409-.021,2.611-.064,3.582L148.122,21.1c-.854-.982-1.457-1.714-1.8-2.173l-.059-.08-2.659-.016c-.48,0-.582.2-.582.368,0,.139.08.31.47.358a1.573,1.573,0,0,1,1.046.7,3.873,3.873,0,0,1,.635,1.116,16.586,16.586,0,0,1,.139,3.134l.069,3.048a3.454,3.454,0,0,1-.315,1.9,1.553,1.553,0,0,1-1.265.4.5.5,0,0,0-.39.133h-.005l-.133.1c-.091.064-1.954,1.463-2.659,2.034a25.237,25.237,0,0,1-7.17-16.6c.614-.342,1.372-.726,2.242-1.169,4.362-2.2,10.949-5.536,10.949-9.753A4.409,4.409,0,0,0,141.882.05c-7.009,0-12.711,9.518-12.818,15.85-5.28,2.312-10.554,7.436-10.554,13.795,0,5.782,4.3,9.823,10.463,9.823a14.166,14.166,0,0,0,9.417-3.78,18.69,18.69,0,0,0,10.864,3.833h0c.416,0,.827-.021,1.223-.059,5.5-.55,8.851-3.908,12.129-8.8.192.005.368.005.518.005l3.8.011.037-.149c.2-.769.3-1.217.331-1.372.165-.876.224-1.142.246-1.206a.857.857,0,0,0,.053-.294C167.581,27.4,167.4,27.292,167.245,27.292ZM140.937,1.411c1.527,0,2.3.94,2.3,2.8,0,5.093-4.789,7.719-9.807,9.93A17.653,17.653,0,0,1,134.9,6.958C136.6,3.125,139.154,1.411,140.937,1.411ZM130.025,37.248c-4.474,0-7.154-4.431-7.154-8.718,0-4.159,1.911-9.193,6.171-11.28A24.421,24.421,0,0,0,137.3,34.873,11.61,11.61,0,0,1,130.025,37.248Z" transform="translate(-55.244 -0.05)"/>
      <path id="Path_38" data-name="Path 38" d="M227.392,35.417c-.069-.011-.256-.021-1.11-.021h-2.114a1.528,1.528,0,0,0-.512.043.318.318,0,0,0-.208.32c0,.059.021.347.443.363.625.011.9.278.9.865a2.514,2.514,0,0,1-.053.5,12.376,12.376,0,0,1-.459,1.431l-.94,2.648c-.3.843-.6,1.66-.892,2.424-1.692-3.95-2.552-6.331-2.552-7.084,0-.256.08-.614.785-.726.2-.032.609-.107.609-.4a.332.332,0,0,0-.219-.342,1.542,1.542,0,0,0-.491-.043h-3.732c-.272,0-.833,0-.833.374,0,.219.182.347.534.379a1.586,1.586,0,0,1,.7.235c.075.053.3.331.827,1.746-.133.48-.486,1.57-1.03,3.171-.438,1.287-.763,2.226-.972,2.8-.427-.956-.972-2.226-1.612-3.785-.758-1.842-1.174-2.877-1.239-3.075a1.658,1.658,0,0,1-.085-.443c0-.272.1-.641.929-.683.422-.011.454-.278.454-.363,0-.363-.534-.363-.731-.363H210c-.3,0-.859,0-.859.363,0,.117.059.326.448.358a1.264,1.264,0,0,1,.512.214,2.659,2.659,0,0,1,.683.747,32.088,32.088,0,0,1,1.7,3.523c.838,1.9,1.484,3.385,1.863,4.3s.7,1.65.972,2.242l.053.117h.534l2.669-7.789c.737,1.868,1.287,3.235,1.676,4.164.448,1.078.908,2.253,1.367,3.491l.048.133h.512l.053-.123c.224-.523.678-1.756,1.345-3.668a67.858,67.858,0,0,1,2.418-6.411,1.6,1.6,0,0,1,1.329-.94c.288-.011.39-.187.39-.342A.35.35,0,0,0,227.392,35.417Z" transform="translate(-97.492 -16.524)"/>
      <path id="Path_39" data-name="Path 39" d="M249.868,35.7c.368-.053.406-.272.406-.363,0-.171-.112-.374-.635-.374l-2.424.032-1.591-.032a.347.347,0,0,0-.384.358c0,.1.037.331.416.4a1,1,0,0,1,.747.379,4.961,4.961,0,0,1,.251,1.954c.032,1.121.048,2.594.048,4.388a18.932,18.932,0,0,1-.133,3.283c-.027.091-.1.379-.758.39-.326,0-.443.2-.443.384,0,.085.037.374.507.374h0l1.836-.027,2.162.016a.356.356,0,0,0,.4-.358c0-.075-.027-.32-.39-.363a1.55,1.55,0,0,1-.8-.251.824.824,0,0,1-.267-.438,14.174,14.174,0,0,1-.149-1.975c-.048-1.121-.069-2.141-.069-3.027a17.726,17.726,0,0,1,.224-4.169C248.95,35.964,249.3,35.771,249.868,35.7Z" transform="translate(-114.32 -16.323)"/>
      <path id="Path_40" data-name="Path 40" d="M268.333,46.088a1.718,1.718,0,0,1-1.228-.512,4.077,4.077,0,0,1-.758-2,3.236,3.236,0,0,0-2.029-2.787,8.942,8.942,0,0,0,1.249-.491,2.637,2.637,0,0,0,.993-.966,2.781,2.781,0,0,0-.614-3.625,4.95,4.95,0,0,0-3.23-.865l-5.146.112c-.47,0-.566.187-.566.342,0,.069.027.3.352.347a1.933,1.933,0,0,1,.977.3,1.357,1.357,0,0,1,.267.785,25.5,25.5,0,0,1,.091,2.712l-.011,2.707.016,1.772a5.38,5.38,0,0,1-.133,1.457,1.072,1.072,0,0,1-.342.529,1.344,1.344,0,0,1-.8.16c-.448,0-.5.246-.5.352,0,.139.075.368.577.368h4.308c.507,0,.582-.235.582-.368s-.064-.342-.507-.352a1.015,1.015,0,0,1-1.206-1.094c-.037-.427-.059-1.393-.059-2.872,0-.331.011-.657.032-.966a5.469,5.469,0,0,1,.838-.069,2.952,2.952,0,0,1,1.639.352,2.025,2.025,0,0,1,.742,1.014,13.507,13.507,0,0,1,.486,2.269c.187,1.19.475,1.8.908,1.938a14.819,14.819,0,0,0,3.016.171c.438,0,.47-.272.47-.352S268.728,46.12,268.333,46.088Zm-7.618-10.357c1.634-.336,2.877-.176,3.475.491a2.277,2.277,0,0,1,.6,1.58,2.16,2.16,0,0,1-.539,1.479,2.5,2.5,0,0,1-1.319.817,11.9,11.9,0,0,1-2.28.224c-.027-.358-.043-.678-.043-.945C260.614,38.47,260.646,37.274,260.715,35.732Z" transform="translate(-119.769 -16.268)"/>
      <path id="Path_41" data-name="Path 41" d="M289.3,36.545a10.44,10.44,0,0,0-.144-1.329l-.027-.165h-.171c-.833,0-1.495.021-1.975.069-.513.043-1.644.059-3.363.059-1.676,0-2.936-.021-3.748-.069-.758-.048-1.377-.069-1.831-.069-.075,0-.256.005-.534.011l-.165.005-.027.165a22.881,22.881,0,0,0-.342,2.824l-.005.085.059.059a.4.4,0,0,0,.31.144.422.422,0,0,0,.427-.374,2.949,2.949,0,0,1,.924-1.3,3.76,3.76,0,0,1,2.589-.731c.16,0,.416.011.769.027.112,1.682.171,3.411.171,5.136,0,2.087-.021,3.369-.064,3.8a1.3,1.3,0,0,1-1.4,1.26c-.5,0-.609.2-.609.368a.361.361,0,0,0,.411.363h5.354c.486,0,.539-.262.539-.374,0-.16-.1-.347-.555-.347-.886,0-1.377-.278-1.516-.849a47.6,47.6,0,0,1-.235-6.54c0-1.041.032-1.981.091-2.8a17.718,17.718,0,0,1,2.21.133,2.37,2.37,0,0,1,1,.427,3.852,3.852,0,0,1,.892,1.009,3.2,3.2,0,0,0,.363.529.451.451,0,0,0,.326.133.371.371,0,0,0,.379-.411c0-.064-.005-.117-.011-.182C289.371,37.41,289.339,37.047,289.3,36.545Z" transform="translate(-129.111 -16.361)"/>
      <path id="Path_42" data-name="Path 42" d="M311.722,39.255a16.541,16.541,0,0,1,.187-2.589.761.761,0,0,1,.379-.523,2.067,2.067,0,0,1,.934-.171.333.333,0,0,0,.368-.342c0-.085-.032-.358-.459-.358l-2.141.043-2.546-.085c-.438,0-.459.3-.459.368,0,.176.112.384.635.384a.979.979,0,0,1,.9.406,4.09,4.09,0,0,1,.288,1.981l-.075,2.231c-2.333.075-4.105.1-5.4.005-.016-.966-.021-1.537-.021-1.708a10.815,10.815,0,0,1,.139-2.7c.032-.037.192-.171.918-.246.374-.043.406-.288.406-.358a.316.316,0,0,0-.219-.331,2.159,2.159,0,0,0-.507-.027h0l-3.5.053c-.5,0-.577.24-.577.379s.1.315.368.342c.459.032.737.2.844.512a10.952,10.952,0,0,1,.2,2.749c0,1.826-.037,3.39-.107,4.655-.1,1.714-.283,2.029-.342,2.087a1.4,1.4,0,0,1-.838.315c-.4.053-.443.288-.443.384,0,.16.107.336.4.336a1.459,1.459,0,0,0,.2-.016,13,13,0,0,1,1.933-.075c.977,0,1.623.016,1.917.048a1.181,1.181,0,0,0,.2.021.35.35,0,0,0,.39-.358c0-.192-.155-.326-.459-.39a1.463,1.463,0,0,1-.662-.288.728.728,0,0,1-.262-.406,11.175,11.175,0,0,1-.048-1.447c0-.683.021-1.543.064-2.568.667-.069,2.034-.1,4.073-.1.443,0,.886.011,1.319.037l-.043,2.968a4.845,4.845,0,0,1-.139,1.265.815.815,0,0,1-.262.427,1.834,1.834,0,0,1-.806.149c-.379.016-.411.262-.411.342,0,.107.048.358.512.358l1.74-.059,2.691.069c.416,0,.438-.283.438-.342,0-.112-.059-.315-.459-.363a2.341,2.341,0,0,1-.721-.2,1.037,1.037,0,0,1-.486-.4,2.554,2.554,0,0,1-.16-1.19l.027-2.141C311.647,41.759,311.674,40.729,311.722,39.255Z" transform="translate(-140.149 -16.449)"/>
    </g>
    <g id="logo-2" data-name="logo" transform="translate(174.226 13.674)">
      <path id="Path_43" data-name="Path 43" d="M328.848,25.57a2.482,2.482,0,0,1,2.477,2.482,2.486,2.486,0,0,1-4.634,1.239,2.407,2.407,0,0,1-.331-1.239,2.446,2.446,0,0,1,.331-1.239,2.507,2.507,0,0,1,.908-.908A2.412,2.412,0,0,1,328.848,25.57Zm0,.411a2.087,2.087,0,1,0,1.447.614A1.914,1.914,0,0,0,328.848,25.981Zm-.561,3.4h-.432V26.712h.924a2.32,2.32,0,0,1,.694.075.7.7,0,0,1,.235,1.158.852.852,0,0,1-.55.235.792.792,0,0,1,.283.208,2.955,2.955,0,0,1,.336.47l.32.518h-.523l-.235-.416a2.658,2.658,0,0,0-.4-.582.563.563,0,0,0-.4-.133h-.256Zm0-2.3v.8h.523a.957.957,0,0,0,.491-.1.339.339,0,0,0,.155-.31.329.329,0,0,0-.149-.31,1.127,1.127,0,0,0-.529-.091h-.491Z" transform="translate(-326.36 -25.57)"/>
    </g>
  </g>
</svg>